<svg xmlns="http://www.w3.org/2000/svg" viewBox="0 0 512 512" width="512" height="512"><path fill="#000" d="M119,132h11v1h-11zM116,133h17v1h-17zM114,134h21v1h-21zM113,135h23v1h-23zM111,136h27v1h-27zM110,137h29v1h-29zM109,138h31v1h-31zM108,139h33v1h-33zM107,140h34v1h-34zM106,141h36v1h-36zM105,142h38v1h-38zM104,143h39v1h-39zM103,144h40v1h-40zM102,145h42v1h-42zM101,146h43v1h-43zM100,147h44v1h-44zM99,148h46v1h-46zM98,149h47v1h-47zM97,150h48v1h-48zM96,151h49v1h-49zM95,152h50v1h-50zM94,153h51v1h-51zM93,154h52v1h-52zM92,155h53v1h-53zM91,156h53v1h-53zM90,157h54v1h-54zM89,158h55v1h-55zM88,159h55v1h-55zM87,160h56v1h-56zM86,161h56v1h-56zM85,162h57v1h-57zM84,163h57v1h-57zM83,164h58v1h-58zM82,165h58v1h-58zM81,166h58v1h-58zM80,167h58v1h-58zM79,168h58v1h-58zM78,169h58v1h-58zM77,170h58v1h-58zM76,171h58v1h-58zM75,172h58v1h-58zM74,173h58v1h-58zM73,174h58v1h-58zM72,175h58v1h-58zM71,176h58v1h-58zM70,177h58v1h-58zM69,178h58v1h-58zM68,179h58v1h-58zM67,180h58v1h-58zM66,181h58v1h-58zM65,182h58v1h-58zM64,183h58v1h-58zM63,184h58v1h-58zM62,185h58v1h-58zM61,186h58v1h-58zM60,187h58v1h-58zM59,188h58v1h-58zM58,189h58v1h-58zM57,190h58v1h-58zM56,191h58v1h-58zM55,192h58v1h-58zM54,193h58v1h-58zM53,194h58v1h-58zM52,195h58v1h-58zM51,196h58v1h-58zM50,197h58v1h-58zM49,198h58v1h-58zM48,199h58v1h-58zM47,200h58v1h-58zM46,201h58v1h-58zM45,202h58v1h-58zM44,203h58v1h-58zM43,204h58v1h-58zM42,205h58v1h-58zM41,206h58v1h-58zM40,207h58v1h-58zM39,208h58v1h-58zM38,209h58v1h-58zM37,210h58v1h-58zM36,211h58v1h-58zM35,212h58v1h-58zM34,213h58v1h-58zM33,214h58v1h-58zM32,215h58v1h-58zM31,216h58v1h-58zM30,217h58v1h-58zM29,218h58v1h-58zM28,219h58v1h-58zM27,220h58v1h-58zM26,221h58v1h-58zM25,222h58v1h-58zM24,223h58v1h-58zM23,224h58v1h-58zM22,225h58v1h-58zM21,226h58v1h-58zM20,227h58v1h-58zM19,228h58v1h-58zM18,229h58v1h-58zM17,230h57v1h-57zM16,231h57v1h-57zM15,232h58v1h-58zM14,233h59v1h-59zM13,234h60v1h-60zM12,235h61v1h-61zM11,236h487v1h-487zM10,237h490v1h-490zM9,238h493v1h-493zM8,239h496v1h-496zM7,240h498v1h-498zM6,241h500v1h-500zM5,242h502v1h-502zM4,243h504v1h-504zM3,244h506v1h-506zM3,245h506v1h-506zM0,246h512v1h-512zM0,247h512v1h-512zM0,248h512v1h-512zM0,249h512v1h-512zM0,250h512v1h-512zM0,251h512v1h-512zM0,252h512v1h-512zM0,253h512v1h-512zM0,254h512v1h-512zM0,255h512v1h-512zM0,256h512v1h-512zM0,257h512v1h-512zM0,258h512v1h-512zM0,259h512v1h-512zM0,260h512v1h-512zM0,261h512v1h-512zM0,262h512v1h-512zM0,263h512v1h-512zM0,264h512v1h-512zM0,265h512v1h-512zM3,266h506v1h-506zM3,267h506v1h-506zM4,268h504v1h-504zM5,269h502v1h-502zM6,270h500v1h-500zM7,271h498v1h-498zM8,272h496v1h-496zM9,273h493v1h-493zM10,274h490v1h-490zM11,275h487v1h-487zM12,276h61v1h-61zM13,277h60v1h-60zM14,278h59v1h-59zM15,279h58v1h-58zM16,280h57v1h-57zM17,281h58v1h-58zM18,282h58v1h-58zM19,283h58v1h-58zM20,284h58v1h-58zM21,285h58v1h-58zM22,286h58v1h-58zM23,287h58v1h-58zM24,288h58v1h-58zM25,289h58v1h-58zM26,290h58v1h-58zM27,291h58v1h-58zM28,292h58v1h-58zM29,293h58v1h-58zM30,294h58v1h-58zM31,295h58v1h-58zM32,296h58v1h-58zM33,297h58v1h-58zM34,298h58v1h-58zM35,299h58v1h-58zM36,300h58v1h-58zM37,301h58v1h-58zM38,302h58v1h-58zM39,303h58v1h-58zM40,304h58v1h-58zM41,305h58v1h-58zM42,306h58v1h-58zM43,307h58v1h-58zM44,308h58v1h-58zM45,309h58v1h-58zM46,310h58v1h-58zM47,311h58v1h-58zM48,312h58v1h-58zM49,313h58v1h-58zM50,314h58v1h-58zM51,315h58v1h-58zM52,316h58v1h-58zM53,317h58v1h-58zM54,318h58v1h-58zM55,319h58v1h-58zM56,320h58v1h-58zM57,321h58v1h-58zM58,322h58v1h-58zM59,323h58v1h-58zM60,324h58v1h-58zM61,325h58v1h-58zM62,326h58v1h-58zM63,327h58v1h-58zM64,328h58v1h-58zM65,329h58v1h-58zM66,330h58v1h-58zM67,331h58v1h-58zM68,332h58v1h-58zM69,333h58v1h-58zM70,334h58v1h-58zM71,335h58v1h-58zM72,336h58v1h-58zM73,337h58v1h-58zM74,338h58v1h-58zM75,339h58v1h-58zM76,340h58v1h-58zM77,341h58v1h-58zM78,342h58v1h-58zM79,343h58v1h-58zM80,344h58v1h-58zM81,345h58v1h-58zM82,346h58v1h-58zM83,347h58v1h-58zM84,348h57v1h-57zM85,349h57v1h-57zM86,350h57v1h-57zM87,351h56v1h-56zM88,352h55v1h-55zM89,353h55v1h-55zM90,354h54v1h-54zM91,355h53v1h-53zM92,356h53v1h-53zM93,357h52v1h-52zM94,358h51v1h-51zM95,359h50v1h-50zM96,360h49v1h-49zM97,361h48v1h-48zM98,362h47v1h-47zM99,363h46v1h-46zM100,364h44v1h-44zM101,365h43v1h-43zM102,366h42v1h-42zM103,367h40v1h-40zM104,368h39v1h-39zM105,369h37v1h-37zM106,370h36v1h-36zM107,371h34v1h-34zM108,372h33v1h-33zM109,373h31v1h-31zM110,374h29v1h-29zM111,375h27v1h-27zM113,376h23v1h-23zM114,377h21v1h-21zM116,378h17v1h-17zM119,379h11v1h-11z"/></svg>