<?xml version="1.0" encoding="UTF-8"?>
<svg xmlns="http://www.w3.org/2000/svg" viewBox="0 0 512 512" width="512" height="512"><path fill="#000" d="M157,94h10v1h-10zM154,95h15v1h-15zM152,96h19v1h-19zM151,97h22v1h-22zM150,98h24v1h-24zM148,99h27v1h-27zM147,100h29v1h-29zM146,101h31v1h-31zM145,102h32v1h-32zM144,103h34v1h-34zM143,104h35v1h-35zM142,105h37v1h-37zM141,106h38v1h-38zM140,107h39v1h-39zM139,108h41v1h-41zM138,109h42v1h-42zM137,110h43v1h-43zM136,111h44v1h-44zM135,112h45v1h-45zM134,113h46v1h-46zM133,114h47v1h-47zM132,115h48v1h-48zM131,116h48v1h-48zM130,117h49v1h-49zM129,118h50v1h-50zM128,119h50v1h-50zM127,120h51v1h-51zM126,121h51v1h-51zM125,122h52v1h-52zM124,123h52v1h-52zM123,124h52v1h-52zM122,125h52v1h-52zM121,126h52v1h-52zM120,127h52v1h-52zM119,128h52v1h-52zM118,129h52v1h-52zM117,130h52v1h-52zM116,131h52v1h-52zM115,132h52v1h-52zM114,133h52v1h-52zM113,134h52v1h-52zM112,135h52v1h-52zM111,136h52v1h-52zM110,137h52v1h-52zM109,138h52v1h-52zM108,139h52v1h-52zM107,140h52v1h-52zM106,141h52v1h-52zM105,142h52v1h-52zM104,143h52v1h-52zM103,144h52v1h-52zM102,145h52v1h-52zM101,146h52v1h-52zM100,147h52v1h-52zM99,148h52v1h-52zM98,149h52v1h-52zM97,150h52v1h-52zM96,151h52v1h-52zM95,152h52v1h-52zM94,153h52v1h-52zM93,154h52v1h-52zM92,155h52v1h-52zM91,156h52v1h-52zM90,157h52v1h-52zM89,158h52v1h-52zM88,159h52v1h-52zM87,160h52v1h-52zM86,161h52v1h-52zM85,162h52v1h-52zM84,163h52v1h-52zM83,164h52v1h-52zM82,165h52v1h-52zM81,166h52v1h-52zM80,167h52v1h-52zM79,168h52v1h-52zM78,169h52v1h-52zM77,170h52v1h-52zM77,171h51v1h-51zM76,172h51v1h-51zM75,173h51v1h-51zM74,174h51v1h-51zM73,175h51v1h-51zM72,176h51v1h-51zM71,177h51v1h-51zM70,178h51v1h-51zM69,179h51v1h-51zM68,180h51v1h-51zM67,181h51v1h-51zM66,182h51v1h-51zM65,183h51v1h-51zM64,184h51v1h-51zM63,185h51v1h-51zM62,186h51v1h-51zM61,187h51v1h-51zM60,188h51v1h-51zM59,189h51v1h-51zM58,190h51v1h-51zM57,191h51v1h-51zM56,192h51v1h-51zM55,193h51v1h-51zM54,194h51v1h-51zM53,195h51v1h-51zM52,196h51v1h-51zM51,197h51v1h-51zM50,198h51v1h-51zM49,199h51v1h-51zM48,200h51v1h-51zM47,201h51v1h-51zM46,202h51v1h-51zM45,203h51v1h-51zM44,204h51v1h-51zM43,205h51v1h-51zM42,206h51v1h-51zM41,207h51v1h-51zM40,208h51v1h-51zM39,209h51v1h-51zM38,210h51v1h-51zM37,211h51v1h-51zM36,212h51v1h-51zM35,213h51v1h-51zM34,214h51v1h-51zM33,215h51v1h-51zM32,216h51v1h-51zM31,217h51v1h-51zM30,218h51v1h-51zM29,219h51v1h-51zM28,220h51v1h-51zM27,221h51v1h-51zM26,222h51v1h-51zM25,223h51v1h-51zM24,224h51v1h-51zM23,225h51v1h-51zM22,226h51v1h-51zM21,227h51v1h-51zM20,228h51v1h-51zM19,229h51v1h-51zM18,230h51v1h-51zM17,231h51v1h-51zM16,232h51v1h-51zM15,233h51v1h-51zM14,234h52v1h-52zM13,235h53v1h-53zM12,236h54v1h-54zM11,237h55v1h-55zM10,238h489v1h-489zM9,239h493v1h-493zM8,240h496v1h-496zM7,241h498v1h-498zM6,242h500v1h-500zM5,243h502v1h-502zM4,244h504v1h-504zM3,245h506v1h-506zM0,246h512v1h-512zM0,247h512v1h-512zM0,248h512v1h-512zM0,249h512v1h-512zM0,250h512v1h-512zM0,251h512v1h-512zM0,252h512v1h-512zM0,253h512v1h-512zM0,254h512v1h-512zM0,255h512v1h-512zM0,256h512v1h-512zM0,257h512v1h-512zM0,258h512v1h-512zM0,259h512v1h-512zM0,260h512v1h-512zM0,261h512v1h-512zM0,262h512v1h-512zM0,263h512v1h-512zM0,264h512v1h-512zM0,265h512v1h-512zM3,266h506v1h-506zM4,267h504v1h-504zM5,268h502v1h-502zM6,269h500v1h-500zM7,270h498v1h-498zM8,271h496v1h-496zM9,272h493v1h-493zM10,273h489v1h-489zM11,274h55v1h-55zM12,275h54v1h-54zM13,276h53v1h-53zM14,277h52v1h-52zM15,278h51v1h-51zM16,279h51v1h-51zM17,280h51v1h-51zM18,281h51v1h-51zM19,282h51v1h-51zM20,283h51v1h-51zM21,284h51v1h-51zM22,285h51v1h-51zM23,286h51v1h-51zM24,287h51v1h-51zM25,288h51v1h-51zM26,289h51v1h-51zM27,290h51v1h-51zM28,291h51v1h-51zM29,292h51v1h-51zM30,293h51v1h-51zM31,294h51v1h-51zM32,295h51v1h-51zM33,296h51v1h-51zM34,297h51v1h-51zM35,298h51v1h-51zM36,299h51v1h-51zM37,300h51v1h-51zM38,301h51v1h-51zM39,302h51v1h-51zM40,303h51v1h-51zM41,304h51v1h-51zM42,305h51v1h-51zM43,306h51v1h-51zM44,307h51v1h-51zM45,308h51v1h-51zM46,309h51v1h-51zM47,310h51v1h-51zM48,311h51v1h-51zM49,312h51v1h-51zM50,313h51v1h-51zM51,314h51v1h-51zM52,315h51v1h-51zM53,316h51v1h-51zM54,317h51v1h-51zM55,318h51v1h-51zM56,319h51v1h-51zM57,320h51v1h-51zM58,321h51v1h-51zM59,322h51v1h-51zM60,323h51v1h-51zM61,324h51v1h-51zM62,325h51v1h-51zM63,326h51v1h-51zM64,327h51v1h-51zM65,328h51v1h-51zM66,329h51v1h-51zM67,330h51v1h-51zM68,331h51v1h-51zM69,332h51v1h-51zM70,333h51v1h-51zM71,334h51v1h-51zM72,335h51v1h-51zM73,336h51v1h-51zM74,337h51v1h-51zM75,338h51v1h-51zM76,339h51v1h-51zM76,340h52v1h-52zM77,341h52v1h-52zM78,342h52v1h-52zM79,343h52v1h-52zM80,344h52v1h-52zM81,345h52v1h-52zM82,346h52v1h-52zM83,347h52v1h-52zM84,348h52v1h-52zM85,349h52v1h-52zM86,350h52v1h-52zM87,351h52v1h-52zM88,352h52v1h-52zM89,353h52v1h-52zM90,354h52v1h-52zM91,355h52v1h-52zM92,356h52v1h-52zM93,357h52v1h-52zM94,358h52v1h-52zM95,359h52v1h-52zM96,360h52v1h-52zM97,361h52v1h-52zM98,362h52v1h-52zM99,363h52v1h-52zM100,364h52v1h-52zM101,365h52v1h-52zM102,366h52v1h-52zM103,367h52v1h-52zM104,368h52v1h-52zM105,369h52v1h-52zM106,370h52v1h-52zM107,371h52v1h-52zM108,372h52v1h-52zM109,373h52v1h-52zM110,374h52v1h-52zM111,375h52v1h-52zM112,376h52v1h-52zM113,377h52v1h-52zM114,378h52v1h-52zM115,379h52v1h-52zM116,380h52v1h-52zM117,381h52v1h-52zM118,382h52v1h-52zM119,383h52v1h-52zM120,384h52v1h-52zM121,385h52v1h-52zM122,386h52v1h-52zM123,387h52v1h-52zM124,388h52v1h-52zM125,389h52v1h-52zM126,390h51v1h-51zM127,391h51v1h-51zM128,392h51v1h-51zM129,393h50v1h-50zM130,394h49v1h-49zM131,395h49v1h-49zM132,396h48v1h-48zM133,397h47v1h-47zM134,398h46v1h-46zM135,399h45v1h-45zM136,400h44v1h-44zM137,401h43v1h-43zM138,402h42v1h-42zM139,403h41v1h-41zM140,404h40v1h-40zM141,405h38v1h-38zM142,406h37v1h-37zM143,407h35v1h-35zM144,408h34v1h-34zM145,409h32v1h-32zM146,410h31v1h-31zM147,411h29v1h-29zM148,412h27v1h-27zM150,413h24v1h-24zM151,414h22v1h-22zM152,415h19v1h-19zM154,416h15v1h-15zM157,417h10v1h-10z"/></svg>