<svg xmlns="http://www.w3.org/2000/svg" viewBox="0 0 512 512" width="512" height="512"><path fill="#000" d="M247,12h12v1h-12zM244,13h18v1h-18zM242,14h22v1h-22zM241,15h25v1h-25zM239,16h28v1h-28zM238,17h31v1h-31zM237,18h33v1h-33zM235,19h36v1h-36zM234,20h39v1h-39zM232,21h42v1h-42zM231,22h44v1h-44zM230,23h47v1h-47zM228,24h50v1h-50zM227,25h52v1h-52zM226,26h55v1h-55zM225,27h57v1h-57zM223,28h61v1h-61zM222,29h63v1h-63zM221,30h65v1h-65zM219,31h69v1h-69zM218,32h71v1h-71zM216,33h74v1h-74zM215,34h77v1h-77zM214,35h79v1h-79zM212,36h82v1h-82zM211,37h85v1h-85zM209,38h88v1h-88zM208,39h90v1h-90zM207,40h93v1h-93zM206,41h95v1h-95zM204,42h99v1h-99zM203,43h101v1h-101zM202,44h103v1h-103zM200,45h106v1h-106zM199,46h109v1h-109zM198,47h111v1h-111zM197,48h114v1h-114zM195,49h117v1h-117zM194,50h119v1h-119zM192,51h60v1h-60zM258,51h57v1h-57zM191,52h58v1h-58zM261,52h55v1h-55zM190,53h57v1h-57zM263,53h55v1h-55zM188,54h57v1h-57zM265,54h54v1h-54zM187,55h57v1h-57zM266,55h54v1h-54zM186,56h57v1h-57zM267,56h55v1h-55zM184,57h57v1h-57zM269,57h54v1h-54zM183,58h56v1h-56zM270,58h54v1h-54zM182,59h56v1h-56zM272,59h54v1h-54zM180,60h57v1h-57zM273,60h54v1h-54zM179,61h56v1h-56zM274,61h54v1h-54zM177,62h57v1h-57zM276,62h54v1h-54zM176,63h57v1h-57zM277,63h54v1h-54zM175,64h56v1h-56zM279,64h53v1h-53zM174,65h56v1h-56zM280,65h54v1h-54zM172,66h57v1h-57zM281,66h54v1h-54zM171,67h56v1h-56zM283,67h54v1h-54zM169,68h57v1h-57zM284,68h54v1h-54zM168,69h57v1h-57zM285,69h54v1h-54zM167,70h57v1h-57zM287,70h54v1h-54zM165,71h57v1h-57zM288,71h54v1h-54zM164,72h57v1h-57zM289,72h54v1h-54zM162,73h57v1h-57zM291,73h54v1h-54zM161,74h57v1h-57zM292,74h54v1h-54zM160,75h57v1h-57zM294,75h54v1h-54zM159,76h57v1h-57zM295,76h54v1h-54zM158,77h56v1h-56zM296,77h54v1h-54zM156,78h57v1h-57zM298,78h54v1h-54zM155,79h56v1h-56zM299,79h54v1h-54zM153,80h57v1h-57zM301,80h53v1h-53zM152,81h56v1h-56zM302,81h54v1h-54zM151,82h56v1h-56zM303,82h54v1h-54zM149,83h57v1h-57zM305,83h54v1h-54zM148,84h57v1h-57zM306,84h54v1h-54zM146,85h57v1h-57zM307,85h54v1h-54zM145,86h57v1h-57zM309,86h54v1h-54zM144,87h57v1h-57zM310,87h54v1h-54zM143,88h56v1h-56zM312,88h53v1h-53zM141,89h57v1h-57zM313,89h54v1h-54zM140,90h56v1h-56zM314,90h54v1h-54zM139,91h56v1h-56zM255,91h4v1h-4zM316,91h53v1h-53zM137,92h56v1h-56zM247,92h15v1h-15zM317,92h54v1h-54zM136,93h56v1h-56zM245,93h19v1h-19zM319,93h53v1h-53zM135,94h56v1h-56zM244,94h22v1h-22zM320,94h53v1h-53zM133,95h57v1h-57zM242,95h26v1h-26zM321,95h54v1h-54zM132,96h56v1h-56zM241,96h28v1h-28zM323,96h53v1h-53zM131,97h56v1h-56zM240,97h30v1h-30zM324,97h53v1h-53zM129,98h56v1h-56zM239,98h32v1h-32zM326,98h53v1h-53zM128,99h56v1h-56zM238,99h34v1h-34zM327,99h53v1h-53zM126,100h57v1h-57zM236,100h38v1h-38zM328,100h54v1h-54zM125,101h57v1h-57zM235,101h40v1h-40zM330,101h53v1h-53zM124,102h56v1h-56zM234,102h43v1h-43zM331,102h53v1h-53zM122,103h57v1h-57zM232,103h46v1h-46zM332,103h54v1h-54zM121,104h56v1h-56zM231,104h49v1h-49zM334,104h53v1h-53zM120,105h56v1h-56zM229,105h52v1h-52zM335,105h53v1h-53zM118,106h57v1h-57zM228,106h54v1h-54zM337,106h53v1h-53zM117,107h56v1h-56zM227,107h57v1h-57zM338,107h53v1h-53zM116,108h56v1h-56zM226,108h59v1h-59zM339,108h53v1h-53zM115,109h56v1h-56zM224,109h62v1h-62zM341,109h53v1h-53zM113,110h56v1h-56zM223,110h65v1h-65zM342,110h53v1h-53zM112,111h56v1h-56zM222,111h67v1h-67zM344,111h53v1h-53zM110,112h57v1h-57zM220,112h71v1h-71zM345,112h53v1h-53zM109,113h56v1h-56zM219,113h73v1h-73zM346,113h53v1h-53zM108,114h56v1h-56zM217,114h77v1h-77zM348,114h53v1h-53zM106,115h56v1h-56zM216,115h79v1h-79zM349,115h53v1h-53zM105,116h56v1h-56zM215,116h81v1h-81zM350,116h53v1h-53zM103,117h57v1h-57zM213,117h85v1h-85zM352,117h53v1h-53zM102,118h56v1h-56zM212,118h87v1h-87zM353,118h53v1h-53zM101,119h56v1h-56zM211,119h89v1h-89zM354,119h54v1h-54zM99,120h57v1h-57zM209,120h93v1h-93zM356,120h53v1h-53zM98,121h56v1h-56zM208,121h95v1h-95zM357,121h53v1h-53zM97,122h56v1h-56zM207,122h98v1h-98zM359,122h53v1h-53zM96,123h56v1h-56zM205,123h101v1h-101zM360,123h53v1h-53zM94,124h56v1h-56zM204,124h103v1h-103zM362,124h52v1h-52zM93,125h56v1h-56zM203,125h106v1h-106zM363,125h53v1h-53zM91,126h57v1h-57zM201,126h109v1h-109zM364,126h53v1h-53zM90,127h56v1h-56zM200,127h112v1h-112zM366,127h52v1h-52zM89,128h56v1h-56zM199,128h114v1h-114zM367,128h53v1h-53zM88,129h56v1h-56zM197,129h54v1h-54zM257,129h57v1h-57zM369,129h52v1h-52zM86,130h56v1h-56zM196,130h54v1h-54zM258,130h58v1h-58zM370,130h53v1h-53zM85,131h56v1h-56zM195,131h53v1h-53zM259,131h58v1h-58zM371,131h53v1h-53zM83,132h57v1h-57zM193,132h54v1h-54zM261,132h58v1h-58zM373,132h52v1h-52zM82,133h56v1h-56zM192,133h54v1h-54zM262,133h58v1h-58zM374,133h53v1h-53zM81,134h56v1h-56zM191,134h53v1h-53zM263,134h59v1h-59zM375,134h53v1h-53zM79,135h57v1h-57zM189,135h54v1h-54zM265,135h58v1h-58zM377,135h53v1h-53zM78,136h56v1h-56zM188,136h53v1h-53zM266,136h58v1h-58zM378,136h53v1h-53zM76,137h57v1h-57zM187,137h53v1h-53zM267,137h59v1h-59zM380,137h52v1h-52zM75,138h57v1h-57zM185,138h54v1h-54zM269,138h58v1h-58zM381,138h53v1h-53zM74,139h56v1h-56zM184,139h54v1h-54zM270,139h59v1h-59zM383,139h52v1h-52zM73,140h56v1h-56zM183,140h53v1h-53zM271,140h59v1h-59zM384,140h52v1h-52zM71,141h56v1h-56zM181,141h54v1h-54zM273,141h58v1h-58zM385,141h53v1h-53zM70,142h56v1h-56zM180,142h53v1h-53zM274,142h59v1h-59zM387,142h52v1h-52zM68,143h57v1h-57zM179,143h53v1h-53zM276,143h58v1h-58zM388,143h52v1h-52zM67,144h57v1h-57zM177,144h54v1h-54zM277,144h58v1h-58zM389,144h53v1h-53zM66,145h56v1h-56zM176,145h53v1h-53zM279,145h58v1h-58zM391,145h52v1h-52zM65,146h56v1h-56zM175,146h53v1h-53zM280,146h58v1h-58zM392,146h53v1h-53zM63,147h56v1h-56zM173,147h53v1h-53zM281,147h59v1h-59zM394,147h52v1h-52zM62,148h56v1h-56zM172,148h53v1h-53zM283,148h58v1h-58zM395,148h52v1h-52zM60,149h56v1h-56zM170,149h54v1h-54zM284,149h59v1h-59zM396,149h53v1h-53zM59,150h56v1h-56zM169,150h53v1h-53zM285,150h59v1h-59zM398,150h52v1h-52zM58,151h56v1h-56zM167,151h54v1h-54zM287,151h59v1h-59zM399,151h53v1h-53zM56,152h57v1h-57zM166,152h54v1h-54zM288,152h59v1h-59zM400,152h53v1h-53zM55,153h56v1h-56zM165,153h53v1h-53zM289,153h59v1h-59zM402,153h52v1h-52zM54,154h56v1h-56zM163,154h54v1h-54zM291,154h59v1h-59zM403,154h52v1h-52zM52,155h57v1h-57zM162,155h53v1h-53zM292,155h59v1h-59zM405,155h52v1h-52zM51,156h56v1h-56zM161,156h53v1h-53zM294,156h59v1h-59zM406,156h52v1h-52zM50,157h56v1h-56zM160,157h52v1h-52zM295,157h59v1h-59zM407,157h53v1h-53zM48,158h57v1h-57zM158,158h53v1h-53zM296,158h59v1h-59zM409,158h52v1h-52zM47,159h56v1h-56zM157,159h53v1h-53zM298,159h59v1h-59zM410,159h52v1h-52zM45,160h57v1h-57zM156,160h52v1h-52zM299,160h59v1h-59zM411,160h53v1h-53zM44,161h57v1h-57zM154,161h53v1h-53zM301,161h59v1h-59zM413,161h52v1h-52zM43,162h56v1h-56zM153,162h53v1h-53zM302,162h59v1h-59zM414,162h53v1h-53zM42,163h56v1h-56zM152,163h52v1h-52zM303,163h59v1h-59zM416,163h52v1h-52zM40,164h57v1h-57zM150,164h53v1h-53zM305,164h59v1h-59zM417,164h52v1h-52zM39,165h56v1h-56zM149,165h53v1h-53zM306,165h59v1h-59zM418,165h53v1h-53zM37,166h57v1h-57zM148,166h52v1h-52zM308,166h58v1h-58zM420,166h52v1h-52zM36,167h57v1h-57zM146,167h53v1h-53zM309,167h59v1h-59zM421,167h52v1h-52zM35,168h56v1h-56zM145,168h52v1h-52zM310,168h59v1h-59zM422,168h53v1h-53zM33,169h57v1h-57zM143,169h53v1h-53zM312,169h59v1h-59zM424,169h52v1h-52zM32,170h57v1h-57zM142,170h53v1h-53zM313,170h59v1h-59zM425,170h53v1h-53zM31,171h56v1h-56zM141,171h52v1h-52zM314,171h59v1h-59zM427,171h52v1h-52zM30,172h56v1h-56zM139,172h53v1h-53zM316,172h59v1h-59zM428,172h52v1h-52zM28,173h57v1h-57zM138,173h53v1h-53zM317,173h59v1h-59zM429,173h53v1h-53zM27,174h56v1h-56zM137,174h52v1h-52zM319,174h58v1h-58zM431,174h52v1h-52zM25,175h57v1h-57zM135,175h52v1h-52zM320,175h59v1h-59zM432,175h52v1h-52zM24,176h56v1h-56zM134,176h52v1h-52zM321,176h59v1h-59zM434,176h52v1h-52zM23,177h56v1h-56zM133,177h52v1h-52zM323,177h59v1h-59zM435,177h52v1h-52zM21,178h57v1h-57zM131,178h52v1h-52zM324,178h59v1h-59zM436,178h53v1h-53zM19,179h57v1h-57zM130,179h52v1h-52zM326,179h58v1h-58zM438,179h52v1h-52zM18,180h57v1h-57zM129,180h52v1h-52zM327,180h59v1h-59zM439,180h53v1h-53zM17,181h57v1h-57zM127,181h52v1h-52zM328,181h59v1h-59zM440,181h53v1h-53zM16,182h56v1h-56zM126,182h52v1h-52zM330,182h59v1h-59zM442,182h52v1h-52zM15,183h56v1h-56zM125,183h52v1h-52zM331,183h59v1h-59zM443,183h52v1h-52zM14,184h56v1h-56zM123,184h52v1h-52zM333,184h58v1h-58zM445,184h51v1h-51zM13,185h55v1h-55zM122,185h52v1h-52zM334,185h59v1h-59zM446,185h51v1h-51zM12,186h55v1h-55zM121,186h51v1h-51zM335,186h59v1h-59zM447,186h52v1h-52zM11,187h55v1h-55zM119,187h52v1h-52zM337,187h59v1h-59zM449,187h51v1h-51zM10,188h54v1h-54zM118,188h52v1h-52zM338,188h59v1h-59zM450,188h51v1h-51zM9,189h54v1h-54zM117,189h52v1h-52zM339,189h59v1h-59zM452,189h49v1h-49zM8,190h53v1h-53zM115,190h52v1h-52zM341,190h59v1h-59zM453,190h49v1h-49zM7,191h53v1h-53zM114,191h52v1h-52zM342,191h59v1h-59zM455,191h48v1h-48zM7,192h52v1h-52zM113,192h51v1h-51zM344,192h58v1h-58zM456,192h48v1h-48zM6,193h52v1h-52zM111,193h52v1h-52zM345,193h59v1h-59zM457,193h48v1h-48zM6,194h50v1h-50zM110,194h51v1h-51zM347,194h58v1h-58zM459,194h46v1h-46zM5,195h50v1h-50zM108,195h52v1h-52zM348,195h59v1h-59zM460,195h46v1h-46zM5,196h48v1h-48zM107,196h52v1h-52zM349,196h59v1h-59zM461,196h46v1h-46zM4,197h48v1h-48zM106,197h51v1h-51zM351,197h59v1h-59zM463,197h44v1h-44zM4,198h47v1h-47zM104,198h52v1h-52zM352,198h59v1h-59zM464,198h44v1h-44zM3,199h47v1h-47zM103,199h51v1h-51zM353,199h59v1h-59zM465,199h43v1h-43zM3,200h45v1h-45zM102,200h51v1h-51zM354,200h60v1h-60zM467,200h42v1h-42zM3,201h44v1h-44zM100,201h52v1h-52zM356,201h59v1h-59zM468,201h41v1h-41zM0,202h45v1h-45zM99,202h51v1h-51zM357,202h59v1h-59zM469,202h40v1h-40zM0,203h44v1h-44zM98,203h51v1h-51zM359,203h59v1h-59zM471,203h41v1h-41zM0,204h43v1h-43zM96,204h52v1h-52zM360,204h59v1h-59zM472,204h40v1h-40zM0,205h42v1h-42zM95,205h51v1h-51zM362,205h59v1h-59zM474,205h38v1h-38zM0,206h40v1h-40zM93,206h52v1h-52zM363,206h59v1h-59zM475,206h37v1h-37zM0,207h39v1h-39zM92,207h51v1h-51zM365,207h59v1h-59zM476,207h36v1h-36zM0,208h38v1h-38zM90,208h52v1h-52zM366,208h59v1h-59zM477,208h35v1h-35zM0,209h37v1h-37zM88,209h53v1h-53zM367,209h59v1h-59zM478,209h34v1h-34zM0,210h36v1h-36zM87,210h52v1h-52zM369,210h59v1h-59zM479,210h33v1h-33zM0,211h35v1h-35zM86,211h52v1h-52zM370,211h59v1h-59zM480,211h32v1h-32zM0,212h35v1h-35zM84,212h53v1h-53zM371,212h60v1h-60zM480,212h32v1h-32zM0,213h34v1h-34zM83,213h52v1h-52zM373,213h59v1h-59zM481,213h31v1h-31zM0,214h34v1h-34zM81,214h53v1h-53zM374,214h59v1h-59zM481,214h31v1h-31zM0,215h33v1h-33zM80,215h52v1h-52zM375,215h60v1h-60zM481,215h31v1h-31zM0,216h33v1h-33zM79,216h52v1h-52zM377,216h59v1h-59zM481,216h31v1h-31zM0,217h33v1h-33zM77,217h53v1h-53zM378,217h59v1h-59zM481,217h31v1h-31zM0,218h33v1h-33zM76,218h52v1h-52zM380,218h59v1h-59zM481,218h31v1h-31zM0,219h33v1h-33zM75,219h52v1h-52zM381,219h59v1h-59zM481,219h31v1h-31zM0,220h33v1h-33zM73,220h52v1h-52zM382,220h60v1h-60zM481,220h31v1h-31zM0,221h33v1h-33zM72,221h52v1h-52zM384,221h59v1h-59zM481,221h31v1h-31zM0,222h34v1h-34zM71,222h52v1h-52zM386,222h58v1h-58zM481,222h31v1h-31zM0,223h34v1h-34zM69,223h52v1h-52zM387,223h59v1h-59zM481,223h31v1h-31zM0,224h34v1h-34zM68,224h52v1h-52zM388,224h59v1h-59zM481,224h31v1h-31zM0,225h34v1h-34zM67,225h51v1h-51zM390,225h59v1h-59zM480,225h32v1h-32zM0,226h35v1h-35zM65,226h52v1h-52zM391,226h59v1h-59zM480,226h32v1h-32zM0,227h36v1h-36zM64,227h52v1h-52zM392,227h59v1h-59zM479,227h33v1h-33zM0,228h36v1h-36zM63,228h51v1h-51zM394,228h59v1h-59zM479,228h33v1h-33zM0,229h37v1h-37zM61,229h52v1h-52zM395,229h59v1h-59zM478,229h34v1h-34zM0,230h38v1h-38zM60,230h52v1h-52zM396,230h60v1h-60zM477,230h35v1h-35zM0,231h39v1h-39zM59,231h52v1h-52zM397,231h60v1h-60zM476,231h36v1h-36zM0,232h41v1h-41zM57,232h54v1h-54zM398,232h61v1h-61zM475,232h37v1h-37zM0,233h42v1h-42zM56,233h55v1h-55zM399,233h61v1h-61zM473,233h39v1h-39zM3,234h42v1h-42zM52,234h59v1h-59zM399,234h110v1h-110zM3,235h108v1h-108zM399,235h110v1h-110zM3,236h108v1h-108zM399,236h110v1h-110zM4,237h107v1h-107zM399,237h109v1h-109zM4,238h107v1h-107zM399,238h109v1h-109zM5,239h106v1h-106zM399,239h108v1h-108zM5,240h106v1h-106zM399,240h108v1h-108zM6,241h105v1h-105zM399,241h107v1h-107zM6,242h105v1h-105zM399,242h107v1h-107zM7,243h104v1h-104zM399,243h106v1h-106zM8,244h103v1h-103zM399,244h105v1h-105zM8,245h103v1h-103zM400,245h103v1h-103zM9,246h102v1h-102zM400,246h102v1h-102zM10,247h101v1h-101zM400,247h102v1h-102zM11,248h100v1h-100zM400,248h101v1h-101zM12,249h99v1h-99zM400,249h100v1h-100zM13,250h98v1h-98zM400,250h99v1h-99zM14,251h97v1h-97zM400,251h98v1h-98zM15,252h96v1h-96zM400,252h96v1h-96zM16,253h95v1h-95zM400,253h95v1h-95zM17,254h94v1h-94zM400,254h94v1h-94zM18,255h93v1h-93zM400,255h92v1h-92zM20,256h91v1h-91zM213,256h69v1h-69zM400,256h91v1h-91zM21,257h90v1h-90zM209,257h77v1h-77zM400,257h89v1h-89zM23,258h88v1h-88zM205,258h84v1h-84zM400,258h87v1h-87zM24,259h87v1h-87zM203,259h88v1h-88zM400,259h86v1h-86zM26,260h85v1h-85zM201,260h92v1h-92zM400,260h83v1h-83zM28,261h36v1h-36zM69,261h42v1h-42zM200,261h95v1h-95zM400,261h81v1h-81zM30,262h31v1h-31zM69,262h42v1h-42zM198,262h99v1h-99zM400,262h42v1h-42zM448,262h30v1h-30zM33,263h25v1h-25zM69,263h42v1h-42zM196,263h102v1h-102zM400,263h42v1h-42zM451,263h24v1h-24zM38,264h16v1h-16zM69,264h42v1h-42zM195,264h105v1h-105zM400,264h42v1h-42zM456,264h14v1h-14zM69,265h42v1h-42zM194,265h107v1h-107zM400,265h42v1h-42zM69,266h42v1h-42zM193,266h109v1h-109zM400,266h42v1h-42zM69,267h42v1h-42zM191,267h112v1h-112zM400,267h42v1h-42zM69,268h42v1h-42zM190,268h114v1h-114zM400,268h42v1h-42zM69,269h42v1h-42zM189,269h116v1h-116zM400,269h42v1h-42zM69,270h42v1h-42zM188,270h118v1h-118zM400,270h42v1h-42zM68,271h43v1h-43zM187,271h120v1h-120zM400,271h42v1h-42zM68,272h43v1h-43zM186,272h122v1h-122zM400,272h42v1h-42zM68,273h43v1h-43zM186,273h123v1h-123zM400,273h42v1h-42zM68,274h43v1h-43zM185,274h125v1h-125zM400,274h42v1h-42zM68,275h43v1h-43zM184,275h126v1h-126zM400,275h42v1h-42zM68,276h43v1h-43zM184,276h127v1h-127zM400,276h42v1h-42zM68,277h43v1h-43zM183,277h129v1h-129zM400,277h42v1h-42zM68,278h43v1h-43zM182,278h130v1h-130zM400,278h42v1h-42zM68,279h43v1h-43zM182,279h131v1h-131zM400,279h42v1h-42zM69,280h42v1h-42zM181,280h132v1h-132zM400,280h42v1h-42zM69,281h42v1h-42zM181,281h133v1h-133zM400,281h42v1h-42zM69,282h42v1h-42zM180,282h134v1h-134zM400,282h42v1h-42zM69,283h42v1h-42zM180,283h135v1h-135zM400,283h42v1h-42zM69,284h42v1h-42zM180,284h135v1h-135zM400,284h42v1h-42zM69,285h42v1h-42zM179,285h136v1h-136zM400,285h42v1h-42zM69,286h42v1h-42zM179,286h137v1h-137zM400,286h42v1h-42zM69,287h42v1h-42zM178,287h138v1h-138zM400,287h42v1h-42zM69,288h42v1h-42zM178,288h139v1h-139zM400,288h42v1h-42zM69,289h42v1h-42zM178,289h139v1h-139zM400,289h42v1h-42zM69,290h42v1h-42zM178,290h139v1h-139zM400,290h42v1h-42zM69,291h42v1h-42zM177,291h140v1h-140zM400,291h42v1h-42zM69,292h42v1h-42zM177,292h140v1h-140zM400,292h42v1h-42zM69,293h42v1h-42zM177,293h140v1h-140zM400,293h42v1h-42zM69,294h42v1h-42zM177,294h141v1h-141zM400,294h42v1h-42zM69,295h42v1h-42zM177,295h141v1h-141zM400,295h42v1h-42zM69,296h42v1h-42zM176,296h142v1h-142zM400,296h42v1h-42zM69,297h42v1h-42zM176,297h142v1h-142zM400,297h42v1h-42zM69,298h42v1h-42zM176,298h142v1h-142zM400,298h42v1h-42zM69,299h42v1h-42zM176,299h45v1h-45zM229,299h6v1h-6zM264,299h54v1h-54zM400,299h42v1h-42zM69,300h42v1h-42zM176,300h44v1h-44zM274,300h44v1h-44zM400,300h42v1h-42zM69,301h42v1h-42zM176,301h44v1h-44zM274,301h44v1h-44zM400,301h42v1h-42zM69,302h42v1h-42zM176,302h44v1h-44zM274,302h44v1h-44zM400,302h42v1h-42zM69,303h42v1h-42zM176,303h44v1h-44zM274,303h44v1h-44zM400,303h42v1h-42zM69,304h42v1h-42zM176,304h44v1h-44zM274,304h44v1h-44zM400,304h42v1h-42zM69,305h42v1h-42zM176,305h44v1h-44zM274,305h44v1h-44zM400,305h42v1h-42zM69,306h42v1h-42zM176,306h44v1h-44zM274,306h44v1h-44zM400,306h42v1h-42zM69,307h42v1h-42zM176,307h44v1h-44zM274,307h44v1h-44zM400,307h42v1h-42zM69,308h42v1h-42zM176,308h44v1h-44zM274,308h44v1h-44zM400,308h42v1h-42zM69,309h42v1h-42zM176,309h44v1h-44zM274,309h44v1h-44zM400,309h42v1h-42zM69,310h42v1h-42zM176,310h44v1h-44zM274,310h44v1h-44zM400,310h42v1h-42zM69,311h42v1h-42zM176,311h44v1h-44zM274,311h44v1h-44zM400,311h42v1h-42zM69,312h42v1h-42zM176,312h44v1h-44zM274,312h44v1h-44zM400,312h42v1h-42zM69,313h42v1h-42zM176,313h44v1h-44zM274,313h44v1h-44zM400,313h42v1h-42zM69,314h42v1h-42zM176,314h44v1h-44zM274,314h44v1h-44zM400,314h42v1h-42zM69,315h42v1h-42zM176,315h44v1h-44zM274,315h44v1h-44zM400,315h42v1h-42zM69,316h42v1h-42zM176,316h44v1h-44zM274,316h44v1h-44zM400,316h42v1h-42zM69,317h42v1h-42zM176,317h44v1h-44zM274,317h44v1h-44zM400,317h42v1h-42zM69,318h42v1h-42zM176,318h44v1h-44zM274,318h44v1h-44zM400,318h42v1h-42zM69,319h42v1h-42zM176,319h44v1h-44zM274,319h44v1h-44zM400,319h42v1h-42zM69,320h42v1h-42zM176,320h44v1h-44zM274,320h44v1h-44zM400,320h42v1h-42zM69,321h42v1h-42zM176,321h44v1h-44zM274,321h44v1h-44zM400,321h42v1h-42zM69,322h42v1h-42zM176,322h44v1h-44zM274,322h44v1h-44zM400,322h42v1h-42zM69,323h42v1h-42zM176,323h44v1h-44zM274,323h44v1h-44zM400,323h42v1h-42zM68,324h43v1h-43zM176,324h44v1h-44zM274,324h44v1h-44zM400,324h42v1h-42zM68,325h43v1h-43zM176,325h44v1h-44zM274,325h44v1h-44zM400,325h42v1h-42zM68,326h43v1h-43zM176,326h44v1h-44zM274,326h44v1h-44zM400,326h42v1h-42zM68,327h43v1h-43zM176,327h44v1h-44zM274,327h44v1h-44zM400,327h42v1h-42zM68,328h43v1h-43zM176,328h44v1h-44zM274,328h44v1h-44zM400,328h42v1h-42zM68,329h43v1h-43zM176,329h44v1h-44zM274,329h44v1h-44zM400,329h42v1h-42zM68,330h43v1h-43zM176,330h44v1h-44zM274,330h44v1h-44zM400,330h42v1h-42zM68,331h43v1h-43zM176,331h44v1h-44zM274,331h44v1h-44zM400,331h42v1h-42zM68,332h43v1h-43zM176,332h44v1h-44zM274,332h44v1h-44zM400,332h42v1h-42zM68,333h43v1h-43zM176,333h44v1h-44zM274,333h44v1h-44zM400,333h42v1h-42zM68,334h43v1h-43zM176,334h44v1h-44zM274,334h44v1h-44zM400,334h42v1h-42zM68,335h43v1h-43zM176,335h44v1h-44zM274,335h44v1h-44zM400,335h42v1h-42zM68,336h43v1h-43zM176,336h44v1h-44zM274,336h44v1h-44zM400,336h42v1h-42zM68,337h43v1h-43zM176,337h44v1h-44zM274,337h44v1h-44zM400,337h42v1h-42zM68,338h43v1h-43zM176,338h44v1h-44zM274,338h44v1h-44zM400,338h42v1h-42zM68,339h43v1h-43zM176,339h44v1h-44zM274,339h44v1h-44zM400,339h42v1h-42zM68,340h43v1h-43zM176,340h44v1h-44zM274,340h44v1h-44zM400,340h42v1h-42zM68,341h43v1h-43zM176,341h44v1h-44zM274,341h44v1h-44zM400,341h42v1h-42zM68,342h43v1h-43zM176,342h44v1h-44zM274,342h44v1h-44zM400,342h42v1h-42zM68,343h43v1h-43zM176,343h44v1h-44zM274,343h44v1h-44zM400,343h42v1h-42zM68,344h43v1h-43zM176,344h44v1h-44zM274,344h44v1h-44zM400,344h42v1h-42zM68,345h43v1h-43zM176,345h44v1h-44zM274,345h44v1h-44zM400,345h42v1h-42zM68,346h43v1h-43zM176,346h44v1h-44zM274,346h44v1h-44zM400,346h42v1h-42zM68,347h43v1h-43zM176,347h44v1h-44zM274,347h44v1h-44zM400,347h42v1h-42zM68,348h43v1h-43zM176,348h44v1h-44zM274,348h44v1h-44zM400,348h42v1h-42zM68,349h43v1h-43zM176,349h44v1h-44zM274,349h44v1h-44zM400,349h42v1h-42zM68,350h43v1h-43zM176,350h44v1h-44zM274,350h44v1h-44zM400,350h42v1h-42zM68,351h43v1h-43zM176,351h44v1h-44zM274,351h44v1h-44zM400,351h42v1h-42zM68,352h43v1h-43zM176,352h44v1h-44zM274,352h44v1h-44zM400,352h42v1h-42zM68,353h43v1h-43zM176,353h44v1h-44zM274,353h44v1h-44zM400,353h42v1h-42zM68,354h43v1h-43zM176,354h44v1h-44zM274,354h44v1h-44zM400,354h42v1h-42zM68,355h43v1h-43zM176,355h44v1h-44zM274,355h44v1h-44zM400,355h42v1h-42zM68,356h43v1h-43zM176,356h44v1h-44zM274,356h44v1h-44zM400,356h42v1h-42zM68,357h43v1h-43zM176,357h44v1h-44zM274,357h44v1h-44zM400,357h42v1h-42zM68,358h43v1h-43zM176,358h44v1h-44zM274,358h44v1h-44zM400,358h42v1h-42zM68,359h43v1h-43zM176,359h43v1h-43zM274,359h44v1h-44zM400,359h42v1h-42zM68,360h43v1h-43zM176,360h43v1h-43zM274,360h44v1h-44zM400,360h42v1h-42zM68,361h43v1h-43zM176,361h43v1h-43zM274,361h44v1h-44zM400,361h42v1h-42zM68,362h43v1h-43zM176,362h43v1h-43zM274,362h44v1h-44zM400,362h42v1h-42zM68,363h43v1h-43zM176,363h43v1h-43zM274,363h44v1h-44zM400,363h42v1h-42zM68,364h43v1h-43zM176,364h43v1h-43zM274,364h44v1h-44zM400,364h42v1h-42zM68,365h43v1h-43zM176,365h43v1h-43zM274,365h44v1h-44zM400,365h42v1h-42zM68,366h43v1h-43zM176,366h43v1h-43zM274,366h44v1h-44zM400,366h42v1h-42zM68,367h43v1h-43zM176,367h43v1h-43zM274,367h44v1h-44zM400,367h42v1h-42zM68,368h43v1h-43zM176,368h43v1h-43zM274,368h44v1h-44zM400,368h42v1h-42zM68,369h43v1h-43zM176,369h43v1h-43zM274,369h44v1h-44zM400,369h42v1h-42zM68,370h43v1h-43zM176,370h43v1h-43zM274,370h44v1h-44zM400,370h42v1h-42zM68,371h43v1h-43zM176,371h43v1h-43zM274,371h44v1h-44zM400,371h42v1h-42zM68,372h43v1h-43zM176,372h43v1h-43zM274,372h44v1h-44zM400,372h42v1h-42zM68,373h43v1h-43zM176,373h43v1h-43zM274,373h44v1h-44zM400,373h42v1h-42zM68,374h43v1h-43zM176,374h43v1h-43zM274,374h44v1h-44zM400,374h42v1h-42zM68,375h43v1h-43zM176,375h43v1h-43zM274,375h44v1h-44zM400,375h42v1h-42zM67,376h44v1h-44zM176,376h43v1h-43zM274,376h44v1h-44zM400,376h42v1h-42zM67,377h44v1h-44zM176,377h43v1h-43zM274,377h44v1h-44zM400,377h42v1h-42zM67,378h44v1h-44zM176,378h43v1h-43zM274,378h44v1h-44zM400,378h42v1h-42zM67,379h44v1h-44zM176,379h43v1h-43zM274,379h44v1h-44zM400,379h42v1h-42zM67,380h44v1h-44zM176,380h43v1h-43zM274,380h44v1h-44zM400,380h42v1h-42zM67,381h44v1h-44zM176,381h43v1h-43zM274,381h44v1h-44zM400,381h42v1h-42zM67,382h44v1h-44zM176,382h43v1h-43zM274,382h44v1h-44zM400,382h42v1h-42zM67,383h44v1h-44zM176,383h43v1h-43zM274,383h44v1h-44zM400,383h42v1h-42zM67,384h44v1h-44zM176,384h43v1h-43zM274,384h44v1h-44zM400,384h42v1h-42zM67,385h44v1h-44zM176,385h43v1h-43zM274,385h44v1h-44zM400,385h42v1h-42zM67,386h44v1h-44zM176,386h43v1h-43zM274,386h44v1h-44zM400,386h42v1h-42zM67,387h44v1h-44zM176,387h43v1h-43zM274,387h44v1h-44zM400,387h42v1h-42zM67,388h44v1h-44zM176,388h43v1h-43zM274,388h44v1h-44zM400,388h42v1h-42zM67,389h44v1h-44zM176,389h43v1h-43zM274,389h43v1h-43zM400,389h42v1h-42zM67,390h44v1h-44zM176,390h43v1h-43zM274,390h43v1h-43zM400,390h42v1h-42zM67,391h44v1h-44zM176,391h43v1h-43zM274,391h43v1h-43zM400,391h42v1h-42zM67,392h44v1h-44zM176,392h43v1h-43zM274,392h43v1h-43zM400,392h42v1h-42zM67,393h44v1h-44zM176,393h43v1h-43zM274,393h43v1h-43zM400,393h42v1h-42zM67,394h44v1h-44zM176,394h43v1h-43zM274,394h43v1h-43zM400,394h42v1h-42zM67,395h44v1h-44zM176,395h43v1h-43zM274,395h43v1h-43zM400,395h42v1h-42zM67,396h44v1h-44zM176,396h43v1h-43zM274,396h43v1h-43zM400,396h42v1h-42zM67,397h44v1h-44zM176,397h43v1h-43zM274,397h43v1h-43zM400,397h42v1h-42zM67,398h44v1h-44zM176,398h43v1h-43zM274,398h43v1h-43zM400,398h42v1h-42zM67,399h44v1h-44zM176,399h43v1h-43zM274,399h43v1h-43zM400,399h42v1h-42zM67,400h44v1h-44zM176,400h43v1h-43zM274,400h43v1h-43zM400,400h42v1h-42zM67,401h44v1h-44zM176,401h43v1h-43zM274,401h43v1h-43zM400,401h42v1h-42zM67,402h44v1h-44zM176,402h43v1h-43zM274,402h43v1h-43zM400,402h42v1h-42zM67,403h44v1h-44zM176,403h43v1h-43zM274,403h43v1h-43zM400,403h42v1h-42zM67,404h44v1h-44zM176,404h43v1h-43zM274,404h43v1h-43zM400,404h42v1h-42zM67,405h44v1h-44zM176,405h43v1h-43zM274,405h43v1h-43zM399,405h43v1h-43zM67,406h44v1h-44zM176,406h43v1h-43zM274,406h43v1h-43zM399,406h43v1h-43zM67,407h44v1h-44zM176,407h43v1h-43zM274,407h43v1h-43zM399,407h43v1h-43zM67,408h44v1h-44zM176,408h43v1h-43zM274,408h43v1h-43zM399,408h43v1h-43zM67,409h44v1h-44zM176,409h43v1h-43zM274,409h43v1h-43zM399,409h43v1h-43zM67,410h44v1h-44zM176,410h43v1h-43zM274,410h43v1h-43zM399,410h43v1h-43zM67,411h44v1h-44zM176,411h43v1h-43zM275,411h42v1h-42zM399,411h43v1h-43zM67,412h44v1h-44zM176,412h43v1h-43zM275,412h42v1h-42zM399,412h43v1h-43zM67,413h44v1h-44zM176,413h43v1h-43zM275,413h42v1h-42zM398,413h44v1h-44zM67,414h44v1h-44zM176,414h43v1h-43zM275,414h42v1h-42zM398,414h44v1h-44zM67,415h44v1h-44zM176,415h43v1h-43zM275,415h42v1h-42zM398,415h44v1h-44zM67,416h44v1h-44zM176,416h43v1h-43zM275,416h42v1h-42zM398,416h44v1h-44zM67,417h44v1h-44zM176,417h43v1h-43zM275,417h42v1h-42zM398,417h44v1h-44zM67,418h44v1h-44zM176,418h43v1h-43zM275,418h42v1h-42zM398,418h44v1h-44zM67,419h44v1h-44zM176,419h43v1h-43zM275,419h42v1h-42zM398,419h44v1h-44zM67,420h44v1h-44zM176,420h43v1h-43zM275,420h42v1h-42zM398,420h44v1h-44zM67,421h44v1h-44zM176,421h43v1h-43zM275,421h42v1h-42zM398,421h44v1h-44zM67,422h44v1h-44zM176,422h43v1h-43zM275,422h42v1h-42zM398,422h44v1h-44zM67,423h44v1h-44zM176,423h43v1h-43zM275,423h42v1h-42zM398,423h44v1h-44zM67,424h44v1h-44zM176,424h43v1h-43zM275,424h42v1h-42zM398,424h44v1h-44zM67,425h44v1h-44zM176,425h43v1h-43zM275,425h42v1h-42zM398,425h44v1h-44zM67,426h44v1h-44zM176,426h43v1h-43zM275,426h42v1h-42zM398,426h44v1h-44zM67,427h44v1h-44zM176,427h43v1h-43zM275,427h42v1h-42zM398,427h44v1h-44zM67,428h44v1h-44zM176,428h43v1h-43zM274,428h43v1h-43zM398,428h44v1h-44zM67,429h44v1h-44zM176,429h43v1h-43zM274,429h43v1h-43zM398,429h44v1h-44zM67,430h44v1h-44zM176,430h43v1h-43zM274,430h43v1h-43zM398,430h44v1h-44zM67,431h44v1h-44zM176,431h43v1h-43zM274,431h43v1h-43zM398,431h44v1h-44zM67,432h44v1h-44zM176,432h43v1h-43zM274,432h43v1h-43zM398,432h44v1h-44zM67,433h44v1h-44zM176,433h43v1h-43zM274,433h43v1h-43zM398,433h44v1h-44zM67,434h44v1h-44zM176,434h43v1h-43zM274,434h43v1h-43zM398,434h44v1h-44zM67,435h44v1h-44zM176,435h43v1h-43zM274,435h43v1h-43zM398,435h44v1h-44zM67,436h44v1h-44zM176,436h43v1h-43zM274,436h43v1h-43zM398,436h44v1h-44zM67,437h44v1h-44zM176,437h43v1h-43zM274,437h43v1h-43zM398,437h44v1h-44zM67,438h44v1h-44zM176,438h43v1h-43zM274,438h43v1h-43zM398,438h44v1h-44zM67,439h44v1h-44zM176,439h43v1h-43zM274,439h43v1h-43zM398,439h44v1h-44zM67,440h44v1h-44zM176,440h43v1h-43zM274,440h43v1h-43zM398,440h44v1h-44zM68,441h44v1h-44zM176,441h43v1h-43zM274,441h43v1h-43zM398,441h44v1h-44zM68,442h44v1h-44zM176,442h43v1h-43zM274,442h43v1h-43zM398,442h44v1h-44zM68,443h44v1h-44zM176,443h43v1h-43zM274,443h43v1h-43zM398,443h44v1h-44zM68,444h44v1h-44zM176,444h43v1h-43zM274,444h44v1h-44zM398,444h44v1h-44zM68,445h44v1h-44zM176,445h43v1h-43zM274,445h44v1h-44zM398,445h44v1h-44zM68,446h44v1h-44zM176,446h43v1h-43zM274,446h44v1h-44zM398,446h44v1h-44zM68,447h45v1h-45zM176,447h43v1h-43zM274,447h44v1h-44zM398,447h44v1h-44zM68,448h45v1h-45zM176,448h43v1h-43zM274,448h44v1h-44zM398,448h44v1h-44zM69,449h45v1h-45zM177,449h42v1h-42zM274,449h44v1h-44zM398,449h44v1h-44zM69,450h45v1h-45zM177,450h42v1h-42zM274,450h44v1h-44zM398,450h44v1h-44zM69,451h46v1h-46zM177,451h42v1h-42zM275,451h43v1h-43zM398,451h44v1h-44zM69,452h47v1h-47zM177,452h42v1h-42zM275,452h43v1h-43zM397,452h45v1h-45zM69,453h48v1h-48zM177,453h42v1h-42zM275,453h43v1h-43zM397,453h45v1h-45zM69,454h49v1h-49zM177,454h42v1h-42zM275,454h43v1h-43zM396,454h46v1h-46zM70,455h49v1h-49zM177,455h42v1h-42zM275,455h42v1h-42zM396,455h46v1h-46zM70,456h50v1h-50zM177,456h42v1h-42zM275,456h42v1h-42zM395,456h46v1h-46zM70,457h51v1h-51zM177,457h42v1h-42zM275,457h42v1h-42zM394,457h47v1h-47zM70,458h53v1h-53zM177,458h42v1h-42zM275,458h42v1h-42zM393,458h48v1h-48zM71,459h54v1h-54zM177,459h42v1h-42zM275,459h42v1h-42zM391,459h50v1h-50zM71,460h56v1h-56zM177,460h43v1h-43zM274,460h44v1h-44zM389,460h52v1h-52zM71,461h370v1h-370zM72,462h368v1h-368zM72,463h368v1h-368zM72,464h368v1h-368zM73,465h366v1h-366zM73,466h366v1h-366zM74,467h365v1h-365zM74,468h364v1h-364zM75,469h363v1h-363zM76,470h361v1h-361zM76,471h361v1h-361zM77,472h359v1h-359zM77,473h359v1h-359zM78,474h357v1h-357zM79,475h356v1h-356zM80,476h354v1h-354zM80,477h353v1h-353zM81,478h352v1h-352zM82,479h350v1h-350zM83,480h348v1h-348zM84,481h346v1h-346zM85,482h345v1h-345zM85,483h344v1h-344zM86,484h342v1h-342zM87,485h340v1h-340zM88,486h338v1h-338zM90,487h335v1h-335zM91,488h333v1h-333zM92,489h331v1h-331zM93,490h329v1h-329zM94,491h327v1h-327zM96,492h323v1h-323zM97,493h321v1h-321zM99,494h318v1h-318zM100,495h315v1h-315zM102,496h311v1h-311zM104,497h307v1h-307zM106,498h304v1h-304zM108,499h299v1h-299zM111,500h294v1h-294zM114,501h288v1h-288zM116,502h283v1h-283zM121,503h275v1h-275zM128,504h262v1h-262z"/></svg>