<svg xmlns="http://www.w3.org/2000/svg" viewBox="0 0 512 512" width="512" height="512"><path fill="#000" d="M247,12h12v1h-12zM244,13h18v1h-18zM242,14h22v1h-22zM241,15h25v1h-25zM239,16h28v1h-28zM238,17h31v1h-31zM237,18h33v1h-33zM235,19h36v1h-36zM234,20h39v1h-39zM232,21h42v1h-42zM231,22h44v1h-44zM230,23h47v1h-47zM228,24h50v1h-50zM227,25h52v1h-52zM226,26h55v1h-55zM225,27h57v1h-57zM223,28h61v1h-61zM222,29h63v1h-63zM221,30h65v1h-65zM219,31h69v1h-69zM218,32h71v1h-71zM216,33h74v1h-74zM215,34h77v1h-77zM214,35h79v1h-79zM212,36h82v1h-82zM211,37h85v1h-85zM209,38h88v1h-88zM208,39h90v1h-90zM207,40h93v1h-93zM206,41h95v1h-95zM204,42h98v1h-98zM203,43h101v1h-101zM202,44h103v1h-103zM200,45h106v1h-106zM199,46h109v1h-109zM198,47h111v1h-111zM197,48h114v1h-114zM195,49h117v1h-117zM194,50h119v1h-119zM192,51h60v1h-60zM259,51h56v1h-56zM191,52h58v1h-58zM261,52h55v1h-55zM190,53h57v1h-57zM263,53h55v1h-55zM188,54h57v1h-57zM265,54h54v1h-54zM187,55h57v1h-57zM266,55h54v1h-54zM185,56h58v1h-58zM267,56h55v1h-55zM184,57h57v1h-57zM269,57h54v1h-54zM183,58h56v1h-56zM270,58h54v1h-54zM182,59h56v1h-56zM272,59h54v1h-54zM180,60h57v1h-57zM273,60h54v1h-54zM179,61h56v1h-56zM274,61h54v1h-54zM177,62h57v1h-57zM276,62h54v1h-54zM176,63h57v1h-57zM277,63h54v1h-54zM175,64h56v1h-56zM279,64h54v1h-54zM174,65h56v1h-56zM280,65h54v1h-54zM172,66h57v1h-57zM281,66h54v1h-54zM171,67h56v1h-56zM282,67h55v1h-55zM169,68h57v1h-57zM284,68h54v1h-54zM168,69h57v1h-57zM285,69h54v1h-54zM167,70h56v1h-56zM286,70h55v1h-55zM165,71h57v1h-57zM288,71h54v1h-54zM164,72h57v1h-57zM289,72h55v1h-55zM162,73h57v1h-57zM291,73h54v1h-54zM161,74h57v1h-57zM292,74h54v1h-54zM160,75h57v1h-57zM294,75h54v1h-54zM159,76h57v1h-57zM295,76h54v1h-54zM158,77h56v1h-56zM296,77h54v1h-54zM156,78h57v1h-57zM298,78h54v1h-54zM155,79h56v1h-56zM299,79h54v1h-54zM153,80h57v1h-57zM301,80h53v1h-53zM152,81h56v1h-56zM302,81h54v1h-54zM150,82h57v1h-57zM303,82h54v1h-54zM149,83h57v1h-57zM305,83h54v1h-54zM148,84h57v1h-57zM306,84h54v1h-54zM146,85h57v1h-57zM308,85h53v1h-53zM145,86h57v1h-57zM309,86h54v1h-54zM144,87h57v1h-57zM310,87h54v1h-54zM142,88h57v1h-57zM312,88h53v1h-53zM141,89h57v1h-57zM313,89h54v1h-54zM140,90h56v1h-56zM314,90h54v1h-54zM139,91h56v1h-56zM254,91h4v1h-4zM316,91h53v1h-53zM137,92h56v1h-56zM248,92h14v1h-14zM317,92h54v1h-54zM136,93h56v1h-56zM245,93h20v1h-20zM319,93h53v1h-53zM135,94h56v1h-56zM244,94h22v1h-22zM320,94h53v1h-53zM133,95h57v1h-57zM242,95h26v1h-26zM321,95h54v1h-54zM132,96h56v1h-56zM241,96h28v1h-28zM323,96h53v1h-53zM131,97h56v1h-56zM240,97h30v1h-30zM324,97h53v1h-53zM129,98h56v1h-56zM239,98h32v1h-32zM326,98h53v1h-53zM128,99h56v1h-56zM238,99h35v1h-35zM327,99h53v1h-53zM126,100h57v1h-57zM236,100h38v1h-38zM328,100h54v1h-54zM125,101h57v1h-57zM235,101h40v1h-40zM330,101h53v1h-53zM124,102h56v1h-56zM234,102h43v1h-43zM331,102h53v1h-53zM122,103h57v1h-57zM232,103h47v1h-47zM332,103h54v1h-54zM121,104h56v1h-56zM231,104h49v1h-49zM334,104h53v1h-53zM120,105h56v1h-56zM229,105h52v1h-52zM335,105h53v1h-53zM118,106h57v1h-57zM228,106h54v1h-54zM337,106h53v1h-53zM117,107h56v1h-56zM227,107h57v1h-57zM338,107h53v1h-53zM116,108h56v1h-56zM226,108h59v1h-59zM339,108h53v1h-53zM114,109h57v1h-57zM224,109h62v1h-62zM341,109h53v1h-53zM113,110h56v1h-56zM223,110h65v1h-65zM342,110h53v1h-53zM112,111h56v1h-56zM222,111h67v1h-67zM344,111h53v1h-53zM110,112h57v1h-57zM220,112h71v1h-71zM345,112h53v1h-53zM109,113h56v1h-56zM219,113h73v1h-73zM346,113h53v1h-53zM108,114h56v1h-56zM217,114h77v1h-77zM348,114h53v1h-53zM106,115h57v1h-57zM216,115h79v1h-79zM349,115h53v1h-53zM105,116h56v1h-56zM215,116h81v1h-81zM350,116h54v1h-54zM103,117h57v1h-57zM213,117h85v1h-85zM352,117h53v1h-53zM102,118h56v1h-56zM212,118h87v1h-87zM353,118h53v1h-53zM101,119h56v1h-56zM211,119h89v1h-89zM354,119h54v1h-54zM99,120h57v1h-57zM209,120h93v1h-93zM356,120h53v1h-53zM98,121h56v1h-56zM208,121h95v1h-95zM357,121h53v1h-53zM97,122h56v1h-56zM207,122h98v1h-98zM359,122h53v1h-53zM96,123h56v1h-56zM205,123h101v1h-101zM360,123h53v1h-53zM94,124h56v1h-56zM204,124h103v1h-103zM362,124h52v1h-52zM93,125h56v1h-56zM203,125h106v1h-106zM363,125h53v1h-53zM91,126h57v1h-57zM201,126h109v1h-109zM365,126h52v1h-52zM90,127h56v1h-56zM200,127h112v1h-112zM366,127h53v1h-53zM89,128h56v1h-56zM199,128h114v1h-114zM367,128h53v1h-53zM87,129h57v1h-57zM197,129h118v1h-118zM369,129h52v1h-52zM86,130h56v1h-56zM196,130h120v1h-120zM370,130h53v1h-53zM85,131h56v1h-56zM195,131h122v1h-122zM371,131h53v1h-53zM83,132h57v1h-57zM193,132h126v1h-126zM373,132h52v1h-52zM82,133h56v1h-56zM192,133h128v1h-128zM374,133h53v1h-53zM81,134h56v1h-56zM191,134h131v1h-131zM375,134h53v1h-53zM79,135h57v1h-57zM189,135h134v1h-134zM377,135h53v1h-53zM78,136h56v1h-56zM188,136h136v1h-136zM378,136h53v1h-53zM76,137h57v1h-57zM187,137h139v1h-139zM380,137h53v1h-53zM75,138h57v1h-57zM185,138h142v1h-142zM381,138h53v1h-53zM74,139h56v1h-56zM184,139h144v1h-144zM383,139h52v1h-52zM73,140h56v1h-56zM183,140h147v1h-147zM384,140h52v1h-52zM71,141h56v1h-56zM181,141h150v1h-150zM385,141h53v1h-53zM70,142h56v1h-56zM180,142h72v1h-72zM258,142h75v1h-75zM387,142h52v1h-52zM68,143h57v1h-57zM179,143h72v1h-72zM260,143h74v1h-74zM388,143h52v1h-52zM67,144h57v1h-57zM177,144h73v1h-73zM261,144h74v1h-74zM389,144h53v1h-53zM66,145h56v1h-56zM176,145h72v1h-72zM262,145h75v1h-75zM391,145h52v1h-52zM65,146h56v1h-56zM175,146h72v1h-72zM264,146h74v1h-74zM392,146h53v1h-53zM63,147h56v1h-56zM173,147h72v1h-72zM265,147h75v1h-75zM394,147h52v1h-52zM62,148h56v1h-56zM172,148h72v1h-72zM266,148h75v1h-75zM395,148h53v1h-53zM60,149h57v1h-57zM170,149h73v1h-73zM268,149h75v1h-75zM396,149h53v1h-53zM59,150h56v1h-56zM169,150h73v1h-73zM269,150h75v1h-75zM398,150h52v1h-52zM58,151h56v1h-56zM167,151h73v1h-73zM270,151h76v1h-76zM399,151h53v1h-53zM56,152h57v1h-57zM166,152h73v1h-73zM272,152h75v1h-75zM400,152h53v1h-53zM55,153h56v1h-56zM165,153h72v1h-72zM273,153h75v1h-75zM402,153h52v1h-52zM54,154h56v1h-56zM163,154h73v1h-73zM275,154h75v1h-75zM403,154h53v1h-53zM52,155h57v1h-57zM162,155h73v1h-73zM276,155h75v1h-75zM405,155h52v1h-52zM51,156h56v1h-56zM161,156h73v1h-73zM277,156h76v1h-76zM406,156h53v1h-53zM50,157h56v1h-56zM160,157h72v1h-72zM279,157h75v1h-75zM407,157h53v1h-53zM48,158h57v1h-57zM158,158h73v1h-73zM280,158h75v1h-75zM409,158h52v1h-52zM47,159h56v1h-56zM157,159h72v1h-72zM282,159h75v1h-75zM410,159h53v1h-53zM45,160h57v1h-57zM156,160h72v1h-72zM283,160h75v1h-75zM412,160h52v1h-52zM44,161h57v1h-57zM154,161h72v1h-72zM284,161h75v1h-75zM413,161h52v1h-52zM43,162h56v1h-56zM153,162h72v1h-72zM286,162h75v1h-75zM414,162h53v1h-53zM42,163h56v1h-56zM152,163h72v1h-72zM287,163h75v1h-75zM416,163h52v1h-52zM40,164h57v1h-57zM150,164h72v1h-72zM289,164h74v1h-74zM417,164h53v1h-53zM39,165h56v1h-56zM149,165h72v1h-72zM290,165h75v1h-75zM418,165h53v1h-53zM37,166h57v1h-57zM147,166h73v1h-73zM292,166h74v1h-74zM420,166h52v1h-52zM36,167h57v1h-57zM146,167h73v1h-73zM293,167h75v1h-75zM421,167h53v1h-53zM34,168h57v1h-57zM145,168h72v1h-72zM294,168h75v1h-75zM422,168h53v1h-53zM33,169h57v1h-57zM143,169h73v1h-73zM296,169h75v1h-75zM424,169h52v1h-52zM32,170h57v1h-57zM142,170h73v1h-73zM297,170h75v1h-75zM425,170h53v1h-53zM31,171h56v1h-56zM141,171h72v1h-72zM299,171h74v1h-74zM427,171h52v1h-52zM29,172h57v1h-57zM139,172h73v1h-73zM300,172h75v1h-75zM428,172h52v1h-52zM28,173h57v1h-57zM138,173h72v1h-72zM301,173h75v1h-75zM430,173h52v1h-52zM27,174h56v1h-56zM137,174h72v1h-72zM303,174h74v1h-74zM431,174h52v1h-52zM25,175h57v1h-57zM135,175h73v1h-73zM304,175h75v1h-75zM432,175h53v1h-53zM24,176h56v1h-56zM134,176h73v1h-73zM306,176h74v1h-74zM434,176h52v1h-52zM22,177h57v1h-57zM133,177h72v1h-72zM307,177h75v1h-75zM435,177h52v1h-52zM21,178h57v1h-57zM131,178h73v1h-73zM308,178h75v1h-75zM436,178h53v1h-53zM19,179h57v1h-57zM130,179h72v1h-72zM310,179h74v1h-74zM438,179h53v1h-53zM18,180h57v1h-57zM129,180h72v1h-72zM311,180h75v1h-75zM439,180h53v1h-53zM17,181h57v1h-57zM127,181h73v1h-73zM312,181h75v1h-75zM441,181h52v1h-52zM16,182h56v1h-56zM126,182h73v1h-73zM314,182h75v1h-75zM442,182h52v1h-52zM15,183h56v1h-56zM125,183h72v1h-72zM315,183h75v1h-75zM443,183h53v1h-53zM14,184h56v1h-56zM123,184h73v1h-73zM316,184h75v1h-75zM445,184h52v1h-52zM13,185h55v1h-55zM122,185h72v1h-72zM318,185h75v1h-75zM446,185h52v1h-52zM12,186h55v1h-55zM121,186h72v1h-72zM320,186h74v1h-74zM448,186h51v1h-51zM11,187h55v1h-55zM119,187h73v1h-73zM321,187h75v1h-75zM449,187h51v1h-51zM10,188h54v1h-54zM118,188h72v1h-72zM322,188h75v1h-75zM450,188h51v1h-51zM9,189h54v1h-54zM117,189h72v1h-72zM324,189h74v1h-74zM452,189h50v1h-50zM8,190h54v1h-54zM115,190h72v1h-72zM325,190h75v1h-75zM453,190h49v1h-49zM7,191h53v1h-53zM114,191h72v1h-72zM326,191h75v1h-75zM455,191h48v1h-48zM7,192h52v1h-52zM113,192h72v1h-72zM328,192h74v1h-74zM456,192h48v1h-48zM6,193h52v1h-52zM111,193h73v1h-73zM329,193h75v1h-75zM457,193h48v1h-48zM6,194h50v1h-50zM110,194h72v1h-72zM331,194h74v1h-74zM459,194h47v1h-47zM5,195h50v1h-50zM108,195h73v1h-73zM332,195h75v1h-75zM460,195h46v1h-46zM5,196h49v1h-49zM107,196h72v1h-72zM334,196h74v1h-74zM461,196h46v1h-46zM4,197h48v1h-48zM106,197h72v1h-72zM335,197h75v1h-75zM463,197h44v1h-44zM4,198h47v1h-47zM104,198h73v1h-73zM336,198h75v1h-75zM464,198h44v1h-44zM3,199h47v1h-47zM103,199h73v1h-73zM337,199h75v1h-75zM465,199h43v1h-43zM3,200h45v1h-45zM102,200h72v1h-72zM339,200h75v1h-75zM467,200h42v1h-42zM0,201h47v1h-47zM100,201h73v1h-73zM340,201h75v1h-75zM468,201h41v1h-41zM0,202h46v1h-46zM99,202h72v1h-72zM342,202h74v1h-74zM469,202h40v1h-40zM0,203h44v1h-44zM98,203h72v1h-72zM343,203h75v1h-75zM471,203h41v1h-41zM0,204h43v1h-43zM96,204h73v1h-73zM344,204h75v1h-75zM472,204h40v1h-40zM0,205h42v1h-42zM95,205h72v1h-72zM346,205h75v1h-75zM474,205h38v1h-38zM0,206h41v1h-41zM93,206h73v1h-73zM347,206h75v1h-75zM475,206h37v1h-37zM0,207h39v1h-39zM92,207h73v1h-73zM349,207h75v1h-75zM476,207h36v1h-36zM0,208h38v1h-38zM90,208h73v1h-73zM351,208h74v1h-74zM478,208h34v1h-34zM0,209h37v1h-37zM88,209h74v1h-74zM352,209h75v1h-75zM478,209h34v1h-34zM0,210h36v1h-36zM87,210h73v1h-73zM353,210h75v1h-75zM479,210h33v1h-33zM0,211h35v1h-35zM86,211h73v1h-73zM355,211h74v1h-74zM480,211h32v1h-32zM0,212h35v1h-35zM84,212h74v1h-74zM356,212h75v1h-75zM480,212h32v1h-32zM0,213h34v1h-34zM83,213h73v1h-73zM357,213h75v1h-75zM481,213h31v1h-31zM0,214h34v1h-34zM81,214h74v1h-74zM359,214h74v1h-74zM481,214h31v1h-31zM0,215h33v1h-33zM80,215h74v1h-74zM360,215h75v1h-75zM481,215h31v1h-31zM0,216h33v1h-33zM79,216h74v1h-74zM361,216h75v1h-75zM481,216h31v1h-31zM0,217h33v1h-33zM77,217h74v1h-74zM363,217h74v1h-74zM481,217h31v1h-31zM0,218h33v1h-33zM76,218h74v1h-74zM364,218h75v1h-75zM481,218h31v1h-31zM0,219h33v1h-33zM75,219h74v1h-74zM366,219h74v1h-74zM481,219h31v1h-31zM0,220h33v1h-33zM73,220h74v1h-74zM367,220h75v1h-75zM481,220h31v1h-31zM0,221h33v1h-33zM72,221h74v1h-74zM368,221h75v1h-75zM481,221h31v1h-31zM0,222h34v1h-34zM71,222h73v1h-73zM370,222h74v1h-74zM481,222h31v1h-31zM0,223h34v1h-34zM69,223h74v1h-74zM371,223h75v1h-75zM481,223h31v1h-31zM0,224h34v1h-34zM68,224h74v1h-74zM373,224h74v1h-74zM481,224h31v1h-31zM0,225h34v1h-34zM67,225h73v1h-73zM374,225h75v1h-75zM480,225h32v1h-32zM0,226h35v1h-35zM65,226h74v1h-74zM375,226h75v1h-75zM480,226h32v1h-32zM0,227h36v1h-36zM64,227h74v1h-74zM377,227h74v1h-74zM479,227h33v1h-33zM0,228h36v1h-36zM62,228h74v1h-74zM378,228h75v1h-75zM479,228h33v1h-33zM0,229h37v1h-37zM61,229h74v1h-74zM380,229h74v1h-74zM478,229h34v1h-34zM0,230h38v1h-38zM60,230h74v1h-74zM381,230h75v1h-75zM477,230h35v1h-35zM0,231h40v1h-40zM59,231h73v1h-73zM382,231h75v1h-75zM476,231h36v1h-36zM0,232h41v1h-41zM57,232h74v1h-74zM384,232h75v1h-75zM474,232h38v1h-38zM0,233h42v1h-42zM56,233h73v1h-73zM385,233h76v1h-76zM473,233h39v1h-39zM3,234h42v1h-42zM52,234h76v1h-76zM386,234h123v1h-123zM3,235h124v1h-124zM388,235h121v1h-121zM3,236h123v1h-123zM389,236h120v1h-120zM4,237h120v1h-120zM391,237h117v1h-117zM4,238h119v1h-119zM392,238h116v1h-116zM5,239h116v1h-116zM394,239h113v1h-113zM5,240h115v1h-115zM395,240h112v1h-112zM6,241h113v1h-113zM397,241h109v1h-109zM6,242h112v1h-112zM398,242h108v1h-108zM7,243h109v1h-109zM399,243h106v1h-106zM8,244h107v1h-107zM399,244h105v1h-105zM8,245h105v1h-105zM399,245h104v1h-104zM9,246h103v1h-103zM399,246h103v1h-103zM10,247h101v1h-101zM399,247h103v1h-103zM11,248h100v1h-100zM399,248h102v1h-102zM12,249h99v1h-99zM399,249h101v1h-101zM13,250h98v1h-98zM399,250h100v1h-100zM14,251h97v1h-97zM399,251h99v1h-99zM15,252h96v1h-96zM399,252h97v1h-97zM16,253h95v1h-95zM399,253h96v1h-96zM17,254h94v1h-94zM399,254h95v1h-95zM18,255h93v1h-93zM399,255h94v1h-94zM20,256h91v1h-91zM213,256h69v1h-69zM399,256h92v1h-92zM21,257h90v1h-90zM208,257h78v1h-78zM399,257h91v1h-91zM23,258h88v1h-88zM205,258h84v1h-84zM399,258h88v1h-88zM24,259h87v1h-87zM203,259h88v1h-88zM399,259h87v1h-87zM26,260h85v1h-85zM201,260h92v1h-92zM399,260h84v1h-84zM28,261h36v1h-36zM69,261h42v1h-42zM199,261h96v1h-96zM399,261h82v1h-82zM30,262h31v1h-31zM69,262h42v1h-42zM198,262h99v1h-99zM399,262h43v1h-43zM448,262h30v1h-30zM33,263h25v1h-25zM69,263h42v1h-42zM196,263h102v1h-102zM399,263h43v1h-43zM450,263h25v1h-25zM37,264h18v1h-18zM69,264h42v1h-42zM195,264h105v1h-105zM399,264h43v1h-43zM455,264h16v1h-16zM69,265h42v1h-42zM194,265h107v1h-107zM399,265h43v1h-43zM69,266h42v1h-42zM192,266h110v1h-110zM399,266h43v1h-43zM68,267h43v1h-43zM191,267h112v1h-112zM399,267h43v1h-43zM68,268h43v1h-43zM190,268h114v1h-114zM399,268h43v1h-43zM68,269h43v1h-43zM189,269h116v1h-116zM399,269h43v1h-43zM68,270h43v1h-43zM188,270h118v1h-118zM399,270h43v1h-43zM68,271h43v1h-43zM187,271h120v1h-120zM399,271h43v1h-43zM68,272h43v1h-43zM186,272h122v1h-122zM399,272h43v1h-43zM68,273h43v1h-43zM185,273h124v1h-124zM399,273h43v1h-43zM68,274h43v1h-43zM185,274h125v1h-125zM399,274h43v1h-43zM68,275h43v1h-43zM184,275h126v1h-126zM399,275h43v1h-43zM68,276h43v1h-43zM184,276h127v1h-127zM399,276h43v1h-43zM68,277h43v1h-43zM183,277h129v1h-129zM399,277h43v1h-43zM68,278h43v1h-43zM182,278h130v1h-130zM399,278h43v1h-43zM68,279h43v1h-43zM182,279h131v1h-131zM399,279h43v1h-43zM68,280h43v1h-43zM181,280h132v1h-132zM399,280h43v1h-43zM68,281h43v1h-43zM181,281h133v1h-133zM399,281h43v1h-43zM68,282h43v1h-43zM180,282h134v1h-134zM399,282h43v1h-43zM68,283h43v1h-43zM180,283h135v1h-135zM399,283h43v1h-43zM68,284h43v1h-43zM180,284h135v1h-135zM399,284h43v1h-43zM68,285h43v1h-43zM179,285h136v1h-136zM399,285h43v1h-43zM68,286h43v1h-43zM179,286h137v1h-137zM399,286h43v1h-43zM68,287h43v1h-43zM178,287h138v1h-138zM399,287h43v1h-43zM68,288h43v1h-43zM178,288h139v1h-139zM399,288h43v1h-43zM68,289h43v1h-43zM178,289h139v1h-139zM399,289h43v1h-43zM68,290h43v1h-43zM178,290h139v1h-139zM399,290h43v1h-43zM68,291h43v1h-43zM177,291h140v1h-140zM399,291h43v1h-43zM68,292h43v1h-43zM177,292h140v1h-140zM399,292h43v1h-43zM68,293h43v1h-43zM177,293h140v1h-140zM399,293h43v1h-43zM68,294h43v1h-43zM177,294h141v1h-141zM399,294h43v1h-43zM68,295h43v1h-43zM177,295h141v1h-141zM399,295h43v1h-43zM68,296h43v1h-43zM176,296h142v1h-142zM399,296h43v1h-43zM68,297h43v1h-43zM176,297h142v1h-142zM399,297h43v1h-43zM68,298h43v1h-43zM176,298h142v1h-142zM399,298h43v1h-43zM68,299h43v1h-43zM176,299h45v1h-45zM228,299h10v1h-10zM262,299h56v1h-56zM399,299h43v1h-43zM68,300h43v1h-43zM176,300h44v1h-44zM274,300h44v1h-44zM399,300h43v1h-43zM68,301h43v1h-43zM176,301h44v1h-44zM274,301h44v1h-44zM399,301h43v1h-43zM68,302h43v1h-43zM176,302h44v1h-44zM274,302h44v1h-44zM399,302h43v1h-43zM68,303h43v1h-43zM176,303h44v1h-44zM274,303h44v1h-44zM399,303h43v1h-43zM68,304h43v1h-43zM176,304h44v1h-44zM274,304h44v1h-44zM399,304h43v1h-43zM68,305h43v1h-43zM176,305h44v1h-44zM274,305h44v1h-44zM399,305h43v1h-43zM68,306h43v1h-43zM176,306h44v1h-44zM274,306h44v1h-44zM399,306h43v1h-43zM68,307h43v1h-43zM176,307h44v1h-44zM274,307h44v1h-44zM399,307h43v1h-43zM68,308h43v1h-43zM176,308h44v1h-44zM274,308h44v1h-44zM399,308h43v1h-43zM68,309h43v1h-43zM176,309h44v1h-44zM274,309h44v1h-44zM399,309h43v1h-43zM68,310h43v1h-43zM176,310h44v1h-44zM274,310h44v1h-44zM399,310h43v1h-43zM68,311h43v1h-43zM176,311h44v1h-44zM274,311h44v1h-44zM399,311h43v1h-43zM68,312h43v1h-43zM176,312h44v1h-44zM274,312h44v1h-44zM399,312h43v1h-43zM68,313h43v1h-43zM176,313h44v1h-44zM274,313h44v1h-44zM399,313h43v1h-43zM68,314h43v1h-43zM176,314h44v1h-44zM274,314h44v1h-44zM399,314h43v1h-43zM68,315h43v1h-43zM176,315h44v1h-44zM274,315h44v1h-44zM399,315h43v1h-43zM68,316h43v1h-43zM176,316h44v1h-44zM274,316h44v1h-44zM399,316h43v1h-43zM68,317h43v1h-43zM176,317h44v1h-44zM274,317h44v1h-44zM399,317h43v1h-43zM68,318h43v1h-43zM176,318h44v1h-44zM274,318h44v1h-44zM399,318h43v1h-43zM68,319h43v1h-43zM176,319h44v1h-44zM274,319h44v1h-44zM399,319h43v1h-43zM68,320h43v1h-43zM176,320h44v1h-44zM274,320h44v1h-44zM399,320h43v1h-43zM68,321h43v1h-43zM176,321h44v1h-44zM274,321h44v1h-44zM399,321h43v1h-43zM68,322h43v1h-43zM176,322h44v1h-44zM274,322h44v1h-44zM399,322h43v1h-43zM68,323h43v1h-43zM176,323h44v1h-44zM274,323h44v1h-44zM399,323h43v1h-43zM68,324h43v1h-43zM176,324h44v1h-44zM274,324h44v1h-44zM399,324h43v1h-43zM68,325h43v1h-43zM176,325h44v1h-44zM274,325h44v1h-44zM399,325h43v1h-43zM68,326h43v1h-43zM176,326h44v1h-44zM274,326h44v1h-44zM399,326h43v1h-43zM68,327h43v1h-43zM176,327h44v1h-44zM274,327h44v1h-44zM399,327h43v1h-43zM68,328h43v1h-43zM176,328h44v1h-44zM274,328h44v1h-44zM399,328h43v1h-43zM68,329h43v1h-43zM176,329h44v1h-44zM274,329h44v1h-44zM399,329h43v1h-43zM68,330h43v1h-43zM176,330h44v1h-44zM274,330h44v1h-44zM399,330h43v1h-43zM68,331h43v1h-43zM176,331h44v1h-44zM274,331h44v1h-44zM399,331h43v1h-43zM68,332h43v1h-43zM176,332h44v1h-44zM274,332h44v1h-44zM399,332h43v1h-43zM68,333h43v1h-43zM176,333h44v1h-44zM274,333h44v1h-44zM399,333h43v1h-43zM68,334h43v1h-43zM176,334h44v1h-44zM274,334h44v1h-44zM399,334h43v1h-43zM68,335h43v1h-43zM176,335h44v1h-44zM274,335h44v1h-44zM399,335h43v1h-43zM68,336h43v1h-43zM176,336h44v1h-44zM274,336h44v1h-44zM399,336h43v1h-43zM68,337h43v1h-43zM176,337h44v1h-44zM274,337h44v1h-44zM399,337h43v1h-43zM68,338h43v1h-43zM176,338h44v1h-44zM274,338h44v1h-44zM399,338h43v1h-43zM68,339h43v1h-43zM176,339h44v1h-44zM274,339h44v1h-44zM399,339h43v1h-43zM68,340h43v1h-43zM176,340h44v1h-44zM274,340h44v1h-44zM399,340h43v1h-43zM68,341h43v1h-43zM176,341h44v1h-44zM274,341h44v1h-44zM399,341h43v1h-43zM68,342h43v1h-43zM176,342h44v1h-44zM274,342h44v1h-44zM399,342h43v1h-43zM68,343h43v1h-43zM176,343h44v1h-44zM274,343h44v1h-44zM399,343h43v1h-43zM68,344h43v1h-43zM176,344h44v1h-44zM274,344h44v1h-44zM399,344h43v1h-43zM68,345h43v1h-43zM176,345h44v1h-44zM274,345h44v1h-44zM399,345h43v1h-43zM68,346h43v1h-43zM176,346h44v1h-44zM274,346h44v1h-44zM399,346h43v1h-43zM68,347h43v1h-43zM176,347h44v1h-44zM274,347h44v1h-44zM399,347h43v1h-43zM68,348h43v1h-43zM176,348h44v1h-44zM274,348h44v1h-44zM399,348h43v1h-43zM68,349h43v1h-43zM176,349h44v1h-44zM274,349h44v1h-44zM400,349h42v1h-42zM68,350h43v1h-43zM176,350h44v1h-44zM274,350h44v1h-44zM400,350h42v1h-42zM68,351h43v1h-43zM176,351h44v1h-44zM274,351h44v1h-44zM400,351h42v1h-42zM68,352h43v1h-43zM176,352h44v1h-44zM274,352h44v1h-44zM400,352h42v1h-42zM68,353h43v1h-43zM176,353h44v1h-44zM274,353h44v1h-44zM400,353h42v1h-42zM68,354h43v1h-43zM176,354h44v1h-44zM274,354h44v1h-44zM400,354h42v1h-42zM68,355h43v1h-43zM176,355h44v1h-44zM274,355h44v1h-44zM400,355h42v1h-42zM68,356h43v1h-43zM176,356h44v1h-44zM274,356h44v1h-44zM400,356h42v1h-42zM68,357h43v1h-43zM176,357h44v1h-44zM274,357h44v1h-44zM400,357h42v1h-42zM68,358h43v1h-43zM176,358h44v1h-44zM274,358h44v1h-44zM400,358h42v1h-42zM68,359h43v1h-43zM176,359h43v1h-43zM274,359h44v1h-44zM400,359h42v1h-42zM68,360h43v1h-43zM176,360h43v1h-43zM274,360h44v1h-44zM400,360h42v1h-42zM68,361h43v1h-43zM176,361h43v1h-43zM274,361h44v1h-44zM400,361h42v1h-42zM68,362h43v1h-43zM176,362h43v1h-43zM274,362h44v1h-44zM400,362h42v1h-42zM68,363h43v1h-43zM176,363h43v1h-43zM274,363h44v1h-44zM400,363h42v1h-42zM68,364h43v1h-43zM176,364h43v1h-43zM274,364h44v1h-44zM400,364h42v1h-42zM68,365h43v1h-43zM176,365h43v1h-43zM274,365h44v1h-44zM400,365h42v1h-42zM68,366h43v1h-43zM176,366h43v1h-43zM274,366h44v1h-44zM400,366h42v1h-42zM68,367h43v1h-43zM176,367h43v1h-43zM274,367h44v1h-44zM400,367h42v1h-42zM68,368h43v1h-43zM176,368h43v1h-43zM274,368h44v1h-44zM400,368h42v1h-42zM68,369h43v1h-43zM176,369h43v1h-43zM274,369h44v1h-44zM400,369h42v1h-42zM68,370h43v1h-43zM176,370h43v1h-43zM274,370h44v1h-44zM400,370h42v1h-42zM68,371h43v1h-43zM176,371h43v1h-43zM274,371h44v1h-44zM400,371h42v1h-42zM68,372h43v1h-43zM176,372h43v1h-43zM274,372h44v1h-44zM400,372h42v1h-42zM68,373h43v1h-43zM176,373h43v1h-43zM274,373h44v1h-44zM400,373h42v1h-42zM68,374h43v1h-43zM176,374h43v1h-43zM274,374h44v1h-44zM400,374h42v1h-42zM68,375h43v1h-43zM176,375h43v1h-43zM274,375h44v1h-44zM400,375h42v1h-42zM67,376h44v1h-44zM176,376h43v1h-43zM274,376h44v1h-44zM400,376h42v1h-42zM67,377h44v1h-44zM176,377h43v1h-43zM274,377h44v1h-44zM400,377h42v1h-42zM67,378h44v1h-44zM176,378h43v1h-43zM274,378h44v1h-44zM400,378h42v1h-42zM67,379h44v1h-44zM176,379h43v1h-43zM274,379h44v1h-44zM400,379h42v1h-42zM67,380h45v1h-45zM176,380h43v1h-43zM274,380h44v1h-44zM400,380h42v1h-42zM67,381h45v1h-45zM176,381h43v1h-43zM274,381h44v1h-44zM400,381h42v1h-42zM67,382h45v1h-45zM176,382h43v1h-43zM274,382h44v1h-44zM400,382h42v1h-42zM67,383h45v1h-45zM176,383h43v1h-43zM274,383h44v1h-44zM400,383h42v1h-42zM67,384h45v1h-45zM176,384h43v1h-43zM274,384h44v1h-44zM400,384h42v1h-42zM67,385h45v1h-45zM176,385h43v1h-43zM274,385h44v1h-44zM400,385h42v1h-42zM67,386h45v1h-45zM176,386h43v1h-43zM274,386h44v1h-44zM400,386h42v1h-42zM67,387h45v1h-45zM176,387h43v1h-43zM274,387h44v1h-44zM400,387h42v1h-42zM67,388h45v1h-45zM176,388h43v1h-43zM274,388h44v1h-44zM400,388h42v1h-42zM67,389h45v1h-45zM176,389h43v1h-43zM274,389h44v1h-44zM400,389h42v1h-42zM67,390h45v1h-45zM176,390h43v1h-43zM274,390h44v1h-44zM400,390h42v1h-42zM67,391h45v1h-45zM176,391h43v1h-43zM274,391h44v1h-44zM400,391h42v1h-42zM67,392h45v1h-45zM176,392h43v1h-43zM274,392h44v1h-44zM400,392h42v1h-42zM67,393h45v1h-45zM176,393h43v1h-43zM274,393h44v1h-44zM400,393h42v1h-42zM67,394h45v1h-45zM176,394h43v1h-43zM274,394h44v1h-44zM400,394h42v1h-42zM67,395h45v1h-45zM176,395h43v1h-43zM274,395h44v1h-44zM400,395h42v1h-42zM67,396h45v1h-45zM176,396h43v1h-43zM274,396h44v1h-44zM400,396h42v1h-42zM67,397h45v1h-45zM176,397h43v1h-43zM274,397h44v1h-44zM400,397h42v1h-42zM67,398h45v1h-45zM176,398h43v1h-43zM274,398h44v1h-44zM400,398h42v1h-42zM67,399h45v1h-45zM176,399h43v1h-43zM274,399h44v1h-44zM400,399h42v1h-42zM67,400h45v1h-45zM176,400h43v1h-43zM274,400h44v1h-44zM400,400h42v1h-42zM67,401h45v1h-45zM176,401h43v1h-43zM274,401h44v1h-44zM400,401h42v1h-42zM67,402h45v1h-45zM176,402h43v1h-43zM274,402h44v1h-44zM400,402h42v1h-42zM67,403h45v1h-45zM176,403h43v1h-43zM274,403h44v1h-44zM399,403h43v1h-43zM67,404h45v1h-45zM176,404h43v1h-43zM274,404h44v1h-44zM399,404h43v1h-43zM67,405h45v1h-45zM176,405h43v1h-43zM274,405h43v1h-43zM399,405h43v1h-43zM67,406h45v1h-45zM176,406h43v1h-43zM274,406h43v1h-43zM399,406h43v1h-43zM67,407h45v1h-45zM176,407h43v1h-43zM274,407h43v1h-43zM399,407h43v1h-43zM67,408h45v1h-45zM176,408h43v1h-43zM274,408h43v1h-43zM399,408h43v1h-43zM67,409h45v1h-45zM176,409h43v1h-43zM274,409h43v1h-43zM399,409h43v1h-43zM67,410h45v1h-45zM176,410h43v1h-43zM274,410h43v1h-43zM399,410h43v1h-43zM67,411h45v1h-45zM176,411h43v1h-43zM274,411h43v1h-43zM399,411h43v1h-43zM67,412h45v1h-45zM176,412h43v1h-43zM274,412h43v1h-43zM399,412h43v1h-43zM67,413h45v1h-45zM176,413h43v1h-43zM275,413h42v1h-42zM398,413h44v1h-44zM67,414h45v1h-45zM176,414h43v1h-43zM275,414h42v1h-42zM398,414h44v1h-44zM67,415h45v1h-45zM176,415h43v1h-43zM275,415h42v1h-42zM398,415h44v1h-44zM67,416h45v1h-45zM176,416h43v1h-43zM275,416h42v1h-42zM398,416h44v1h-44zM67,417h45v1h-45zM176,417h43v1h-43zM275,417h42v1h-42zM398,417h44v1h-44zM67,418h45v1h-45zM176,418h43v1h-43zM275,418h42v1h-42zM398,418h44v1h-44zM67,419h45v1h-45zM176,419h43v1h-43zM275,419h42v1h-42zM398,419h44v1h-44zM67,420h45v1h-45zM176,420h43v1h-43zM275,420h42v1h-42zM398,420h44v1h-44zM67,421h45v1h-45zM176,421h43v1h-43zM275,421h42v1h-42zM398,421h44v1h-44zM67,422h45v1h-45zM176,422h43v1h-43zM275,422h42v1h-42zM398,422h44v1h-44zM67,423h45v1h-45zM176,423h43v1h-43zM275,423h42v1h-42zM398,423h44v1h-44zM67,424h45v1h-45zM176,424h43v1h-43zM275,424h42v1h-42zM398,424h44v1h-44zM67,425h45v1h-45zM176,425h43v1h-43zM275,425h42v1h-42zM398,425h44v1h-44zM67,426h45v1h-45zM176,426h43v1h-43zM275,426h42v1h-42zM398,426h44v1h-44zM67,427h45v1h-45zM176,427h43v1h-43zM275,427h43v1h-43zM398,427h44v1h-44zM67,428h45v1h-45zM176,428h43v1h-43zM274,428h44v1h-44zM398,428h44v1h-44zM67,429h45v1h-45zM176,429h43v1h-43zM274,429h44v1h-44zM398,429h44v1h-44zM67,430h45v1h-45zM176,430h43v1h-43zM274,430h44v1h-44zM398,430h44v1h-44zM67,431h45v1h-45zM176,431h43v1h-43zM274,431h44v1h-44zM398,431h44v1h-44zM67,432h45v1h-45zM176,432h43v1h-43zM274,432h44v1h-44zM398,432h44v1h-44zM67,433h44v1h-44zM176,433h43v1h-43zM274,433h44v1h-44zM398,433h44v1h-44zM67,434h44v1h-44zM176,434h43v1h-43zM274,434h44v1h-44zM398,434h44v1h-44zM67,435h44v1h-44zM176,435h43v1h-43zM274,435h44v1h-44zM398,435h44v1h-44zM67,436h44v1h-44zM176,436h43v1h-43zM274,436h44v1h-44zM398,436h44v1h-44zM67,437h44v1h-44zM176,437h43v1h-43zM274,437h44v1h-44zM398,437h44v1h-44zM67,438h44v1h-44zM176,438h43v1h-43zM274,438h44v1h-44zM398,438h44v1h-44zM67,439h45v1h-45zM176,439h43v1h-43zM274,439h44v1h-44zM398,439h44v1h-44zM67,440h45v1h-45zM176,440h43v1h-43zM274,440h44v1h-44zM398,440h44v1h-44zM67,441h45v1h-45zM176,441h43v1h-43zM274,441h44v1h-44zM398,441h44v1h-44zM68,442h44v1h-44zM176,442h43v1h-43zM274,442h44v1h-44zM398,442h44v1h-44zM68,443h44v1h-44zM176,443h43v1h-43zM274,443h44v1h-44zM398,443h44v1h-44zM68,444h44v1h-44zM176,444h43v1h-43zM274,444h44v1h-44zM398,444h44v1h-44zM68,445h44v1h-44zM176,445h43v1h-43zM274,445h44v1h-44zM398,445h44v1h-44zM68,446h44v1h-44zM176,446h43v1h-43zM274,446h44v1h-44zM398,446h44v1h-44zM68,447h45v1h-45zM176,447h43v1h-43zM274,447h44v1h-44zM398,447h44v1h-44zM68,448h45v1h-45zM176,448h43v1h-43zM274,448h44v1h-44zM398,448h44v1h-44zM69,449h45v1h-45zM176,449h43v1h-43zM274,449h44v1h-44zM398,449h44v1h-44zM69,450h45v1h-45zM176,450h43v1h-43zM274,450h44v1h-44zM398,450h44v1h-44zM69,451h46v1h-46zM177,451h42v1h-42zM275,451h43v1h-43zM398,451h44v1h-44zM69,452h47v1h-47zM177,452h42v1h-42zM275,452h43v1h-43zM397,452h45v1h-45zM69,453h48v1h-48zM177,453h42v1h-42zM275,453h43v1h-43zM397,453h45v1h-45zM69,454h49v1h-49zM177,454h42v1h-42zM275,454h43v1h-43zM396,454h46v1h-46zM69,455h50v1h-50zM177,455h42v1h-42zM275,455h43v1h-43zM396,455h46v1h-46zM70,456h50v1h-50zM177,456h42v1h-42zM275,456h43v1h-43zM395,456h47v1h-47zM70,457h52v1h-52zM177,457h42v1h-42zM275,457h43v1h-43zM394,457h47v1h-47zM70,458h53v1h-53zM177,458h42v1h-42zM275,458h43v1h-43zM393,458h48v1h-48zM71,459h54v1h-54zM177,459h42v1h-42zM275,459h43v1h-43zM391,459h50v1h-50zM71,460h56v1h-56zM177,460h43v1h-43zM274,460h44v1h-44zM389,460h52v1h-52zM71,461h370v1h-370zM72,462h369v1h-369zM72,463h368v1h-368zM72,464h368v1h-368zM73,465h367v1h-367zM73,466h366v1h-366zM74,467h365v1h-365zM74,468h364v1h-364zM75,469h363v1h-363zM76,470h361v1h-361zM76,471h361v1h-361zM77,472h359v1h-359zM77,473h359v1h-359zM78,474h357v1h-357zM79,475h356v1h-356zM79,476h355v1h-355zM80,477h353v1h-353zM81,478h352v1h-352zM82,479h350v1h-350zM83,480h348v1h-348zM84,481h347v1h-347zM85,482h345v1h-345zM85,483h344v1h-344zM86,484h342v1h-342zM87,485h340v1h-340zM88,486h338v1h-338zM89,487h336v1h-336zM91,488h333v1h-333zM92,489h331v1h-331zM93,490h329v1h-329zM94,491h327v1h-327zM95,492h324v1h-324zM97,493h321v1h-321zM98,494h319v1h-319zM100,495h315v1h-315zM102,496h312v1h-312zM104,497h308v1h-308zM105,498h305v1h-305zM108,499h299v1h-299zM110,500h295v1h-295zM114,501h288v1h-288zM116,502h283v1h-283zM120,503h276v1h-276zM128,504h262v1h-262z"/></svg>