<svg xmlns="http://www.w3.org/2000/svg" viewBox="0 0 512 512" width="512" height="512"><path fill="#000" d="M249,21h14v1h-14zM245,22h22v1h-22zM242,23h28v1h-28zM240,24h32v1h-32zM238,25h36v1h-36zM236,26h40v1h-40zM235,27h42v1h-42zM233,28h46v1h-46zM232,29h48v1h-48zM231,30h51v1h-51zM229,31h54v1h-54zM228,32h56v1h-56zM226,33h60v1h-60zM225,34h62v1h-62zM224,35h64v1h-64zM222,36h68v1h-68zM221,37h70v1h-70zM220,38h73v1h-73zM218,39h76v1h-76zM217,40h78v1h-78zM215,41h82v1h-82zM214,42h84v1h-84zM213,43h86v1h-86zM211,44h90v1h-90zM210,45h92v1h-92zM208,46h96v1h-96zM207,47h98v1h-98zM206,48h100v1h-100zM204,49h104v1h-104zM203,50h106v1h-106zM202,51h108v1h-108zM200,52h112v1h-112zM199,53h114v1h-114zM197,54h118v1h-118zM196,55h120v1h-120zM195,56h122v1h-122zM193,57h126v1h-126zM192,58h128v1h-128zM191,59h130v1h-130zM189,60h134v1h-134zM188,61h136v1h-136zM186,62h140v1h-140zM185,63h142v1h-142zM184,64h144v1h-144zM182,65h148v1h-148zM181,66h150v1h-150zM180,67h152v1h-152zM178,68h156v1h-156zM177,69h158v1h-158zM175,70h162v1h-162zM174,71h164v1h-164zM173,72h166v1h-166zM171,73h170v1h-170zM170,74h172v1h-172zM169,75h174v1h-174zM167,76h178v1h-178zM166,77h180v1h-180zM164,78h184v1h-184zM163,79h186v1h-186zM162,80h188v1h-188zM160,81h192v1h-192zM159,82h194v1h-194zM158,83h196v1h-196zM156,84h200v1h-200zM155,85h202v1h-202zM153,86h206v1h-206zM152,87h208v1h-208zM151,88h210v1h-210zM149,89h214v1h-214zM148,90h216v1h-216zM147,91h218v1h-218zM145,92h222v1h-222zM144,93h224v1h-224zM142,94h228v1h-228zM141,95h230v1h-230zM140,96h232v1h-232zM138,97h236v1h-236zM137,98h238v1h-238zM136,99h240v1h-240zM134,100h244v1h-244zM133,101h246v1h-246zM131,102h250v1h-250zM130,103h252v1h-252zM129,104h254v1h-254zM127,105h258v1h-258zM126,106h260v1h-260zM125,107h262v1h-262zM123,108h266v1h-266zM122,109h268v1h-268zM120,110h272v1h-272zM119,111h274v1h-274zM118,112h276v1h-276zM116,113h280v1h-280zM115,114h282v1h-282zM114,115h285v1h-285zM112,116h288v1h-288zM111,117h290v1h-290zM109,118h294v1h-294zM108,119h296v1h-296zM107,120h298v1h-298zM105,121h302v1h-302zM104,122h304v1h-304zM103,123h307v1h-307zM101,124h310v1h-310zM100,125h312v1h-312zM98,126h316v1h-316zM97,127h318v1h-318zM96,128h320v1h-320zM94,129h324v1h-324zM93,130h326v1h-326zM91,131h330v1h-330zM90,132h332v1h-332zM89,133h334v1h-334zM87,134h338v1h-338zM86,135h340v1h-340zM85,136h342v1h-342zM83,137h346v1h-346zM82,138h348v1h-348zM80,139h352v1h-352zM79,140h354v1h-354zM78,141h356v1h-356zM76,142h360v1h-360zM75,143h362v1h-362zM74,144h364v1h-364zM72,145h368v1h-368zM71,146h370v1h-370zM69,147h374v1h-374zM68,148h376v1h-376zM67,149h378v1h-378zM65,150h382v1h-382zM64,151h384v1h-384zM63,152h386v1h-386zM61,153h390v1h-390zM60,154h392v1h-392zM58,155h396v1h-396zM57,156h398v1h-398zM56,157h400v1h-400zM54,158h404v1h-404zM53,159h406v1h-406zM52,160h408v1h-408zM50,161h412v1h-412zM49,162h414v1h-414zM47,163h418v1h-418zM46,164h420v1h-420zM45,165h422v1h-422zM43,166h426v1h-426zM42,167h428v1h-428zM41,168h430v1h-430zM39,169h434v1h-434zM38,170h436v1h-436zM36,171h440v1h-440zM35,172h442v1h-442zM34,173h444v1h-444zM32,174h448v1h-448zM31,175h450v1h-450zM30,176h452v1h-452zM28,177h456v1h-456zM27,178h458v1h-458zM25,179h462v1h-462zM24,180h464v1h-464zM23,181h466v1h-466zM21,182h470v1h-470zM20,183h472v1h-472zM19,184h474v1h-474zM17,185h478v1h-478zM16,186h480v1h-480zM14,187h484v1h-484zM13,188h486v1h-486zM12,189h488v1h-488zM11,190h490v1h-490zM10,191h492v1h-492zM9,192h494v1h-494zM8,193h496v1h-496zM7,194h498v1h-498zM7,195h498v1h-498zM6,196h500v1h-500zM5,197h502v1h-502zM5,198h502v1h-502zM4,199h504v1h-504zM4,200h504v1h-504zM3,201h506v1h-506zM3,202h506v1h-506zM0,203h512v1h-512zM0,204h512v1h-512zM0,205h512v1h-512zM0,206h512v1h-512zM0,207h512v1h-512zM0,208h512v1h-512zM0,209h512v1h-512zM0,210h512v1h-512zM0,211h512v1h-512zM0,212h512v1h-512zM0,213h512v1h-512zM0,214h512v1h-512zM0,215h512v1h-512zM0,216h512v1h-512zM0,217h512v1h-512zM0,218h512v1h-512zM0,219h512v1h-512zM0,220h512v1h-512zM0,221h512v1h-512zM0,222h512v1h-512zM0,223h512v1h-512zM0,224h512v1h-512zM0,225h512v1h-512zM0,226h512v1h-512zM0,227h512v1h-512zM0,228h512v1h-512zM0,229h512v1h-512zM0,230h512v1h-512zM0,231h512v1h-512zM3,232h506v1h-506zM3,233h506v1h-506zM4,234h504v1h-504zM4,235h73v1h-73zM82,235h348v1h-348zM435,235h73v1h-73zM5,236h71v1h-71zM82,236h348v1h-348zM436,236h71v1h-71zM5,237h69v1h-69zM82,237h348v1h-348zM438,237h69v1h-69zM6,238h67v1h-67zM82,238h348v1h-348zM439,238h67v1h-67zM7,239h64v1h-64zM82,239h348v1h-348zM441,239h64v1h-64zM8,240h62v1h-62zM82,240h348v1h-348zM442,240h62v1h-62zM8,241h61v1h-61zM82,241h348v1h-348zM443,241h61v1h-61zM9,242h58v1h-58zM82,242h348v1h-348zM445,242h58v1h-58zM10,243h56v1h-56zM82,243h348v1h-348zM446,243h56v1h-56zM11,244h54v1h-54zM82,244h348v1h-348zM447,244h54v1h-54zM12,245h51v1h-51zM82,245h348v1h-348zM449,245h51v1h-51zM13,246h49v1h-49zM82,246h348v1h-348zM450,246h49v1h-49zM14,247h46v1h-46zM82,247h348v1h-348zM452,247h46v1h-46zM16,248h43v1h-43zM82,248h348v1h-348zM453,248h43v1h-43zM17,249h40v1h-40zM82,249h348v1h-348zM455,249h40v1h-40zM19,250h37v1h-37zM82,250h348v1h-348zM456,250h37v1h-37zM21,251h33v1h-33zM82,251h348v1h-348zM458,251h33v1h-33zM23,252h29v1h-29zM82,252h348v1h-348zM460,252h29v1h-29zM26,253h23v1h-23zM82,253h348v1h-348zM463,253h23v1h-23zM30,254h15v1h-15zM82,254h348v1h-348zM467,254h15v1h-15zM82,255h348v1h-348zM82,256h348v1h-348zM82,257h348v1h-348zM82,258h348v1h-348zM82,259h348v1h-348zM82,260h348v1h-348zM82,261h348v1h-348zM82,262h348v1h-348zM82,263h348v1h-348zM82,264h348v1h-348zM82,265h348v1h-348zM82,266h348v1h-348zM82,267h348v1h-348zM82,268h348v1h-348zM82,269h348v1h-348zM82,270h348v1h-348zM82,271h348v1h-348zM82,272h348v1h-348zM82,273h348v1h-348zM82,274h348v1h-348zM82,275h348v1h-348zM82,276h348v1h-348zM82,277h348v1h-348zM82,278h348v1h-348zM82,279h348v1h-348zM82,280h348v1h-348zM82,281h348v1h-348zM82,282h348v1h-348zM82,283h348v1h-348zM82,284h348v1h-348zM82,285h348v1h-348zM82,286h146v1h-146zM284,286h146v1h-146zM82,287h140v1h-140zM290,287h140v1h-140zM82,288h137v1h-137zM293,288h137v1h-137zM82,289h135v1h-135zM295,289h135v1h-135zM82,290h134v1h-134zM296,290h134v1h-134zM82,291h132v1h-132zM298,291h132v1h-132zM82,292h131v1h-131zM299,292h131v1h-131zM82,293h130v1h-130zM300,293h130v1h-130zM82,294h129v1h-129zM301,294h129v1h-129zM82,295h128v1h-128zM302,295h128v1h-128zM82,296h127v1h-127zM303,296h127v1h-127zM82,297h127v1h-127zM303,297h127v1h-127zM82,298h126v1h-126zM304,298h126v1h-126zM82,299h125v1h-125zM305,299h125v1h-125zM82,300h125v1h-125zM305,300h125v1h-125zM82,301h124v1h-124zM306,301h124v1h-124zM82,302h124v1h-124zM306,302h124v1h-124zM82,303h124v1h-124zM306,303h124v1h-124zM82,304h123v1h-123zM307,304h123v1h-123zM82,305h123v1h-123zM307,305h123v1h-123zM82,306h123v1h-123zM307,306h123v1h-123zM82,307h123v1h-123zM307,307h123v1h-123zM82,308h123v1h-123zM307,308h123v1h-123zM82,309h123v1h-123zM307,309h123v1h-123zM82,310h123v1h-123zM307,310h123v1h-123zM82,311h123v1h-123zM307,311h123v1h-123zM82,312h123v1h-123zM307,312h123v1h-123zM82,313h123v1h-123zM307,313h123v1h-123zM82,314h123v1h-123zM307,314h123v1h-123zM82,315h123v1h-123zM307,315h123v1h-123zM82,316h123v1h-123zM307,316h123v1h-123zM82,317h123v1h-123zM307,317h123v1h-123zM82,318h123v1h-123zM307,318h123v1h-123zM82,319h123v1h-123zM307,319h123v1h-123zM82,320h123v1h-123zM307,320h123v1h-123zM82,321h123v1h-123zM307,321h123v1h-123zM82,322h123v1h-123zM307,322h123v1h-123zM82,323h123v1h-123zM307,323h123v1h-123zM82,324h123v1h-123zM307,324h123v1h-123zM82,325h123v1h-123zM307,325h123v1h-123zM82,326h123v1h-123zM307,326h123v1h-123zM82,327h123v1h-123zM307,327h123v1h-123zM82,328h123v1h-123zM307,328h123v1h-123zM82,329h123v1h-123zM307,329h123v1h-123zM82,330h123v1h-123zM307,330h123v1h-123zM82,331h123v1h-123zM307,331h123v1h-123zM82,332h123v1h-123zM307,332h123v1h-123zM82,333h123v1h-123zM307,333h123v1h-123zM82,334h123v1h-123zM307,334h123v1h-123zM82,335h123v1h-123zM307,335h123v1h-123zM82,336h123v1h-123zM307,336h123v1h-123zM82,337h123v1h-123zM307,337h123v1h-123zM82,338h123v1h-123zM307,338h123v1h-123zM82,339h123v1h-123zM307,339h123v1h-123zM82,340h123v1h-123zM307,340h123v1h-123zM82,341h123v1h-123zM307,341h123v1h-123zM82,342h123v1h-123zM307,342h123v1h-123zM82,343h123v1h-123zM307,343h123v1h-123zM82,344h123v1h-123zM307,344h123v1h-123zM82,345h123v1h-123zM307,345h123v1h-123zM82,346h123v1h-123zM307,346h123v1h-123zM82,347h123v1h-123zM307,347h123v1h-123zM82,348h123v1h-123zM307,348h123v1h-123zM82,349h123v1h-123zM307,349h123v1h-123zM82,350h123v1h-123zM307,350h123v1h-123zM82,351h123v1h-123zM307,351h123v1h-123zM82,352h123v1h-123zM307,352h123v1h-123zM82,353h123v1h-123zM307,353h123v1h-123zM82,354h123v1h-123zM307,354h123v1h-123zM82,355h123v1h-123zM307,355h123v1h-123zM82,356h123v1h-123zM307,356h123v1h-123zM82,357h123v1h-123zM307,357h123v1h-123zM82,358h123v1h-123zM307,358h123v1h-123zM82,359h123v1h-123zM307,359h123v1h-123zM82,360h123v1h-123zM307,360h123v1h-123zM82,361h123v1h-123zM307,361h123v1h-123zM82,362h123v1h-123zM307,362h123v1h-123zM82,363h123v1h-123zM307,363h123v1h-123zM82,364h123v1h-123zM307,364h123v1h-123zM82,365h123v1h-123zM307,365h123v1h-123zM82,366h123v1h-123zM307,366h123v1h-123zM82,367h123v1h-123zM307,367h123v1h-123zM82,368h123v1h-123zM307,368h123v1h-123zM82,369h123v1h-123zM307,369h123v1h-123zM82,370h123v1h-123zM307,370h123v1h-123zM82,371h123v1h-123zM307,371h123v1h-123zM82,372h123v1h-123zM307,372h123v1h-123zM82,373h123v1h-123zM307,373h123v1h-123zM82,374h123v1h-123zM307,374h123v1h-123zM82,375h123v1h-123zM307,375h123v1h-123zM82,376h123v1h-123zM307,376h123v1h-123zM82,377h123v1h-123zM307,377h123v1h-123zM82,378h123v1h-123zM307,378h123v1h-123zM82,379h123v1h-123zM307,379h123v1h-123zM82,380h123v1h-123zM307,380h123v1h-123zM82,381h123v1h-123zM307,381h123v1h-123zM82,382h123v1h-123zM307,382h123v1h-123zM82,383h123v1h-123zM307,383h123v1h-123zM82,384h123v1h-123zM307,384h123v1h-123zM82,385h123v1h-123zM307,385h123v1h-123zM82,386h123v1h-123zM307,386h123v1h-123zM82,387h123v1h-123zM307,387h123v1h-123zM82,388h123v1h-123zM307,388h123v1h-123zM82,389h123v1h-123zM307,389h123v1h-123zM82,390h123v1h-123zM307,390h123v1h-123zM82,391h123v1h-123zM307,391h123v1h-123zM82,392h123v1h-123zM307,392h123v1h-123zM82,393h123v1h-123zM307,393h123v1h-123zM82,394h123v1h-123zM307,394h123v1h-123zM82,395h123v1h-123zM307,395h123v1h-123zM82,396h123v1h-123zM307,396h123v1h-123zM82,397h123v1h-123zM307,397h123v1h-123zM82,398h123v1h-123zM307,398h123v1h-123zM82,399h123v1h-123zM307,399h123v1h-123zM82,400h123v1h-123zM307,400h123v1h-123zM82,401h123v1h-123zM307,401h123v1h-123zM82,402h123v1h-123zM307,402h123v1h-123zM82,403h123v1h-123zM307,403h123v1h-123zM82,404h123v1h-123zM307,404h123v1h-123zM82,405h123v1h-123zM307,405h123v1h-123zM82,406h123v1h-123zM307,406h123v1h-123zM82,407h123v1h-123zM307,407h123v1h-123zM82,408h123v1h-123zM307,408h123v1h-123zM82,409h123v1h-123zM307,409h123v1h-123zM82,410h123v1h-123zM307,410h123v1h-123zM82,411h123v1h-123zM307,411h123v1h-123zM82,412h123v1h-123zM307,412h123v1h-123zM82,413h123v1h-123zM307,413h123v1h-123zM82,414h123v1h-123zM307,414h123v1h-123zM82,415h123v1h-123zM307,415h123v1h-123zM82,416h123v1h-123zM307,416h123v1h-123zM82,417h123v1h-123zM307,417h123v1h-123zM82,418h123v1h-123zM307,418h123v1h-123zM82,419h123v1h-123zM307,419h123v1h-123zM82,420h123v1h-123zM307,420h123v1h-123zM82,421h123v1h-123zM307,421h123v1h-123zM82,422h123v1h-123zM307,422h123v1h-123zM82,423h123v1h-123zM307,423h123v1h-123zM82,424h123v1h-123zM307,424h123v1h-123zM82,425h123v1h-123zM307,425h123v1h-123zM82,426h123v1h-123zM307,426h123v1h-123zM82,427h123v1h-123zM307,427h123v1h-123zM82,428h123v1h-123zM307,428h123v1h-123zM82,429h123v1h-123zM307,429h123v1h-123zM82,430h123v1h-123zM307,430h123v1h-123zM82,431h123v1h-123zM307,431h123v1h-123zM82,432h123v1h-123zM307,432h123v1h-123zM82,433h123v1h-123zM307,433h123v1h-123zM82,434h123v1h-123zM307,434h123v1h-123zM82,435h123v1h-123zM307,435h123v1h-123zM82,436h123v1h-123zM307,436h123v1h-123zM82,437h123v1h-123zM307,437h123v1h-123zM82,438h123v1h-123zM307,438h123v1h-123zM82,439h123v1h-123zM307,439h123v1h-123zM82,440h123v1h-123zM307,440h123v1h-123zM82,441h123v1h-123zM307,441h123v1h-123zM82,442h123v1h-123zM307,442h123v1h-123zM82,443h123v1h-123zM307,443h123v1h-123zM82,444h123v1h-123zM307,444h123v1h-123zM82,445h123v1h-123zM307,445h123v1h-123zM83,446h122v1h-122zM307,446h122v1h-122zM83,447h122v1h-122zM307,447h122v1h-122zM83,448h122v1h-122zM307,448h122v1h-122zM83,449h122v1h-122zM307,449h122v1h-122zM83,450h122v1h-122zM307,450h122v1h-122zM84,451h121v1h-121zM307,451h121v1h-121zM84,452h121v1h-121zM307,452h121v1h-121zM84,453h121v1h-121zM307,453h121v1h-121zM85,454h120v1h-120zM307,454h120v1h-120zM85,455h120v1h-120zM307,455h120v1h-120zM85,456h120v1h-120zM307,456h120v1h-120zM86,457h119v1h-119zM307,457h119v1h-119zM86,458h119v1h-119zM307,458h119v1h-119zM87,459h118v1h-118zM307,459h118v1h-118zM87,460h118v1h-118zM307,460h118v1h-118zM88,461h117v1h-117zM307,461h117v1h-117zM88,462h117v1h-117zM307,462h117v1h-117zM89,463h116v1h-116zM307,463h116v1h-116zM89,464h116v1h-116zM307,464h116v1h-116zM90,465h115v1h-115zM307,465h115v1h-115zM90,466h115v1h-115zM307,466h115v1h-115zM91,467h114v1h-114zM307,467h114v1h-114zM92,468h113v1h-113zM307,468h113v1h-113zM93,469h112v1h-112zM307,469h112v1h-112zM93,470h112v1h-112zM307,470h112v1h-112zM94,471h111v1h-111zM307,471h111v1h-111zM95,472h110v1h-110zM307,472h110v1h-110zM96,473h109v1h-109zM307,473h109v1h-109zM97,474h108v1h-108zM307,474h108v1h-108zM98,475h107v1h-107zM307,475h107v1h-107zM99,476h106v1h-106zM307,476h106v1h-106zM100,477h105v1h-105zM307,477h105v1h-105zM101,478h104v1h-104zM307,478h104v1h-104zM102,479h103v1h-103zM307,479h103v1h-103zM104,480h101v1h-101zM307,480h101v1h-101zM105,481h100v1h-100zM307,481h100v1h-100zM107,482h98v1h-98zM307,482h98v1h-98zM108,483h97v1h-97zM307,483h97v1h-97zM110,484h95v1h-95zM307,484h95v1h-95zM112,485h93v1h-93zM307,485h93v1h-93zM114,486h91v1h-91zM307,486h91v1h-91zM116,487h89v1h-89zM307,487h89v1h-89zM119,488h86v1h-86zM307,488h86v1h-86zM123,489h82v1h-82zM307,489h82v1h-82zM128,490h76v1h-76zM308,490h76v1h-76z"/></svg>