<?xml version="1.0" encoding="UTF-8"?>
<svg xmlns="http://www.w3.org/2000/svg" viewBox="0 0 512 512" width="512" height="512"><path fill="#000" d="M133,56h134v1h-134zM129,57h142v1h-142zM125,58h150v1h-150zM123,59h154v1h-154zM120,60h160v1h-160zM118,61h164v1h-164zM116,62h168v1h-168zM115,63h170v1h-170zM113,64h174v1h-174zM112,65h176v1h-176zM110,66h180v1h-180zM109,67h182v1h-182zM108,68h184v1h-184zM106,69h188v1h-188zM105,70h190v1h-190zM104,71h192v1h-192zM103,72h194v1h-194zM102,73h196v1h-196zM101,74h198v1h-198zM101,75h198v1h-198zM100,76h200v1h-200zM99,77h202v1h-202zM98,78h204v1h-204zM97,79h206v1h-206zM97,80h206v1h-206zM96,81h208v1h-208zM96,82h208v1h-208zM95,83h210v1h-210zM94,84h212v1h-212zM94,85h212v1h-212zM93,86h214v1h-214zM93,87h214v1h-214zM92,88h49v1h-49zM259,88h49v1h-49zM92,89h44v1h-44zM264,89h44v1h-44zM92,90h41v1h-41zM267,90h41v1h-41zM91,91h41v1h-41zM268,91h41v1h-41zM91,92h39v1h-39zM270,92h39v1h-39zM91,93h38v1h-38zM271,93h38v1h-38zM90,94h38v1h-38zM272,94h38v1h-38zM90,95h37v1h-37zM273,95h37v1h-37zM68,96h58v1h-58zM274,96h162v1h-162zM63,97h62v1h-62zM275,97h171v1h-171zM59,98h65v1h-65zM276,98h175v1h-175zM55,99h69v1h-69zM276,99h179v1h-179zM52,100h71v1h-71zM277,100h182v1h-182zM50,101h72v1h-72zM278,101h184v1h-184zM48,102h74v1h-74zM278,102h186v1h-186zM45,103h77v1h-77zM278,103h189v1h-189zM43,104h78v1h-78zM279,104h190v1h-190zM41,105h80v1h-80zM279,105h191v1h-191zM40,106h81v1h-81zM279,106h193v1h-193zM38,107h83v1h-83zM279,107h195v1h-195zM36,108h85v1h-85zM279,108h197v1h-197zM35,109h85v1h-85zM280,109h197v1h-197zM33,110h87v1h-87zM280,110h199v1h-199zM32,111h88v1h-88zM280,111h200v1h-200zM31,112h89v1h-89zM280,112h201v1h-201zM30,113h90v1h-90zM280,113h202v1h-202zM28,114h92v1h-92zM280,114h204v1h-204zM27,115h93v1h-93zM280,115h205v1h-205zM26,116h93v1h-93zM281,116h205v1h-205zM25,117h94v1h-94zM281,117h206v1h-206zM24,118h95v1h-95zM281,118h207v1h-207zM23,119h95v1h-95zM282,119h207v1h-207zM22,120h96v1h-96zM282,120h208v1h-208zM21,121h96v1h-96zM283,121h208v1h-208zM20,122h96v1h-96zM284,122h208v1h-208zM19,123h96v1h-96zM285,123h208v1h-208zM18,124h96v1h-96zM286,124h208v1h-208zM17,125h96v1h-96zM287,125h207v1h-207zM17,126h94v1h-94zM289,126h206v1h-206zM16,127h92v1h-92zM292,127h204v1h-204zM15,128h62v1h-62zM417,128h80v1h-80zM14,129h56v1h-56zM437,129h61v1h-61zM14,130h52v1h-52zM444,130h54v1h-54zM13,131h50v1h-50zM448,131h51v1h-51zM12,132h49v1h-49zM451,132h49v1h-49zM12,133h47v1h-47zM453,133h47v1h-47zM11,134h46v1h-46zM455,134h46v1h-46zM11,135h44v1h-44zM457,135h44v1h-44zM10,136h43v1h-43zM459,136h43v1h-43zM9,137h43v1h-43zM460,137h42v1h-42zM9,138h42v1h-42zM461,138h42v1h-42zM8,139h41v1h-41zM463,139h41v1h-41zM8,140h40v1h-40zM464,140h40v1h-40zM7,141h40v1h-40zM465,141h40v1h-40zM7,142h39v1h-39zM466,142h39v1h-39zM6,143h39v1h-39zM467,143h38v1h-38zM6,144h38v1h-38zM468,144h38v1h-38zM6,145h37v1h-37zM469,145h37v1h-37zM5,146h38v1h-38zM469,146h38v1h-38zM5,147h37v1h-37zM470,147h37v1h-37zM4,148h37v1h-37zM471,148h36v1h-36zM4,149h36v1h-36zM472,149h36v1h-36zM4,150h36v1h-36zM472,150h36v1h-36zM3,151h36v1h-36zM473,151h35v1h-35zM3,152h36v1h-36zM186,152h28v1h-28zM473,152h35v1h-35zM3,153h35v1h-35zM180,153h40v1h-40zM474,153h35v1h-35zM3,154h35v1h-35zM175,154h50v1h-50zM474,154h35v1h-35zM0,155h37v1h-37zM171,155h58v1h-58zM475,155h34v1h-34zM0,156h37v1h-37zM167,156h66v1h-66zM475,156h34v1h-34zM0,157h36v1h-36zM164,157h72v1h-72zM476,157h36v1h-36zM0,158h36v1h-36zM161,158h78v1h-78zM476,158h36v1h-36zM0,159h35v1h-35zM159,159h82v1h-82zM476,159h36v1h-36zM0,160h35v1h-35zM156,160h88v1h-88zM477,160h35v1h-35zM0,161h35v1h-35zM154,161h92v1h-92zM477,161h35v1h-35zM0,162h34v1h-34zM152,162h96v1h-96zM477,162h35v1h-35zM0,163h34v1h-34zM150,163h100v1h-100zM477,163h35v1h-35zM0,164h34v1h-34zM148,164h104v1h-104zM478,164h34v1h-34zM0,165h34v1h-34zM146,165h108v1h-108zM478,165h34v1h-34zM0,166h33v1h-33zM144,166h112v1h-112zM478,166h34v1h-34zM0,167h33v1h-33zM142,167h116v1h-116zM478,167h34v1h-34zM0,168h33v1h-33zM141,168h118v1h-118zM355,168h82v1h-82zM478,168h34v1h-34zM0,169h33v1h-33zM139,169h122v1h-122zM352,169h88v1h-88zM478,169h34v1h-34zM0,170h33v1h-33zM138,170h124v1h-124zM351,170h90v1h-90zM478,170h34v1h-34zM0,171h33v1h-33zM136,171h128v1h-128zM349,171h93v1h-93zM479,171h33v1h-33zM0,172h33v1h-33zM135,172h130v1h-130zM348,172h96v1h-96zM479,172h33v1h-33zM0,173h32v1h-32zM133,173h134v1h-134zM347,173h97v1h-97zM479,173h33v1h-33zM0,174h32v1h-32zM132,174h136v1h-136zM347,174h98v1h-98zM479,174h33v1h-33zM0,175h32v1h-32zM131,175h138v1h-138zM346,175h100v1h-100zM479,175h33v1h-33zM0,176h32v1h-32zM130,176h141v1h-141zM345,176h101v1h-101zM479,176h33v1h-33zM0,177h32v1h-32zM128,177h144v1h-144zM345,177h102v1h-102zM479,177h33v1h-33zM0,178h32v1h-32zM127,178h146v1h-146zM345,178h102v1h-102zM479,178h33v1h-33zM0,179h32v1h-32zM126,179h148v1h-148zM344,179h104v1h-104zM479,179h33v1h-33zM0,180h32v1h-32zM125,180h150v1h-150zM344,180h104v1h-104zM479,180h33v1h-33zM0,181h32v1h-32zM124,181h152v1h-152zM344,181h104v1h-104zM479,181h33v1h-33zM0,182h32v1h-32zM123,182h154v1h-154zM344,182h104v1h-104zM479,182h33v1h-33zM0,183h32v1h-32zM122,183h156v1h-156zM344,183h104v1h-104zM479,183h33v1h-33zM0,184h32v1h-32zM121,184h75v1h-75zM204,184h75v1h-75zM344,184h104v1h-104zM479,184h33v1h-33zM0,185h32v1h-32zM120,185h67v1h-67zM213,185h67v1h-67zM344,185h104v1h-104zM479,185h33v1h-33zM0,186h32v1h-32zM119,186h63v1h-63zM218,186h63v1h-63zM344,186h104v1h-104zM479,186h33v1h-33zM0,187h32v1h-32zM118,187h60v1h-60zM222,187h60v1h-60zM344,187h104v1h-104zM479,187h33v1h-33zM0,188h32v1h-32zM117,188h58v1h-58zM225,188h58v1h-58zM344,188h104v1h-104zM479,188h33v1h-33zM0,189h32v1h-32zM116,189h56v1h-56zM228,189h56v1h-56zM345,189h102v1h-102zM479,189h33v1h-33zM0,190h32v1h-32zM115,190h54v1h-54zM231,190h54v1h-54zM345,190h102v1h-102zM479,190h33v1h-33zM0,191h32v1h-32zM114,191h53v1h-53zM233,191h53v1h-53zM345,191h102v1h-102zM480,191h32v1h-32zM0,192h32v1h-32zM113,192h52v1h-52zM235,192h52v1h-52zM346,192h100v1h-100zM480,192h32v1h-32zM0,193h32v1h-32zM113,193h50v1h-50zM237,193h50v1h-50zM347,193h98v1h-98zM480,193h32v1h-32zM0,194h32v1h-32zM112,194h49v1h-49zM239,194h49v1h-49zM348,194h96v1h-96zM480,194h32v1h-32zM0,195h32v1h-32zM111,195h48v1h-48zM241,195h48v1h-48zM348,195h96v1h-96zM480,195h32v1h-32zM0,196h32v1h-32zM110,196h48v1h-48zM242,196h48v1h-48zM350,196h92v1h-92zM480,196h32v1h-32zM0,197h32v1h-32zM109,197h47v1h-47zM244,197h47v1h-47zM351,197h90v1h-90zM480,197h32v1h-32zM0,198h32v1h-32zM109,198h46v1h-46zM245,198h46v1h-46zM353,198h87v1h-87zM480,198h32v1h-32zM0,199h32v1h-32zM108,199h45v1h-45zM247,199h45v1h-45zM355,199h82v1h-82zM480,199h32v1h-32zM0,200h32v1h-32zM107,200h45v1h-45zM248,200h45v1h-45zM480,200h32v1h-32zM0,201h32v1h-32zM107,201h44v1h-44zM249,201h44v1h-44zM480,201h32v1h-32zM0,202h32v1h-32zM106,202h43v1h-43zM251,202h43v1h-43zM480,202h32v1h-32zM0,203h32v1h-32zM105,203h43v1h-43zM252,203h43v1h-43zM480,203h32v1h-32zM0,204h32v1h-32zM105,204h42v1h-42zM253,204h42v1h-42zM480,204h32v1h-32zM0,205h32v1h-32zM104,205h42v1h-42zM254,205h42v1h-42zM480,205h32v1h-32zM0,206h32v1h-32zM103,206h42v1h-42zM255,206h42v1h-42zM480,206h32v1h-32zM0,207h32v1h-32zM103,207h41v1h-41zM256,207h41v1h-41zM480,207h32v1h-32zM0,208h32v1h-32zM102,208h41v1h-41zM257,208h41v1h-41zM480,208h32v1h-32zM0,209h32v1h-32zM102,209h40v1h-40zM258,209h40v1h-40zM480,209h32v1h-32zM0,210h32v1h-32zM101,210h40v1h-40zM259,210h40v1h-40zM480,210h32v1h-32zM0,211h32v1h-32zM101,211h39v1h-39zM260,211h39v1h-39zM480,211h32v1h-32zM0,212h32v1h-32zM100,212h39v1h-39zM261,212h39v1h-39zM480,212h32v1h-32zM0,213h32v1h-32zM100,213h38v1h-38zM262,213h38v1h-38zM480,213h32v1h-32zM0,214h32v1h-32zM99,214h39v1h-39zM262,214h39v1h-39zM480,214h32v1h-32zM0,215h32v1h-32zM99,215h38v1h-38zM263,215h38v1h-38zM480,215h32v1h-32zM0,216h32v1h-32zM98,216h38v1h-38zM264,216h38v1h-38zM480,216h32v1h-32zM0,217h32v1h-32zM98,217h37v1h-37zM265,217h37v1h-37zM480,217h32v1h-32zM0,218h32v1h-32zM97,218h38v1h-38zM265,218h38v1h-38zM480,218h32v1h-32zM0,219h32v1h-32zM97,219h37v1h-37zM266,219h37v1h-37zM480,219h32v1h-32zM0,220h32v1h-32zM96,220h37v1h-37zM267,220h37v1h-37zM480,220h32v1h-32zM0,221h32v1h-32zM96,221h37v1h-37zM267,221h37v1h-37zM480,221h32v1h-32zM0,222h32v1h-32zM96,222h36v1h-36zM268,222h36v1h-36zM480,222h32v1h-32zM0,223h32v1h-32zM95,223h36v1h-36zM269,223h36v1h-36zM480,223h32v1h-32zM0,224h32v1h-32zM95,224h36v1h-36zM269,224h36v1h-36zM480,224h32v1h-32zM0,225h32v1h-32zM94,225h36v1h-36zM270,225h36v1h-36zM480,225h32v1h-32zM0,226h32v1h-32zM94,226h36v1h-36zM270,226h36v1h-36zM480,226h32v1h-32zM0,227h32v1h-32zM94,227h35v1h-35zM271,227h35v1h-35zM480,227h32v1h-32zM0,228h32v1h-32zM93,228h36v1h-36zM271,228h36v1h-36zM480,228h32v1h-32zM0,229h32v1h-32zM93,229h35v1h-35zM272,229h35v1h-35zM480,229h32v1h-32zM0,230h32v1h-32zM93,230h35v1h-35zM272,230h35v1h-35zM480,230h32v1h-32zM0,231h32v1h-32zM92,231h35v1h-35zM273,231h35v1h-35zM480,231h32v1h-32zM0,232h32v1h-32zM92,232h35v1h-35zM273,232h35v1h-35zM480,232h32v1h-32zM0,233h32v1h-32zM92,233h34v1h-34zM274,233h34v1h-34zM480,233h32v1h-32zM0,234h32v1h-32zM92,234h34v1h-34zM274,234h34v1h-34zM480,234h32v1h-32zM0,235h32v1h-32zM91,235h35v1h-35zM274,235h35v1h-35zM480,235h32v1h-32zM0,236h32v1h-32zM91,236h34v1h-34zM275,236h34v1h-34zM480,236h32v1h-32zM0,237h32v1h-32zM91,237h34v1h-34zM275,237h34v1h-34zM480,237h32v1h-32zM0,238h32v1h-32zM91,238h34v1h-34zM275,238h34v1h-34zM480,238h32v1h-32zM0,239h32v1h-32zM90,239h34v1h-34zM276,239h34v1h-34zM480,239h32v1h-32zM0,240h32v1h-32zM90,240h34v1h-34zM276,240h34v1h-34zM480,240h32v1h-32zM0,241h32v1h-32zM90,241h34v1h-34zM276,241h34v1h-34zM480,241h32v1h-32zM0,242h32v1h-32zM90,242h33v1h-33zM277,242h33v1h-33zM480,242h32v1h-32zM0,243h32v1h-32zM90,243h33v1h-33zM277,243h33v1h-33zM480,243h32v1h-32zM0,244h32v1h-32zM89,244h34v1h-34zM277,244h34v1h-34zM480,244h32v1h-32zM0,245h32v1h-32zM89,245h34v1h-34zM277,245h34v1h-34zM480,245h32v1h-32zM0,246h32v1h-32zM89,246h33v1h-33zM278,246h33v1h-33zM480,246h32v1h-32zM0,247h32v1h-32zM89,247h33v1h-33zM278,247h33v1h-33zM480,247h32v1h-32zM0,248h32v1h-32zM89,248h33v1h-33zM278,248h33v1h-33zM480,248h32v1h-32zM0,249h32v1h-32zM89,249h33v1h-33zM278,249h33v1h-33zM480,249h32v1h-32zM0,250h32v1h-32zM88,250h34v1h-34zM278,250h34v1h-34zM480,250h32v1h-32zM0,251h32v1h-32zM88,251h33v1h-33zM279,251h33v1h-33zM480,251h32v1h-32zM0,252h32v1h-32zM88,252h33v1h-33zM279,252h33v1h-33zM480,252h32v1h-32zM0,253h32v1h-32zM88,253h33v1h-33zM279,253h33v1h-33zM480,253h32v1h-32zM0,254h32v1h-32zM88,254h33v1h-33zM279,254h33v1h-33zM480,254h32v1h-32zM0,255h32v1h-32zM88,255h33v1h-33zM279,255h33v1h-33zM480,255h32v1h-32zM0,256h32v1h-32zM88,256h33v1h-33zM279,256h33v1h-33zM480,256h32v1h-32zM0,257h32v1h-32zM88,257h33v1h-33zM279,257h33v1h-33zM480,257h32v1h-32zM0,258h32v1h-32zM88,258h33v1h-33zM279,258h33v1h-33zM480,258h32v1h-32zM0,259h32v1h-32zM88,259h33v1h-33zM279,259h33v1h-33zM480,259h32v1h-32zM0,260h32v1h-32zM88,260h32v1h-32zM280,260h32v1h-32zM480,260h32v1h-32zM0,261h32v1h-32zM88,261h32v1h-32zM280,261h32v1h-32zM480,261h32v1h-32zM0,262h32v1h-32zM88,262h32v1h-32zM280,262h32v1h-32zM480,262h32v1h-32zM0,263h32v1h-32zM88,263h32v1h-32zM280,263h32v1h-32zM480,263h32v1h-32zM0,264h32v1h-32zM88,264h32v1h-32zM280,264h32v1h-32zM480,264h32v1h-32zM0,265h32v1h-32zM88,265h32v1h-32zM280,265h32v1h-32zM480,265h32v1h-32zM0,266h32v1h-32zM88,266h32v1h-32zM280,266h32v1h-32zM480,266h32v1h-32zM0,267h32v1h-32zM88,267h32v1h-32zM280,267h32v1h-32zM480,267h32v1h-32zM0,268h32v1h-32zM88,268h33v1h-33zM279,268h33v1h-33zM480,268h32v1h-32zM0,269h32v1h-32zM88,269h33v1h-33zM279,269h33v1h-33zM480,269h32v1h-32zM0,270h32v1h-32zM88,270h33v1h-33zM279,270h33v1h-33zM480,270h32v1h-32zM0,271h32v1h-32zM88,271h33v1h-33zM279,271h33v1h-33zM480,271h32v1h-32zM0,272h32v1h-32zM88,272h33v1h-33zM279,272h33v1h-33zM480,272h32v1h-32zM0,273h32v1h-32zM88,273h33v1h-33zM279,273h33v1h-33zM480,273h32v1h-32zM0,274h32v1h-32zM88,274h33v1h-33zM279,274h33v1h-33zM480,274h32v1h-32zM0,275h32v1h-32zM88,275h33v1h-33zM279,275h33v1h-33zM480,275h32v1h-32zM0,276h32v1h-32zM88,276h33v1h-33zM279,276h33v1h-33zM480,276h32v1h-32zM0,277h32v1h-32zM88,277h34v1h-34zM278,277h34v1h-34zM480,277h32v1h-32zM0,278h32v1h-32zM89,278h33v1h-33zM278,278h33v1h-33zM480,278h32v1h-32zM0,279h32v1h-32zM89,279h33v1h-33zM278,279h33v1h-33zM480,279h32v1h-32zM0,280h32v1h-32zM89,280h33v1h-33zM278,280h33v1h-33zM480,280h32v1h-32zM0,281h32v1h-32zM89,281h33v1h-33zM278,281h33v1h-33zM480,281h32v1h-32zM0,282h32v1h-32zM89,282h34v1h-34zM277,282h34v1h-34zM480,282h32v1h-32zM0,283h32v1h-32zM89,283h34v1h-34zM277,283h34v1h-34zM480,283h32v1h-32zM0,284h32v1h-32zM90,284h33v1h-33zM277,284h33v1h-33zM480,284h32v1h-32zM0,285h32v1h-32zM90,285h33v1h-33zM277,285h33v1h-33zM480,285h32v1h-32zM0,286h32v1h-32zM90,286h34v1h-34zM276,286h34v1h-34zM480,286h32v1h-32zM0,287h32v1h-32zM90,287h34v1h-34zM276,287h34v1h-34zM480,287h32v1h-32zM0,288h32v1h-32zM90,288h34v1h-34zM276,288h34v1h-34zM480,288h32v1h-32zM0,289h32v1h-32zM91,289h34v1h-34zM275,289h34v1h-34zM480,289h32v1h-32zM0,290h32v1h-32zM91,290h34v1h-34zM275,290h34v1h-34zM480,290h32v1h-32zM0,291h32v1h-32zM91,291h34v1h-34zM275,291h34v1h-34zM480,291h32v1h-32zM0,292h32v1h-32zM91,292h35v1h-35zM274,292h35v1h-35zM480,292h32v1h-32zM0,293h32v1h-32zM92,293h34v1h-34zM274,293h34v1h-34zM480,293h32v1h-32zM0,294h32v1h-32zM92,294h34v1h-34zM274,294h34v1h-34zM480,294h32v1h-32zM0,295h32v1h-32zM92,295h35v1h-35zM273,295h35v1h-35zM480,295h32v1h-32zM0,296h32v1h-32zM92,296h35v1h-35zM273,296h35v1h-35zM480,296h32v1h-32zM0,297h32v1h-32zM93,297h35v1h-35zM272,297h35v1h-35zM480,297h32v1h-32zM0,298h32v1h-32zM93,298h35v1h-35zM272,298h35v1h-35zM480,298h32v1h-32zM0,299h32v1h-32zM93,299h36v1h-36zM271,299h36v1h-36zM480,299h32v1h-32zM0,300h32v1h-32zM94,300h35v1h-35zM271,300h35v1h-35zM480,300h32v1h-32zM0,301h32v1h-32zM94,301h36v1h-36zM270,301h36v1h-36zM480,301h32v1h-32zM0,302h32v1h-32zM94,302h36v1h-36zM270,302h36v1h-36zM480,302h32v1h-32zM0,303h32v1h-32zM95,303h36v1h-36zM269,303h36v1h-36zM480,303h32v1h-32zM0,304h32v1h-32zM95,304h36v1h-36zM269,304h36v1h-36zM480,304h32v1h-32zM0,305h32v1h-32zM96,305h36v1h-36zM268,305h36v1h-36zM480,305h32v1h-32zM0,306h32v1h-32zM96,306h37v1h-37zM267,306h37v1h-37zM480,306h32v1h-32zM0,307h32v1h-32zM96,307h37v1h-37zM267,307h37v1h-37zM480,307h32v1h-32zM0,308h32v1h-32zM97,308h37v1h-37zM266,308h37v1h-37zM480,308h32v1h-32zM0,309h32v1h-32zM97,309h38v1h-38zM265,309h38v1h-38zM480,309h32v1h-32zM0,310h32v1h-32zM98,310h37v1h-37zM265,310h37v1h-37zM480,310h32v1h-32zM0,311h32v1h-32zM98,311h38v1h-38zM264,311h38v1h-38zM480,311h32v1h-32zM0,312h32v1h-32zM99,312h38v1h-38zM263,312h38v1h-38zM480,312h32v1h-32zM0,313h32v1h-32zM99,313h39v1h-39zM262,313h39v1h-39zM480,313h32v1h-32zM0,314h32v1h-32zM100,314h38v1h-38zM262,314h38v1h-38zM480,314h32v1h-32zM0,315h32v1h-32zM100,315h39v1h-39zM261,315h39v1h-39zM480,315h32v1h-32zM0,316h32v1h-32zM101,316h39v1h-39zM260,316h39v1h-39zM480,316h32v1h-32zM0,317h32v1h-32zM101,317h40v1h-40zM259,317h40v1h-40zM480,317h32v1h-32zM0,318h32v1h-32zM102,318h40v1h-40zM258,318h40v1h-40zM480,318h32v1h-32zM0,319h32v1h-32zM102,319h41v1h-41zM257,319h41v1h-41zM480,319h32v1h-32zM0,320h32v1h-32zM103,320h41v1h-41zM256,320h41v1h-41zM480,320h32v1h-32zM0,321h32v1h-32zM103,321h42v1h-42zM255,321h42v1h-42zM480,321h32v1h-32zM0,322h32v1h-32zM104,322h42v1h-42zM254,322h42v1h-42zM480,322h32v1h-32zM0,323h32v1h-32zM105,323h42v1h-42zM253,323h42v1h-42zM480,323h32v1h-32zM0,324h32v1h-32zM105,324h43v1h-43zM252,324h43v1h-43zM480,324h32v1h-32zM0,325h32v1h-32zM106,325h43v1h-43zM251,325h43v1h-43zM480,325h32v1h-32zM0,326h32v1h-32zM107,326h44v1h-44zM249,326h44v1h-44zM480,326h32v1h-32zM0,327h32v1h-32zM107,327h45v1h-45zM248,327h45v1h-45zM480,327h32v1h-32zM0,328h32v1h-32zM108,328h45v1h-45zM247,328h45v1h-45zM480,328h32v1h-32zM0,329h32v1h-32zM109,329h46v1h-46zM245,329h46v1h-46zM480,329h32v1h-32zM0,330h32v1h-32zM109,330h47v1h-47zM244,330h47v1h-47zM480,330h32v1h-32zM0,331h32v1h-32zM110,331h48v1h-48zM242,331h48v1h-48zM480,331h32v1h-32zM0,332h32v1h-32zM111,332h48v1h-48zM241,332h48v1h-48zM480,332h32v1h-32zM0,333h32v1h-32zM112,333h49v1h-49zM239,333h49v1h-49zM480,333h32v1h-32zM0,334h32v1h-32zM113,334h50v1h-50zM237,334h50v1h-50zM480,334h32v1h-32zM0,335h32v1h-32zM113,335h52v1h-52zM235,335h52v1h-52zM480,335h32v1h-32zM0,336h32v1h-32zM114,336h53v1h-53zM233,336h53v1h-53zM480,336h32v1h-32zM0,337h32v1h-32zM115,337h54v1h-54zM231,337h54v1h-54zM480,337h32v1h-32zM0,338h32v1h-32zM116,338h56v1h-56zM228,338h56v1h-56zM480,338h32v1h-32zM0,339h32v1h-32zM117,339h58v1h-58zM225,339h58v1h-58zM480,339h32v1h-32zM0,340h32v1h-32zM118,340h60v1h-60zM222,340h60v1h-60zM480,340h32v1h-32zM0,341h32v1h-32zM119,341h63v1h-63zM218,341h63v1h-63zM480,341h32v1h-32zM0,342h32v1h-32zM120,342h67v1h-67zM213,342h67v1h-67zM480,342h32v1h-32zM0,343h32v1h-32zM121,343h75v1h-75zM204,343h75v1h-75zM480,343h32v1h-32zM0,344h32v1h-32zM122,344h156v1h-156zM480,344h32v1h-32zM0,345h32v1h-32zM123,345h154v1h-154zM480,345h32v1h-32zM0,346h32v1h-32zM124,346h152v1h-152zM480,346h32v1h-32zM0,347h32v1h-32zM125,347h150v1h-150zM480,347h32v1h-32zM0,348h32v1h-32zM126,348h148v1h-148zM480,348h32v1h-32zM0,349h32v1h-32zM127,349h146v1h-146zM480,349h32v1h-32zM0,350h32v1h-32zM128,350h144v1h-144zM480,350h32v1h-32zM0,351h32v1h-32zM130,351h140v1h-140zM480,351h32v1h-32zM0,352h32v1h-32zM131,352h138v1h-138zM480,352h32v1h-32zM0,353h32v1h-32zM132,353h136v1h-136zM480,353h32v1h-32zM0,354h32v1h-32zM133,354h134v1h-134zM480,354h32v1h-32zM0,355h32v1h-32zM135,355h130v1h-130zM480,355h32v1h-32zM0,356h32v1h-32zM136,356h128v1h-128zM480,356h32v1h-32zM0,357h32v1h-32zM138,357h124v1h-124zM480,357h32v1h-32zM0,358h32v1h-32zM139,358h122v1h-122zM480,358h32v1h-32zM0,359h32v1h-32zM141,359h118v1h-118zM480,359h32v1h-32zM0,360h32v1h-32zM143,360h115v1h-115zM480,360h32v1h-32zM0,361h32v1h-32zM144,361h112v1h-112zM479,361h33v1h-33zM0,362h33v1h-33zM146,362h108v1h-108zM479,362h33v1h-33zM0,363h33v1h-33zM148,363h104v1h-104zM479,363h33v1h-33zM0,364h33v1h-33zM150,364h100v1h-100zM479,364h33v1h-33zM0,365h33v1h-33zM152,365h96v1h-96zM479,365h33v1h-33zM0,366h33v1h-33zM154,366h92v1h-92zM479,366h33v1h-33zM0,367h33v1h-33zM156,367h88v1h-88zM479,367h33v1h-33zM0,368h33v1h-33zM159,368h82v1h-82zM479,368h33v1h-33zM0,369h33v1h-33zM161,369h78v1h-78zM479,369h33v1h-33zM0,370h33v1h-33zM164,370h72v1h-72zM479,370h33v1h-33zM0,371h33v1h-33zM167,371h66v1h-66zM479,371h33v1h-33zM0,372h33v1h-33zM171,372h58v1h-58zM479,372h33v1h-33zM0,373h33v1h-33zM175,373h50v1h-50zM479,373h33v1h-33zM0,374h33v1h-33zM180,374h40v1h-40zM479,374h33v1h-33zM0,375h33v1h-33zM186,375h28v1h-28zM479,375h33v1h-33zM0,376h33v1h-33zM479,376h33v1h-33zM0,377h33v1h-33zM479,377h33v1h-33zM0,378h33v1h-33zM479,378h33v1h-33zM0,379h33v1h-33zM479,379h33v1h-33zM0,380h33v1h-33zM479,380h33v1h-33zM0,381h34v1h-34zM478,381h34v1h-34zM0,382h34v1h-34zM478,382h34v1h-34zM0,383h34v1h-34zM478,383h34v1h-34zM0,384h34v1h-34zM478,384h34v1h-34zM0,385h34v1h-34zM478,385h34v1h-34zM0,386h34v1h-34zM478,386h34v1h-34zM0,387h34v1h-34zM478,387h34v1h-34zM0,388h35v1h-35zM477,388h35v1h-35zM0,389h35v1h-35zM477,389h35v1h-35zM0,390h35v1h-35zM477,390h35v1h-35zM0,391h35v1h-35zM477,391h35v1h-35zM0,392h36v1h-36zM476,392h36v1h-36zM0,393h36v1h-36zM476,393h36v1h-36zM0,394h36v1h-36zM476,394h36v1h-36zM3,395h34v1h-34zM475,395h34v1h-34zM3,396h34v1h-34zM475,396h34v1h-34zM3,397h35v1h-35zM474,397h35v1h-35zM3,398h35v1h-35zM474,398h35v1h-35zM4,399h35v1h-35zM473,399h35v1h-35zM4,400h35v1h-35zM473,400h35v1h-35zM4,401h36v1h-36zM472,401h36v1h-36zM4,402h36v1h-36zM472,402h36v1h-36zM5,403h36v1h-36zM471,403h36v1h-36zM5,404h37v1h-37zM470,404h37v1h-37zM5,405h38v1h-38zM469,405h38v1h-38zM6,406h37v1h-37zM469,406h37v1h-37zM6,407h38v1h-38zM468,407h38v1h-38zM7,408h38v1h-38zM467,408h38v1h-38zM7,409h39v1h-39zM466,409h39v1h-39zM7,410h40v1h-40zM465,410h40v1h-40zM8,411h40v1h-40zM464,411h40v1h-40zM8,412h41v1h-41zM463,412h41v1h-41zM9,413h42v1h-42zM461,413h42v1h-42zM10,414h42v1h-42zM460,414h42v1h-42zM10,415h43v1h-43zM459,415h43v1h-43zM11,416h44v1h-44zM457,416h44v1h-44zM11,417h46v1h-46zM455,417h46v1h-46zM12,418h47v1h-47zM453,418h47v1h-47zM12,419h49v1h-49zM451,419h49v1h-49zM13,420h51v1h-51zM448,420h51v1h-51zM14,421h54v1h-54zM444,421h54v1h-54zM14,422h61v1h-61zM437,422h61v1h-61zM15,423h82v1h-82zM415,423h82v1h-82zM16,424h480v1h-480zM17,425h478v1h-478zM18,426h476v1h-476zM18,427h476v1h-476zM19,428h474v1h-474zM20,429h472v1h-472zM21,430h470v1h-470zM22,431h468v1h-468zM23,432h466v1h-466zM24,433h464v1h-464zM25,434h462v1h-462zM26,435h460v1h-460zM27,436h458v1h-458zM28,437h456v1h-456zM30,438h452v1h-452zM31,439h450v1h-450zM32,440h448v1h-448zM34,441h445v1h-445zM35,442h442v1h-442zM36,443h440v1h-440zM38,444h436v1h-436zM40,445h432v1h-432zM42,446h429v1h-429zM43,447h426v1h-426zM45,448h422v1h-422zM48,449h416v1h-416zM50,450h412v1h-412zM53,451h406v1h-406zM57,452h398v1h-398zM61,453h390v1h-390zM66,454h380v1h-380zM76,455h360v1h-360z"/></svg>