<svg xmlns="http://www.w3.org/2000/svg" viewBox="0 0 512 512" width="512" height="512"><path fill="#000" d="M245,0h23v1h-23zM245,1h23v1h-23zM245,2h23v1h-23zM243,3h27v1h-27zM241,4h30v1h-30zM239,5h34v1h-34zM238,6h36v1h-36zM237,7h38v1h-38zM236,8h40v1h-40zM235,9h42v1h-42zM234,10h44v1h-44zM233,11h46v1h-46zM232,12h48v1h-48zM232,13h49v1h-49zM231,14h50v1h-50zM230,15h52v1h-52zM230,16h52v1h-52zM229,17h54v1h-54zM229,18h54v1h-54zM229,19h55v1h-55zM228,20h56v1h-56zM228,21h56v1h-56zM228,22h57v1h-57zM227,23h58v1h-58zM227,24h58v1h-58zM227,25h58v1h-58zM227,26h58v1h-58zM227,27h58v1h-58zM227,28h58v1h-58zM227,29h58v1h-58zM227,30h58v1h-58zM227,31h58v1h-58zM227,32h58v1h-58zM227,33h58v1h-58zM227,34h58v1h-58zM227,35h58v1h-58zM227,36h58v1h-58zM227,37h58v1h-58zM227,38h58v1h-58zM227,39h58v1h-58zM227,40h58v1h-58zM227,41h58v1h-58zM227,42h58v1h-58zM227,43h58v1h-58zM227,44h58v1h-58zM227,45h58v1h-58zM227,46h58v1h-58zM227,47h58v1h-58zM227,48h58v1h-58zM227,49h58v1h-58zM227,50h58v1h-58zM227,51h58v1h-58zM227,52h58v1h-58zM227,53h58v1h-58zM227,54h58v1h-58zM227,55h58v1h-58zM227,56h58v1h-58zM227,57h58v1h-58zM227,58h58v1h-58zM227,59h58v1h-58zM227,60h58v1h-58zM227,61h58v1h-58zM227,62h58v1h-58zM227,63h58v1h-58zM227,64h58v1h-58zM227,65h58v1h-58zM227,66h58v1h-58zM227,67h58v1h-58zM227,68h58v1h-58zM227,69h58v1h-58zM227,70h58v1h-58zM227,71h58v1h-58zM227,72h58v1h-58zM227,73h58v1h-58zM227,74h58v1h-58zM227,75h58v1h-58zM227,76h58v1h-58zM227,77h58v1h-58zM227,78h58v1h-58zM227,79h58v1h-58zM227,80h58v1h-58zM227,81h58v1h-58zM227,82h58v1h-58zM227,83h58v1h-58zM227,84h58v1h-58zM227,85h58v1h-58zM227,86h58v1h-58zM227,87h58v1h-58zM227,88h58v1h-58zM227,89h58v1h-58zM227,90h58v1h-58zM227,91h58v1h-58zM227,92h58v1h-58zM227,93h58v1h-58zM227,94h58v1h-58zM227,95h58v1h-58zM227,96h58v1h-58zM227,97h58v1h-58zM227,98h58v1h-58zM227,99h58v1h-58zM227,100h58v1h-58zM227,101h58v1h-58zM227,102h58v1h-58zM227,103h58v1h-58zM227,104h58v1h-58zM227,105h58v1h-58zM227,106h58v1h-58zM227,107h58v1h-58zM227,108h58v1h-58zM227,109h58v1h-58zM227,110h58v1h-58zM227,111h58v1h-58zM227,112h58v1h-58zM227,113h58v1h-58zM227,114h58v1h-58zM227,115h58v1h-58zM227,116h58v1h-58zM227,117h58v1h-58zM227,118h58v1h-58zM227,119h58v1h-58zM227,120h58v1h-58zM227,121h58v1h-58zM227,122h58v1h-58zM227,123h58v1h-58zM227,124h58v1h-58zM227,125h58v1h-58zM227,126h58v1h-58zM227,127h58v1h-58zM227,128h58v1h-58zM227,129h58v1h-58zM227,130h58v1h-58zM227,131h58v1h-58zM227,132h58v1h-58zM227,133h58v1h-58zM227,134h58v1h-58zM227,135h58v1h-58zM227,136h58v1h-58zM227,137h58v1h-58zM227,138h58v1h-58zM227,139h58v1h-58zM227,140h58v1h-58zM227,141h58v1h-58zM227,142h58v1h-58zM227,143h58v1h-58zM227,144h58v1h-58zM227,145h58v1h-58zM227,146h58v1h-58zM227,147h58v1h-58zM227,148h58v1h-58zM227,149h58v1h-58zM227,150h58v1h-58zM227,151h58v1h-58zM227,152h58v1h-58zM227,153h58v1h-58zM227,154h58v1h-58zM227,155h58v1h-58zM227,156h58v1h-58zM227,157h58v1h-58zM227,158h58v1h-58zM227,159h58v1h-58zM227,160h58v1h-58zM227,161h58v1h-58zM227,162h58v1h-58zM227,163h58v1h-58zM227,164h58v1h-58zM227,165h58v1h-58zM227,166h58v1h-58zM227,167h58v1h-58zM227,168h58v1h-58zM227,169h58v1h-58zM227,170h58v1h-58zM227,171h58v1h-58zM227,172h58v1h-58zM227,173h58v1h-58zM227,174h58v1h-58zM227,175h58v1h-58zM227,176h58v1h-58zM227,177h58v1h-58zM227,178h58v1h-58zM227,179h58v1h-58zM227,180h58v1h-58zM227,181h58v1h-58zM227,182h58v1h-58zM227,183h58v1h-58zM112,184h15v1h-15zM227,184h58v1h-58zM389,184h10v1h-10zM109,185h21v1h-21zM227,185h58v1h-58zM385,185h18v1h-18zM106,186h26v1h-26zM227,186h58v1h-58zM382,186h24v1h-24zM104,187h30v1h-30zM227,187h58v1h-58zM380,187h28v1h-28zM103,188h32v1h-32zM227,188h58v1h-58zM378,188h31v1h-31zM102,189h34v1h-34zM227,189h58v1h-58zM377,189h34v1h-34zM100,190h38v1h-38zM227,190h58v1h-58zM376,190h36v1h-36zM99,191h40v1h-40zM227,191h58v1h-58zM374,191h39v1h-39zM98,192h42v1h-42zM227,192h58v1h-58zM373,192h41v1h-41zM98,193h43v1h-43zM227,193h58v1h-58zM372,193h43v1h-43zM97,194h45v1h-45zM227,194h58v1h-58zM371,194h45v1h-45zM96,195h47v1h-47zM227,195h58v1h-58zM370,195h47v1h-47zM95,196h50v1h-50zM227,196h58v1h-58zM369,196h49v1h-49zM94,197h52v1h-52zM227,197h58v1h-58zM367,197h51v1h-51zM94,198h53v1h-53zM227,198h58v1h-58zM366,198h53v1h-53zM93,199h55v1h-55zM227,199h58v1h-58zM365,199h55v1h-55zM93,200h56v1h-56zM227,200h58v1h-58zM364,200h56v1h-56zM92,201h58v1h-58zM227,201h58v1h-58zM363,201h58v1h-58zM92,202h60v1h-60zM227,202h58v1h-58zM362,202h59v1h-59zM91,203h62v1h-62zM227,203h58v1h-58zM361,203h61v1h-61zM91,204h63v1h-63zM227,204h58v1h-58zM359,204h63v1h-63zM91,205h64v1h-64zM227,205h58v1h-58zM358,205h64v1h-64zM90,206h66v1h-66zM227,206h58v1h-58zM357,206h65v1h-65zM90,207h67v1h-67zM227,207h58v1h-58zM356,207h67v1h-67zM90,208h68v1h-68zM227,208h58v1h-58zM355,208h68v1h-68zM90,209h70v1h-70zM227,209h58v1h-58zM354,209h69v1h-69zM90,210h71v1h-71zM227,210h58v1h-58zM352,210h71v1h-71zM90,211h72v1h-72zM227,211h58v1h-58zM351,211h72v1h-72zM90,212h73v1h-73zM227,212h58v1h-58zM350,212h73v1h-73zM90,213h74v1h-74zM227,213h58v1h-58zM349,213h74v1h-74zM90,214h75v1h-75zM227,214h58v1h-58zM348,214h75v1h-75zM90,215h77v1h-77zM227,215h58v1h-58zM347,215h76v1h-76zM90,216h78v1h-78zM227,216h58v1h-58zM345,216h78v1h-78zM90,217h79v1h-79zM227,217h58v1h-58zM344,217h79v1h-79zM90,218h80v1h-80zM227,218h58v1h-58zM343,218h80v1h-80zM91,219h80v1h-80zM227,219h58v1h-58zM342,219h80v1h-80zM91,220h81v1h-81zM227,220h58v1h-58zM341,220h81v1h-81zM91,221h83v1h-83zM227,221h58v1h-58zM340,221h82v1h-82zM91,222h84v1h-84zM227,222h58v1h-58zM338,222h84v1h-84zM92,223h84v1h-84zM227,223h58v1h-58zM337,223h84v1h-84zM92,224h85v1h-85zM227,224h58v1h-58zM336,224h85v1h-85zM93,225h85v1h-85zM227,225h58v1h-58zM335,225h86v1h-86zM93,226h86v1h-86zM227,226h58v1h-58zM334,226h86v1h-86zM94,227h86v1h-86zM227,227h58v1h-58zM333,227h86v1h-86zM94,228h88v1h-88zM227,228h58v1h-58zM332,228h87v1h-87zM95,229h88v1h-88zM227,229h58v1h-58zM330,229h88v1h-88zM96,230h88v1h-88zM227,230h58v1h-58zM329,230h89v1h-89zM97,231h88v1h-88zM227,231h58v1h-58zM328,231h89v1h-89zM98,232h88v1h-88zM227,232h58v1h-58zM327,232h89v1h-89zM99,233h88v1h-88zM227,233h58v1h-58zM326,233h89v1h-89zM100,234h89v1h-89zM227,234h58v1h-58zM325,234h89v1h-89zM101,235h89v1h-89zM227,235h58v1h-58zM323,235h90v1h-90zM102,236h89v1h-89zM227,236h58v1h-58zM322,236h90v1h-90zM103,237h89v1h-89zM227,237h58v1h-58zM321,237h89v1h-89zM104,238h89v1h-89zM227,238h58v1h-58zM320,238h89v1h-89zM106,239h88v1h-88zM227,239h58v1h-58zM319,239h89v1h-89zM107,240h89v1h-89zM227,240h58v1h-58zM318,240h89v1h-89zM108,241h89v1h-89zM227,241h58v1h-58zM316,241h90v1h-90zM109,242h89v1h-89zM227,242h58v1h-58zM315,242h90v1h-90zM110,243h89v1h-89zM227,243h58v1h-58zM314,243h89v1h-89zM111,244h89v1h-89zM227,244h58v1h-58zM313,244h89v1h-89zM113,245h88v1h-88zM227,245h58v1h-58zM312,245h89v1h-89zM114,246h89v1h-89zM227,246h58v1h-58zM311,246h89v1h-89zM115,247h89v1h-89zM227,247h58v1h-58zM309,247h90v1h-90zM116,248h89v1h-89zM227,248h58v1h-58zM308,248h90v1h-90zM117,249h89v1h-89zM227,249h58v1h-58zM307,249h89v1h-89zM118,250h89v1h-89zM227,250h58v1h-58zM306,250h89v1h-89zM119,251h89v1h-89zM227,251h58v1h-58zM305,251h89v1h-89zM121,252h89v1h-89zM227,252h58v1h-58zM304,252h89v1h-89zM122,253h89v1h-89zM227,253h58v1h-58zM303,253h89v1h-89zM123,254h89v1h-89zM227,254h58v1h-58zM301,254h90v1h-90zM124,255h89v1h-89zM227,255h58v1h-58zM300,255h89v1h-89zM125,256h89v1h-89zM227,256h58v1h-58zM299,256h89v1h-89zM126,257h89v1h-89zM227,257h58v1h-58zM298,257h89v1h-89zM127,258h90v1h-90zM227,258h58v1h-58zM297,258h89v1h-89zM129,259h89v1h-89zM227,259h58v1h-58zM296,259h89v1h-89zM130,260h89v1h-89zM227,260h58v1h-58zM294,260h90v1h-90zM131,261h89v1h-89zM227,261h58v1h-58zM293,261h90v1h-90zM132,262h89v1h-89zM227,262h58v1h-58zM292,262h89v1h-89zM133,263h89v1h-89zM227,263h58v1h-58zM291,263h89v1h-89zM134,264h151v1h-151zM290,264h89v1h-89zM136,265h242v1h-242zM137,266h240v1h-240zM138,267h238v1h-238zM139,268h235v1h-235zM140,269h233v1h-233zM141,270h231v1h-231zM143,271h228v1h-228zM144,272h226v1h-226zM145,273h224v1h-224zM146,274h221v1h-221zM147,275h219v1h-219zM148,276h217v1h-217zM150,277h214v1h-214zM151,278h212v1h-212zM152,279h210v1h-210zM153,280h208v1h-208zM154,281h205v1h-205zM155,282h203v1h-203zM156,283h201v1h-201zM158,284h198v1h-198zM159,285h196v1h-196zM160,286h194v1h-194zM161,287h191v1h-191zM162,288h189v1h-189zM163,289h187v1h-187zM165,290h184v1h-184zM166,291h182v1h-182zM167,292h180v1h-180zM168,293h177v1h-177zM169,294h175v1h-175zM170,295h173v1h-173zM172,296h170v1h-170zM173,297h168v1h-168zM174,298h166v1h-166zM175,299h164v1h-164zM176,300h161v1h-161zM177,301h159v1h-159zM178,302h157v1h-157zM180,303h154v1h-154zM181,304h152v1h-152zM182,305h150v1h-150zM183,306h147v1h-147zM184,307h145v1h-145zM185,308h143v1h-143zM187,309h140v1h-140zM188,310h138v1h-138zM189,311h136v1h-136zM190,312h133v1h-133zM191,313h131v1h-131zM192,314h129v1h-129zM194,315h126v1h-126zM195,316h124v1h-124zM196,317h122v1h-122zM197,318h119v1h-119zM198,319h117v1h-117zM199,320h115v1h-115zM201,321h112v1h-112zM202,322h110v1h-110zM203,323h108v1h-108zM204,324h106v1h-106zM205,325h103v1h-103zM206,326h101v1h-101zM207,327h99v1h-99zM209,328h96v1h-96zM210,329h94v1h-94zM211,330h92v1h-92zM212,331h89v1h-89zM213,332h87v1h-87zM214,333h85v1h-85zM216,334h82v1h-82zM217,335h80v1h-80zM218,336h78v1h-78zM219,337h75v1h-75zM220,338h73v1h-73zM221,339h71v1h-71zM223,340h68v1h-68zM224,341h66v1h-66zM225,342h64v1h-64zM226,343h62v1h-62zM227,344h59v1h-59zM228,345h57v1h-57zM230,346h54v1h-54zM231,347h52v1h-52zM232,348h50v1h-50zM233,349h48v1h-48zM234,350h45v1h-45zM235,351h43v1h-43zM236,352h41v1h-41zM237,353h39v1h-39zM238,354h37v1h-37zM240,355h34v1h-34zM241,356h31v1h-31zM243,357h27v1h-27zM245,358h23v1h-23zM248,359h18v1h-18zM253,360h8v1h-8zM22,453h468v1h-468zM19,454h474v1h-474zM17,455h478v1h-478zM15,456h482v1h-482zM13,457h486v1h-486zM12,458h488v1h-488zM11,459h490v1h-490zM10,460h492v1h-492zM9,461h495v1h-495zM8,462h496v1h-496zM7,463h498v1h-498zM6,464h500v1h-500zM5,465h502v1h-502zM5,466h502v1h-502zM4,467h504v1h-504zM4,468h505v1h-505zM3,469h506v1h-506zM3,470h506v1h-506zM0,471h512v1h-512zM0,472h512v1h-512zM0,473h512v1h-512zM0,474h512v1h-512zM0,475h512v1h-512zM0,476h512v1h-512zM0,477h512v1h-512zM0,478h512v1h-512zM0,479h512v1h-512zM0,480h512v1h-512zM0,481h512v1h-512zM0,482h512v1h-512zM0,483h512v1h-512zM0,484h512v1h-512zM0,485h512v1h-512zM0,486h512v1h-512zM0,487h512v1h-512zM0,488h512v1h-512zM0,489h512v1h-512zM0,490h512v1h-512zM0,491h512v1h-512zM0,492h512v1h-512zM0,493h512v1h-512zM3,494h506v1h-506zM3,495h506v1h-506zM4,496h504v1h-504zM5,497h503v1h-503zM5,498h502v1h-502zM6,499h500v1h-500zM7,500h498v1h-498zM7,501h498v1h-498zM8,502h496v1h-496zM9,503h494v1h-494zM10,504h492v1h-492zM12,505h489v1h-489zM13,506h486v1h-486zM15,507h483v1h-483zM16,508h480v1h-480zM18,509h476v1h-476zM18,510h476v1h-476zM18,511h476v1h-476z"/></svg>