<svg xmlns="http://www.w3.org/2000/svg" viewBox="0 0 512 512" width="512" height="512"><path fill="#000" d="M191,52h4v1h-4zM317,52h5v1h-5zM188,53h8v1h-8zM317,53h8v1h-8zM185,54h11v1h-11zM316,54h12v1h-12zM182,55h15v1h-15zM315,55h15v1h-15zM180,56h18v1h-18zM314,56h19v1h-19zM177,57h21v1h-21zM314,57h21v1h-21zM175,58h24v1h-24zM313,58h25v1h-25zM172,59h28v1h-28zM312,59h28v1h-28zM170,60h31v1h-31zM311,60h31v1h-31zM168,61h34v1h-34zM310,61h35v1h-35zM166,62h37v1h-37zM309,62h38v1h-38zM163,63h41v1h-41zM308,63h41v1h-41zM161,64h44v1h-44zM307,64h44v1h-44zM160,65h46v1h-46zM306,65h47v1h-47zM158,66h49v1h-49zM305,66h50v1h-50zM156,67h52v1h-52zM304,67h53v1h-53zM154,68h56v1h-56zM303,68h55v1h-55zM152,69h59v1h-59zM301,69h59v1h-59zM150,70h62v1h-62zM300,70h62v1h-62zM149,71h64v1h-64zM299,71h65v1h-65zM147,72h68v1h-68zM297,72h68v1h-68zM145,73h72v1h-72zM296,73h71v1h-71zM144,74h74v1h-74zM294,74h75v1h-75zM142,75h78v1h-78zM292,75h78v1h-78zM140,76h82v1h-82zM290,76h82v1h-82zM139,77h85v1h-85zM288,77h85v1h-85zM137,78h89v1h-89zM286,78h89v1h-89zM136,79h92v1h-92zM284,79h92v1h-92zM135,80h96v1h-96zM281,80h97v1h-97zM133,81h101v1h-101zM278,81h101v1h-101zM132,82h105v1h-105zM275,82h106v1h-106zM130,83h112v1h-112zM270,83h112v1h-112zM129,84h120v1h-120zM263,84h120v1h-120zM128,85h257v1h-257zM126,86h260v1h-260zM125,87h262v1h-262zM124,88h264v1h-264zM122,89h268v1h-268zM121,90h270v1h-270zM120,91h272v1h-272zM119,92h274v1h-274zM118,93h277v1h-277zM116,94h280v1h-280zM115,95h282v1h-282zM115,96h282v1h-282zM115,97h282v1h-282zM115,98h282v1h-282zM115,99h282v1h-282zM116,100h280v1h-280zM116,101h280v1h-280zM117,102h278v1h-278zM117,103h278v1h-278zM118,104h277v1h-277zM118,105h276v1h-276zM118,106h276v1h-276zM119,107h275v1h-275zM119,108h274v1h-274zM119,109h274v1h-274zM120,110h273v1h-273zM120,111h272v1h-272zM120,112h272v1h-272zM120,113h272v1h-272zM121,114h271v1h-271zM121,115h270v1h-270zM121,116h270v1h-270zM121,117h270v1h-270zM121,118h270v1h-270zM122,119h269v1h-269zM122,120h269v1h-269zM122,121h268v1h-268zM122,122h268v1h-268zM122,123h268v1h-268zM122,124h268v1h-268zM122,125h268v1h-268zM122,126h268v1h-268zM122,127h268v1h-268zM122,128h268v1h-268zM122,129h268v1h-268zM122,130h268v1h-268zM122,131h268v1h-268zM122,132h268v1h-268zM122,133h268v1h-268zM122,134h268v1h-268zM122,135h268v1h-268zM122,136h268v1h-268zM122,137h268v1h-268zM122,138h268v1h-268zM122,139h268v1h-268zM122,140h268v1h-268zM122,141h269v1h-269zM121,142h270v1h-270zM121,143h127v1h-127zM264,143h127v1h-127zM121,144h118v1h-118zM273,144h118v1h-118zM121,145h112v1h-112zM279,145h112v1h-112zM121,146h108v1h-108zM283,146h109v1h-109zM120,147h105v1h-105zM287,147h105v1h-105zM120,148h101v1h-101zM290,148h102v1h-102zM120,149h99v1h-99zM293,149h99v1h-99zM120,150h96v1h-96zM296,150h97v1h-97zM119,151h95v1h-95zM298,151h95v1h-95zM119,152h93v1h-93zM301,152h92v1h-92zM119,153h90v1h-90zM303,153h90v1h-90zM119,154h88v1h-88zM305,154h89v1h-89zM118,155h87v1h-87zM307,155h87v1h-87zM118,156h85v1h-85zM309,156h85v1h-85zM117,157h84v1h-84zM311,157h84v1h-84zM117,158h83v1h-83zM313,158h82v1h-82zM117,159h81v1h-81zM314,159h82v1h-82zM116,160h80v1h-80zM316,160h80v1h-80zM116,161h78v1h-78zM318,161h79v1h-79zM115,162h78v1h-78zM319,162h78v1h-78zM115,163h76v1h-76zM321,163h76v1h-76zM114,164h76v1h-76zM322,164h76v1h-76zM114,165h75v1h-75zM323,165h75v1h-75zM113,166h74v1h-74zM325,166h74v1h-74zM113,167h73v1h-73zM326,167h74v1h-74zM112,168h73v1h-73zM327,168h73v1h-73zM111,169h73v1h-73zM328,169h73v1h-73zM111,170h72v1h-72zM329,170h72v1h-72zM110,171h72v1h-72zM331,171h71v1h-71zM110,172h70v1h-70zM332,172h71v1h-71zM109,173h70v1h-70zM333,173h70v1h-70zM108,174h70v1h-70zM334,174h70v1h-70zM107,175h70v1h-70zM335,175h70v1h-70zM107,176h69v1h-69zM336,176h70v1h-70zM106,177h69v1h-69zM337,177h69v1h-69zM105,178h69v1h-69zM338,178h69v1h-69zM104,179h69v1h-69zM339,179h69v1h-69zM103,180h69v1h-69zM243,180h26v1h-26zM340,180h69v1h-69zM102,181h69v1h-69zM238,181h36v1h-36zM341,181h69v1h-69zM101,182h70v1h-70zM234,182h44v1h-44zM341,182h70v1h-70zM100,183h70v1h-70zM231,183h50v1h-50zM342,183h70v1h-70zM99,184h70v1h-70zM228,184h56v1h-56zM343,184h70v1h-70zM98,185h70v1h-70zM226,185h60v1h-60zM344,185h70v1h-70zM97,186h70v1h-70zM224,186h65v1h-65zM345,186h70v1h-70zM96,187h71v1h-71zM222,187h69v1h-69zM346,187h70v1h-70zM95,188h71v1h-71zM220,188h72v1h-72zM346,188h71v1h-71zM94,189h71v1h-71zM218,189h76v1h-76zM347,189h72v1h-72zM92,190h72v1h-72zM216,190h80v1h-80zM348,190h72v1h-72zM91,191h73v1h-73zM215,191h83v1h-83zM348,191h73v1h-73zM89,192h74v1h-74zM213,192h86v1h-86zM349,192h74v1h-74zM88,193h74v1h-74zM212,193h88v1h-88zM350,193h75v1h-75zM86,194h76v1h-76zM210,194h92v1h-92zM350,194h76v1h-76zM84,195h77v1h-77zM209,195h94v1h-94zM351,195h77v1h-77zM82,196h78v1h-78zM208,196h96v1h-96zM352,196h78v1h-78zM80,197h80v1h-80zM207,197h99v1h-99zM352,197h80v1h-80zM78,198h81v1h-81zM206,198h101v1h-101zM353,198h81v1h-81zM76,199h82v1h-82zM205,199h103v1h-103zM353,199h83v1h-83zM73,200h85v1h-85zM204,200h105v1h-105zM354,200h85v1h-85zM70,201h87v1h-87zM203,201h107v1h-107zM355,201h87v1h-87zM67,202h90v1h-90zM202,202h109v1h-109zM355,202h90v1h-90zM62,203h94v1h-94zM201,203h111v1h-111zM356,203h94v1h-94zM55,204h101v1h-101zM200,204h113v1h-113zM356,204h101v1h-101zM49,205h106v1h-106zM199,205h114v1h-114zM357,205h106v1h-106zM48,206h107v1h-107zM198,206h116v1h-116zM357,206h107v1h-107zM48,207h106v1h-106zM197,207h118v1h-118zM358,207h106v1h-106zM48,208h106v1h-106zM196,208h120v1h-120zM358,208h106v1h-106zM48,209h105v1h-105zM195,209h122v1h-122zM359,209h106v1h-106zM48,210h105v1h-105zM194,210h124v1h-124zM359,210h106v1h-106zM47,211h105v1h-105zM194,211h124v1h-124zM360,211h105v1h-105zM47,212h105v1h-105zM193,212h126v1h-126zM360,212h105v1h-105zM47,213h105v1h-105zM192,213h128v1h-128zM360,213h106v1h-106zM47,214h104v1h-104zM192,214h129v1h-129zM361,214h105v1h-105zM46,215h105v1h-105zM191,215h130v1h-130zM361,215h105v1h-105zM46,216h104v1h-104zM190,216h132v1h-132zM362,216h104v1h-104zM46,217h104v1h-104zM190,217h132v1h-132zM362,217h104v1h-104zM46,218h104v1h-104zM189,218h134v1h-134zM362,218h104v1h-104zM46,219h103v1h-103zM189,219h135v1h-135zM363,219h104v1h-104zM45,220h104v1h-104zM188,220h136v1h-136zM363,220h104v1h-104zM45,221h104v1h-104zM188,221h137v1h-137zM363,221h104v1h-104zM45,222h103v1h-103zM187,222h138v1h-138zM364,222h103v1h-103zM45,223h103v1h-103zM187,223h139v1h-139zM364,223h103v1h-103zM45,224h103v1h-103zM186,224h140v1h-140zM364,224h103v1h-103zM45,225h103v1h-103zM186,225h141v1h-141zM365,225h103v1h-103zM45,226h102v1h-102zM185,226h142v1h-142zM365,226h103v1h-103zM44,227h103v1h-103zM185,227h142v1h-142zM365,227h103v1h-103zM44,228h103v1h-103zM184,228h144v1h-144zM365,228h103v1h-103zM44,229h102v1h-102zM184,229h144v1h-144zM366,229h102v1h-102zM44,230h102v1h-102zM184,230h145v1h-145zM366,230h102v1h-102zM44,231h102v1h-102zM183,231h146v1h-146zM366,231h102v1h-102zM44,232h102v1h-102zM183,232h146v1h-146zM366,232h102v1h-102zM44,233h102v1h-102zM183,233h147v1h-147zM366,233h103v1h-103zM44,234h101v1h-101zM182,234h148v1h-148zM367,234h102v1h-102zM43,235h102v1h-102zM182,235h148v1h-148zM367,235h102v1h-102zM43,236h102v1h-102zM182,236h148v1h-148zM367,236h102v1h-102zM43,237h102v1h-102zM182,237h149v1h-149zM367,237h102v1h-102zM43,238h102v1h-102zM181,238h150v1h-150zM367,238h102v1h-102zM43,239h101v1h-101zM181,239h150v1h-150zM368,239h101v1h-101zM43,240h101v1h-101zM181,240h150v1h-150zM368,240h101v1h-101zM43,241h101v1h-101zM181,241h150v1h-150zM368,241h101v1h-101zM43,242h101v1h-101zM181,242h151v1h-151zM368,242h101v1h-101zM43,243h101v1h-101zM180,243h152v1h-152zM368,243h101v1h-101zM43,244h101v1h-101zM180,244h152v1h-152zM368,244h102v1h-102zM43,245h101v1h-101zM180,245h152v1h-152zM368,245h102v1h-102zM43,246h101v1h-101zM180,246h152v1h-152zM368,246h102v1h-102zM43,247h101v1h-101zM180,247h152v1h-152zM368,247h102v1h-102zM43,248h100v1h-100zM180,248h152v1h-152zM368,248h102v1h-102zM43,249h100v1h-100zM180,249h152v1h-152zM368,249h102v1h-102zM42,250h101v1h-101zM180,250h152v1h-152zM369,250h101v1h-101zM42,251h101v1h-101zM180,251h152v1h-152zM369,251h101v1h-101zM42,252h101v1h-101zM180,252h152v1h-152zM369,252h101v1h-101zM42,253h101v1h-101zM180,253h153v1h-153zM369,253h101v1h-101zM42,254h101v1h-101zM180,254h153v1h-153zM369,254h101v1h-101zM42,255h101v1h-101zM180,255h153v1h-153zM369,255h101v1h-101zM42,256h101v1h-101zM180,256h153v1h-153zM369,256h101v1h-101zM42,257h101v1h-101zM180,257h153v1h-153zM369,257h101v1h-101zM42,258h101v1h-101zM180,258h152v1h-152zM369,258h101v1h-101zM42,259h101v1h-101zM180,259h152v1h-152zM369,259h101v1h-101zM42,260h101v1h-101zM180,260h152v1h-152zM369,260h101v1h-101zM43,261h100v1h-100zM180,261h152v1h-152zM369,261h101v1h-101zM43,262h100v1h-100zM180,262h152v1h-152zM369,262h101v1h-101zM43,263h101v1h-101zM180,263h152v1h-152zM368,263h102v1h-102zM43,264h101v1h-101zM180,264h152v1h-152zM368,264h102v1h-102zM43,265h101v1h-101zM180,265h152v1h-152zM368,265h102v1h-102zM43,266h101v1h-101zM180,266h152v1h-152zM368,266h102v1h-102zM43,267h101v1h-101zM180,267h152v1h-152zM368,267h102v1h-102zM43,268h101v1h-101zM180,268h152v1h-152zM368,268h101v1h-101zM43,269h101v1h-101zM181,269h151v1h-151zM368,269h101v1h-101zM43,270h101v1h-101zM181,270h150v1h-150zM368,270h101v1h-101zM43,271h101v1h-101zM181,271h150v1h-150zM368,271h101v1h-101zM43,272h102v1h-102zM181,272h150v1h-150zM368,272h101v1h-101zM43,273h102v1h-102zM181,273h150v1h-150zM367,273h102v1h-102zM43,274h102v1h-102zM182,274h148v1h-148zM367,274h102v1h-102zM43,275h102v1h-102zM182,275h148v1h-148zM367,275h102v1h-102zM43,276h102v1h-102zM182,276h148v1h-148zM367,276h102v1h-102zM43,277h102v1h-102zM182,277h148v1h-148zM367,277h102v1h-102zM44,278h102v1h-102zM183,278h146v1h-146zM366,278h103v1h-103zM44,279h102v1h-102zM183,279h146v1h-146zM366,279h102v1h-102zM44,280h102v1h-102zM183,280h146v1h-146zM366,280h102v1h-102zM44,281h102v1h-102zM184,281h145v1h-145zM366,281h102v1h-102zM44,282h103v1h-103zM184,282h144v1h-144zM366,282h102v1h-102zM44,283h103v1h-103zM184,283h144v1h-144zM365,283h103v1h-103zM44,284h103v1h-103zM185,284h142v1h-142zM365,284h103v1h-103zM44,285h103v1h-103zM185,285h142v1h-142zM365,285h103v1h-103zM45,286h103v1h-103zM186,286h141v1h-141zM365,286h103v1h-103zM45,287h103v1h-103zM186,287h140v1h-140zM364,287h103v1h-103zM45,288h103v1h-103zM187,288h139v1h-139zM364,288h103v1h-103zM45,289h103v1h-103zM187,289h138v1h-138zM364,289h103v1h-103zM45,290h104v1h-104zM188,290h137v1h-137zM363,290h104v1h-104zM45,291h104v1h-104zM188,291h136v1h-136zM363,291h104v1h-104zM46,292h103v1h-103zM189,292h135v1h-135zM363,292h104v1h-104zM46,293h104v1h-104zM189,293h134v1h-134zM362,293h105v1h-105zM46,294h104v1h-104zM190,294h132v1h-132zM362,294h104v1h-104zM46,295h104v1h-104zM190,295h132v1h-132zM362,295h104v1h-104zM51,296h100v1h-100zM191,296h130v1h-130zM361,296h103v1h-103zM60,297h91v1h-91zM192,297h129v1h-129zM361,297h92v1h-92zM65,298h87v1h-87zM192,298h128v1h-128zM360,298h87v1h-87zM69,299h83v1h-83zM193,299h126v1h-126zM360,299h83v1h-83zM72,300h80v1h-80zM194,300h124v1h-124zM360,300h80v1h-80zM75,301h78v1h-78zM194,301h124v1h-124zM359,301h78v1h-78zM78,302h75v1h-75zM195,302h122v1h-122zM359,302h76v1h-76zM80,303h74v1h-74zM196,303h120v1h-120zM358,303h75v1h-75zM82,304h72v1h-72zM197,304h118v1h-118zM358,304h73v1h-73zM84,305h71v1h-71zM198,305h117v1h-117zM357,305h72v1h-72zM86,306h69v1h-69zM199,306h115v1h-115zM357,306h70v1h-70zM87,307h69v1h-69zM200,307h113v1h-113zM356,307h69v1h-69zM89,308h67v1h-67zM200,308h112v1h-112zM356,308h67v1h-67zM90,309h67v1h-67zM201,309h110v1h-110zM355,309h67v1h-67zM92,310h65v1h-65zM202,310h108v1h-108zM355,310h66v1h-66zM93,311h65v1h-65zM203,311h106v1h-106zM354,311h65v1h-65zM94,312h64v1h-64zM205,312h103v1h-103zM354,312h64v1h-64zM95,313h64v1h-64zM206,313h101v1h-101zM353,313h64v1h-64zM97,314h63v1h-63zM207,314h98v1h-98zM352,314h63v1h-63zM98,315h62v1h-62zM208,315h96v1h-96zM352,315h62v1h-62zM99,316h62v1h-62zM209,316h94v1h-94zM351,316h62v1h-62zM100,317h62v1h-62zM210,317h92v1h-92zM350,317h62v1h-62zM101,318h61v1h-61zM212,318h88v1h-88zM350,318h61v1h-61zM102,319h61v1h-61zM213,319h86v1h-86zM349,319h61v1h-61zM103,320h61v1h-61zM215,320h83v1h-83zM348,320h61v1h-61zM104,321h60v1h-60zM216,321h80v1h-80zM348,321h60v1h-60zM105,322h60v1h-60zM218,322h76v1h-76zM347,322h61v1h-61zM105,323h61v1h-61zM220,323h73v1h-73zM346,323h61v1h-61zM106,324h60v1h-60zM222,324h69v1h-69zM346,324h60v1h-60zM107,325h60v1h-60zM224,325h64v1h-64zM345,325h60v1h-60zM108,326h60v1h-60zM226,326h60v1h-60zM344,326h60v1h-60zM109,327h60v1h-60zM228,327h56v1h-56zM343,327h61v1h-61zM109,328h61v1h-61zM231,328h50v1h-50zM342,328h61v1h-61zM110,329h61v1h-61zM234,329h44v1h-44zM341,329h61v1h-61zM111,330h60v1h-60zM238,330h36v1h-36zM341,330h61v1h-61zM111,331h61v1h-61zM243,331h26v1h-26zM340,331h61v1h-61zM112,332h61v1h-61zM253,332h6v1h-6zM339,332h61v1h-61zM112,333h62v1h-62zM338,333h62v1h-62zM113,334h62v1h-62zM337,334h62v1h-62zM113,335h63v1h-63zM336,335h63v1h-63zM114,336h63v1h-63zM335,336h63v1h-63zM115,337h63v1h-63zM334,337h64v1h-64zM115,338h64v1h-64zM333,338h64v1h-64zM116,339h64v1h-64zM332,339h65v1h-65zM116,340h65v1h-65zM331,340h65v1h-65zM116,341h67v1h-67zM329,341h67v1h-67zM117,342h67v1h-67zM328,342h67v1h-67zM117,343h68v1h-68zM327,343h68v1h-68zM118,344h68v1h-68zM326,344h69v1h-69zM118,345h69v1h-69zM325,345h69v1h-69zM118,346h71v1h-71zM323,346h71v1h-71zM119,347h71v1h-71zM322,347h71v1h-71zM119,348h73v1h-73zM320,348h73v1h-73zM119,349h74v1h-74zM319,349h74v1h-74zM120,350h75v1h-75zM317,350h76v1h-76zM120,351h76v1h-76zM316,351h76v1h-76zM120,352h78v1h-78zM314,352h78v1h-78zM120,353h79v1h-79zM313,353h79v1h-79zM121,354h80v1h-80zM311,354h81v1h-81zM121,355h82v1h-82zM309,355h82v1h-82zM121,356h84v1h-84zM307,356h84v1h-84zM121,357h86v1h-86zM305,357h86v1h-86zM121,358h88v1h-88zM303,358h88v1h-88zM122,359h89v1h-89zM301,359h90v1h-90zM122,360h92v1h-92zM298,360h93v1h-93zM122,361h94v1h-94zM296,361h94v1h-94zM122,362h97v1h-97zM293,362h97v1h-97zM122,363h100v1h-100zM290,363h100v1h-100zM122,364h104v1h-104zM286,364h104v1h-104zM122,365h108v1h-108zM282,365h108v1h-108zM122,366h112v1h-112zM277,366h113v1h-113zM122,367h118v1h-118zM272,367h118v1h-118zM122,368h128v1h-128zM262,368h128v1h-128zM122,369h268v1h-268zM122,370h268v1h-268zM122,371h268v1h-268zM122,372h268v1h-268zM122,373h268v1h-268zM122,374h268v1h-268zM122,375h268v1h-268zM122,376h268v1h-268zM122,377h268v1h-268zM122,378h268v1h-268zM122,379h268v1h-268zM122,380h269v1h-269zM122,381h269v1h-269zM121,382h270v1h-270zM121,383h270v1h-270zM121,384h270v1h-270zM121,385h271v1h-271zM121,386h271v1h-271zM120,387h272v1h-272zM120,388h272v1h-272zM120,389h272v1h-272zM120,390h273v1h-273zM119,391h274v1h-274zM119,392h274v1h-274zM119,393h274v1h-274zM118,394h276v1h-276zM118,395h276v1h-276zM118,396h277v1h-277zM117,397h278v1h-278zM117,398h278v1h-278zM116,399h280v1h-280zM116,400h280v1h-280zM116,401h281v1h-281zM115,402h282v1h-282zM115,403h283v1h-283zM114,404h284v1h-284zM114,405h285v1h-285zM113,406h286v1h-286zM112,407h288v1h-288zM112,408h288v1h-288zM111,409h290v1h-290zM111,410h291v1h-291zM110,411h292v1h-292zM111,412h290v1h-290zM112,413h288v1h-288zM113,414h286v1h-286zM114,415h284v1h-284zM115,416h282v1h-282zM117,417h128v1h-128zM267,417h129v1h-129zM118,418h121v1h-121zM273,418h122v1h-122zM119,419h116v1h-116zM277,419h117v1h-117zM120,420h112v1h-112zM280,420h112v1h-112zM121,421h108v1h-108zM283,421h108v1h-108zM123,422h104v1h-104zM285,422h105v1h-105zM124,423h101v1h-101zM287,423h102v1h-102zM125,424h98v1h-98zM290,424h97v1h-97zM126,425h95v1h-95zM291,425h95v1h-95zM127,426h92v1h-92zM293,426h92v1h-92zM129,427h88v1h-88zM295,427h88v1h-88zM130,428h86v1h-86zM296,428h86v1h-86zM132,429h82v1h-82zM298,429h83v1h-83zM133,430h80v1h-80zM299,430h80v1h-80zM134,431h77v1h-77zM301,431h77v1h-77zM136,432h74v1h-74zM302,432h74v1h-74zM137,433h72v1h-72zM303,433h72v1h-72zM139,434h69v1h-69zM304,434h69v1h-69zM140,435h67v1h-67zM305,435h67v1h-67zM142,436h64v1h-64zM307,436h63v1h-63zM143,437h61v1h-61zM308,437h61v1h-61zM145,438h58v1h-58zM309,438h58v1h-58zM147,439h56v1h-56zM310,439h56v1h-56zM149,440h53v1h-53zM310,440h54v1h-54zM150,441h51v1h-51zM311,441h51v1h-51zM152,442h48v1h-48zM312,442h48v1h-48zM154,443h45v1h-45zM313,443h46v1h-46zM156,444h42v1h-42zM314,444h43v1h-43zM158,445h39v1h-39zM315,445h40v1h-40zM160,446h37v1h-37zM315,446h38v1h-38zM161,447h35v1h-35zM316,447h35v1h-35zM163,448h32v1h-32zM317,448h32v1h-32zM166,449h28v1h-28zM318,449h29v1h-29zM168,450h26v1h-26zM318,450h27v1h-27zM170,451h23v1h-23zM319,451h23v1h-23zM172,452h21v1h-21zM319,452h21v1h-21zM175,453h17v1h-17zM320,453h18v1h-18zM177,454h14v1h-14zM321,454h14v1h-14zM180,455h11v1h-11zM321,455h12v1h-12zM182,456h8v1h-8zM322,456h8v1h-8zM185,457h5v1h-5zM322,457h6v1h-6zM323,458h1v1h-1z"/></svg>