<svg xmlns="http://www.w3.org/2000/svg" viewBox="0 0 512 512" width="512" height="512"><path fill="#000" d="M201,62h110v1h-110zM165,63h182v1h-182zM136,64h240v1h-240zM117,65h278v1h-278zM98,66h316v1h-316zM82,67h348v1h-348zM75,68h362v1h-362zM69,69h374v1h-374zM65,70h382v1h-382zM62,71h388v1h-388zM58,72h396v1h-396zM56,73h400v1h-400zM54,74h405v1h-405zM51,75h410v1h-410zM49,76h414v1h-414zM47,77h418v1h-418zM46,78h421v1h-421zM44,79h424v1h-424zM42,80h428v1h-428zM41,81h431v1h-431zM39,82h434v1h-434zM38,83h436v1h-436zM37,84h439v1h-439zM35,85h442v1h-442zM34,86h444v1h-444zM33,87h446v1h-446zM32,88h448v1h-448zM31,89h451v1h-451zM30,90h453v1h-453zM29,91h455v1h-455zM28,92h221v1h-221zM263,92h222v1h-222zM27,93h163v1h-163zM322,93h164v1h-164zM26,94h131v1h-131zM354,94h133v1h-133zM25,95h107v1h-107zM380,95h107v1h-107zM24,96h89v1h-89zM399,96h89v1h-89zM24,97h70v1h-70zM417,97h72v1h-72zM23,98h59v1h-59zM429,98h61v1h-61zM22,99h54v1h-54zM436,99h55v1h-55zM21,100h51v1h-51zM440,100h51v1h-51zM21,101h48v1h-48zM443,101h49v1h-49zM20,102h46v1h-46zM446,102h47v1h-47zM19,103h45v1h-45zM448,103h45v1h-45zM19,104h43v1h-43zM450,104h44v1h-44zM18,105h42v1h-42zM452,105h42v1h-42zM18,106h41v1h-41zM454,106h41v1h-41zM17,107h40v1h-40zM455,107h40v1h-40zM17,108h39v1h-39zM457,108h39v1h-39zM16,109h39v1h-39zM458,109h39v1h-39zM15,110h38v1h-38zM459,110h38v1h-38zM15,111h37v1h-37zM460,111h37v1h-37zM15,112h36v1h-36zM461,112h37v1h-37zM14,113h36v1h-36zM462,113h36v1h-36zM14,114h35v1h-35zM463,114h36v1h-36zM13,115h35v1h-35zM464,115h35v1h-35zM13,116h35v1h-35zM465,116h35v1h-35zM13,117h34v1h-34zM466,117h34v1h-34zM12,118h34v1h-34zM467,118h33v1h-33zM12,119h33v1h-33zM467,119h34v1h-34zM11,120h34v1h-34zM468,120h33v1h-33zM11,121h33v1h-33zM468,121h33v1h-33zM11,122h33v1h-33zM469,122h33v1h-33zM10,123h33v1h-33zM469,123h33v1h-33zM10,124h33v1h-33zM470,124h32v1h-32zM10,125h32v1h-32zM470,125h33v1h-33zM9,126h33v1h-33zM470,126h33v1h-33zM9,127h33v1h-33zM471,127h32v1h-32zM9,128h32v1h-32zM471,128h33v1h-33zM8,129h33v1h-33zM472,129h32v1h-32zM8,130h33v1h-33zM472,130h32v1h-32zM8,131h32v1h-32zM472,131h32v1h-32zM8,132h32v1h-32zM473,132h32v1h-32zM7,133h32v1h-32zM473,133h32v1h-32zM7,134h32v1h-32zM473,134h32v1h-32zM7,135h32v1h-32zM474,135h31v1h-31zM7,136h31v1h-31zM474,136h31v1h-31zM7,137h31v1h-31zM474,137h32v1h-32zM6,138h32v1h-32zM474,138h32v1h-32zM6,139h32v1h-32zM475,139h31v1h-31zM6,140h31v1h-31zM475,140h31v1h-31zM6,141h31v1h-31zM475,141h32v1h-32zM5,142h32v1h-32zM475,142h32v1h-32zM5,143h32v1h-32zM476,143h31v1h-31zM5,144h31v1h-31zM476,144h31v1h-31zM5,145h31v1h-31zM476,145h31v1h-31zM4,146h32v1h-32zM476,146h32v1h-32zM4,147h32v1h-32zM477,147h31v1h-31zM4,148h31v1h-31zM477,148h31v1h-31zM4,149h31v1h-31zM477,149h31v1h-31zM4,150h31v1h-31zM477,150h31v1h-31zM4,151h31v1h-31zM477,151h31v1h-31zM4,152h31v1h-31zM477,152h31v1h-31zM3,153h32v1h-32zM478,153h31v1h-31zM3,154h31v1h-31zM478,154h31v1h-31zM3,155h31v1h-31zM478,155h31v1h-31zM3,156h31v1h-31zM478,156h31v1h-31zM3,157h31v1h-31zM478,157h31v1h-31zM3,158h31v1h-31zM478,158h31v1h-31zM3,159h31v1h-31zM478,159h31v1h-31zM3,160h31v1h-31zM478,160h31v1h-31zM3,161h31v1h-31zM478,161h31v1h-31zM3,162h31v1h-31zM478,162h31v1h-31zM3,163h31v1h-31zM478,163h31v1h-31zM3,164h30v1h-30zM479,164h30v1h-30zM3,165h30v1h-30zM479,165h30v1h-30zM0,166h33v1h-33zM479,166h33v1h-33zM0,167h33v1h-33zM479,167h33v1h-33zM0,168h33v1h-33zM209,168h5v1h-5zM479,168h33v1h-33zM0,169h33v1h-33zM205,169h14v1h-14zM479,169h33v1h-33zM0,170h33v1h-33zM202,170h19v1h-19zM479,170h33v1h-33zM0,171h33v1h-33zM200,171h23v1h-23zM479,171h33v1h-33zM0,172h33v1h-33zM199,172h26v1h-26zM479,172h33v1h-33zM0,173h33v1h-33zM198,173h29v1h-29zM479,173h33v1h-33zM0,174h33v1h-33zM197,174h32v1h-32zM479,174h33v1h-33zM0,175h33v1h-33zM196,175h34v1h-34zM479,175h33v1h-33zM0,176h33v1h-33zM195,176h37v1h-37zM479,176h33v1h-33zM0,177h33v1h-33zM194,177h40v1h-40zM479,177h33v1h-33zM0,178h32v1h-32zM194,178h42v1h-42zM480,178h32v1h-32zM0,179h32v1h-32zM193,179h45v1h-45zM480,179h32v1h-32zM0,180h32v1h-32zM193,180h47v1h-47zM480,180h32v1h-32zM0,181h32v1h-32zM192,181h49v1h-49zM480,181h32v1h-32zM0,182h32v1h-32zM192,182h51v1h-51zM480,182h32v1h-32zM0,183h32v1h-32zM191,183h54v1h-54zM480,183h32v1h-32zM0,184h32v1h-32zM191,184h56v1h-56zM480,184h32v1h-32zM0,185h32v1h-32zM191,185h58v1h-58zM480,185h32v1h-32zM0,186h32v1h-32zM191,186h60v1h-60zM480,186h32v1h-32zM0,187h32v1h-32zM191,187h61v1h-61zM480,187h32v1h-32zM0,188h32v1h-32zM191,188h63v1h-63zM480,188h32v1h-32zM0,189h32v1h-32zM191,189h65v1h-65zM480,189h32v1h-32zM0,190h32v1h-32zM191,190h67v1h-67zM480,190h32v1h-32zM0,191h32v1h-32zM191,191h69v1h-69zM480,191h32v1h-32zM0,192h32v1h-32zM191,192h71v1h-71zM480,192h32v1h-32zM0,193h32v1h-32zM191,193h72v1h-72zM480,193h32v1h-32zM0,194h32v1h-32zM191,194h74v1h-74zM480,194h32v1h-32zM0,195h32v1h-32zM191,195h76v1h-76zM480,195h32v1h-32zM0,196h31v1h-31zM191,196h78v1h-78zM481,196h31v1h-31zM0,197h31v1h-31zM191,197h80v1h-80zM481,197h31v1h-31zM0,198h31v1h-31zM191,198h82v1h-82zM481,198h31v1h-31zM0,199h31v1h-31zM191,199h83v1h-83zM481,199h31v1h-31zM0,200h31v1h-31zM191,200h85v1h-85zM481,200h31v1h-31zM0,201h31v1h-31zM191,201h87v1h-87zM481,201h31v1h-31zM0,202h31v1h-31zM191,202h89v1h-89zM481,202h31v1h-31zM0,203h31v1h-31zM191,203h91v1h-91zM481,203h31v1h-31zM0,204h31v1h-31zM191,204h92v1h-92zM481,204h31v1h-31zM0,205h31v1h-31zM191,205h94v1h-94zM481,205h31v1h-31zM0,206h31v1h-31zM191,206h96v1h-96zM481,206h31v1h-31zM0,207h31v1h-31zM191,207h98v1h-98zM481,207h31v1h-31zM0,208h31v1h-31zM191,208h30v1h-30zM227,208h64v1h-64zM481,208h31v1h-31zM0,209h31v1h-31zM191,209h30v1h-30zM229,209h64v1h-64zM481,209h31v1h-31zM0,210h31v1h-31zM191,210h30v1h-30zM230,210h64v1h-64zM481,210h31v1h-31zM0,211h31v1h-31zM191,211h30v1h-30zM232,211h64v1h-64zM481,211h31v1h-31zM0,212h31v1h-31zM191,212h30v1h-30zM234,212h64v1h-64zM481,212h31v1h-31zM0,213h31v1h-31zM191,213h30v1h-30zM236,213h64v1h-64zM481,213h31v1h-31zM0,214h31v1h-31zM191,214h30v1h-30zM238,214h64v1h-64zM481,214h31v1h-31zM0,215h31v1h-31zM191,215h30v1h-30zM240,215h64v1h-64zM481,215h31v1h-31zM0,216h31v1h-31zM191,216h30v1h-30zM241,216h64v1h-64zM481,216h31v1h-31zM0,217h31v1h-31zM191,217h30v1h-30zM243,217h64v1h-64zM481,217h31v1h-31zM0,218h31v1h-31zM191,218h30v1h-30zM245,218h64v1h-64zM481,218h31v1h-31zM0,219h31v1h-31zM191,219h30v1h-30zM247,219h64v1h-64zM481,219h31v1h-31zM0,220h31v1h-31zM191,220h30v1h-30zM249,220h64v1h-64zM481,220h31v1h-31zM0,221h31v1h-31zM191,221h30v1h-30zM251,221h64v1h-64zM481,221h31v1h-31zM0,222h31v1h-31zM191,222h30v1h-30zM252,222h64v1h-64zM481,222h31v1h-31zM0,223h31v1h-31zM191,223h30v1h-30zM254,223h64v1h-64zM481,223h31v1h-31zM0,224h31v1h-31zM191,224h30v1h-30zM256,224h64v1h-64zM481,224h31v1h-31zM0,225h31v1h-31zM191,225h30v1h-30zM258,225h64v1h-64zM481,225h31v1h-31zM0,226h31v1h-31zM191,226h30v1h-30zM260,226h64v1h-64zM481,226h31v1h-31zM0,227h31v1h-31zM191,227h30v1h-30zM262,227h64v1h-64zM481,227h31v1h-31zM0,228h31v1h-31zM191,228h30v1h-30zM263,228h64v1h-64zM481,228h31v1h-31zM0,229h31v1h-31zM191,229h30v1h-30zM265,229h64v1h-64zM481,229h31v1h-31zM0,230h31v1h-31zM191,230h30v1h-30zM267,230h64v1h-64zM481,230h31v1h-31zM0,231h30v1h-30zM191,231h30v1h-30zM269,231h64v1h-64zM482,231h30v1h-30zM0,232h30v1h-30zM191,232h30v1h-30zM271,232h64v1h-64zM482,232h30v1h-30zM0,233h30v1h-30zM191,233h30v1h-30zM272,233h64v1h-64zM482,233h30v1h-30zM0,234h30v1h-30zM191,234h30v1h-30zM274,234h63v1h-63zM482,234h30v1h-30zM0,235h30v1h-30zM191,235h30v1h-30zM276,235h63v1h-63zM482,235h30v1h-30zM0,236h30v1h-30zM191,236h30v1h-30zM278,236h62v1h-62zM482,236h30v1h-30zM0,237h30v1h-30zM191,237h30v1h-30zM280,237h61v1h-61zM482,237h30v1h-30zM0,238h30v1h-30zM191,238h30v1h-30zM282,238h59v1h-59zM482,238h30v1h-30zM0,239h30v1h-30zM191,239h30v1h-30zM283,239h59v1h-59zM482,239h30v1h-30zM0,240h30v1h-30zM191,240h30v1h-30zM285,240h58v1h-58zM482,240h30v1h-30zM0,241h30v1h-30zM191,241h30v1h-30zM287,241h56v1h-56zM482,241h30v1h-30zM0,242h30v1h-30zM191,242h30v1h-30zM289,242h55v1h-55zM482,242h30v1h-30zM0,243h30v1h-30zM191,243h30v1h-30zM291,243h53v1h-53zM482,243h30v1h-30zM0,244h30v1h-30zM191,244h30v1h-30zM293,244h52v1h-52zM482,244h30v1h-30zM0,245h30v1h-30zM191,245h30v1h-30zM294,245h51v1h-51zM482,245h30v1h-30zM0,246h30v1h-30zM191,246h30v1h-30zM296,246h49v1h-49zM482,246h30v1h-30zM0,247h30v1h-30zM191,247h30v1h-30zM298,247h47v1h-47zM482,247h30v1h-30zM0,248h30v1h-30zM191,248h30v1h-30zM300,248h46v1h-46zM482,248h30v1h-30zM0,249h30v1h-30zM191,249h30v1h-30zM300,249h46v1h-46zM482,249h30v1h-30zM0,250h30v1h-30zM191,250h30v1h-30zM300,250h46v1h-46zM482,250h30v1h-30zM0,251h30v1h-30zM191,251h30v1h-30zM300,251h46v1h-46zM482,251h30v1h-30zM0,252h30v1h-30zM191,252h30v1h-30zM300,252h46v1h-46zM482,252h30v1h-30zM0,253h30v1h-30zM191,253h30v1h-30zM300,253h46v1h-46zM482,253h30v1h-30zM0,254h30v1h-30zM191,254h30v1h-30zM299,254h47v1h-47zM482,254h30v1h-30zM0,255h30v1h-30zM191,255h30v1h-30zM297,255h48v1h-48zM482,255h30v1h-30zM0,256h30v1h-30zM191,256h30v1h-30zM295,256h50v1h-50zM482,256h30v1h-30zM0,257h30v1h-30zM191,257h30v1h-30zM293,257h52v1h-52zM482,257h30v1h-30zM0,258h30v1h-30zM191,258h30v1h-30zM291,258h54v1h-54zM482,258h30v1h-30zM0,259h30v1h-30zM191,259h30v1h-30zM289,259h55v1h-55zM482,259h30v1h-30zM0,260h30v1h-30zM191,260h30v1h-30zM287,260h57v1h-57zM482,260h30v1h-30zM0,261h30v1h-30zM191,261h30v1h-30zM285,261h58v1h-58zM482,261h30v1h-30zM0,262h30v1h-30zM191,262h30v1h-30zM284,262h59v1h-59zM482,262h30v1h-30zM0,263h30v1h-30zM191,263h30v1h-30zM282,263h60v1h-60zM482,263h30v1h-30zM0,264h30v1h-30zM191,264h30v1h-30zM280,264h61v1h-61zM482,264h30v1h-30zM0,265h30v1h-30zM191,265h30v1h-30zM278,265h62v1h-62zM482,265h30v1h-30zM0,266h30v1h-30zM191,266h30v1h-30zM276,266h63v1h-63zM482,266h30v1h-30zM0,267h30v1h-30zM191,267h30v1h-30zM274,267h64v1h-64zM482,267h30v1h-30zM0,268h30v1h-30zM191,268h30v1h-30zM272,268h65v1h-65zM482,268h30v1h-30zM0,269h30v1h-30zM191,269h30v1h-30zM271,269h64v1h-64zM482,269h30v1h-30zM0,270h30v1h-30zM191,270h30v1h-30zM269,270h65v1h-65zM482,270h30v1h-30zM0,271h30v1h-30zM191,271h30v1h-30zM267,271h65v1h-65zM482,271h30v1h-30zM0,272h30v1h-30zM191,272h30v1h-30zM265,272h65v1h-65zM482,272h30v1h-30zM0,273h30v1h-30zM191,273h30v1h-30zM263,273h65v1h-65zM482,273h30v1h-30zM0,274h30v1h-30zM191,274h30v1h-30zM261,274h65v1h-65zM482,274h30v1h-30zM0,275h30v1h-30zM191,275h30v1h-30zM259,275h65v1h-65zM482,275h30v1h-30zM0,276h30v1h-30zM191,276h30v1h-30zM258,276h64v1h-64zM482,276h30v1h-30zM0,277h30v1h-30zM191,277h30v1h-30zM256,277h65v1h-65zM482,277h30v1h-30zM0,278h30v1h-30zM191,278h30v1h-30zM254,278h65v1h-65zM482,278h30v1h-30zM0,279h30v1h-30zM191,279h30v1h-30zM252,279h65v1h-65zM482,279h30v1h-30zM0,280h30v1h-30zM191,280h30v1h-30zM250,280h65v1h-65zM482,280h30v1h-30zM0,281h30v1h-30zM191,281h30v1h-30zM248,281h65v1h-65zM482,281h30v1h-30zM0,282h31v1h-31zM191,282h30v1h-30zM246,282h65v1h-65zM481,282h31v1h-31zM0,283h31v1h-31zM191,283h30v1h-30zM245,283h64v1h-64zM481,283h31v1h-31zM0,284h31v1h-31zM191,284h30v1h-30zM243,284h65v1h-65zM481,284h31v1h-31zM0,285h31v1h-31zM191,285h30v1h-30zM241,285h65v1h-65zM481,285h31v1h-31zM0,286h31v1h-31zM191,286h30v1h-30zM239,286h65v1h-65zM481,286h31v1h-31zM0,287h31v1h-31zM191,287h30v1h-30zM237,287h65v1h-65zM481,287h31v1h-31zM0,288h31v1h-31zM191,288h30v1h-30zM235,288h65v1h-65zM481,288h31v1h-31zM0,289h31v1h-31zM191,289h30v1h-30zM233,289h65v1h-65zM481,289h31v1h-31zM0,290h31v1h-31zM191,290h30v1h-30zM232,290h64v1h-64zM481,290h31v1h-31zM0,291h31v1h-31zM191,291h30v1h-30zM230,291h65v1h-65zM481,291h31v1h-31zM0,292h31v1h-31zM191,292h30v1h-30zM228,292h65v1h-65zM481,292h31v1h-31zM0,293h31v1h-31zM191,293h30v1h-30zM226,293h65v1h-65zM481,293h31v1h-31zM0,294h31v1h-31zM191,294h98v1h-98zM481,294h31v1h-31zM0,295h31v1h-31zM191,295h96v1h-96zM481,295h31v1h-31zM0,296h31v1h-31zM191,296h94v1h-94zM481,296h31v1h-31zM0,297h31v1h-31zM191,297h92v1h-92zM481,297h31v1h-31zM0,298h31v1h-31zM191,298h91v1h-91zM481,298h31v1h-31zM0,299h31v1h-31zM191,299h89v1h-89zM481,299h31v1h-31zM0,300h31v1h-31zM191,300h87v1h-87zM481,300h31v1h-31zM0,301h31v1h-31zM191,301h85v1h-85zM481,301h31v1h-31zM0,302h31v1h-31zM191,302h83v1h-83zM481,302h31v1h-31zM0,303h31v1h-31zM191,303h81v1h-81zM481,303h31v1h-31zM0,304h31v1h-31zM191,304h79v1h-79zM481,304h31v1h-31zM0,305h31v1h-31zM191,305h78v1h-78zM481,305h31v1h-31zM0,306h31v1h-31zM191,306h76v1h-76zM481,306h31v1h-31zM0,307h31v1h-31zM191,307h74v1h-74zM481,307h31v1h-31zM0,308h31v1h-31zM191,308h72v1h-72zM481,308h31v1h-31zM0,309h31v1h-31zM191,309h70v1h-70zM481,309h31v1h-31zM0,310h31v1h-31zM191,310h68v1h-68zM481,310h31v1h-31zM0,311h31v1h-31zM191,311h66v1h-66zM481,311h31v1h-31zM0,312h31v1h-31zM191,312h65v1h-65zM481,312h31v1h-31zM0,313h31v1h-31zM191,313h63v1h-63zM481,313h31v1h-31zM0,314h31v1h-31zM191,314h61v1h-61zM481,314h31v1h-31zM0,315h31v1h-31zM191,315h59v1h-59zM481,315h31v1h-31zM0,316h32v1h-32zM191,316h57v1h-57zM480,316h32v1h-32zM0,317h32v1h-32zM191,317h55v1h-55zM480,317h32v1h-32zM0,318h32v1h-32zM192,318h52v1h-52zM480,318h32v1h-32zM0,319h32v1h-32zM192,319h51v1h-51zM480,319h32v1h-32zM0,320h32v1h-32zM192,320h49v1h-49zM480,320h32v1h-32zM0,321h32v1h-32zM193,321h46v1h-46zM480,321h32v1h-32zM0,322h32v1h-32zM193,322h44v1h-44zM480,322h32v1h-32zM0,323h32v1h-32zM194,323h41v1h-41zM480,323h32v1h-32zM0,324h32v1h-32zM195,324h38v1h-38zM480,324h32v1h-32zM0,325h32v1h-32zM196,325h35v1h-35zM480,325h32v1h-32zM0,326h32v1h-32zM196,326h33v1h-33zM480,326h32v1h-32zM0,327h32v1h-32zM197,327h31v1h-31zM480,327h32v1h-32zM0,328h32v1h-32zM199,328h27v1h-27zM480,328h32v1h-32zM0,329h32v1h-32zM200,329h24v1h-24zM480,329h32v1h-32zM0,330h32v1h-32zM202,330h20v1h-20zM480,330h32v1h-32zM0,331h32v1h-32zM204,331h16v1h-16zM480,331h32v1h-32zM0,332h32v1h-32zM206,332h11v1h-11zM480,332h32v1h-32zM0,333h32v1h-32zM480,333h32v1h-32zM0,334h32v1h-32zM480,334h32v1h-32zM0,335h33v1h-33zM479,335h33v1h-33zM0,336h33v1h-33zM479,336h33v1h-33zM0,337h33v1h-33zM479,337h33v1h-33zM0,338h33v1h-33zM479,338h33v1h-33zM0,339h33v1h-33zM479,339h33v1h-33zM0,340h33v1h-33zM479,340h33v1h-33zM0,341h33v1h-33zM479,341h33v1h-33zM0,342h33v1h-33zM479,342h33v1h-33zM0,343h33v1h-33zM479,343h33v1h-33zM0,344h33v1h-33zM479,344h33v1h-33zM0,345h33v1h-33zM479,345h33v1h-33zM0,346h33v1h-33zM479,346h33v1h-33zM3,347h30v1h-30zM479,347h30v1h-30zM3,348h30v1h-30zM479,348h30v1h-30zM3,349h31v1h-31zM478,349h31v1h-31zM3,350h31v1h-31zM478,350h31v1h-31zM3,351h31v1h-31zM478,351h31v1h-31zM3,352h31v1h-31zM478,352h31v1h-31zM3,353h31v1h-31zM478,353h31v1h-31zM3,354h31v1h-31zM478,354h31v1h-31zM3,355h31v1h-31zM478,355h31v1h-31zM3,356h31v1h-31zM478,356h31v1h-31zM3,357h31v1h-31zM478,357h31v1h-31zM3,358h31v1h-31zM478,358h31v1h-31zM3,359h32v1h-32zM477,359h32v1h-32zM4,360h31v1h-31zM477,360h31v1h-31zM4,361h31v1h-31zM477,361h31v1h-31zM4,362h31v1h-31zM477,362h31v1h-31zM4,363h31v1h-31zM477,363h31v1h-31zM4,364h31v1h-31zM476,364h32v1h-32zM4,365h32v1h-32zM476,365h32v1h-32zM4,366h32v1h-32zM476,366h31v1h-31zM5,367h31v1h-31zM476,367h31v1h-31zM5,368h31v1h-31zM475,368h32v1h-32zM5,369h32v1h-32zM475,369h32v1h-32zM5,370h32v1h-32zM475,370h32v1h-32zM6,371h31v1h-31zM475,371h31v1h-31zM6,372h31v1h-31zM474,372h32v1h-32zM6,373h32v1h-32zM474,373h32v1h-32zM6,374h32v1h-32zM474,374h32v1h-32zM6,375h32v1h-32zM474,375h31v1h-31zM7,376h31v1h-31zM473,376h32v1h-32zM7,377h32v1h-32zM473,377h32v1h-32zM7,378h32v1h-32zM473,378h32v1h-32zM7,379h32v1h-32zM472,379h32v1h-32zM8,380h32v1h-32zM472,380h32v1h-32zM8,381h32v1h-32zM472,381h32v1h-32zM8,382h33v1h-33zM471,382h33v1h-33zM8,383h33v1h-33zM471,383h32v1h-32zM9,384h32v1h-32zM470,384h33v1h-33zM9,385h33v1h-33zM470,385h33v1h-33zM9,386h33v1h-33zM470,386h32v1h-32zM10,387h32v1h-32zM469,387h33v1h-33zM10,388h33v1h-33zM469,388h33v1h-33zM10,389h33v1h-33zM468,389h33v1h-33zM11,390h33v1h-33zM468,390h33v1h-33zM11,391h33v1h-33zM467,391h34v1h-34zM11,392h34v1h-34zM467,392h33v1h-33zM12,393h34v1h-34zM466,393h34v1h-34zM12,394h34v1h-34zM465,394h35v1h-35zM12,395h35v1h-35zM465,395h34v1h-34zM13,396h35v1h-35zM464,396h35v1h-35zM13,397h36v1h-36zM463,397h35v1h-35zM14,398h36v1h-36zM462,398h36v1h-36zM14,399h37v1h-37zM461,399h37v1h-37zM15,400h37v1h-37zM460,400h37v1h-37zM15,401h38v1h-38zM459,401h38v1h-38zM16,402h38v1h-38zM458,402h38v1h-38zM16,403h40v1h-40zM457,403h39v1h-39zM17,404h40v1h-40zM455,404h40v1h-40zM17,405h42v1h-42zM454,405h41v1h-41zM18,406h43v1h-43zM452,406h42v1h-42zM18,407h45v1h-45zM451,407h42v1h-42zM19,408h46v1h-46zM449,408h44v1h-44zM19,409h49v1h-49zM446,409h46v1h-46zM20,410h52v1h-52zM444,410h48v1h-48zM21,411h55v1h-55zM440,411h51v1h-51zM22,412h60v1h-60zM436,412h54v1h-54zM22,413h67v1h-67zM429,413h60v1h-60zM23,414h78v1h-78zM414,414h75v1h-75zM24,415h93v1h-93zM396,415h92v1h-92zM25,416h115v1h-115zM377,416h110v1h-110zM26,417h146v1h-146zM348,417h138v1h-138zM26,418h186v1h-186zM314,418h172v1h-172zM27,419h458v1h-458zM29,420h454v1h-454zM30,421h452v1h-452zM31,422h450v1h-450zM32,423h448v1h-448zM33,424h446v1h-446zM34,425h444v1h-444zM35,426h442v1h-442zM37,427h439v1h-439zM38,428h436v1h-436zM39,429h434v1h-434zM41,430h431v1h-431zM42,431h428v1h-428zM44,432h425v1h-425zM46,433h421v1h-421zM48,434h417v1h-417zM50,435h413v1h-413zM53,436h408v1h-408zM55,437h404v1h-404zM58,438h399v1h-399zM61,439h393v1h-393zM64,440h387v1h-387zM69,441h378v1h-378zM74,442h369v1h-369zM82,443h354v1h-354zM89,444h339v1h-339zM103,445h307v1h-307zM121,446h271v1h-271zM148,447h225v1h-225zM179,448h162v1h-162zM224,449h76v1h-76z"/></svg>