<?xml version="1.0" encoding="UTF-8"?>
<svg xmlns="http://www.w3.org/2000/svg" viewBox="0 0 512 512" width="512" height="512"><path fill="#000" d="M84,80h344v1h-344zM79,81h354v1h-354zM75,82h362v1h-362zM71,83h370v1h-370zM68,84h376v1h-376zM66,85h380v1h-380zM63,86h385v1h-385zM61,87h390v1h-390zM59,88h394v1h-394zM57,89h398v1h-398zM56,90h400v1h-400zM54,91h404v1h-404zM52,92h408v1h-408zM51,93h410v1h-410zM49,94h414v1h-414zM48,95h416v1h-416zM47,96h418v1h-418zM46,97h421v1h-421zM44,98h424v1h-424zM43,99h426v1h-426zM42,100h428v1h-428zM41,101h430v1h-430zM40,102h432v1h-432zM39,103h434v1h-434zM38,104h436v1h-436zM37,105h438v1h-438zM36,106h440v1h-440zM35,107h442v1h-442zM34,108h444v1h-444zM33,109h445v1h-445zM33,110h446v1h-446zM32,111h448v1h-448zM31,112h450v1h-450zM30,113h452v1h-452zM30,114h452v1h-452zM29,115h454v1h-454zM28,116h456v1h-456zM28,117h456v1h-456zM27,118h458v1h-458zM27,119h458v1h-458zM26,120h460v1h-460zM25,121h462v1h-462zM25,122h462v1h-462zM24,123h464v1h-464zM24,124h464v1h-464zM23,125h466v1h-466zM23,126h466v1h-466zM23,127h466v1h-466zM22,128h468v1h-468zM22,129h468v1h-468zM21,130h470v1h-470zM21,131h470v1h-470zM20,132h472v1h-472zM20,133h472v1h-472zM20,134h472v1h-472zM19,135h474v1h-474zM19,136h474v1h-474zM19,137h474v1h-474zM19,138h474v1h-474zM18,139h476v1h-476zM18,140h476v1h-476zM18,141h476v1h-476zM18,142h476v1h-476zM17,143h478v1h-478zM17,144h478v1h-478zM17,145h478v1h-478zM17,146h478v1h-478zM17,147h478v1h-478zM16,148h480v1h-480zM16,149h480v1h-480zM16,150h480v1h-480zM16,151h480v1h-480zM16,152h480v1h-480zM16,153h480v1h-480zM16,154h480v1h-480zM16,155h480v1h-480zM16,156h480v1h-480zM16,157h480v1h-480zM16,158h480v1h-480zM16,159h480v1h-480zM16,160h480v1h-480zM16,161h480v1h-480zM16,162h480v1h-480zM16,163h480v1h-480zM16,164h195v1h-195zM230,164h266v1h-266zM16,165h191v1h-191zM234,165h262v1h-262zM16,166h188v1h-188zM237,166h259v1h-259zM16,167h186v1h-186zM240,167h256v1h-256zM16,168h184v1h-184zM242,168h254v1h-254zM16,169h182v1h-182zM244,169h252v1h-252zM16,170h180v1h-180zM246,170h250v1h-250zM16,171h179v1h-179zM247,171h249v1h-249zM16,172h177v1h-177zM248,172h248v1h-248zM16,173h176v1h-176zM250,173h246v1h-246zM16,174h175v1h-175zM251,174h245v1h-245zM16,175h174v1h-174zM253,175h243v1h-243zM16,176h172v1h-172zM254,176h242v1h-242zM16,177h172v1h-172zM255,177h241v1h-241zM16,178h171v1h-171zM257,178h239v1h-239zM16,179h170v1h-170zM258,179h238v1h-238zM16,180h169v1h-169zM260,180h236v1h-236zM16,181h168v1h-168zM261,181h235v1h-235zM16,182h168v1h-168zM262,182h234v1h-234zM16,183h167v1h-167zM264,183h232v1h-232zM16,184h166v1h-166zM265,184h231v1h-231zM16,185h166v1h-166zM267,185h229v1h-229zM16,186h165v1h-165zM268,186h228v1h-228zM16,187h165v1h-165zM269,187h227v1h-227zM16,188h164v1h-164zM271,188h225v1h-225zM16,189h164v1h-164zM272,189h224v1h-224zM16,190h163v1h-163zM273,190h223v1h-223zM16,191h163v1h-163zM275,191h221v1h-221zM16,192h163v1h-163zM276,192h220v1h-220zM16,193h162v1h-162zM278,193h218v1h-218zM16,194h162v1h-162zM279,194h217v1h-217zM16,195h162v1h-162zM217,195h9v1h-9zM280,195h216v1h-216zM16,196h161v1h-161zM214,196h14v1h-14zM282,196h214v1h-214zM16,197h161v1h-161zM212,197h18v1h-18zM283,197h213v1h-213zM16,198h161v1h-161zM211,198h20v1h-20zM285,198h211v1h-211zM16,199h161v1h-161zM210,199h22v1h-22zM286,199h210v1h-210zM16,200h161v1h-161zM209,200h25v1h-25zM287,200h209v1h-209zM16,201h161v1h-161zM209,201h26v1h-26zM289,201h207v1h-207zM16,202h161v1h-161zM208,202h29v1h-29zM290,202h206v1h-206zM16,203h160v1h-160zM208,203h30v1h-30zM292,203h204v1h-204zM16,204h160v1h-160zM208,204h31v1h-31zM293,204h203v1h-203zM16,205h160v1h-160zM208,205h33v1h-33zM294,205h202v1h-202zM16,206h160v1h-160zM208,206h34v1h-34zM296,206h200v1h-200zM16,207h160v1h-160zM208,207h36v1h-36zM297,207h199v1h-199zM16,208h160v1h-160zM208,208h37v1h-37zM298,208h198v1h-198zM16,209h160v1h-160zM208,209h38v1h-38zM300,209h196v1h-196zM16,210h160v1h-160zM208,210h40v1h-40zM301,210h195v1h-195zM16,211h160v1h-160zM208,211h41v1h-41zM303,211h193v1h-193zM16,212h160v1h-160zM208,212h43v1h-43zM304,212h192v1h-192zM16,213h160v1h-160zM208,213h44v1h-44zM305,213h191v1h-191zM16,214h160v1h-160zM208,214h45v1h-45zM307,214h189v1h-189zM16,215h160v1h-160zM208,215h47v1h-47zM308,215h188v1h-188zM16,216h160v1h-160zM208,216h48v1h-48zM310,216h186v1h-186zM16,217h160v1h-160zM208,217h49v1h-49zM311,217h185v1h-185zM16,218h160v1h-160zM208,218h51v1h-51zM312,218h184v1h-184zM16,219h160v1h-160zM208,219h52v1h-52zM314,219h182v1h-182zM16,220h160v1h-160zM208,220h54v1h-54zM315,220h181v1h-181zM16,221h160v1h-160zM208,221h55v1h-55zM317,221h179v1h-179zM16,222h160v1h-160zM208,222h56v1h-56zM318,222h178v1h-178zM16,223h160v1h-160zM208,223h58v1h-58zM319,223h177v1h-177zM16,224h160v1h-160zM208,224h59v1h-59zM321,224h175v1h-175zM16,225h160v1h-160zM208,225h61v1h-61zM322,225h174v1h-174zM16,226h160v1h-160zM208,226h62v1h-62zM323,226h173v1h-173zM16,227h160v1h-160zM208,227h63v1h-63zM324,227h172v1h-172zM16,228h160v1h-160zM208,228h65v1h-65zM325,228h171v1h-171zM16,229h160v1h-160zM208,229h66v1h-66zM326,229h170v1h-170zM16,230h160v1h-160zM208,230h68v1h-68zM327,230h169v1h-169zM16,231h160v1h-160zM208,231h69v1h-69zM327,231h169v1h-169zM16,232h160v1h-160zM208,232h70v1h-70zM328,232h168v1h-168zM16,233h160v1h-160zM208,233h72v1h-72zM329,233h167v1h-167zM16,234h160v1h-160zM208,234h73v1h-73zM329,234h167v1h-167zM16,235h160v1h-160zM208,235h75v1h-75zM330,235h166v1h-166zM16,236h160v1h-160zM208,236h76v1h-76zM331,236h165v1h-165zM16,237h160v1h-160zM208,237h77v1h-77zM331,237h165v1h-165zM16,238h160v1h-160zM208,238h79v1h-79zM332,238h164v1h-164zM16,239h160v1h-160zM208,239h80v1h-80zM332,239h164v1h-164zM16,240h160v1h-160zM208,240h82v1h-82zM332,240h164v1h-164zM16,241h160v1h-160zM208,241h83v1h-83zM333,241h163v1h-163zM16,242h160v1h-160zM208,242h84v1h-84zM333,242h163v1h-163zM16,243h160v1h-160zM208,243h86v1h-86zM334,243h162v1h-162zM16,244h160v1h-160zM208,244h87v1h-87zM334,244h162v1h-162zM16,245h160v1h-160zM208,245h89v1h-89zM334,245h162v1h-162zM16,246h160v1h-160zM208,246h90v1h-90zM334,246h162v1h-162zM16,247h160v1h-160zM208,247h91v1h-91zM335,247h161v1h-161zM16,248h160v1h-160zM208,248h93v1h-93zM335,248h161v1h-161zM16,249h160v1h-160zM208,249h94v1h-94zM335,249h161v1h-161zM16,250h160v1h-160zM208,250h95v1h-95zM335,250h161v1h-161zM16,251h160v1h-160zM208,251h95v1h-95zM335,251h161v1h-161zM16,252h160v1h-160zM208,252h96v1h-96zM335,252h161v1h-161zM16,253h160v1h-160zM208,253h96v1h-96zM336,253h160v1h-160zM16,254h160v1h-160zM208,254h96v1h-96zM336,254h160v1h-160zM16,255h160v1h-160zM208,255h96v1h-96zM336,255h160v1h-160zM16,256h160v1h-160zM208,256h96v1h-96zM336,256h160v1h-160zM16,257h160v1h-160zM208,257h96v1h-96zM336,257h160v1h-160zM16,258h160v1h-160zM208,258h96v1h-96zM336,258h160v1h-160zM16,259h160v1h-160zM208,259h96v1h-96zM335,259h161v1h-161zM16,260h160v1h-160zM208,260h95v1h-95zM335,260h161v1h-161zM16,261h160v1h-160zM208,261h95v1h-95zM335,261h161v1h-161zM16,262h160v1h-160zM208,262h94v1h-94zM335,262h161v1h-161zM16,263h160v1h-160zM208,263h93v1h-93zM335,263h161v1h-161zM16,264h160v1h-160zM208,264h91v1h-91zM335,264h161v1h-161zM16,265h160v1h-160zM208,265h90v1h-90zM334,265h162v1h-162zM16,266h160v1h-160zM208,266h89v1h-89zM334,266h162v1h-162zM16,267h160v1h-160zM208,267h87v1h-87zM334,267h162v1h-162zM16,268h160v1h-160zM208,268h86v1h-86zM334,268h162v1h-162zM16,269h160v1h-160zM208,269h84v1h-84zM333,269h163v1h-163zM16,270h160v1h-160zM208,270h83v1h-83zM333,270h163v1h-163zM16,271h160v1h-160zM208,271h82v1h-82zM332,271h164v1h-164zM16,272h160v1h-160zM208,272h80v1h-80zM332,272h164v1h-164zM16,273h160v1h-160zM208,273h79v1h-79zM332,273h164v1h-164zM16,274h160v1h-160zM208,274h77v1h-77zM331,274h165v1h-165zM16,275h160v1h-160zM208,275h76v1h-76zM331,275h165v1h-165zM16,276h160v1h-160zM208,276h75v1h-75zM330,276h166v1h-166zM16,277h160v1h-160zM208,277h73v1h-73zM329,277h167v1h-167zM16,278h160v1h-160zM208,278h72v1h-72zM329,278h167v1h-167zM16,279h160v1h-160zM208,279h70v1h-70zM328,279h168v1h-168zM16,280h160v1h-160zM208,280h69v1h-69zM327,280h169v1h-169zM16,281h160v1h-160zM208,281h68v1h-68zM327,281h169v1h-169zM16,282h160v1h-160zM208,282h66v1h-66zM326,282h170v1h-170zM16,283h160v1h-160zM208,283h65v1h-65zM325,283h171v1h-171zM16,284h160v1h-160zM208,284h63v1h-63zM324,284h172v1h-172zM16,285h160v1h-160zM208,285h62v1h-62zM323,285h173v1h-173zM16,286h160v1h-160zM208,286h61v1h-61zM322,286h174v1h-174zM16,287h160v1h-160zM208,287h59v1h-59zM321,287h175v1h-175zM16,288h160v1h-160zM208,288h58v1h-58zM319,288h177v1h-177zM16,289h160v1h-160zM208,289h56v1h-56zM318,289h178v1h-178zM16,290h160v1h-160zM208,290h55v1h-55zM317,290h179v1h-179zM16,291h160v1h-160zM208,291h54v1h-54zM315,291h181v1h-181zM16,292h160v1h-160zM208,292h52v1h-52zM314,292h182v1h-182zM16,293h160v1h-160zM208,293h51v1h-51zM312,293h184v1h-184zM16,294h160v1h-160zM208,294h49v1h-49zM311,294h185v1h-185zM16,295h160v1h-160zM208,295h48v1h-48zM310,295h186v1h-186zM16,296h160v1h-160zM208,296h47v1h-47zM308,296h188v1h-188zM16,297h160v1h-160zM208,297h45v1h-45zM307,297h189v1h-189zM16,298h160v1h-160zM208,298h44v1h-44zM305,298h191v1h-191zM16,299h160v1h-160zM208,299h43v1h-43zM304,299h192v1h-192zM16,300h160v1h-160zM208,300h41v1h-41zM303,300h193v1h-193zM16,301h160v1h-160zM208,301h40v1h-40zM301,301h195v1h-195zM16,302h160v1h-160zM208,302h38v1h-38zM300,302h196v1h-196zM16,303h160v1h-160zM208,303h37v1h-37zM298,303h198v1h-198zM16,304h160v1h-160zM208,304h36v1h-36zM297,304h199v1h-199zM16,305h160v1h-160zM208,305h34v1h-34zM296,305h200v1h-200zM16,306h160v1h-160zM208,306h33v1h-33zM294,306h202v1h-202zM16,307h160v1h-160zM208,307h31v1h-31zM293,307h203v1h-203zM16,308h160v1h-160zM208,308h30v1h-30zM292,308h204v1h-204zM16,309h161v1h-161zM208,309h29v1h-29zM290,309h206v1h-206zM16,310h161v1h-161zM209,310h26v1h-26zM289,310h207v1h-207zM16,311h161v1h-161zM209,311h25v1h-25zM287,311h209v1h-209zM16,312h161v1h-161zM210,312h22v1h-22zM286,312h210v1h-210zM16,313h161v1h-161zM211,313h20v1h-20zM285,313h211v1h-211zM16,314h161v1h-161zM212,314h18v1h-18zM283,314h213v1h-213zM16,315h161v1h-161zM214,315h14v1h-14zM282,315h214v1h-214zM16,316h162v1h-162zM216,316h9v1h-9zM280,316h216v1h-216zM16,317h162v1h-162zM279,317h217v1h-217zM16,318h162v1h-162zM278,318h218v1h-218zM16,319h163v1h-163zM276,319h220v1h-220zM16,320h163v1h-163zM275,320h221v1h-221zM16,321h163v1h-163zM273,321h223v1h-223zM16,322h164v1h-164zM272,322h224v1h-224zM16,323h164v1h-164zM271,323h225v1h-225zM16,324h165v1h-165zM269,324h227v1h-227zM16,325h165v1h-165zM268,325h228v1h-228zM16,326h166v1h-166zM267,326h229v1h-229zM16,327h166v1h-166zM265,327h231v1h-231zM16,328h167v1h-167zM264,328h232v1h-232zM16,329h168v1h-168zM262,329h234v1h-234zM16,330h168v1h-168zM261,330h235v1h-235zM16,331h169v1h-169zM260,331h236v1h-236zM16,332h170v1h-170zM258,332h238v1h-238zM16,333h171v1h-171zM257,333h239v1h-239zM16,334h172v1h-172zM255,334h241v1h-241zM16,335h172v1h-172zM254,335h242v1h-242zM16,336h174v1h-174zM253,336h243v1h-243zM16,337h175v1h-175zM251,337h245v1h-245zM16,338h176v1h-176zM250,338h246v1h-246zM16,339h177v1h-177zM248,339h248v1h-248zM16,340h179v1h-179zM247,340h249v1h-249zM16,341h180v1h-180zM246,341h250v1h-250zM16,342h182v1h-182zM244,342h252v1h-252zM16,343h184v1h-184zM242,343h254v1h-254zM16,344h186v1h-186zM240,344h256v1h-256zM16,345h189v1h-189zM237,345h259v1h-259zM16,346h192v1h-192zM235,346h261v1h-261zM16,347h196v1h-196zM231,347h265v1h-265zM16,348h480v1h-480zM16,349h480v1h-480zM16,350h480v1h-480zM16,351h480v1h-480zM16,352h480v1h-480zM16,353h480v1h-480zM16,354h480v1h-480zM16,355h480v1h-480zM16,356h480v1h-480zM16,357h480v1h-480zM16,358h480v1h-480zM16,359h480v1h-480zM16,360h480v1h-480zM16,361h480v1h-480zM16,362h480v1h-480zM16,363h480v1h-480zM17,364h478v1h-478zM17,365h478v1h-478zM17,366h478v1h-478zM17,367h478v1h-478zM17,368h478v1h-478zM18,369h476v1h-476zM18,370h476v1h-476zM18,371h476v1h-476zM18,372h476v1h-476zM19,373h474v1h-474zM19,374h474v1h-474zM19,375h474v1h-474zM19,376h474v1h-474zM20,377h472v1h-472zM20,378h472v1h-472zM20,379h472v1h-472zM21,380h470v1h-470zM21,381h470v1h-470zM22,382h468v1h-468zM22,383h468v1h-468zM23,384h466v1h-466zM23,385h466v1h-466zM23,386h466v1h-466zM24,387h464v1h-464zM24,388h464v1h-464zM25,389h462v1h-462zM25,390h462v1h-462zM26,391h460v1h-460zM27,392h458v1h-458zM27,393h458v1h-458zM28,394h456v1h-456zM28,395h456v1h-456zM29,396h454v1h-454zM30,397h452v1h-452zM31,398h451v1h-451zM31,399h450v1h-450zM32,400h448v1h-448zM33,401h446v1h-446zM34,402h444v1h-444zM34,403h444v1h-444zM35,404h442v1h-442zM36,405h440v1h-440zM37,406h438v1h-438zM38,407h436v1h-436zM39,408h434v1h-434zM40,409h432v1h-432zM41,410h430v1h-430zM42,411h428v1h-428zM43,412h426v1h-426zM44,413h424v1h-424zM46,414h420v1h-420zM47,415h418v1h-418zM48,416h416v1h-416zM49,417h414v1h-414zM51,418h410v1h-410zM52,419h408v1h-408zM54,420h404v1h-404zM56,421h400v1h-400zM57,422h398v1h-398zM59,423h394v1h-394zM61,424h390v1h-390zM64,425h384v1h-384zM66,426h380v1h-380zM68,427h376v1h-376zM71,428h370v1h-370zM75,429h362v1h-362zM79,430h354v1h-354zM84,431h344v1h-344z"/></svg>