<svg xmlns="http://www.w3.org/2000/svg" viewBox="0 0 512 512" width="512" height="512"><path fill="#000" d="M201,62h110v1h-110zM165,63h182v1h-182zM136,64h240v1h-240zM117,65h278v1h-278zM98,66h316v1h-316zM82,67h348v1h-348zM75,68h362v1h-362zM69,69h374v1h-374zM65,70h382v1h-382zM62,71h388v1h-388zM58,72h396v1h-396zM56,73h400v1h-400zM54,74h405v1h-405zM51,75h410v1h-410zM49,76h414v1h-414zM47,77h418v1h-418zM46,78h421v1h-421zM44,79h424v1h-424zM42,80h428v1h-428zM41,81h431v1h-431zM39,82h434v1h-434zM38,83h436v1h-436zM37,84h439v1h-439zM35,85h442v1h-442zM34,86h444v1h-444zM33,87h446v1h-446zM32,88h448v1h-448zM31,89h451v1h-451zM30,90h453v1h-453zM29,91h455v1h-455zM28,92h457v1h-457zM27,93h459v1h-459zM26,94h461v1h-461zM25,95h462v1h-462zM24,96h464v1h-464zM24,97h465v1h-465zM23,98h467v1h-467zM22,99h469v1h-469zM21,100h470v1h-470zM21,101h471v1h-471zM20,102h473v1h-473zM19,103h474v1h-474zM19,104h475v1h-475zM18,105h476v1h-476zM18,106h477v1h-477zM17,107h478v1h-478zM17,108h479v1h-479zM16,109h481v1h-481zM15,110h482v1h-482zM15,111h482v1h-482zM15,112h483v1h-483zM14,113h484v1h-484zM14,114h485v1h-485zM13,115h486v1h-486zM13,116h487v1h-487zM13,117h487v1h-487zM12,118h488v1h-488zM12,119h489v1h-489zM11,120h490v1h-490zM11,121h490v1h-490zM11,122h491v1h-491zM10,123h492v1h-492zM10,124h492v1h-492zM10,125h493v1h-493zM9,126h494v1h-494zM9,127h494v1h-494zM9,128h495v1h-495zM8,129h496v1h-496zM8,130h496v1h-496zM8,131h496v1h-496zM8,132h497v1h-497zM7,133h498v1h-498zM7,134h498v1h-498zM7,135h498v1h-498zM7,136h498v1h-498zM7,137h499v1h-499zM6,138h500v1h-500zM6,139h500v1h-500zM6,140h500v1h-500zM6,141h501v1h-501zM5,142h502v1h-502zM5,143h502v1h-502zM5,144h502v1h-502zM5,145h502v1h-502zM4,146h504v1h-504zM4,147h504v1h-504zM4,148h504v1h-504zM4,149h504v1h-504zM4,150h504v1h-504zM4,151h504v1h-504zM4,152h504v1h-504zM3,153h506v1h-506zM3,154h506v1h-506zM3,155h506v1h-506zM3,156h506v1h-506zM3,157h506v1h-506zM3,158h506v1h-506zM3,159h506v1h-506zM3,160h506v1h-506zM3,161h506v1h-506zM3,162h506v1h-506zM3,163h506v1h-506zM3,164h506v1h-506zM3,165h506v1h-506zM0,166h512v1h-512zM0,167h512v1h-512zM0,168h512v1h-512zM0,169h207v1h-207zM216,169h296v1h-296zM0,170h204v1h-204zM219,170h293v1h-293zM0,171h202v1h-202zM222,171h290v1h-290zM0,172h200v1h-200zM223,172h289v1h-289zM0,173h199v1h-199zM225,173h287v1h-287zM0,174h198v1h-198zM227,174h285v1h-285zM0,175h197v1h-197zM229,175h283v1h-283zM0,176h196v1h-196zM231,176h281v1h-281zM0,177h195v1h-195zM233,177h279v1h-279zM0,178h195v1h-195zM234,178h278v1h-278zM0,179h194v1h-194zM236,179h276v1h-276zM0,180h193v1h-193zM238,180h274v1h-274zM0,181h193v1h-193zM240,181h272v1h-272zM0,182h193v1h-193zM242,182h270v1h-270zM0,183h192v1h-192zM244,183h268v1h-268zM0,184h192v1h-192zM245,184h267v1h-267zM0,185h192v1h-192zM247,185h265v1h-265zM0,186h192v1h-192zM249,186h263v1h-263zM0,187h192v1h-192zM251,187h261v1h-261zM0,188h191v1h-191zM253,188h259v1h-259zM0,189h191v1h-191zM255,189h257v1h-257zM0,190h191v1h-191zM256,190h256v1h-256zM0,191h191v1h-191zM258,191h254v1h-254zM0,192h191v1h-191zM260,192h252v1h-252zM0,193h191v1h-191zM262,193h250v1h-250zM0,194h191v1h-191zM264,194h248v1h-248zM0,195h191v1h-191zM266,195h246v1h-246zM0,196h191v1h-191zM267,196h245v1h-245zM0,197h191v1h-191zM269,197h243v1h-243zM0,198h191v1h-191zM271,198h241v1h-241zM0,199h191v1h-191zM273,199h239v1h-239zM0,200h191v1h-191zM275,200h237v1h-237zM0,201h191v1h-191zM276,201h236v1h-236zM0,202h191v1h-191zM278,202h234v1h-234zM0,203h191v1h-191zM280,203h232v1h-232zM0,204h191v1h-191zM282,204h230v1h-230zM0,205h191v1h-191zM221,205h2v1h-2zM284,205h228v1h-228zM0,206h191v1h-191zM221,206h4v1h-4zM286,206h226v1h-226zM0,207h191v1h-191zM221,207h5v1h-5zM287,207h225v1h-225zM0,208h191v1h-191zM221,208h7v1h-7zM289,208h223v1h-223zM0,209h191v1h-191zM221,209h9v1h-9zM291,209h221v1h-221zM0,210h191v1h-191zM221,210h11v1h-11zM293,210h219v1h-219zM0,211h191v1h-191zM221,211h13v1h-13zM295,211h217v1h-217zM0,212h191v1h-191zM221,212h15v1h-15zM297,212h215v1h-215zM0,213h191v1h-191zM221,213h16v1h-16zM298,213h214v1h-214zM0,214h191v1h-191zM221,214h18v1h-18zM300,214h212v1h-212zM0,215h191v1h-191zM221,215h20v1h-20zM302,215h210v1h-210zM0,216h191v1h-191zM221,216h22v1h-22zM304,216h208v1h-208zM0,217h191v1h-191zM221,217h24v1h-24zM306,217h206v1h-206zM0,218h191v1h-191zM221,218h26v1h-26zM308,218h204v1h-204zM0,219h191v1h-191zM221,219h27v1h-27zM309,219h203v1h-203zM0,220h191v1h-191zM221,220h29v1h-29zM311,220h201v1h-201zM0,221h191v1h-191zM221,221h31v1h-31zM313,221h199v1h-199zM0,222h191v1h-191zM221,222h33v1h-33zM315,222h197v1h-197zM0,223h191v1h-191zM221,223h35v1h-35zM317,223h195v1h-195zM0,224h191v1h-191zM221,224h37v1h-37zM319,224h193v1h-193zM0,225h191v1h-191zM221,225h38v1h-38zM320,225h192v1h-192zM0,226h191v1h-191zM221,226h40v1h-40zM322,226h190v1h-190zM0,227h191v1h-191zM221,227h42v1h-42zM324,227h188v1h-188zM0,228h191v1h-191zM221,228h44v1h-44zM326,228h186v1h-186zM0,229h191v1h-191zM221,229h46v1h-46zM328,229h184v1h-184zM0,230h191v1h-191zM221,230h47v1h-47zM329,230h183v1h-183zM0,231h191v1h-191zM221,231h49v1h-49zM331,231h181v1h-181zM0,232h191v1h-191zM221,232h51v1h-51zM333,232h179v1h-179zM0,233h191v1h-191zM221,233h53v1h-53zM335,233h177v1h-177zM0,234h191v1h-191zM221,234h55v1h-55zM336,234h176v1h-176zM0,235h191v1h-191zM221,235h57v1h-57zM338,235h174v1h-174zM0,236h191v1h-191zM221,236h58v1h-58zM339,236h173v1h-173zM0,237h191v1h-191zM221,237h60v1h-60zM340,237h172v1h-172zM0,238h191v1h-191zM221,238h62v1h-62zM341,238h171v1h-171zM0,239h191v1h-191zM221,239h64v1h-64zM341,239h171v1h-171zM0,240h191v1h-191zM221,240h66v1h-66zM342,240h170v1h-170zM0,241h191v1h-191zM221,241h68v1h-68zM343,241h169v1h-169zM0,242h191v1h-191zM221,242h69v1h-69zM343,242h169v1h-169zM0,243h191v1h-191zM221,243h71v1h-71zM344,243h168v1h-168zM0,244h191v1h-191zM221,244h73v1h-73zM344,244h168v1h-168zM0,245h191v1h-191zM221,245h75v1h-75zM344,245h168v1h-168zM0,246h191v1h-191zM221,246h77v1h-77zM345,246h167v1h-167zM0,247h191v1h-191zM221,247h79v1h-79zM345,247h167v1h-167zM0,248h191v1h-191zM221,248h80v1h-80zM345,248h167v1h-167zM0,249h191v1h-191zM221,249h82v1h-82zM345,249h167v1h-167zM0,250h191v1h-191zM221,250h84v1h-84zM345,250h167v1h-167zM0,251h191v1h-191zM221,251h85v1h-85zM345,251h167v1h-167zM0,252h191v1h-191zM221,252h83v1h-83zM345,252h167v1h-167zM0,253h191v1h-191zM221,253h81v1h-81zM345,253h167v1h-167zM0,254h191v1h-191zM221,254h79v1h-79zM345,254h167v1h-167zM0,255h191v1h-191zM221,255h77v1h-77zM345,255h167v1h-167zM0,256h191v1h-191zM221,256h75v1h-75zM345,256h167v1h-167zM0,257h191v1h-191zM221,257h73v1h-73zM344,257h168v1h-168zM0,258h191v1h-191zM221,258h72v1h-72zM344,258h168v1h-168zM0,259h191v1h-191zM221,259h70v1h-70zM343,259h169v1h-169zM0,260h191v1h-191zM221,260h68v1h-68zM343,260h169v1h-169zM0,261h191v1h-191zM221,261h66v1h-66zM342,261h170v1h-170zM0,262h191v1h-191zM221,262h64v1h-64zM342,262h170v1h-170zM0,263h191v1h-191zM221,263h62v1h-62zM341,263h171v1h-171zM0,264h191v1h-191zM221,264h60v1h-60zM340,264h172v1h-172zM0,265h191v1h-191zM221,265h59v1h-59zM339,265h173v1h-173zM0,266h191v1h-191zM221,266h57v1h-57zM338,266h174v1h-174zM0,267h191v1h-191zM221,267h55v1h-55zM337,267h175v1h-175zM0,268h191v1h-191zM221,268h53v1h-53zM335,268h177v1h-177zM0,269h191v1h-191zM221,269h51v1h-51zM334,269h178v1h-178zM0,270h191v1h-191zM221,270h49v1h-49zM332,270h180v1h-180zM0,271h191v1h-191zM221,271h47v1h-47zM330,271h182v1h-182zM0,272h191v1h-191zM221,272h46v1h-46zM328,272h184v1h-184zM0,273h191v1h-191zM221,273h44v1h-44zM327,273h185v1h-185zM0,274h191v1h-191zM221,274h42v1h-42zM325,274h187v1h-187zM0,275h191v1h-191zM221,275h40v1h-40zM323,275h189v1h-189zM0,276h191v1h-191zM221,276h38v1h-38zM321,276h191v1h-191zM0,277h191v1h-191zM221,277h36v1h-36zM319,277h193v1h-193zM0,278h191v1h-191zM221,278h34v1h-34zM317,278h195v1h-195zM0,279h191v1h-191zM221,279h33v1h-33zM315,279h197v1h-197zM0,280h191v1h-191zM221,280h31v1h-31zM314,280h198v1h-198zM0,281h191v1h-191zM221,281h29v1h-29zM312,281h200v1h-200zM0,282h191v1h-191zM221,282h27v1h-27zM310,282h202v1h-202zM0,283h191v1h-191zM221,283h25v1h-25zM308,283h204v1h-204zM0,284h191v1h-191zM221,284h23v1h-23zM306,284h206v1h-206zM0,285h191v1h-191zM221,285h21v1h-21zM304,285h208v1h-208zM0,286h191v1h-191zM221,286h19v1h-19zM302,286h210v1h-210zM0,287h191v1h-191zM221,287h18v1h-18zM300,287h212v1h-212zM0,288h191v1h-191zM221,288h16v1h-16zM299,288h213v1h-213zM0,289h191v1h-191zM221,289h14v1h-14zM297,289h215v1h-215zM0,290h191v1h-191zM221,290h12v1h-12zM295,290h217v1h-217zM0,291h191v1h-191zM221,291h10v1h-10zM293,291h219v1h-219zM0,292h191v1h-191zM221,292h8v1h-8zM291,292h221v1h-221zM0,293h191v1h-191zM221,293h6v1h-6zM289,293h223v1h-223zM0,294h191v1h-191zM221,294h5v1h-5zM287,294h225v1h-225zM0,295h191v1h-191zM221,295h3v1h-3zM286,295h226v1h-226zM0,296h191v1h-191zM221,296h1v1h-1zM284,296h228v1h-228zM0,297h191v1h-191zM282,297h230v1h-230zM0,298h191v1h-191zM280,298h232v1h-232zM0,299h191v1h-191zM278,299h234v1h-234zM0,300h191v1h-191zM276,300h236v1h-236zM0,301h191v1h-191zM274,301h238v1h-238zM0,302h191v1h-191zM273,302h239v1h-239zM0,303h191v1h-191zM271,303h241v1h-241zM0,304h191v1h-191zM269,304h243v1h-243zM0,305h191v1h-191zM267,305h245v1h-245zM0,306h191v1h-191zM265,306h247v1h-247zM0,307h191v1h-191zM263,307h249v1h-249zM0,308h191v1h-191zM261,308h251v1h-251zM0,309h191v1h-191zM260,309h252v1h-252zM0,310h191v1h-191zM258,310h254v1h-254zM0,311h191v1h-191zM256,311h256v1h-256zM0,312h191v1h-191zM254,312h258v1h-258zM0,313h192v1h-192zM252,313h260v1h-260zM0,314h192v1h-192zM250,314h262v1h-262zM0,315h192v1h-192zM248,315h264v1h-264zM0,316h192v1h-192zM247,316h265v1h-265zM0,317h192v1h-192zM245,317h267v1h-267zM0,318h192v1h-192zM243,318h269v1h-269zM0,319h193v1h-193zM241,319h271v1h-271zM0,320h193v1h-193zM239,320h273v1h-273zM0,321h194v1h-194zM237,321h275v1h-275zM0,322h194v1h-194zM235,322h277v1h-277zM0,323h195v1h-195zM234,323h278v1h-278zM0,324h196v1h-196zM232,324h280v1h-280zM0,325h196v1h-196zM230,325h282v1h-282zM0,326h197v1h-197zM228,326h284v1h-284zM0,327h199v1h-199zM226,327h286v1h-286zM0,328h200v1h-200zM224,328h288v1h-288zM0,329h201v1h-201zM222,329h290v1h-290zM0,330h203v1h-203zM220,330h292v1h-292zM0,331h206v1h-206zM218,331h294v1h-294zM0,332h512v1h-512zM0,333h512v1h-512zM0,334h512v1h-512zM0,335h512v1h-512zM0,336h512v1h-512zM0,337h512v1h-512zM0,338h512v1h-512zM0,339h512v1h-512zM0,340h512v1h-512zM0,341h512v1h-512zM0,342h512v1h-512zM0,343h512v1h-512zM0,344h512v1h-512zM0,345h512v1h-512zM0,346h512v1h-512zM3,347h506v1h-506zM3,348h506v1h-506zM3,349h506v1h-506zM3,350h506v1h-506zM3,351h506v1h-506zM3,352h506v1h-506zM3,353h506v1h-506zM3,354h506v1h-506zM3,355h506v1h-506zM3,356h506v1h-506zM3,357h506v1h-506zM3,358h506v1h-506zM3,359h506v1h-506zM4,360h504v1h-504zM4,361h504v1h-504zM4,362h504v1h-504zM4,363h504v1h-504zM4,364h504v1h-504zM4,365h504v1h-504zM4,366h503v1h-503zM5,367h502v1h-502zM5,368h502v1h-502zM5,369h502v1h-502zM5,370h502v1h-502zM6,371h500v1h-500zM6,372h500v1h-500zM6,373h500v1h-500zM6,374h500v1h-500zM6,375h499v1h-499zM7,376h498v1h-498zM7,377h498v1h-498zM7,378h498v1h-498zM7,379h497v1h-497zM8,380h496v1h-496zM8,381h496v1h-496zM8,382h496v1h-496zM8,383h495v1h-495zM9,384h494v1h-494zM9,385h494v1h-494zM9,386h493v1h-493zM10,387h492v1h-492zM10,388h492v1h-492zM10,389h491v1h-491zM11,390h490v1h-490zM11,391h490v1h-490zM11,392h489v1h-489zM12,393h488v1h-488zM12,394h488v1h-488zM12,395h487v1h-487zM13,396h486v1h-486zM13,397h485v1h-485zM14,398h484v1h-484zM14,399h484v1h-484zM15,400h482v1h-482zM15,401h482v1h-482zM16,402h480v1h-480zM16,403h480v1h-480zM17,404h478v1h-478zM17,405h478v1h-478zM18,406h476v1h-476zM18,407h475v1h-475zM19,408h474v1h-474zM19,409h473v1h-473zM20,410h472v1h-472zM21,411h470v1h-470zM22,412h468v1h-468zM22,413h467v1h-467zM23,414h466v1h-466zM24,415h464v1h-464zM25,416h462v1h-462zM26,417h460v1h-460zM26,418h460v1h-460zM27,419h458v1h-458zM29,420h454v1h-454zM30,421h452v1h-452zM31,422h450v1h-450zM32,423h448v1h-448zM33,424h446v1h-446zM34,425h444v1h-444zM35,426h442v1h-442zM37,427h439v1h-439zM38,428h436v1h-436zM39,429h434v1h-434zM41,430h431v1h-431zM42,431h428v1h-428zM44,432h425v1h-425zM46,433h421v1h-421zM48,434h417v1h-417zM50,435h413v1h-413zM53,436h408v1h-408zM55,437h404v1h-404zM58,438h399v1h-399zM61,439h393v1h-393zM64,440h387v1h-387zM69,441h378v1h-378zM74,442h369v1h-369zM82,443h354v1h-354zM89,444h339v1h-339zM103,445h307v1h-307zM121,446h271v1h-271zM148,447h225v1h-225zM179,448h162v1h-162zM224,449h76v1h-76z"/></svg>