<?xml version="1.0" encoding="UTF-8"?>
<svg xmlns="http://www.w3.org/2000/svg" viewBox="0 0 512 512" width="512" height="512"><path fill="#000" d="M84,80h344v1h-344zM79,81h354v1h-354zM75,82h362v1h-362zM71,83h370v1h-370zM68,84h376v1h-376zM66,85h380v1h-380zM64,86h384v1h-384zM61,87h390v1h-390zM59,88h394v1h-394zM57,89h398v1h-398zM56,90h400v1h-400zM54,91h404v1h-404zM52,92h408v1h-408zM51,93h410v1h-410zM50,94h412v1h-412zM48,95h416v1h-416zM47,96h418v1h-418zM46,97h420v1h-420zM44,98h424v1h-424zM43,99h426v1h-426zM42,100h428v1h-428zM41,101h430v1h-430zM40,102h432v1h-432zM39,103h434v1h-434zM38,104h436v1h-436zM37,105h438v1h-438zM36,106h440v1h-440zM35,107h442v1h-442zM34,108h444v1h-444zM34,109h444v1h-444zM33,110h446v1h-446zM32,111h448v1h-448zM31,112h63v1h-63zM418,112h63v1h-63zM31,113h55v1h-55zM426,113h56v1h-56zM30,114h52v1h-52zM430,114h52v1h-52zM29,115h50v1h-50zM433,115h50v1h-50zM28,116h49v1h-49zM435,116h49v1h-49zM28,117h47v1h-47zM437,117h47v1h-47zM27,118h46v1h-46zM439,118h46v1h-46zM27,119h44v1h-44zM441,119h44v1h-44zM26,120h43v1h-43zM443,120h43v1h-43zM25,121h43v1h-43zM444,121h43v1h-43zM25,122h42v1h-42zM445,122h42v1h-42zM24,123h41v1h-41zM447,123h41v1h-41zM24,124h40v1h-40zM448,124h40v1h-40zM23,125h40v1h-40zM449,125h40v1h-40zM23,126h39v1h-39zM450,126h39v1h-39zM23,127h38v1h-38zM451,127h38v1h-38zM22,128h38v1h-38zM452,128h38v1h-38zM22,129h37v1h-37zM453,129h37v1h-37zM21,130h38v1h-38zM453,130h38v1h-38zM21,131h37v1h-37zM454,131h37v1h-37zM20,132h37v1h-37zM455,132h37v1h-37zM20,133h36v1h-36zM456,133h36v1h-36zM20,134h36v1h-36zM456,134h36v1h-36zM19,135h36v1h-36zM457,135h36v1h-36zM19,136h36v1h-36zM457,136h36v1h-36zM19,137h35v1h-35zM458,137h35v1h-35zM19,138h35v1h-35zM458,138h35v1h-35zM18,139h35v1h-35zM459,139h35v1h-35zM18,140h35v1h-35zM459,140h35v1h-35zM18,141h34v1h-34zM460,141h34v1h-34zM18,142h34v1h-34zM460,142h34v1h-34zM17,143h34v1h-34zM461,143h34v1h-34zM17,144h34v1h-34zM461,144h34v1h-34zM17,145h34v1h-34zM461,145h34v1h-34zM17,146h33v1h-33zM462,146h33v1h-33zM17,147h33v1h-33zM462,147h33v1h-33zM16,148h34v1h-34zM462,148h34v1h-34zM16,149h34v1h-34zM462,149h34v1h-34zM16,150h33v1h-33zM463,150h33v1h-33zM16,151h33v1h-33zM463,151h33v1h-33zM16,152h33v1h-33zM463,152h33v1h-33zM16,153h33v1h-33zM463,153h33v1h-33zM16,154h33v1h-33zM463,154h33v1h-33zM16,155h33v1h-33zM463,155h33v1h-33zM16,156h33v1h-33zM463,156h33v1h-33zM16,157h33v1h-33zM463,157h33v1h-33zM16,158h32v1h-32zM464,158h32v1h-32zM16,159h32v1h-32zM464,159h32v1h-32zM16,160h32v1h-32zM464,160h32v1h-32zM16,161h32v1h-32zM464,161h32v1h-32zM16,162h32v1h-32zM464,162h32v1h-32zM16,163h32v1h-32zM213,163h16v1h-16zM464,163h32v1h-32zM16,164h32v1h-32zM208,164h26v1h-26zM464,164h32v1h-32zM16,165h32v1h-32zM205,165h32v1h-32zM464,165h32v1h-32zM16,166h32v1h-32zM203,166h37v1h-37zM464,166h32v1h-32zM16,167h32v1h-32zM201,167h41v1h-41zM464,167h32v1h-32zM16,168h32v1h-32zM199,168h45v1h-45zM464,168h32v1h-32zM16,169h32v1h-32zM197,169h48v1h-48zM464,169h32v1h-32zM16,170h32v1h-32zM195,170h52v1h-52zM464,170h32v1h-32zM16,171h32v1h-32zM193,171h56v1h-56zM464,171h32v1h-32zM16,172h32v1h-32zM192,172h58v1h-58zM464,172h32v1h-32zM16,173h32v1h-32zM191,173h60v1h-60zM464,173h32v1h-32zM16,174h32v1h-32zM190,174h63v1h-63zM464,174h32v1h-32zM16,175h32v1h-32zM189,175h65v1h-65zM464,175h32v1h-32zM16,176h32v1h-32zM188,176h67v1h-67zM464,176h32v1h-32zM16,177h32v1h-32zM187,177h70v1h-70zM464,177h32v1h-32zM16,178h32v1h-32zM186,178h72v1h-72zM464,178h32v1h-32zM16,179h32v1h-32zM185,179h75v1h-75zM464,179h32v1h-32zM16,180h32v1h-32zM184,180h77v1h-77zM464,180h32v1h-32zM16,181h32v1h-32zM183,181h79v1h-79zM464,181h32v1h-32zM16,182h32v1h-32zM183,182h81v1h-81zM464,182h32v1h-32zM16,183h32v1h-32zM182,183h83v1h-83zM464,183h32v1h-32zM16,184h32v1h-32zM181,184h86v1h-86zM464,184h32v1h-32zM16,185h32v1h-32zM181,185h87v1h-87zM464,185h32v1h-32zM16,186h32v1h-32zM180,186h89v1h-89zM464,186h32v1h-32zM16,187h32v1h-32zM180,187h91v1h-91zM464,187h32v1h-32zM16,188h32v1h-32zM179,188h93v1h-93zM464,188h32v1h-32zM16,189h32v1h-32zM179,189h94v1h-94zM464,189h32v1h-32zM16,190h32v1h-32zM179,190h96v1h-96zM464,190h32v1h-32zM16,191h32v1h-32zM178,191h98v1h-98zM464,191h32v1h-32zM16,192h32v1h-32zM178,192h100v1h-100zM464,192h32v1h-32zM16,193h32v1h-32zM177,193h102v1h-102zM464,193h32v1h-32zM16,194h32v1h-32zM177,194h103v1h-103zM464,194h32v1h-32zM16,195h32v1h-32zM177,195h105v1h-105zM464,195h32v1h-32zM16,196h32v1h-32zM177,196h39v1h-39zM226,196h57v1h-57zM464,196h32v1h-32zM16,197h32v1h-32zM176,197h38v1h-38zM228,197h56v1h-56zM464,197h32v1h-32zM16,198h32v1h-32zM176,198h36v1h-36zM230,198h56v1h-56zM464,198h32v1h-32zM16,199h32v1h-32zM176,199h35v1h-35zM231,199h56v1h-56zM464,199h32v1h-32zM16,200h32v1h-32zM176,200h34v1h-34zM233,200h56v1h-56zM464,200h32v1h-32zM16,201h32v1h-32zM176,201h34v1h-34zM234,201h56v1h-56zM464,201h32v1h-32zM16,202h32v1h-32zM176,202h33v1h-33zM236,202h55v1h-55zM464,202h32v1h-32zM16,203h32v1h-32zM176,203h33v1h-33zM237,203h56v1h-56zM464,203h32v1h-32zM16,204h32v1h-32zM176,204h33v1h-33zM238,204h56v1h-56zM464,204h32v1h-32zM16,205h32v1h-32zM176,205h32v1h-32zM240,205h56v1h-56zM464,205h32v1h-32zM16,206h32v1h-32zM176,206h32v1h-32zM241,206h56v1h-56zM464,206h32v1h-32zM16,207h32v1h-32zM176,207h32v1h-32zM242,207h56v1h-56zM464,207h32v1h-32zM16,208h32v1h-32zM176,208h32v1h-32zM244,208h56v1h-56zM464,208h32v1h-32zM16,209h32v1h-32zM176,209h32v1h-32zM245,209h56v1h-56zM464,209h32v1h-32zM16,210h32v1h-32zM176,210h32v1h-32zM247,210h55v1h-55zM464,210h32v1h-32zM16,211h32v1h-32zM176,211h32v1h-32zM248,211h56v1h-56zM464,211h32v1h-32zM16,212h32v1h-32zM176,212h32v1h-32zM249,212h56v1h-56zM464,212h32v1h-32zM16,213h32v1h-32zM176,213h32v1h-32zM251,213h56v1h-56zM464,213h32v1h-32zM16,214h32v1h-32zM176,214h32v1h-32zM252,214h56v1h-56zM464,214h32v1h-32zM16,215h32v1h-32zM176,215h32v1h-32zM254,215h55v1h-55zM464,215h32v1h-32zM16,216h32v1h-32zM176,216h32v1h-32zM255,216h56v1h-56zM464,216h32v1h-32zM16,217h32v1h-32zM176,217h32v1h-32zM256,217h56v1h-56zM464,217h32v1h-32zM16,218h32v1h-32zM176,218h32v1h-32zM258,218h56v1h-56zM464,218h32v1h-32zM16,219h32v1h-32zM176,219h32v1h-32zM259,219h56v1h-56zM464,219h32v1h-32zM16,220h32v1h-32zM176,220h32v1h-32zM260,220h56v1h-56zM464,220h32v1h-32zM16,221h32v1h-32zM176,221h32v1h-32zM262,221h56v1h-56zM464,221h32v1h-32zM16,222h32v1h-32zM176,222h32v1h-32zM263,222h56v1h-56zM464,222h32v1h-32zM16,223h32v1h-32zM176,223h32v1h-32zM265,223h55v1h-55zM464,223h32v1h-32zM16,224h32v1h-32zM176,224h32v1h-32zM266,224h56v1h-56zM464,224h32v1h-32zM16,225h32v1h-32zM176,225h32v1h-32zM267,225h56v1h-56zM464,225h32v1h-32zM16,226h32v1h-32zM176,226h32v1h-32zM269,226h55v1h-55zM464,226h32v1h-32zM16,227h32v1h-32zM176,227h32v1h-32zM270,227h55v1h-55zM464,227h32v1h-32zM16,228h32v1h-32zM176,228h32v1h-32zM272,228h54v1h-54zM464,228h32v1h-32zM16,229h32v1h-32zM176,229h32v1h-32zM273,229h54v1h-54zM464,229h32v1h-32zM16,230h32v1h-32zM176,230h32v1h-32zM274,230h53v1h-53zM464,230h32v1h-32zM16,231h32v1h-32zM176,231h32v1h-32zM276,231h52v1h-52zM464,231h32v1h-32zM16,232h32v1h-32zM176,232h32v1h-32zM277,232h52v1h-52zM464,232h32v1h-32zM16,233h32v1h-32zM176,233h32v1h-32zM278,233h52v1h-52zM464,233h32v1h-32zM16,234h32v1h-32zM176,234h32v1h-32zM280,234h50v1h-50zM464,234h32v1h-32zM16,235h32v1h-32zM176,235h32v1h-32zM281,235h50v1h-50zM464,235h32v1h-32zM16,236h32v1h-32zM176,236h32v1h-32zM283,236h48v1h-48zM464,236h32v1h-32zM16,237h32v1h-32zM176,237h32v1h-32zM284,237h48v1h-48zM464,237h32v1h-32zM16,238h32v1h-32zM176,238h32v1h-32zM285,238h47v1h-47zM464,238h32v1h-32zM16,239h32v1h-32zM176,239h32v1h-32zM287,239h46v1h-46zM464,239h32v1h-32zM16,240h32v1h-32zM176,240h32v1h-32zM288,240h45v1h-45zM464,240h32v1h-32zM16,241h32v1h-32zM176,241h32v1h-32zM289,241h45v1h-45zM464,241h32v1h-32zM16,242h32v1h-32zM176,242h32v1h-32zM291,242h43v1h-43zM464,242h32v1h-32zM16,243h32v1h-32zM176,243h32v1h-32zM292,243h42v1h-42zM464,243h32v1h-32zM16,244h32v1h-32zM176,244h32v1h-32zM294,244h41v1h-41zM464,244h32v1h-32zM16,245h32v1h-32zM176,245h32v1h-32zM295,245h40v1h-40zM464,245h32v1h-32zM16,246h32v1h-32zM176,246h32v1h-32zM296,246h39v1h-39zM464,246h32v1h-32zM16,247h32v1h-32zM176,247h32v1h-32zM298,247h37v1h-37zM464,247h32v1h-32zM16,248h32v1h-32zM176,248h32v1h-32zM299,248h37v1h-37zM464,248h32v1h-32zM16,249h32v1h-32zM176,249h32v1h-32zM301,249h35v1h-35zM464,249h32v1h-32zM16,250h32v1h-32zM176,250h32v1h-32zM302,250h34v1h-34zM464,250h32v1h-32zM16,251h32v1h-32zM176,251h32v1h-32zM302,251h34v1h-34zM464,251h32v1h-32zM16,252h32v1h-32zM176,252h32v1h-32zM303,252h33v1h-33zM464,252h32v1h-32zM16,253h32v1h-32zM176,253h32v1h-32zM303,253h33v1h-33zM464,253h32v1h-32zM16,254h32v1h-32zM176,254h32v1h-32zM303,254h33v1h-33zM464,254h32v1h-32zM16,255h32v1h-32zM176,255h32v1h-32zM303,255h33v1h-33zM464,255h32v1h-32zM16,256h32v1h-32zM176,256h32v1h-32zM303,256h33v1h-33zM464,256h32v1h-32zM16,257h32v1h-32zM176,257h32v1h-32zM303,257h33v1h-33zM464,257h32v1h-32zM16,258h32v1h-32zM176,258h32v1h-32zM303,258h33v1h-33zM464,258h32v1h-32zM16,259h32v1h-32zM176,259h32v1h-32zM303,259h33v1h-33zM464,259h32v1h-32zM16,260h32v1h-32zM176,260h32v1h-32zM302,260h34v1h-34zM464,260h32v1h-32zM16,261h32v1h-32zM176,261h32v1h-32zM302,261h34v1h-34zM464,261h32v1h-32zM16,262h32v1h-32zM176,262h32v1h-32zM300,262h36v1h-36zM464,262h32v1h-32zM16,263h32v1h-32zM176,263h32v1h-32zM299,263h37v1h-37zM464,263h32v1h-32zM16,264h32v1h-32zM176,264h32v1h-32zM298,264h37v1h-37zM464,264h32v1h-32zM16,265h32v1h-32zM176,265h32v1h-32zM296,265h39v1h-39zM464,265h32v1h-32zM16,266h32v1h-32zM176,266h32v1h-32zM295,266h40v1h-40zM464,266h32v1h-32zM16,267h32v1h-32zM176,267h32v1h-32zM294,267h41v1h-41zM464,267h32v1h-32zM16,268h32v1h-32zM176,268h32v1h-32zM292,268h42v1h-42zM464,268h32v1h-32zM16,269h32v1h-32zM176,269h32v1h-32zM291,269h43v1h-43zM464,269h32v1h-32zM16,270h32v1h-32zM176,270h32v1h-32zM289,270h45v1h-45zM464,270h32v1h-32zM16,271h32v1h-32zM176,271h32v1h-32zM288,271h45v1h-45zM464,271h32v1h-32zM16,272h32v1h-32zM176,272h32v1h-32zM287,272h46v1h-46zM464,272h32v1h-32zM16,273h32v1h-32zM176,273h32v1h-32zM285,273h47v1h-47zM464,273h32v1h-32zM16,274h32v1h-32zM176,274h32v1h-32zM284,274h48v1h-48zM464,274h32v1h-32zM16,275h32v1h-32zM176,275h32v1h-32zM283,275h48v1h-48zM464,275h32v1h-32zM16,276h32v1h-32zM176,276h32v1h-32zM281,276h50v1h-50zM464,276h32v1h-32zM16,277h32v1h-32zM176,277h32v1h-32zM280,277h50v1h-50zM464,277h32v1h-32zM16,278h32v1h-32zM176,278h32v1h-32zM278,278h52v1h-52zM464,278h32v1h-32zM16,279h32v1h-32zM176,279h32v1h-32zM277,279h52v1h-52zM464,279h32v1h-32zM16,280h32v1h-32zM176,280h32v1h-32zM276,280h52v1h-52zM464,280h32v1h-32zM16,281h32v1h-32zM176,281h32v1h-32zM274,281h53v1h-53zM464,281h32v1h-32zM16,282h32v1h-32zM176,282h32v1h-32zM273,282h54v1h-54zM464,282h32v1h-32zM16,283h32v1h-32zM176,283h32v1h-32zM272,283h54v1h-54zM464,283h32v1h-32zM16,284h32v1h-32zM176,284h32v1h-32zM270,284h55v1h-55zM464,284h32v1h-32zM16,285h32v1h-32zM176,285h32v1h-32zM269,285h55v1h-55zM464,285h32v1h-32zM16,286h32v1h-32zM176,286h32v1h-32zM267,286h56v1h-56zM464,286h32v1h-32zM16,287h32v1h-32zM176,287h32v1h-32zM266,287h56v1h-56zM464,287h32v1h-32zM16,288h32v1h-32zM176,288h32v1h-32zM265,288h55v1h-55zM464,288h32v1h-32zM16,289h32v1h-32zM176,289h32v1h-32zM263,289h56v1h-56zM464,289h32v1h-32zM16,290h32v1h-32zM176,290h32v1h-32zM262,290h56v1h-56zM464,290h32v1h-32zM16,291h32v1h-32zM176,291h32v1h-32zM260,291h56v1h-56zM464,291h32v1h-32zM16,292h32v1h-32zM176,292h32v1h-32zM259,292h56v1h-56zM464,292h32v1h-32zM16,293h32v1h-32zM176,293h32v1h-32zM258,293h56v1h-56zM464,293h32v1h-32zM16,294h32v1h-32zM176,294h32v1h-32zM256,294h56v1h-56zM464,294h32v1h-32zM16,295h32v1h-32zM176,295h32v1h-32zM255,295h56v1h-56zM464,295h32v1h-32zM16,296h32v1h-32zM176,296h32v1h-32zM254,296h55v1h-55zM464,296h32v1h-32zM16,297h32v1h-32zM176,297h32v1h-32zM252,297h56v1h-56zM464,297h32v1h-32zM16,298h32v1h-32zM176,298h32v1h-32zM251,298h56v1h-56zM464,298h32v1h-32zM16,299h32v1h-32zM176,299h32v1h-32zM249,299h56v1h-56zM464,299h32v1h-32zM16,300h32v1h-32zM176,300h32v1h-32zM248,300h56v1h-56zM464,300h32v1h-32zM16,301h32v1h-32zM176,301h32v1h-32zM247,301h55v1h-55zM464,301h32v1h-32zM16,302h32v1h-32zM176,302h32v1h-32zM245,302h56v1h-56zM464,302h32v1h-32zM16,303h32v1h-32zM176,303h32v1h-32zM244,303h56v1h-56zM464,303h32v1h-32zM16,304h32v1h-32zM176,304h32v1h-32zM242,304h56v1h-56zM464,304h32v1h-32zM16,305h32v1h-32zM176,305h32v1h-32zM241,305h56v1h-56zM464,305h32v1h-32zM16,306h32v1h-32zM176,306h32v1h-32zM240,306h56v1h-56zM464,306h32v1h-32zM16,307h32v1h-32zM176,307h33v1h-33zM238,307h56v1h-56zM464,307h32v1h-32zM16,308h32v1h-32zM176,308h33v1h-33zM237,308h56v1h-56zM464,308h32v1h-32zM16,309h32v1h-32zM176,309h33v1h-33zM236,309h55v1h-55zM464,309h32v1h-32zM16,310h32v1h-32zM176,310h34v1h-34zM234,310h56v1h-56zM464,310h32v1h-32zM16,311h32v1h-32zM176,311h34v1h-34zM233,311h56v1h-56zM464,311h32v1h-32zM16,312h32v1h-32zM176,312h35v1h-35zM231,312h56v1h-56zM464,312h32v1h-32zM16,313h32v1h-32zM176,313h36v1h-36zM230,313h56v1h-56zM464,313h32v1h-32zM16,314h32v1h-32zM176,314h38v1h-38zM228,314h56v1h-56zM464,314h32v1h-32zM16,315h32v1h-32zM177,315h39v1h-39zM226,315h57v1h-57zM464,315h32v1h-32zM16,316h32v1h-32zM177,316h105v1h-105zM464,316h32v1h-32zM16,317h32v1h-32zM177,317h103v1h-103zM464,317h32v1h-32zM16,318h32v1h-32zM177,318h102v1h-102zM464,318h32v1h-32zM16,319h32v1h-32zM178,319h100v1h-100zM464,319h32v1h-32zM16,320h32v1h-32zM178,320h98v1h-98zM464,320h32v1h-32zM16,321h32v1h-32zM179,321h96v1h-96zM464,321h32v1h-32zM16,322h32v1h-32zM179,322h94v1h-94zM464,322h32v1h-32zM16,323h32v1h-32zM179,323h93v1h-93zM464,323h32v1h-32zM16,324h32v1h-32zM180,324h91v1h-91zM464,324h32v1h-32zM16,325h32v1h-32zM180,325h89v1h-89zM464,325h32v1h-32zM16,326h32v1h-32zM181,326h87v1h-87zM464,326h32v1h-32zM16,327h32v1h-32zM181,327h86v1h-86zM464,327h32v1h-32zM16,328h32v1h-32zM182,328h83v1h-83zM464,328h32v1h-32zM16,329h32v1h-32zM183,329h81v1h-81zM464,329h32v1h-32zM16,330h32v1h-32zM183,330h79v1h-79zM464,330h32v1h-32zM16,331h32v1h-32zM184,331h77v1h-77zM464,331h32v1h-32zM16,332h32v1h-32zM185,332h75v1h-75zM464,332h32v1h-32zM16,333h32v1h-32zM186,333h72v1h-72zM464,333h32v1h-32zM16,334h32v1h-32zM187,334h70v1h-70zM464,334h32v1h-32zM16,335h32v1h-32zM188,335h67v1h-67zM464,335h32v1h-32zM16,336h32v1h-32zM189,336h65v1h-65zM464,336h32v1h-32zM16,337h32v1h-32zM190,337h63v1h-63zM464,337h32v1h-32zM16,338h32v1h-32zM191,338h60v1h-60zM464,338h32v1h-32zM16,339h32v1h-32zM192,339h58v1h-58zM464,339h32v1h-32zM16,340h32v1h-32zM193,340h56v1h-56zM464,340h32v1h-32zM16,341h32v1h-32zM195,341h52v1h-52zM464,341h32v1h-32zM16,342h32v1h-32zM197,342h48v1h-48zM464,342h32v1h-32zM16,343h32v1h-32zM199,343h45v1h-45zM464,343h32v1h-32zM16,344h32v1h-32zM201,344h41v1h-41zM464,344h32v1h-32zM16,345h32v1h-32zM203,345h36v1h-36zM464,345h32v1h-32zM16,346h32v1h-32zM205,346h32v1h-32zM464,346h32v1h-32zM16,347h32v1h-32zM209,347h25v1h-25zM464,347h32v1h-32zM16,348h32v1h-32zM213,348h16v1h-16zM464,348h32v1h-32zM16,349h32v1h-32zM464,349h32v1h-32zM16,350h32v1h-32zM464,350h32v1h-32zM16,351h32v1h-32zM464,351h32v1h-32zM16,352h32v1h-32zM464,352h32v1h-32zM16,353h32v1h-32zM464,353h32v1h-32zM16,354h33v1h-33zM463,354h33v1h-33zM16,355h33v1h-33zM463,355h33v1h-33zM16,356h33v1h-33zM463,356h33v1h-33zM16,357h33v1h-33zM463,357h33v1h-33zM16,358h33v1h-33zM463,358h33v1h-33zM16,359h33v1h-33zM463,359h33v1h-33zM16,360h33v1h-33zM463,360h33v1h-33zM16,361h33v1h-33zM463,361h33v1h-33zM16,362h34v1h-34zM462,362h34v1h-34zM16,363h34v1h-34zM462,363h34v1h-34zM17,364h33v1h-33zM462,364h33v1h-33zM17,365h33v1h-33zM462,365h33v1h-33zM17,366h34v1h-34zM461,366h34v1h-34zM17,367h34v1h-34zM461,367h34v1h-34zM17,368h34v1h-34zM461,368h34v1h-34zM18,369h34v1h-34zM460,369h34v1h-34zM18,370h34v1h-34zM460,370h34v1h-34zM18,371h35v1h-35zM459,371h35v1h-35zM18,372h35v1h-35zM459,372h35v1h-35zM19,373h35v1h-35zM458,373h35v1h-35zM19,374h35v1h-35zM458,374h35v1h-35zM19,375h36v1h-36zM457,375h36v1h-36zM19,376h36v1h-36zM457,376h36v1h-36zM20,377h36v1h-36zM456,377h36v1h-36zM20,378h36v1h-36zM456,378h36v1h-36zM20,379h37v1h-37zM455,379h36v1h-36zM21,380h37v1h-37zM454,380h37v1h-37zM21,381h38v1h-38zM453,381h38v1h-38zM22,382h37v1h-37zM453,382h37v1h-37zM22,383h38v1h-38zM452,383h38v1h-38zM23,384h38v1h-38zM451,384h38v1h-38zM23,385h39v1h-39zM450,385h39v1h-39zM23,386h40v1h-40zM449,386h40v1h-40zM24,387h40v1h-40zM448,387h40v1h-40zM24,388h41v1h-41zM447,388h41v1h-41zM25,389h42v1h-42zM445,389h42v1h-42zM25,390h43v1h-43zM444,390h43v1h-43zM26,391h43v1h-43zM443,391h43v1h-43zM27,392h44v1h-44zM441,392h44v1h-44zM27,393h46v1h-46zM439,393h46v1h-46zM28,394h47v1h-47zM437,394h47v1h-47zM28,395h49v1h-49zM435,395h49v1h-49zM29,396h50v1h-50zM433,396h50v1h-50zM30,397h52v1h-52zM430,397h52v1h-52zM31,398h55v1h-55zM426,398h55v1h-55zM31,399h63v1h-63zM418,399h63v1h-63zM32,400h448v1h-448zM33,401h446v1h-446zM34,402h444v1h-444zM34,403h444v1h-444zM35,404h442v1h-442zM36,405h440v1h-440zM37,406h438v1h-438zM38,407h436v1h-436zM39,408h434v1h-434zM40,409h432v1h-432zM41,410h430v1h-430zM42,411h428v1h-428zM43,412h426v1h-426zM44,413h424v1h-424zM46,414h420v1h-420zM47,415h418v1h-418zM48,416h416v1h-416zM50,417h412v1h-412zM51,418h410v1h-410zM52,419h408v1h-408zM54,420h404v1h-404zM56,421h400v1h-400zM57,422h398v1h-398zM59,423h394v1h-394zM61,424h390v1h-390zM64,425h384v1h-384zM66,426h380v1h-380zM68,427h375v1h-375zM71,428h370v1h-370zM75,429h362v1h-362zM79,430h354v1h-354zM84,431h344v1h-344z"/></svg>