<?xml version="1.0" encoding="UTF-8"?>
<svg xmlns="http://www.w3.org/2000/svg" viewBox="0 0 512 512" width="512" height="512"><path fill="#000" d="M218,0h76v1h-76zM218,1h76v1h-76zM218,2h76v1h-76zM212,3h88v1h-88zM206,4h100v1h-100zM201,5h110v1h-110zM197,6h118v1h-118zM192,7h128v1h-128zM189,8h134v1h-134zM185,9h142v1h-142zM182,10h148v1h-148zM178,11h156v1h-156zM176,12h160v1h-160zM173,13h166v1h-166zM169,14h174v1h-174zM167,15h178v1h-178zM164,16h184v1h-184zM162,17h188v1h-188zM159,18h194v1h-194zM156,19h199v1h-199zM154,20h204v1h-204zM152,21h208v1h-208zM150,22h212v1h-212zM148,23h216v1h-216zM146,24h220v1h-220zM144,25h224v1h-224zM142,26h228v1h-228zM140,27h232v1h-232zM138,28h236v1h-236zM136,29h240v1h-240zM134,30h244v1h-244zM132,31h248v1h-248zM130,32h252v1h-252zM129,33h254v1h-254zM127,34h258v1h-258zM125,35h262v1h-262zM123,36h266v1h-266zM122,37h268v1h-268zM120,38h272v1h-272zM119,39h274v1h-274zM117,40h278v1h-278zM116,41h281v1h-281zM114,42h284v1h-284zM112,43h288v1h-288zM111,44h124v1h-124zM277,44h124v1h-124zM110,45h116v1h-116zM286,45h117v1h-117zM108,46h112v1h-112zM292,46h112v1h-112zM107,47h108v1h-108zM297,47h108v1h-108zM105,48h105v1h-105zM302,48h105v1h-105zM104,49h102v1h-102zM306,49h102v1h-102zM102,50h99v1h-99zM310,50h100v1h-100zM101,51h97v1h-97zM314,51h97v1h-97zM100,52h95v1h-95zM318,52h94v1h-94zM99,53h93v1h-93zM321,53h92v1h-92zM97,54h92v1h-92zM324,54h91v1h-91zM96,55h89v1h-89zM327,55h89v1h-89zM95,56h88v1h-88zM329,56h88v1h-88zM94,57h86v1h-86zM332,57h86v1h-86zM92,58h86v1h-86zM334,58h86v1h-86zM91,59h84v1h-84zM337,59h84v1h-84zM90,60h83v1h-83zM339,60h83v1h-83zM89,61h81v1h-81zM342,61h81v1h-81zM88,62h80v1h-80zM344,62h80v1h-80zM87,63h79v1h-79zM346,63h79v1h-79zM86,64h78v1h-78zM348,64h79v1h-79zM84,65h78v1h-78zM350,65h78v1h-78zM83,66h77v1h-77zM352,66h77v1h-77zM82,67h76v1h-76zM354,67h76v1h-76zM81,68h75v1h-75zM356,68h75v1h-75zM80,69h74v1h-74zM358,69h74v1h-74zM79,70h73v1h-73zM360,70h73v1h-73zM78,71h73v1h-73zM362,71h72v1h-72zM77,72h72v1h-72zM363,72h72v1h-72zM76,73h71v1h-71zM365,73h71v1h-71zM75,74h70v1h-70zM367,74h70v1h-70zM74,75h70v1h-70zM368,75h70v1h-70zM73,76h69v1h-69zM370,76h69v1h-69zM72,77h69v1h-69zM371,77h69v1h-69zM71,78h68v1h-68zM373,78h68v1h-68zM70,79h68v1h-68zM374,79h68v1h-68zM69,80h67v1h-67zM376,80h67v1h-67zM68,81h67v1h-67zM377,81h67v1h-67zM67,82h66v1h-66zM379,82h66v1h-66zM66,83h66v1h-66zM380,83h66v1h-66zM65,84h66v1h-66zM382,84h65v1h-65zM64,85h65v1h-65zM383,85h65v1h-65zM64,86h64v1h-64zM384,86h64v1h-64zM63,87h64v1h-64zM385,87h64v1h-64zM62,88h63v1h-63zM387,88h63v1h-63zM61,89h63v1h-63zM388,89h63v1h-63zM60,90h63v1h-63zM389,90h63v1h-63zM59,91h63v1h-63zM390,91h63v1h-63zM58,92h62v1h-62zM392,92h62v1h-62zM58,93h61v1h-61zM393,93h61v1h-61zM57,94h61v1h-61zM394,94h61v1h-61zM56,95h61v1h-61zM395,95h61v1h-61zM55,96h61v1h-61zM396,96h61v1h-61zM54,97h61v1h-61zM398,97h60v1h-60zM54,98h59v1h-59zM399,98h59v1h-59zM53,99h59v1h-59zM400,99h59v1h-59zM52,100h59v1h-59zM401,100h59v1h-59zM51,101h59v1h-59zM402,101h59v1h-59zM51,102h58v1h-58zM403,102h58v1h-58zM50,103h58v1h-58zM404,103h58v1h-58zM49,104h58v1h-58zM405,104h58v1h-58zM48,105h58v1h-58zM406,105h58v1h-58zM48,106h57v1h-57zM407,106h57v1h-57zM47,107h57v1h-57zM408,107h57v1h-57zM46,108h57v1h-57zM409,108h57v1h-57zM46,109h56v1h-56zM410,109h57v1h-57zM45,110h56v1h-56zM411,110h56v1h-56zM44,111h56v1h-56zM412,111h56v1h-56zM43,112h56v1h-56zM413,112h56v1h-56zM43,113h55v1h-55zM385,113h7v1h-7zM414,113h55v1h-55zM42,114h56v1h-56zM382,114h12v1h-12zM414,114h56v1h-56zM41,115h56v1h-56zM380,115h15v1h-15zM415,115h56v1h-56zM41,116h55v1h-55zM378,116h18v1h-18zM416,116h55v1h-55zM40,117h55v1h-55zM375,117h22v1h-22zM417,117h55v1h-55zM40,118h54v1h-54zM373,118h25v1h-25zM418,118h55v1h-55zM39,119h54v1h-54zM371,119h27v1h-27zM419,119h54v1h-54zM38,120h54v1h-54zM368,120h31v1h-31zM420,120h54v1h-54zM38,121h54v1h-54zM366,121h33v1h-33zM420,121h54v1h-54zM37,122h54v1h-54zM364,122h35v1h-35zM421,122h54v1h-54zM36,123h54v1h-54zM361,123h38v1h-38zM422,123h54v1h-54zM36,124h53v1h-53zM359,124h40v1h-40zM423,124h53v1h-53zM35,125h53v1h-53zM357,125h42v1h-42zM424,125h53v1h-53zM35,126h53v1h-53zM354,126h45v1h-45zM424,126h53v1h-53zM34,127h53v1h-53zM352,127h47v1h-47zM425,127h53v1h-53zM34,128h52v1h-52zM350,128h48v1h-48zM426,128h53v1h-53zM33,129h52v1h-52zM347,129h51v1h-51zM427,129h52v1h-52zM32,130h53v1h-53zM345,130h52v1h-52zM427,130h53v1h-53zM32,131h52v1h-52zM343,131h54v1h-54zM428,131h52v1h-52zM31,132h52v1h-52zM340,132h56v1h-56zM429,132h52v1h-52zM31,133h51v1h-51zM338,133h58v1h-58zM430,133h51v1h-51zM30,134h52v1h-52zM335,134h61v1h-61zM430,134h52v1h-52zM30,135h51v1h-51zM333,135h62v1h-62zM431,135h51v1h-51zM29,136h51v1h-51zM331,136h64v1h-64zM432,136h51v1h-51zM29,137h51v1h-51zM328,137h66v1h-66zM432,137h51v1h-51zM28,138h51v1h-51zM326,138h68v1h-68zM433,138h51v1h-51zM28,139h50v1h-50zM324,139h69v1h-69zM434,139h50v1h-50zM27,140h51v1h-51zM321,140h72v1h-72zM434,140h51v1h-51zM27,141h50v1h-50zM319,141h74v1h-74zM435,141h51v1h-51zM26,142h50v1h-50zM317,142h75v1h-75zM407,142h3v1h-3zM436,142h50v1h-50zM26,143h50v1h-50zM314,143h78v1h-78zM404,143h10v1h-10zM436,143h51v1h-51zM25,144h50v1h-50zM312,144h80v1h-80zM402,144h14v1h-14zM437,144h50v1h-50zM25,145h50v1h-50zM310,145h82v1h-82zM399,145h18v1h-18zM438,145h50v1h-50zM24,146h50v1h-50zM307,146h85v1h-85zM397,146h21v1h-21zM438,146h50v1h-50zM24,147h49v1h-49zM305,147h113v1h-113zM439,147h49v1h-49zM23,148h50v1h-50zM303,148h116v1h-116zM439,148h50v1h-50zM23,149h49v1h-49zM300,149h120v1h-120zM440,149h49v1h-49zM22,150h50v1h-50zM298,150h122v1h-122zM441,150h49v1h-49zM22,151h49v1h-49zM296,151h60v1h-60zM361,151h59v1h-59zM441,151h49v1h-49zM21,152h49v1h-49zM293,152h61v1h-61zM361,152h59v1h-59zM442,152h49v1h-49zM21,153h49v1h-49zM291,153h61v1h-61zM361,153h59v1h-59zM442,153h49v1h-49zM20,154h49v1h-49zM289,154h60v1h-60zM361,154h59v1h-59zM443,154h49v1h-49zM20,155h49v1h-49zM286,155h61v1h-61zM361,155h59v1h-59zM443,155h49v1h-49zM20,156h48v1h-48zM284,156h61v1h-61zM360,156h60v1h-60zM444,156h48v1h-48zM19,157h49v1h-49zM281,157h61v1h-61zM360,157h60v1h-60zM444,157h49v1h-49zM19,158h48v1h-48zM279,158h61v1h-61zM359,158h60v1h-60zM445,158h48v1h-48zM18,159h49v1h-49zM277,159h61v1h-61zM359,159h60v1h-60zM445,159h49v1h-49zM18,160h48v1h-48zM274,160h61v1h-61zM358,160h60v1h-60zM446,160h48v1h-48zM18,161h48v1h-48zM272,161h61v1h-61zM358,161h60v1h-60zM446,161h49v1h-49zM17,162h48v1h-48zM270,162h61v1h-61zM357,162h61v1h-61zM447,162h48v1h-48zM17,163h48v1h-48zM267,163h61v1h-61zM357,163h60v1h-60zM447,163h48v1h-48zM16,164h48v1h-48zM265,164h61v1h-61zM356,164h61v1h-61zM448,164h48v1h-48zM16,165h48v1h-48zM263,165h61v1h-61zM356,165h60v1h-60zM448,165h48v1h-48zM16,166h47v1h-47zM260,166h61v1h-61zM356,166h60v1h-60zM449,166h47v1h-47zM15,167h48v1h-48zM258,167h61v1h-61zM355,167h61v1h-61zM449,167h48v1h-48zM15,168h47v1h-47zM256,168h61v1h-61zM355,168h60v1h-60zM450,168h47v1h-47zM15,169h47v1h-47zM253,169h61v1h-61zM354,169h61v1h-61zM450,169h48v1h-48zM14,170h47v1h-47zM178,170h9v1h-9zM251,170h61v1h-61zM354,170h60v1h-60zM451,170h47v1h-47zM14,171h47v1h-47zM175,171h15v1h-15zM249,171h61v1h-61zM353,171h61v1h-61zM451,171h47v1h-47zM14,172h46v1h-46zM173,172h19v1h-19zM246,172h61v1h-61zM353,172h61v1h-61zM452,172h47v1h-47zM13,173h47v1h-47zM172,173h21v1h-21zM244,173h61v1h-61zM353,173h60v1h-60zM452,173h47v1h-47zM13,174h47v1h-47zM171,174h23v1h-23zM241,174h62v1h-62zM352,174h61v1h-61zM452,174h47v1h-47zM12,175h47v1h-47zM169,175h26v1h-26zM239,175h61v1h-61zM352,175h60v1h-60zM453,175h47v1h-47zM12,176h47v1h-47zM169,176h27v1h-27zM237,176h61v1h-61zM351,176h61v1h-61zM453,176h47v1h-47zM12,177h47v1h-47zM168,177h29v1h-29zM234,177h61v1h-61zM351,177h61v1h-61zM454,177h46v1h-46zM11,178h47v1h-47zM167,178h31v1h-31zM232,178h61v1h-61zM350,178h61v1h-61zM454,178h47v1h-47zM11,179h47v1h-47zM167,179h32v1h-32zM230,179h61v1h-61zM350,179h61v1h-61zM454,179h47v1h-47zM11,180h46v1h-46zM166,180h34v1h-34zM227,180h61v1h-61zM350,180h27v1h-27zM383,180h27v1h-27zM455,180h46v1h-46zM11,181h46v1h-46zM166,181h35v1h-35zM225,181h61v1h-61zM350,181h26v1h-26zM383,181h27v1h-27zM455,181h47v1h-47zM10,182h47v1h-47zM165,182h37v1h-37zM223,182h61v1h-61zM349,182h26v1h-26zM383,182h27v1h-27zM456,182h46v1h-46zM10,183h46v1h-46zM165,183h38v1h-38zM220,183h61v1h-61zM349,183h26v1h-26zM383,183h26v1h-26zM456,183h46v1h-46zM10,184h46v1h-46zM164,184h40v1h-40zM218,184h61v1h-61zM348,184h26v1h-26zM383,184h26v1h-26zM456,184h46v1h-46zM9,185h46v1h-46zM164,185h41v1h-41zM216,185h61v1h-61zM348,185h26v1h-26zM382,185h26v1h-26zM457,185h46v1h-46zM9,186h46v1h-46zM163,186h43v1h-43zM213,186h61v1h-61zM347,186h26v1h-26zM382,186h26v1h-26zM457,186h46v1h-46zM9,187h46v1h-46zM163,187h109v1h-109zM347,187h26v1h-26zM382,187h26v1h-26zM457,187h46v1h-46zM9,188h46v1h-46zM163,188h107v1h-107zM347,188h26v1h-26zM381,188h26v1h-26zM458,188h46v1h-46zM8,189h46v1h-46zM162,189h105v1h-105zM346,189h26v1h-26zM381,189h26v1h-26zM458,189h46v1h-46zM8,190h46v1h-46zM162,190h103v1h-103zM346,190h26v1h-26zM380,190h26v1h-26zM458,190h46v1h-46zM8,191h45v1h-45zM161,191h102v1h-102zM345,191h26v1h-26zM380,191h26v1h-26zM459,191h45v1h-45zM7,192h46v1h-46zM161,192h99v1h-99zM345,192h26v1h-26zM380,192h26v1h-26zM459,192h46v1h-46zM7,193h46v1h-46zM160,193h98v1h-98zM344,193h26v1h-26zM379,193h26v1h-26zM459,193h46v1h-46zM7,194h45v1h-45zM160,194h96v1h-96zM344,194h26v1h-26zM379,194h26v1h-26zM460,194h45v1h-45zM7,195h45v1h-45zM160,195h93v1h-93zM344,195h26v1h-26zM378,195h26v1h-26zM460,195h45v1h-45zM7,196h45v1h-45zM159,196h92v1h-92zM343,196h26v1h-26zM378,196h26v1h-26zM460,196h45v1h-45zM6,197h46v1h-46zM159,197h90v1h-90zM343,197h26v1h-26zM378,197h25v1h-25zM460,197h46v1h-46zM6,198h45v1h-45zM158,198h88v1h-88zM342,198h26v1h-26zM377,198h26v1h-26zM461,198h45v1h-45zM6,199h45v1h-45zM158,199h86v1h-86zM342,199h26v1h-26zM377,199h26v1h-26zM461,199h45v1h-45zM6,200h45v1h-45zM157,200h85v1h-85zM341,200h26v1h-26zM376,200h26v1h-26zM461,200h45v1h-45zM5,201h46v1h-46zM157,201h26v1h-26zM188,201h51v1h-51zM341,201h26v1h-26zM376,201h26v1h-26zM462,201h45v1h-45zM5,202h45v1h-45zM156,202h27v1h-27zM189,202h48v1h-48zM341,202h26v1h-26zM376,202h25v1h-25zM462,202h45v1h-45zM5,203h45v1h-45zM156,203h26v1h-26zM190,203h45v1h-45zM340,203h26v1h-26zM375,203h26v1h-26zM462,203h45v1h-45zM5,204h45v1h-45zM156,204h26v1h-26zM190,204h42v1h-42zM340,204h26v1h-26zM375,204h26v1h-26zM462,204h45v1h-45zM5,205h45v1h-45zM155,205h26v1h-26zM190,205h40v1h-40zM339,205h26v1h-26zM374,205h26v1h-26zM462,205h46v1h-46zM4,206h45v1h-45zM155,206h26v1h-26zM190,206h38v1h-38zM339,206h26v1h-26zM374,206h26v1h-26zM463,206h45v1h-45zM4,207h45v1h-45zM154,207h26v1h-26zM190,207h36v1h-36zM338,207h26v1h-26zM374,207h25v1h-25zM463,207h45v1h-45zM4,208h45v1h-45zM154,208h26v1h-26zM190,208h34v1h-34zM338,208h26v1h-26zM373,208h26v1h-26zM463,208h45v1h-45zM4,209h45v1h-45zM154,209h26v1h-26zM190,209h31v1h-31zM338,209h26v1h-26zM373,209h26v1h-26zM463,209h45v1h-45zM4,210h44v1h-44zM153,210h26v1h-26zM189,210h30v1h-30zM337,210h26v1h-26zM372,210h26v1h-26zM464,210h44v1h-44zM3,211h45v1h-45zM153,211h26v1h-26zM189,211h28v1h-28zM337,211h26v1h-26zM372,211h26v1h-26zM464,211h45v1h-45zM3,212h45v1h-45zM152,212h26v1h-26zM188,212h27v1h-27zM336,212h26v1h-26zM371,212h26v1h-26zM464,212h45v1h-45zM3,213h45v1h-45zM152,213h26v1h-26zM188,213h26v1h-26zM336,213h26v1h-26zM371,213h26v1h-26zM464,213h45v1h-45zM3,214h44v1h-44zM151,214h26v1h-26zM187,214h27v1h-27zM335,214h26v1h-26zM371,214h26v1h-26zM465,214h44v1h-44zM3,215h44v1h-44zM151,215h26v1h-26zM187,215h26v1h-26zM335,215h26v1h-26zM370,215h26v1h-26zM465,215h44v1h-44zM3,216h44v1h-44zM151,216h26v1h-26zM187,216h26v1h-26zM335,216h26v1h-26zM370,216h26v1h-26zM465,216h44v1h-44zM0,217h47v1h-47zM150,217h26v1h-26zM186,217h26v1h-26zM334,217h26v1h-26zM369,217h26v1h-26zM465,217h47v1h-47zM0,218h47v1h-47zM150,218h26v1h-26zM186,218h26v1h-26zM334,218h26v1h-26zM369,218h26v1h-26zM465,218h47v1h-47zM0,219h47v1h-47zM149,219h26v1h-26zM185,219h27v1h-27zM333,219h26v1h-26zM369,219h26v1h-26zM465,219h47v1h-47zM0,220h46v1h-46zM149,220h26v1h-26zM185,220h26v1h-26zM333,220h26v1h-26zM368,220h26v1h-26zM466,220h46v1h-46zM0,221h46v1h-46zM148,221h26v1h-26zM184,221h27v1h-27zM332,221h26v1h-26zM368,221h26v1h-26zM466,221h46v1h-46zM0,222h46v1h-46zM148,222h26v1h-26zM184,222h26v1h-26zM332,222h26v1h-26zM367,222h26v1h-26zM466,222h46v1h-46zM0,223h46v1h-46zM148,223h26v1h-26zM184,223h26v1h-26zM332,223h26v1h-26zM367,223h26v1h-26zM466,223h46v1h-46zM0,224h46v1h-46zM147,224h26v1h-26zM183,224h26v1h-26zM331,224h26v1h-26zM367,224h26v1h-26zM466,224h46v1h-46zM0,225h46v1h-46zM147,225h26v1h-26zM183,225h26v1h-26zM331,225h26v1h-26zM366,225h26v1h-26zM466,225h46v1h-46zM0,226h46v1h-46zM146,226h26v1h-26zM182,226h27v1h-27zM330,226h26v1h-26zM366,226h26v1h-26zM467,226h45v1h-45zM0,227h45v1h-45zM146,227h26v1h-26zM182,227h26v1h-26zM330,227h26v1h-26zM365,227h26v1h-26zM467,227h45v1h-45zM0,228h45v1h-45zM145,228h26v1h-26zM181,228h27v1h-27zM329,228h26v1h-26zM365,228h26v1h-26zM467,228h45v1h-45zM0,229h45v1h-45zM145,229h26v1h-26zM181,229h26v1h-26zM329,229h26v1h-26zM365,229h26v1h-26zM467,229h45v1h-45zM0,230h45v1h-45zM145,230h26v1h-26zM181,230h26v1h-26zM329,230h26v1h-26zM364,230h26v1h-26zM467,230h45v1h-45zM0,231h45v1h-45zM144,231h26v1h-26zM180,231h26v1h-26zM328,231h26v1h-26zM364,231h26v1h-26zM467,231h45v1h-45zM0,232h45v1h-45zM144,232h26v1h-26zM180,232h26v1h-26zM328,232h26v1h-26zM363,232h26v1h-26zM467,232h45v1h-45zM0,233h45v1h-45zM143,233h26v1h-26zM179,233h26v1h-26zM327,233h26v1h-26zM363,233h26v1h-26zM467,233h45v1h-45zM0,234h45v1h-45zM143,234h26v1h-26zM179,234h26v1h-26zM327,234h26v1h-26zM363,234h25v1h-25zM467,234h45v1h-45zM0,235h44v1h-44zM142,235h26v1h-26zM178,235h26v1h-26zM326,235h27v1h-27zM362,235h26v1h-26zM468,235h44v1h-44zM0,236h44v1h-44zM142,236h26v1h-26zM178,236h26v1h-26zM326,236h26v1h-26zM362,236h26v1h-26zM468,236h44v1h-44zM0,237h44v1h-44zM142,237h26v1h-26zM178,237h26v1h-26zM251,237h7v1h-7zM326,237h26v1h-26zM361,237h26v1h-26zM468,237h44v1h-44zM0,238h44v1h-44zM141,238h26v1h-26zM177,238h26v1h-26zM247,238h14v1h-14zM325,238h26v1h-26zM361,238h26v1h-26zM468,238h44v1h-44zM0,239h44v1h-44zM141,239h26v1h-26zM177,239h26v1h-26zM246,239h17v1h-17zM325,239h26v1h-26zM361,239h25v1h-25zM468,239h44v1h-44zM0,240h44v1h-44zM140,240h26v1h-26zM176,240h26v1h-26zM244,240h21v1h-21zM324,240h26v1h-26zM360,240h26v1h-26zM468,240h44v1h-44zM0,241h44v1h-44zM140,241h26v1h-26zM176,241h26v1h-26zM243,241h23v1h-23zM324,241h26v1h-26zM360,241h26v1h-26zM468,241h44v1h-44zM0,242h44v1h-44zM139,242h26v1h-26zM175,242h26v1h-26zM242,242h25v1h-25zM323,242h27v1h-27zM359,242h26v1h-26zM468,242h44v1h-44zM0,243h44v1h-44zM139,243h26v1h-26zM175,243h26v1h-26zM241,243h27v1h-27zM323,243h26v1h-26zM359,243h26v1h-26zM468,243h44v1h-44zM0,244h44v1h-44zM138,244h27v1h-27zM174,244h27v1h-27zM240,244h29v1h-29zM323,244h26v1h-26zM358,244h26v1h-26zM468,244h44v1h-44zM0,245h44v1h-44zM138,245h26v1h-26zM174,245h26v1h-26zM239,245h30v1h-30zM322,245h26v1h-26zM358,245h26v1h-26zM468,245h44v1h-44zM0,246h44v1h-44zM138,246h26v1h-26zM174,246h26v1h-26zM239,246h31v1h-31zM322,246h26v1h-26zM358,246h26v1h-26zM468,246h44v1h-44zM0,247h44v1h-44zM137,247h26v1h-26zM173,247h26v1h-26zM238,247h32v1h-32zM321,247h26v1h-26zM357,247h26v1h-26zM468,247h44v1h-44zM0,248h44v1h-44zM137,248h26v1h-26zM173,248h26v1h-26zM238,248h33v1h-33zM321,248h26v1h-26zM357,248h26v1h-26zM468,248h44v1h-44zM0,249h44v1h-44zM136,249h26v1h-26zM172,249h26v1h-26zM238,249h33v1h-33zM321,249h26v1h-26zM356,249h26v1h-26zM468,249h44v1h-44zM0,250h44v1h-44zM136,250h26v1h-26zM172,250h26v1h-26zM237,250h34v1h-34zM320,250h26v1h-26zM356,250h26v1h-26zM468,250h44v1h-44zM0,251h44v1h-44zM135,251h26v1h-26zM171,251h26v1h-26zM237,251h34v1h-34zM320,251h26v1h-26zM356,251h26v1h-26zM468,251h44v1h-44zM0,252h44v1h-44zM135,252h26v1h-26zM171,252h26v1h-26zM237,252h34v1h-34zM319,252h26v1h-26zM355,252h26v1h-26zM468,252h44v1h-44zM0,253h44v1h-44zM135,253h26v1h-26zM171,253h26v1h-26zM237,253h34v1h-34zM319,253h26v1h-26zM355,253h26v1h-26zM468,253h44v1h-44zM0,254h44v1h-44zM134,254h26v1h-26zM170,254h26v1h-26zM237,254h34v1h-34zM318,254h26v1h-26zM354,254h26v1h-26zM468,254h44v1h-44zM0,255h44v1h-44zM134,255h26v1h-26zM170,255h26v1h-26zM237,255h34v1h-34zM318,255h26v1h-26zM354,255h26v1h-26zM468,255h44v1h-44zM0,256h44v1h-44zM133,256h26v1h-26zM169,256h26v1h-26zM237,256h34v1h-34zM318,256h26v1h-26zM354,256h25v1h-25zM468,256h44v1h-44zM0,257h44v1h-44zM133,257h26v1h-26zM169,257h26v1h-26zM237,257h34v1h-34zM317,257h26v1h-26zM353,257h26v1h-26zM468,257h44v1h-44zM0,258h44v1h-44zM132,258h27v1h-27zM168,258h27v1h-27zM237,258h34v1h-34zM317,258h26v1h-26zM353,258h26v1h-26zM468,258h44v1h-44zM0,259h44v1h-44zM132,259h26v1h-26zM168,259h26v1h-26zM238,259h33v1h-33zM316,259h26v1h-26zM352,259h26v1h-26zM468,259h44v1h-44zM0,260h44v1h-44zM132,260h26v1h-26zM168,260h26v1h-26zM238,260h33v1h-33zM316,260h26v1h-26zM352,260h26v1h-26zM468,260h44v1h-44zM0,261h44v1h-44zM131,261h26v1h-26zM167,261h26v1h-26zM238,261h32v1h-32zM316,261h25v1h-25zM352,261h25v1h-25zM468,261h44v1h-44zM0,262h44v1h-44zM131,262h26v1h-26zM167,262h26v1h-26zM239,262h31v1h-31zM315,262h26v1h-26zM351,262h26v1h-26zM468,262h44v1h-44zM0,263h44v1h-44zM130,263h26v1h-26zM166,263h26v1h-26zM239,263h30v1h-30zM315,263h26v1h-26zM351,263h26v1h-26zM468,263h44v1h-44zM0,264h44v1h-44zM130,264h26v1h-26zM166,264h26v1h-26zM240,264h29v1h-29zM314,264h26v1h-26zM350,264h26v1h-26zM468,264h44v1h-44zM0,265h44v1h-44zM129,265h26v1h-26zM165,265h27v1h-27zM241,265h27v1h-27zM314,265h26v1h-26zM350,265h26v1h-26zM468,265h44v1h-44zM0,266h44v1h-44zM129,266h26v1h-26zM165,266h26v1h-26zM242,266h25v1h-25zM313,266h26v1h-26zM350,266h25v1h-25zM468,266h44v1h-44zM0,267h44v1h-44zM129,267h26v1h-26zM165,267h26v1h-26zM243,267h23v1h-23zM313,267h26v1h-26zM349,267h26v1h-26zM468,267h44v1h-44zM0,268h44v1h-44zM128,268h26v1h-26zM164,268h26v1h-26zM244,268h21v1h-21zM313,268h25v1h-25zM349,268h26v1h-26zM468,268h44v1h-44zM0,269h44v1h-44zM128,269h26v1h-26zM164,269h26v1h-26zM245,269h19v1h-19zM312,269h26v1h-26zM348,269h26v1h-26zM468,269h44v1h-44zM0,270h44v1h-44zM127,270h26v1h-26zM163,270h26v1h-26zM247,270h15v1h-15zM312,270h26v1h-26zM348,270h26v1h-26zM468,270h44v1h-44zM0,271h44v1h-44zM127,271h26v1h-26zM163,271h26v1h-26zM251,271h7v1h-7zM311,271h26v1h-26zM348,271h25v1h-25zM468,271h44v1h-44zM0,272h44v1h-44zM126,272h26v1h-26zM162,272h27v1h-27zM311,272h26v1h-26zM347,272h26v1h-26zM468,272h44v1h-44zM0,273h44v1h-44zM126,273h26v1h-26zM162,273h26v1h-26zM310,273h26v1h-26zM347,273h26v1h-26zM468,273h44v1h-44zM0,274h44v1h-44zM126,274h26v1h-26zM162,274h26v1h-26zM310,274h26v1h-26zM346,274h26v1h-26zM468,274h44v1h-44zM0,275h44v1h-44zM125,275h26v1h-26zM161,275h26v1h-26zM310,275h25v1h-25zM346,275h26v1h-26zM468,275h44v1h-44zM0,276h44v1h-44zM125,276h26v1h-26zM161,276h26v1h-26zM309,276h26v1h-26zM346,276h25v1h-25zM468,276h44v1h-44zM0,277h45v1h-45zM124,277h26v1h-26zM160,277h26v1h-26zM309,277h26v1h-26zM345,277h26v1h-26zM467,277h45v1h-45zM0,278h45v1h-45zM124,278h26v1h-26zM160,278h26v1h-26zM308,278h26v1h-26zM345,278h26v1h-26zM467,278h45v1h-45zM0,279h45v1h-45zM123,279h26v1h-26zM159,279h27v1h-27zM308,279h26v1h-26zM344,279h26v1h-26zM467,279h45v1h-45zM0,280h45v1h-45zM123,280h26v1h-26zM159,280h26v1h-26zM307,280h26v1h-26zM344,280h26v1h-26zM467,280h45v1h-45zM0,281h45v1h-45zM123,281h26v1h-26zM159,281h26v1h-26zM307,281h26v1h-26zM344,281h25v1h-25zM467,281h45v1h-45zM0,282h45v1h-45zM122,282h26v1h-26zM158,282h26v1h-26zM306,282h26v1h-26zM343,282h26v1h-26zM467,282h45v1h-45zM0,283h45v1h-45zM122,283h26v1h-26zM158,283h26v1h-26zM306,283h26v1h-26zM343,283h26v1h-26zM467,283h45v1h-45zM0,284h45v1h-45zM121,284h26v1h-26zM157,284h26v1h-26zM305,284h27v1h-27zM342,284h26v1h-26zM467,284h45v1h-45zM0,285h46v1h-46zM121,285h26v1h-26zM157,285h26v1h-26zM305,285h26v1h-26zM342,285h26v1h-26zM466,285h46v1h-46zM0,286h46v1h-46zM120,286h26v1h-26zM156,286h27v1h-27zM304,286h27v1h-27zM341,286h26v1h-26zM466,286h46v1h-46zM0,287h46v1h-46zM120,287h26v1h-26zM156,287h26v1h-26zM304,287h26v1h-26zM341,287h26v1h-26zM466,287h46v1h-46zM0,288h46v1h-46zM120,288h26v1h-26zM156,288h26v1h-26zM303,288h27v1h-27zM341,288h26v1h-26zM466,288h46v1h-46zM0,289h46v1h-46zM119,289h26v1h-26zM155,289h26v1h-26zM303,289h26v1h-26zM340,289h26v1h-26zM466,289h46v1h-46zM0,290h46v1h-46zM119,290h26v1h-26zM155,290h26v1h-26zM303,290h26v1h-26zM340,290h26v1h-26zM466,290h46v1h-46zM0,291h47v1h-47zM118,291h26v1h-26zM154,291h26v1h-26zM302,291h27v1h-27zM339,291h26v1h-26zM466,291h46v1h-46zM0,292h47v1h-47zM118,292h26v1h-26zM154,292h26v1h-26zM302,292h26v1h-26zM339,292h26v1h-26zM465,292h47v1h-47zM0,293h47v1h-47zM117,293h26v1h-26zM153,293h26v1h-26zM301,293h27v1h-27zM339,293h25v1h-25zM465,293h47v1h-47zM0,294h47v1h-47zM117,294h26v1h-26zM153,294h26v1h-26zM301,294h26v1h-26zM338,294h26v1h-26zM465,294h47v1h-47zM3,295h44v1h-44zM117,295h26v1h-26zM153,295h25v1h-25zM300,295h27v1h-27zM338,295h26v1h-26zM465,295h47v1h-47zM3,296h44v1h-44zM116,296h26v1h-26zM152,296h26v1h-26zM299,296h27v1h-27zM337,296h26v1h-26zM465,296h44v1h-44zM3,297h44v1h-44zM116,297h26v1h-26zM152,297h26v1h-26zM297,297h29v1h-29zM337,297h26v1h-26zM464,297h45v1h-45zM3,298h45v1h-45zM115,298h26v1h-26zM151,298h26v1h-26zM295,298h31v1h-31zM337,298h25v1h-25zM464,298h45v1h-45zM3,299h45v1h-45zM115,299h26v1h-26zM151,299h26v1h-26zM293,299h32v1h-32zM336,299h26v1h-26zM464,299h45v1h-45zM3,300h45v1h-45zM114,300h26v1h-26zM150,300h26v1h-26zM290,300h35v1h-35zM336,300h26v1h-26zM464,300h45v1h-45zM4,301h44v1h-44zM114,301h26v1h-26zM150,301h26v1h-26zM288,301h36v1h-36zM335,301h26v1h-26zM464,301h44v1h-44zM4,302h45v1h-45zM114,302h26v1h-26zM150,302h25v1h-25zM286,302h38v1h-38zM335,302h26v1h-26zM463,302h45v1h-45zM4,303h45v1h-45zM113,303h26v1h-26zM149,303h26v1h-26zM283,303h41v1h-41zM335,303h25v1h-25zM463,303h45v1h-45zM4,304h45v1h-45zM113,304h26v1h-26zM149,304h26v1h-26zM281,304h42v1h-42zM334,304h26v1h-26zM463,304h45v1h-45zM4,305h45v1h-45zM112,305h26v1h-26zM148,305h26v1h-26zM279,305h44v1h-44zM334,305h26v1h-26zM463,305h45v1h-45zM5,306h45v1h-45zM112,306h26v1h-26zM148,306h26v1h-26zM276,306h46v1h-46zM333,306h26v1h-26zM462,306h46v1h-46zM5,307h45v1h-45zM111,307h26v1h-26zM147,307h26v1h-26zM275,307h47v1h-47zM333,307h26v1h-26zM462,307h45v1h-45zM5,308h45v1h-45zM111,308h26v1h-26zM147,308h26v1h-26zM272,308h49v1h-49zM333,308h25v1h-25zM462,308h45v1h-45zM5,309h45v1h-45zM111,309h26v1h-26zM147,309h26v1h-26zM270,309h51v1h-51zM332,309h26v1h-26zM462,309h45v1h-45zM5,310h46v1h-46zM110,310h26v1h-26zM146,310h26v1h-26zM268,310h52v1h-52zM332,310h26v1h-26zM461,310h46v1h-46zM6,311h45v1h-45zM110,311h26v1h-26zM146,311h26v1h-26zM265,311h55v1h-55zM331,311h26v1h-26zM461,311h45v1h-45zM6,312h45v1h-45zM109,312h26v1h-26zM145,312h26v1h-26zM263,312h56v1h-56zM331,312h26v1h-26zM461,312h45v1h-45zM6,313h45v1h-45zM109,313h26v1h-26zM145,313h26v1h-26zM261,313h58v1h-58zM331,313h25v1h-25zM461,313h45v1h-45zM6,314h46v1h-46zM108,314h26v1h-26zM144,314h26v1h-26zM258,314h61v1h-61zM330,314h26v1h-26zM460,314h46v1h-46zM7,315h45v1h-45zM108,315h26v1h-26zM144,315h26v1h-26zM256,315h63v1h-63zM330,315h26v1h-26zM460,315h46v1h-46zM7,316h45v1h-45zM108,316h26v1h-26zM144,316h26v1h-26zM253,316h66v1h-66zM329,316h26v1h-26zM460,316h45v1h-45zM7,317h45v1h-45zM107,317h26v1h-26zM143,317h26v1h-26zM251,317h68v1h-68zM329,317h26v1h-26zM460,317h45v1h-45zM7,318h46v1h-46zM107,318h26v1h-26zM143,318h26v1h-26zM249,318h71v1h-71zM328,318h26v1h-26zM459,318h46v1h-46zM7,319h46v1h-46zM106,319h26v1h-26zM142,319h26v1h-26zM246,319h75v1h-75zM328,319h26v1h-26zM459,319h46v1h-46zM8,320h45v1h-45zM106,320h26v1h-26zM142,320h26v1h-26zM244,320h78v1h-78zM328,320h26v1h-26zM459,320h45v1h-45zM8,321h46v1h-46zM105,321h26v1h-26zM141,321h26v1h-26zM242,321h111v1h-111zM458,321h46v1h-46zM8,322h46v1h-46zM105,322h26v1h-26zM141,322h26v1h-26zM239,322h114v1h-114zM458,322h46v1h-46zM9,323h45v1h-45zM105,323h26v1h-26zM141,323h26v1h-26zM237,323h115v1h-115zM458,323h46v1h-46zM9,324h46v1h-46zM104,324h26v1h-26zM140,324h26v1h-26zM235,324h117v1h-117zM457,324h46v1h-46zM9,325h46v1h-46zM104,325h26v1h-26zM140,325h26v1h-26zM232,325h120v1h-120zM457,325h46v1h-46zM9,326h46v1h-46zM103,326h26v1h-26zM139,326h26v1h-26zM230,326h121v1h-121zM457,326h46v1h-46zM10,327h46v1h-46zM103,327h26v1h-26zM139,327h26v1h-26zM228,327h61v1h-61zM296,327h55v1h-55zM456,327h46v1h-46zM10,328h46v1h-46zM102,328h26v1h-26zM138,328h27v1h-27zM225,328h61v1h-61zM297,328h53v1h-53zM456,328h46v1h-46zM10,329h47v1h-47zM102,329h26v1h-26zM138,329h26v1h-26zM223,329h61v1h-61zM298,329h52v1h-52zM456,329h46v1h-46zM11,330h46v1h-46zM102,330h26v1h-26zM138,330h26v1h-26zM221,330h61v1h-61zM299,330h50v1h-50zM455,330h47v1h-47zM11,331h46v1h-46zM101,331h26v1h-26zM137,331h26v1h-26zM218,331h61v1h-61zM300,331h49v1h-49zM455,331h46v1h-46zM11,332h47v1h-47zM101,332h26v1h-26zM137,332h26v1h-26zM216,332h61v1h-61zM301,332h48v1h-48zM454,332h47v1h-47zM11,333h47v1h-47zM100,333h27v1h-27zM136,333h27v1h-27zM214,333h61v1h-61zM302,333h46v1h-46zM454,333h47v1h-47zM12,334h46v1h-46zM100,334h27v1h-27zM135,334h27v1h-27zM211,334h61v1h-61zM303,334h45v1h-45zM454,334h46v1h-46zM12,335h47v1h-47zM99,335h28v1h-28zM133,335h29v1h-29zM209,335h61v1h-61zM304,335h43v1h-43zM453,335h47v1h-47zM12,336h47v1h-47zM99,336h62v1h-62zM207,336h61v1h-61zM305,336h42v1h-42zM453,336h47v1h-47zM13,337h47v1h-47zM99,337h62v1h-62zM204,337h61v1h-61zM306,337h41v1h-41zM452,337h47v1h-47zM13,338h47v1h-47zM98,338h62v1h-62zM202,338h61v1h-61zM307,338h39v1h-39zM452,338h47v1h-47zM14,339h46v1h-46zM98,339h62v1h-62zM200,339h61v1h-61zM308,339h38v1h-38zM452,339h47v1h-47zM14,340h47v1h-47zM97,340h63v1h-63zM197,340h61v1h-61zM309,340h36v1h-36zM451,340h47v1h-47zM14,341h47v1h-47zM97,341h62v1h-62zM195,341h61v1h-61zM310,341h35v1h-35zM451,341h47v1h-47zM14,342h48v1h-48zM96,342h63v1h-63zM193,342h61v1h-61zM311,342h34v1h-34zM450,342h48v1h-48zM15,343h47v1h-47zM96,343h62v1h-62zM190,343h61v1h-61zM312,343h32v1h-32zM450,343h47v1h-47zM15,344h48v1h-48zM96,344h62v1h-62zM188,344h61v1h-61zM313,344h30v1h-30zM449,344h48v1h-48zM16,345h47v1h-47zM95,345h62v1h-62zM186,345h61v1h-61zM314,345h29v1h-29zM449,345h48v1h-48zM16,346h48v1h-48zM95,346h62v1h-62zM183,346h61v1h-61zM315,346h27v1h-27zM448,346h48v1h-48zM16,347h48v1h-48zM94,347h62v1h-62zM181,347h61v1h-61zM316,347h25v1h-25zM448,347h48v1h-48zM17,348h48v1h-48zM94,348h62v1h-62zM179,348h61v1h-61zM317,348h23v1h-23zM447,348h48v1h-48zM17,349h48v1h-48zM93,349h63v1h-63zM176,349h61v1h-61zM318,349h21v1h-21zM447,349h48v1h-48zM18,350h48v1h-48zM93,350h62v1h-62zM174,350h61v1h-61zM319,350h18v1h-18zM446,350h49v1h-49zM18,351h48v1h-48zM93,351h62v1h-62zM172,351h61v1h-61zM321,351h14v1h-14zM446,351h48v1h-48zM18,352h49v1h-49zM92,352h62v1h-62zM170,352h60v1h-60zM324,352h9v1h-9zM445,352h49v1h-49zM19,353h48v1h-48zM92,353h62v1h-62zM167,353h61v1h-61zM445,353h48v1h-48zM19,354h49v1h-49zM91,354h63v1h-63zM165,354h61v1h-61zM444,354h49v1h-49zM20,355h48v1h-48zM91,355h63v1h-63zM162,355h61v1h-61zM444,355h49v1h-49zM20,356h49v1h-49zM90,356h64v1h-64zM160,356h61v1h-61zM443,356h49v1h-49zM20,357h49v1h-49zM90,357h129v1h-129zM443,357h49v1h-49zM21,358h49v1h-49zM89,358h128v1h-128zM442,358h49v1h-49zM21,359h49v1h-49zM89,359h125v1h-125zM442,359h49v1h-49zM22,360h49v1h-49zM89,360h123v1h-123zM441,360h49v1h-49zM22,361h49v1h-49zM88,361h121v1h-121zM441,361h49v1h-49zM23,362h49v1h-49zM88,362h119v1h-119zM440,362h49v1h-49zM23,363h50v1h-50zM88,363h117v1h-117zM439,363h50v1h-50zM24,364h49v1h-49zM88,364h114v1h-114zM439,364h50v1h-50zM24,365h50v1h-50zM88,365h112v1h-112zM438,365h50v1h-50zM25,366h49v1h-49zM88,366h110v1h-110zM438,366h50v1h-50zM25,367h50v1h-50zM88,367h107v1h-107zM437,367h50v1h-50zM25,368h51v1h-51zM89,368h104v1h-104zM436,368h51v1h-51zM26,369h50v1h-50zM89,369h25v1h-25zM119,369h72v1h-72zM436,369h50v1h-50zM27,370h50v1h-50zM90,370h22v1h-22zM119,370h70v1h-70zM435,370h51v1h-51zM27,371h51v1h-51zM91,371h18v1h-18zM119,371h67v1h-67zM435,371h50v1h-50zM28,372h50v1h-50zM92,372h15v1h-15zM119,372h65v1h-65zM434,372h51v1h-51zM28,373h51v1h-51zM93,373h12v1h-12zM119,373h63v1h-63zM433,373h51v1h-51zM29,374h50v1h-50zM96,374h6v1h-6zM119,374h60v1h-60zM433,374h50v1h-50zM29,375h51v1h-51zM118,375h59v1h-59zM432,375h51v1h-51zM30,376h51v1h-51zM118,376h57v1h-57zM431,376h51v1h-51zM30,377h52v1h-52zM117,377h55v1h-55zM430,377h52v1h-52zM31,378h51v1h-51zM117,378h53v1h-53zM430,378h51v1h-51zM31,379h52v1h-52zM116,379h52v1h-52zM429,379h52v1h-52zM32,380h52v1h-52zM116,380h49v1h-49zM428,380h52v1h-52zM32,381h52v1h-52zM116,381h47v1h-47zM428,381h52v1h-52zM33,382h52v1h-52zM115,382h46v1h-46zM427,382h52v1h-52zM33,383h53v1h-53zM115,383h43v1h-43zM426,383h53v1h-53zM34,384h53v1h-53zM115,384h41v1h-41zM425,384h53v1h-53zM35,385h52v1h-52zM115,385h39v1h-39zM425,385h52v1h-52zM35,386h53v1h-53zM115,386h36v1h-36zM424,386h53v1h-53zM36,387h53v1h-53zM115,387h34v1h-34zM423,387h53v1h-53zM36,388h54v1h-54zM115,388h32v1h-32zM422,388h54v1h-54zM37,389h54v1h-54zM115,389h29v1h-29zM421,389h54v1h-54zM38,390h53v1h-53zM116,390h26v1h-26zM421,390h53v1h-53zM38,391h54v1h-54zM116,391h24v1h-24zM420,391h54v1h-54zM39,392h54v1h-54zM117,392h20v1h-20zM419,392h54v1h-54zM40,393h54v1h-54zM118,393h17v1h-17zM418,393h55v1h-55zM40,394h55v1h-55zM119,394h14v1h-14zM417,394h55v1h-55zM41,395h55v1h-55zM121,395h9v1h-9zM416,395h55v1h-55zM41,396h56v1h-56zM415,396h56v1h-56zM42,397h55v1h-55zM415,397h55v1h-55zM43,398h55v1h-55zM414,398h55v1h-55zM43,399h56v1h-56zM413,399h56v1h-56zM44,400h56v1h-56zM412,400h56v1h-56zM45,401h56v1h-56zM411,401h56v1h-56zM45,402h57v1h-57zM410,402h57v1h-57zM46,403h57v1h-57zM409,403h57v1h-57zM47,404h57v1h-57zM408,404h57v1h-57zM48,405h57v1h-57zM407,405h57v1h-57zM48,406h58v1h-58zM406,406h58v1h-58zM49,407h58v1h-58zM405,407h58v1h-58zM50,408h58v1h-58zM404,408h58v1h-58zM51,409h58v1h-58zM403,409h59v1h-59zM51,410h59v1h-59zM402,410h59v1h-59zM52,411h59v1h-59zM401,411h59v1h-59zM53,412h59v1h-59zM400,412h59v1h-59zM54,413h59v1h-59zM399,413h59v1h-59zM54,414h61v1h-61zM397,414h61v1h-61zM55,415h61v1h-61zM396,415h61v1h-61zM56,416h61v1h-61zM395,416h61v1h-61zM57,417h61v1h-61zM394,417h61v1h-61zM58,418h61v1h-61zM393,418h61v1h-61zM58,419h62v1h-62zM392,419h62v1h-62zM59,420h63v1h-63zM390,420h63v1h-63zM60,421h63v1h-63zM389,421h63v1h-63zM61,422h63v1h-63zM388,422h63v1h-63zM62,423h63v1h-63zM387,423h63v1h-63zM63,424h64v1h-64zM385,424h64v1h-64zM64,425h64v1h-64zM384,425h65v1h-65zM64,426h65v1h-65zM383,426h65v1h-65zM65,427h66v1h-66zM381,427h66v1h-66zM66,428h66v1h-66zM380,428h66v1h-66zM67,429h66v1h-66zM379,429h66v1h-66zM68,430h67v1h-67zM377,430h67v1h-67zM69,431h67v1h-67zM376,431h67v1h-67zM70,432h68v1h-68zM374,432h68v1h-68zM71,433h68v1h-68zM373,433h68v1h-68zM72,434h69v1h-69zM371,434h69v1h-69zM73,435h69v1h-69zM370,435h69v1h-69zM74,436h70v1h-70zM368,436h70v1h-70zM75,437h71v1h-71zM367,437h70v1h-70zM76,438h71v1h-71zM365,438h71v1h-71zM77,439h72v1h-72zM363,439h72v1h-72zM78,440h73v1h-73zM361,440h73v1h-73zM79,441h73v1h-73zM360,441h73v1h-73zM80,442h74v1h-74zM358,442h74v1h-74zM81,443h75v1h-75zM356,443h75v1h-75zM82,444h76v1h-76zM354,444h76v1h-76zM83,445h77v1h-77zM352,445h77v1h-77zM84,446h78v1h-78zM350,446h78v1h-78zM85,447h79v1h-79zM348,447h79v1h-79zM87,448h79v1h-79zM346,448h79v1h-79zM88,449h80v1h-80zM344,449h80v1h-80zM89,450h81v1h-81zM342,450h81v1h-81zM90,451h83v1h-83zM339,451h83v1h-83zM91,452h84v1h-84zM337,452h84v1h-84zM92,453h86v1h-86zM334,453h86v1h-86zM94,454h86v1h-86zM332,454h86v1h-86zM95,455h88v1h-88zM329,455h88v1h-88zM96,456h89v1h-89zM327,456h89v1h-89zM97,457h92v1h-92zM324,457h91v1h-91zM99,458h92v1h-92zM321,458h92v1h-92zM100,459h94v1h-94zM318,459h94v1h-94zM101,460h97v1h-97zM314,460h97v1h-97zM102,461h100v1h-100zM310,461h100v1h-100zM104,462h102v1h-102zM306,462h102v1h-102zM105,463h105v1h-105zM302,463h105v1h-105zM107,464h107v1h-107zM298,464h107v1h-107zM108,465h112v1h-112zM292,465h112v1h-112zM110,466h117v1h-117zM285,466h118v1h-118zM111,467h124v1h-124zM278,467h123v1h-123zM112,468h288v1h-288zM114,469h284v1h-284zM115,470h282v1h-282zM117,471h278v1h-278zM119,472h275v1h-275zM120,473h272v1h-272zM122,474h268v1h-268zM123,475h266v1h-266zM125,476h262v1h-262zM127,477h258v1h-258zM128,478h256v1h-256zM130,479h252v1h-252zM132,480h248v1h-248zM134,481h244v1h-244zM136,482h240v1h-240zM138,483h236v1h-236zM140,484h232v1h-232zM142,485h228v1h-228zM143,486h226v1h-226zM145,487h222v1h-222zM148,488h216v1h-216zM150,489h212v1h-212zM152,490h208v1h-208zM154,491h204v1h-204zM156,492h200v1h-200zM159,493h194v1h-194zM161,494h190v1h-190zM164,495h184v1h-184zM167,496h179v1h-179zM169,497h174v1h-174zM172,498h168v1h-168zM175,499h162v1h-162zM178,500h156v1h-156zM182,501h149v1h-149zM185,502h142v1h-142zM188,503h136v1h-136zM192,504h128v1h-128zM196,505h120v1h-120zM201,506h110v1h-110zM205,507h101v1h-101zM211,508h89v1h-89zM217,509h78v1h-78zM217,510h78v1h-78zM217,511h78v1h-78z"/></svg>