<?xml version="1.0" encoding="UTF-8"?>
<svg xmlns="http://www.w3.org/2000/svg" viewBox="0 0 512 512" width="512" height="512"><path fill="#000" d="M209,0h96v1h-96zM209,1h96v1h-96zM209,2h96v1h-96zM204,3h106v1h-106zM200,4h115v1h-115zM195,5h125v1h-125zM191,6h132v1h-132zM188,7h138v1h-138zM184,8h146v1h-146zM181,9h152v1h-152zM178,10h158v1h-158zM175,11h165v1h-165zM172,12h170v1h-170zM169,13h176v1h-176zM166,14h182v1h-182zM164,15h187v1h-187zM161,16h192v1h-192zM158,17h198v1h-198zM157,18h201v1h-201zM154,19h207v1h-207zM152,20h211v1h-211zM150,21h215v1h-215zM148,22h219v1h-219zM146,23h223v1h-223zM143,24h229v1h-229zM141,25h232v1h-232zM139,26h236v1h-236zM137,27h240v1h-240zM136,28h243v1h-243zM134,29h247v1h-247zM132,30h251v1h-251zM131,31h253v1h-253zM129,32h257v1h-257zM127,33h261v1h-261zM125,34h264v1h-264zM124,35h267v1h-267zM122,36h271v1h-271zM121,37h273v1h-273zM119,38h277v1h-277zM117,39h281v1h-281zM116,40h283v1h-283zM114,41h287v1h-287zM113,42h289v1h-289zM111,43h292v1h-292zM110,44h295v1h-295zM108,45h298v1h-298zM107,46h301v1h-301zM106,47h303v1h-303zM104,48h306v1h-306zM103,49h309v1h-309zM102,50h311v1h-311zM100,51h314v1h-314zM99,52h317v1h-317zM98,53h319v1h-319zM96,54h322v1h-322zM95,55h324v1h-324zM94,56h326v1h-326zM93,57h329v1h-329zM92,58h331v1h-331zM90,59h334v1h-334zM89,60h336v1h-336zM88,61h338v1h-338zM87,62h341v1h-341zM86,63h343v1h-343zM85,64h345v1h-345zM84,65h347v1h-347zM83,66h349v1h-349zM82,67h351v1h-351zM81,68h353v1h-353zM79,69h356v1h-356zM78,70h358v1h-358zM77,71h360v1h-360zM76,72h362v1h-362zM75,73h364v1h-364zM74,74h366v1h-366zM73,75h368v1h-368zM72,76h370v1h-370zM71,77h372v1h-372zM70,78h374v1h-374zM70,79h375v1h-375zM69,80h377v1h-377zM68,81h379v1h-379zM67,82h381v1h-381zM66,83h383v1h-383zM65,84h385v1h-385zM64,85h386v1h-386zM63,86h388v1h-388zM62,87h390v1h-390zM62,88h391v1h-391zM61,89h393v1h-393zM60,90h395v1h-395zM59,91h397v1h-397zM58,92h398v1h-398zM57,93h400v1h-400zM57,94h401v1h-401zM56,95h403v1h-403zM55,96h405v1h-405zM54,97h406v1h-406zM53,98h408v1h-408zM53,99h409v1h-409zM52,100h411v1h-411zM51,101h412v1h-412zM50,102h414v1h-414zM50,103h415v1h-415zM49,104h417v1h-417zM48,105h418v1h-418zM47,106h420v1h-420zM47,107h421v1h-421zM46,108h422v1h-422zM45,109h424v1h-424zM45,110h425v1h-425zM44,111h426v1h-426zM43,112h428v1h-428zM43,113h429v1h-429zM42,114h343v1h-343zM392,114h80v1h-80zM41,115h341v1h-341zM394,115h79v1h-79zM41,116h339v1h-339zM395,116h79v1h-79zM40,117h338v1h-338zM396,117h78v1h-78zM39,118h336v1h-336zM397,118h78v1h-78zM39,119h334v1h-334zM397,119h79v1h-79zM38,120h333v1h-333zM398,120h78v1h-78zM38,121h330v1h-330zM398,121h79v1h-79zM37,122h329v1h-329zM398,122h79v1h-79zM36,123h328v1h-328zM398,123h80v1h-80zM36,124h325v1h-325zM398,124h81v1h-81zM35,125h324v1h-324zM398,125h81v1h-81zM35,126h322v1h-322zM398,126h82v1h-82zM34,127h320v1h-320zM398,127h82v1h-82zM33,128h319v1h-319zM397,128h84v1h-84zM33,129h317v1h-317zM397,129h84v1h-84zM32,130h315v1h-315zM396,130h86v1h-86zM32,131h313v1h-313zM396,131h87v1h-87zM31,132h312v1h-312zM395,132h88v1h-88zM31,133h309v1h-309zM395,133h89v1h-89zM30,134h308v1h-308zM395,134h89v1h-89zM30,135h306v1h-306zM394,135h91v1h-91zM29,136h304v1h-304zM394,136h91v1h-91zM28,137h303v1h-303zM393,137h93v1h-93zM28,138h300v1h-300zM393,138h93v1h-93zM27,139h299v1h-299zM392,139h95v1h-95zM27,140h297v1h-297zM392,140h95v1h-95zM27,141h294v1h-294zM392,141h96v1h-96zM26,142h293v1h-293zM391,142h97v1h-97zM25,143h292v1h-292zM391,143h98v1h-98zM25,144h289v1h-289zM390,144h14v1h-14zM414,144h75v1h-75zM25,145h287v1h-287zM390,145h12v1h-12zM415,145h75v1h-75zM24,146h286v1h-286zM389,146h10v1h-10zM416,146h74v1h-74zM24,147h283v1h-283zM389,147h8v1h-8zM417,147h74v1h-74zM23,148h282v1h-282zM361,148h3v1h-3zM388,148h6v1h-6zM418,148h73v1h-73zM23,149h280v1h-280zM358,149h6v1h-6zM388,149h4v1h-4zM418,149h74v1h-74zM22,150h278v1h-278zM356,150h8v1h-8zM388,150h1v1h-1zM419,150h73v1h-73zM22,151h276v1h-276zM354,151h9v1h-9zM419,151h73v1h-73zM21,152h275v1h-275zM352,152h11v1h-11zM419,152h74v1h-74zM21,153h272v1h-272zM349,153h13v1h-13zM419,153h74v1h-74zM20,154h271v1h-271zM347,154h15v1h-15zM419,154h75v1h-75zM20,155h269v1h-269zM345,155h17v1h-17zM419,155h75v1h-75zM19,156h267v1h-267zM342,156h19v1h-19zM419,156h76v1h-76zM19,157h265v1h-265zM340,157h21v1h-21zM419,157h76v1h-76zM19,158h263v1h-263zM338,158h22v1h-22zM418,158h77v1h-77zM18,159h261v1h-261zM335,159h25v1h-25zM418,159h78v1h-78zM18,160h259v1h-259zM333,160h26v1h-26zM418,160h78v1h-78zM18,161h256v1h-256zM331,161h28v1h-28zM417,161h80v1h-80zM17,162h255v1h-255zM328,162h31v1h-31zM417,162h80v1h-80zM17,163h253v1h-253zM326,163h32v1h-32zM416,163h81v1h-81zM16,164h251v1h-251zM324,164h33v1h-33zM416,164h82v1h-82zM16,165h249v1h-249zM321,165h36v1h-36zM415,165h83v1h-83zM16,166h247v1h-247zM319,166h38v1h-38zM415,166h83v1h-83zM15,167h245v1h-245zM317,167h39v1h-39zM415,167h84v1h-84zM15,168h243v1h-243zM314,168h42v1h-42zM414,168h85v1h-85zM15,169h241v1h-241zM312,169h43v1h-43zM414,169h86v1h-86zM14,170h239v1h-239zM310,170h45v1h-45zM413,170h87v1h-87zM14,171h164v1h-164zM188,171h63v1h-63zM307,171h47v1h-47zM413,171h87v1h-87zM13,172h162v1h-162zM190,172h59v1h-59zM305,172h49v1h-49zM413,172h88v1h-88zM13,173h160v1h-160zM192,173h54v1h-54zM302,173h52v1h-52zM412,173h89v1h-89zM13,174h159v1h-159zM193,174h51v1h-51zM300,174h53v1h-53zM412,174h89v1h-89zM12,175h159v1h-159zM194,175h48v1h-48zM298,175h55v1h-55zM411,175h91v1h-91zM12,176h158v1h-158zM195,176h44v1h-44zM295,176h57v1h-57zM384,176h3v1h-3zM411,176h91v1h-91zM12,177h157v1h-157zM196,177h41v1h-41zM293,177h59v1h-59zM381,177h6v1h-6zM411,177h91v1h-91zM11,178h157v1h-157zM197,178h38v1h-38zM291,178h60v1h-60zM379,178h7v1h-7zM410,178h93v1h-93zM11,179h157v1h-157zM198,179h34v1h-34zM288,179h63v1h-63zM376,179h10v1h-10zM410,179h93v1h-93zM11,180h156v1h-156zM199,180h31v1h-31zM286,180h65v1h-65zM375,180h11v1h-11zM409,180h94v1h-94zM11,181h156v1h-156zM200,181h27v1h-27zM284,181h66v1h-66zM375,181h10v1h-10zM409,181h94v1h-94zM10,182h156v1h-156zM201,182h24v1h-24zM281,182h69v1h-69zM374,182h11v1h-11zM409,182h95v1h-95zM10,183h156v1h-156zM202,183h21v1h-21zM279,183h71v1h-71zM374,183h10v1h-10zM408,183h96v1h-96zM10,184h155v1h-155zM203,184h18v1h-18zM277,184h72v1h-72zM373,184h11v1h-11zM408,184h96v1h-96zM9,185h156v1h-156zM204,185h14v1h-14zM274,185h75v1h-75zM373,185h10v1h-10zM407,185h98v1h-98zM9,186h155v1h-155zM205,186h11v1h-11zM272,186h76v1h-76zM372,186h11v1h-11zM407,186h98v1h-98zM9,187h155v1h-155zM206,187h7v1h-7zM270,187h78v1h-78zM372,187h11v1h-11zM407,187h98v1h-98zM9,188h155v1h-155zM207,188h4v1h-4zM267,188h81v1h-81zM372,188h10v1h-10zM406,188h99v1h-99zM8,189h155v1h-155zM265,189h82v1h-82zM371,189h11v1h-11zM406,189h100v1h-100zM8,190h155v1h-155zM263,190h84v1h-84zM371,190h10v1h-10zM405,190h101v1h-101zM8,191h154v1h-154zM260,191h86v1h-86zM370,191h11v1h-11zM405,191h101v1h-101zM7,192h155v1h-155zM258,192h88v1h-88zM370,192h11v1h-11zM405,192h101v1h-101zM7,193h154v1h-154zM256,193h89v1h-89zM369,193h11v1h-11zM404,193h103v1h-103zM7,194h154v1h-154zM253,194h92v1h-92zM369,194h11v1h-11zM404,194h103v1h-103zM7,195h154v1h-154zM251,195h94v1h-94zM369,195h10v1h-10zM403,195h104v1h-104zM7,196h153v1h-153zM249,196h95v1h-95zM368,196h11v1h-11zM403,196h104v1h-104zM6,197h154v1h-154zM184,197h1v1h-1zM246,197h98v1h-98zM368,197h11v1h-11zM402,197h106v1h-106zM6,198h153v1h-153zM183,198h3v1h-3zM244,198h99v1h-99zM367,198h11v1h-11zM402,198h106v1h-106zM6,199h153v1h-153zM183,199h4v1h-4zM242,199h101v1h-101zM367,199h11v1h-11zM402,199h106v1h-106zM6,200h152v1h-152zM182,200h6v1h-6zM239,200h103v1h-103zM366,200h11v1h-11zM401,200h107v1h-107zM5,201h153v1h-153zM182,201h7v1h-7zM237,201h105v1h-105zM366,201h11v1h-11zM401,201h107v1h-107zM5,202h153v1h-153zM182,202h8v1h-8zM235,202h107v1h-107zM366,202h11v1h-11zM400,202h109v1h-109zM5,203h152v1h-152zM181,203h10v1h-10zM232,203h109v1h-109zM365,203h11v1h-11zM400,203h109v1h-109zM5,204h152v1h-152zM181,204h11v1h-11zM230,204h111v1h-111zM365,204h11v1h-11zM400,204h109v1h-109zM5,205h151v1h-151zM180,205h12v1h-12zM228,205h112v1h-112zM364,205h11v1h-11zM399,205h110v1h-110zM4,206h152v1h-152zM180,206h12v1h-12zM226,206h114v1h-114zM364,206h11v1h-11zM399,206h110v1h-110zM4,207h151v1h-151zM179,207h12v1h-12zM224,207h115v1h-115zM363,207h12v1h-12zM398,207h114v1h-114zM4,208h151v1h-151zM179,208h12v1h-12zM221,208h118v1h-118zM363,208h11v1h-11zM398,208h114v1h-114zM4,209h151v1h-151zM179,209h12v1h-12zM219,209h120v1h-120zM363,209h11v1h-11zM398,209h114v1h-114zM4,210h150v1h-150zM178,210h12v1h-12zM217,210h121v1h-121zM362,210h11v1h-11zM397,210h115v1h-115zM3,211h151v1h-151zM178,211h12v1h-12zM215,211h123v1h-123zM362,211h11v1h-11zM397,211h115v1h-115zM3,212h150v1h-150zM177,212h12v1h-12zM214,212h123v1h-123zM361,212h12v1h-12zM396,212h116v1h-116zM3,213h150v1h-150zM177,213h12v1h-12zM213,213h124v1h-124zM361,213h11v1h-11zM396,213h116v1h-116zM3,214h149v1h-149zM176,214h12v1h-12zM213,214h123v1h-123zM360,214h12v1h-12zM396,214h116v1h-116zM3,215h149v1h-149zM176,215h12v1h-12zM212,215h124v1h-124zM360,215h11v1h-11zM395,215h117v1h-117zM3,216h149v1h-149zM176,216h12v1h-12zM212,216h124v1h-124zM360,216h11v1h-11zM395,216h117v1h-117zM0,217h151v1h-151zM175,217h12v1h-12zM211,217h124v1h-124zM359,217h11v1h-11zM394,217h118v1h-118zM0,218h151v1h-151zM175,218h12v1h-12zM211,218h124v1h-124zM359,218h11v1h-11zM394,218h118v1h-118zM0,219h150v1h-150zM174,219h12v1h-12zM211,219h123v1h-123zM358,219h12v1h-12zM394,219h118v1h-118zM0,220h150v1h-150zM174,220h12v1h-12zM210,220h124v1h-124zM358,220h11v1h-11zM393,220h119v1h-119zM0,221h149v1h-149zM173,221h12v1h-12zM210,221h123v1h-123zM357,221h12v1h-12zM393,221h119v1h-119zM0,222h149v1h-149zM173,222h12v1h-12zM209,222h124v1h-124zM357,222h11v1h-11zM392,222h120v1h-120zM0,223h149v1h-149zM173,223h12v1h-12zM209,223h124v1h-124zM357,223h11v1h-11zM392,223h120v1h-120zM0,224h148v1h-148zM172,224h12v1h-12zM208,224h124v1h-124zM356,224h12v1h-12zM391,224h121v1h-121zM0,225h148v1h-148zM172,225h12v1h-12zM208,225h124v1h-124zM356,225h11v1h-11zM391,225h121v1h-121zM0,226h147v1h-147zM171,226h12v1h-12zM207,226h124v1h-124zM355,226h12v1h-12zM391,226h121v1h-121zM0,227h147v1h-147zM171,227h12v1h-12zM207,227h124v1h-124zM355,227h11v1h-11zM390,227h122v1h-122zM0,228h146v1h-146zM170,228h13v1h-13zM206,228h124v1h-124zM354,228h12v1h-12zM390,228h122v1h-122zM0,229h146v1h-146zM170,229h12v1h-12zM206,229h124v1h-124zM354,229h12v1h-12zM389,229h123v1h-123zM0,230h146v1h-146zM170,230h12v1h-12zM205,230h125v1h-125zM354,230h11v1h-11zM389,230h123v1h-123zM0,231h145v1h-145zM169,231h12v1h-12zM205,231h124v1h-124zM353,231h12v1h-12zM389,231h123v1h-123zM0,232h145v1h-145zM169,232h12v1h-12zM205,232h124v1h-124zM353,232h11v1h-11zM388,232h124v1h-124zM0,233h144v1h-144zM168,233h12v1h-12zM204,233h124v1h-124zM352,233h12v1h-12zM388,233h124v1h-124zM0,234h144v1h-144zM168,234h12v1h-12zM204,234h124v1h-124zM352,234h12v1h-12zM387,234h125v1h-125zM0,235h143v1h-143zM167,235h13v1h-13zM203,235h124v1h-124zM352,235h11v1h-11zM387,235h125v1h-125zM0,236h143v1h-143zM167,236h12v1h-12zM203,236h124v1h-124zM351,236h12v1h-12zM387,236h125v1h-125zM0,237h143v1h-143zM166,237h13v1h-13zM203,237h124v1h-124zM351,237h11v1h-11zM386,237h126v1h-126zM0,238h142v1h-142zM166,238h12v1h-12zM202,238h49v1h-49zM258,238h68v1h-68zM350,238h12v1h-12zM386,238h126v1h-126zM0,239h142v1h-142zM166,239h12v1h-12zM202,239h45v1h-45zM261,239h65v1h-65zM350,239h12v1h-12zM385,239h127v1h-127zM0,240h141v1h-141zM165,240h12v1h-12zM201,240h45v1h-45zM263,240h62v1h-62zM349,240h12v1h-12zM385,240h127v1h-127zM0,241h141v1h-141zM165,241h12v1h-12zM201,241h43v1h-43zM264,241h61v1h-61zM349,241h12v1h-12zM385,241h127v1h-127zM0,242h140v1h-140zM164,242h12v1h-12zM200,242h43v1h-43zM266,242h58v1h-58zM349,242h11v1h-11zM384,242h128v1h-128zM0,243h140v1h-140zM164,243h12v1h-12zM200,243h42v1h-42zM267,243h57v1h-57zM348,243h12v1h-12zM384,243h128v1h-128zM0,244h140v1h-140zM163,244h13v1h-13zM199,244h42v1h-42zM267,244h57v1h-57zM348,244h11v1h-11zM383,244h129v1h-129zM0,245h139v1h-139zM163,245h12v1h-12zM199,245h41v1h-41zM268,245h55v1h-55zM347,245h12v1h-12zM383,245h129v1h-129zM0,246h139v1h-139zM163,246h12v1h-12zM199,246h41v1h-41zM269,246h54v1h-54zM347,246h12v1h-12zM383,246h129v1h-129zM0,247h138v1h-138zM162,247h12v1h-12zM198,247h41v1h-41zM269,247h53v1h-53zM346,247h12v1h-12zM382,247h130v1h-130zM0,248h138v1h-138zM162,248h12v1h-12zM198,248h41v1h-41zM270,248h52v1h-52zM346,248h12v1h-12zM382,248h130v1h-130zM0,249h137v1h-137zM161,249h12v1h-12zM197,249h42v1h-42zM270,249h52v1h-52zM346,249h12v1h-12zM381,249h131v1h-131zM0,250h137v1h-137zM161,250h12v1h-12zM197,250h41v1h-41zM270,250h51v1h-51zM345,250h12v1h-12zM381,250h131v1h-131zM0,251h137v1h-137zM160,251h13v1h-13zM197,251h41v1h-41zM271,251h50v1h-50zM345,251h12v1h-12zM381,251h131v1h-131zM0,252h136v1h-136zM160,252h12v1h-12zM196,252h42v1h-42zM271,252h49v1h-49zM344,252h12v1h-12zM380,252h132v1h-132zM0,253h136v1h-136zM160,253h12v1h-12zM196,253h42v1h-42zM271,253h49v1h-49zM344,253h12v1h-12zM380,253h132v1h-132zM0,254h135v1h-135zM159,254h12v1h-12zM195,254h43v1h-43zM271,254h48v1h-48zM343,254h13v1h-13zM379,254h133v1h-133zM0,255h135v1h-135zM159,255h12v1h-12zM195,255h43v1h-43zM271,255h48v1h-48zM343,255h12v1h-12zM379,255h133v1h-133zM0,256h134v1h-134zM158,256h12v1h-12zM194,256h44v1h-44zM271,256h48v1h-48zM343,256h12v1h-12zM378,256h134v1h-134zM0,257h134v1h-134zM158,257h12v1h-12zM194,257h44v1h-44zM270,257h48v1h-48zM342,257h12v1h-12zM378,257h134v1h-134zM0,258h134v1h-134zM157,258h13v1h-13zM194,258h44v1h-44zM270,258h48v1h-48zM342,258h12v1h-12zM378,258h134v1h-134zM0,259h133v1h-133zM157,259h12v1h-12zM193,259h46v1h-46zM270,259h47v1h-47zM341,259h12v1h-12zM377,259h135v1h-135zM0,260h133v1h-133zM157,260h12v1h-12zM193,260h46v1h-46zM270,260h47v1h-47zM341,260h12v1h-12zM377,260h135v1h-135zM0,261h132v1h-132zM156,261h12v1h-12zM192,261h47v1h-47zM269,261h47v1h-47zM340,261h13v1h-13zM376,261h136v1h-136zM0,262h132v1h-132zM156,262h12v1h-12zM192,262h48v1h-48zM269,262h47v1h-47zM340,262h12v1h-12zM376,262h136v1h-136zM0,263h131v1h-131zM155,263h12v1h-12zM191,263h49v1h-49zM268,263h48v1h-48zM340,263h12v1h-12zM376,263h136v1h-136zM0,264h131v1h-131zM155,264h12v1h-12zM191,264h50v1h-50zM267,264h48v1h-48zM339,264h12v1h-12zM375,264h137v1h-137zM0,265h131v1h-131zM154,265h13v1h-13zM191,265h51v1h-51zM267,265h48v1h-48zM339,265h12v1h-12zM375,265h137v1h-137zM0,266h130v1h-130zM154,266h12v1h-12zM190,266h53v1h-53zM266,266h48v1h-48zM338,266h13v1h-13zM374,266h138v1h-138zM0,267h130v1h-130zM154,267h12v1h-12zM190,267h54v1h-54zM265,267h49v1h-49zM338,267h12v1h-12zM374,267h138v1h-138zM0,268h129v1h-129zM153,268h12v1h-12zM189,268h56v1h-56zM263,268h51v1h-51zM337,268h13v1h-13zM374,268h138v1h-138zM0,269h129v1h-129zM153,269h12v1h-12zM189,269h58v1h-58zM261,269h52v1h-52zM337,269h12v1h-12zM373,269h139v1h-139zM0,270h128v1h-128zM152,270h12v1h-12zM188,270h125v1h-125zM337,270h12v1h-12zM373,270h139v1h-139zM0,271h128v1h-128zM152,271h12v1h-12zM188,271h124v1h-124zM336,271h13v1h-13zM372,271h140v1h-140zM0,272h127v1h-127zM151,272h13v1h-13zM188,272h124v1h-124zM336,272h12v1h-12zM372,272h140v1h-140zM0,273h127v1h-127zM151,273h12v1h-12zM187,273h124v1h-124zM335,273h13v1h-13zM372,273h140v1h-140zM0,274h127v1h-127zM151,274h12v1h-12zM187,274h124v1h-124zM335,274h12v1h-12zM371,274h141v1h-141zM0,275h126v1h-126zM150,275h12v1h-12zM186,275h125v1h-125zM334,275h13v1h-13zM371,275h141v1h-141zM0,276h126v1h-126zM150,276h12v1h-12zM186,276h124v1h-124zM334,276h13v1h-13zM370,276h142v1h-142zM0,277h125v1h-125zM149,277h12v1h-12zM185,277h125v1h-125zM334,277h12v1h-12zM370,277h142v1h-142zM0,278h125v1h-125zM149,278h12v1h-12zM185,278h124v1h-124zM333,278h13v1h-13zM370,278h142v1h-142zM0,279h124v1h-124zM148,279h13v1h-13zM185,279h124v1h-124zM333,279h12v1h-12zM369,279h143v1h-143zM0,280h124v1h-124zM148,280h12v1h-12zM184,280h124v1h-124zM332,280h13v1h-13zM369,280h143v1h-143zM0,281h124v1h-124zM148,281h12v1h-12zM184,281h124v1h-124zM332,281h13v1h-13zM368,281h144v1h-144zM0,282h123v1h-123zM147,282h12v1h-12zM183,282h124v1h-124zM331,282h13v1h-13zM368,282h144v1h-144zM0,283h123v1h-123zM147,283h12v1h-12zM183,283h124v1h-124zM331,283h13v1h-13zM368,283h144v1h-144zM0,284h122v1h-122zM146,284h12v1h-12zM182,284h124v1h-124zM331,284h12v1h-12zM367,284h145v1h-145zM0,285h122v1h-122zM146,285h12v1h-12zM182,285h124v1h-124zM330,285h13v1h-13zM367,285h145v1h-145zM0,286h121v1h-121zM145,286h13v1h-13zM181,286h124v1h-124zM330,286h13v1h-13zM366,286h146v1h-146zM0,287h121v1h-121zM145,287h12v1h-12zM181,287h124v1h-124zM329,287h13v1h-13zM366,287h146v1h-146zM0,288h121v1h-121zM145,288h12v1h-12zM181,288h123v1h-123zM329,288h13v1h-13zM365,288h147v1h-147zM0,289h120v1h-120zM144,289h12v1h-12zM180,289h124v1h-124zM328,289h13v1h-13zM365,289h147v1h-147zM0,290h120v1h-120zM144,290h12v1h-12zM180,290h124v1h-124zM328,290h13v1h-13zM365,290h147v1h-147zM0,291h119v1h-119zM143,291h12v1h-12zM179,291h124v1h-124zM328,291h12v1h-12zM364,291h148v1h-148zM0,292h119v1h-119zM143,292h12v1h-12zM179,292h124v1h-124zM327,292h13v1h-13zM364,292h148v1h-148zM0,293h118v1h-118zM142,293h13v1h-13zM178,293h124v1h-124zM327,293h13v1h-13zM363,293h149v1h-149zM0,294h118v1h-118zM142,294h12v1h-12zM178,294h124v1h-124zM326,294h13v1h-13zM363,294h149v1h-149zM3,295h115v1h-115zM142,295h12v1h-12zM178,295h123v1h-123zM326,295h13v1h-13zM363,295h149v1h-149zM3,296h114v1h-114zM141,296h12v1h-12zM177,296h124v1h-124zM325,296h13v1h-13zM362,296h150v1h-150zM3,297h114v1h-114zM141,297h12v1h-12zM177,297h123v1h-123zM325,297h13v1h-13zM362,297h150v1h-150zM3,298h113v1h-113zM140,298h12v1h-12zM176,298h121v1h-121zM325,298h13v1h-13zM361,298h151v1h-151zM3,299h113v1h-113zM140,299h12v1h-12zM176,299h119v1h-119zM324,299h13v1h-13zM361,299h151v1h-151zM3,300h113v1h-113zM139,300h12v1h-12zM175,300h118v1h-118zM324,300h13v1h-13zM361,300h151v1h-151zM4,301h111v1h-111zM139,301h12v1h-12zM175,301h115v1h-115zM323,301h13v1h-13zM360,301h152v1h-152zM4,302h111v1h-111zM139,302h12v1h-12zM175,302h113v1h-113zM323,302h13v1h-13zM360,302h152v1h-152zM4,303h110v1h-110zM138,303h12v1h-12zM174,303h112v1h-112zM323,303h13v1h-13zM359,303h150v1h-150zM4,304h110v1h-110zM138,304h12v1h-12zM174,304h109v1h-109zM322,304h13v1h-13zM359,304h150v1h-150zM4,305h109v1h-109zM137,305h12v1h-12zM173,305h108v1h-108zM322,305h13v1h-13zM359,305h150v1h-150zM5,306h108v1h-108zM137,306h12v1h-12zM173,306h106v1h-106zM321,306h13v1h-13zM358,306h151v1h-151zM5,307h107v1h-107zM136,307h12v1h-12zM172,307h105v1h-105zM321,307h13v1h-13zM358,307h150v1h-150zM5,308h107v1h-107zM136,308h12v1h-12zM172,308h103v1h-103zM320,308h14v1h-14zM357,308h151v1h-151zM5,309h107v1h-107zM136,309h12v1h-12zM172,309h100v1h-100zM320,309h13v1h-13zM357,309h151v1h-151zM5,310h106v1h-106zM135,310h12v1h-12zM171,310h99v1h-99zM319,310h14v1h-14zM357,310h151v1h-151zM6,311h105v1h-105zM135,311h12v1h-12zM171,311h97v1h-97zM319,311h13v1h-13zM356,311h152v1h-152zM6,312h104v1h-104zM134,312h12v1h-12zM170,312h95v1h-95zM318,312h14v1h-14zM356,312h151v1h-151zM6,313h104v1h-104zM134,313h12v1h-12zM170,313h93v1h-93zM317,313h15v1h-15zM355,313h152v1h-152zM6,314h103v1h-103zM133,314h12v1h-12zM169,314h92v1h-92zM316,314h15v1h-15zM355,314h152v1h-152zM7,315h102v1h-102zM133,315h12v1h-12zM169,315h89v1h-89zM316,315h15v1h-15zM355,315h152v1h-152zM7,316h102v1h-102zM133,316h12v1h-12zM169,316h87v1h-87zM317,316h13v1h-13zM354,316h152v1h-152zM7,317h101v1h-101zM132,317h12v1h-12zM168,317h85v1h-85zM318,317h12v1h-12zM354,317h152v1h-152zM7,318h101v1h-101zM132,318h12v1h-12zM168,318h83v1h-83zM319,318h11v1h-11zM353,318h153v1h-153zM7,319h100v1h-100zM131,319h12v1h-12zM167,319h82v1h-82zM320,319h9v1h-9zM353,319h153v1h-153zM8,320h99v1h-99zM131,320h12v1h-12zM167,320h79v1h-79zM321,320h8v1h-8zM352,320h153v1h-153zM8,321h98v1h-98zM130,321h13v1h-13zM166,321h78v1h-78zM322,321h6v1h-6zM352,321h153v1h-153zM8,322h98v1h-98zM130,322h12v1h-12zM166,322h76v1h-76zM323,322h5v1h-5zM352,322h153v1h-153zM9,323h97v1h-97zM130,323h12v1h-12zM166,323h73v1h-73zM324,323h4v1h-4zM351,323h154v1h-154zM9,324h96v1h-96zM129,324h12v1h-12zM165,324h72v1h-72zM293,324h1v1h-1zM325,324h2v1h-2zM351,324h153v1h-153zM9,325h96v1h-96zM129,325h12v1h-12zM165,325h70v1h-70zM291,325h4v1h-4zM350,325h154v1h-154zM9,326h95v1h-95zM128,326h12v1h-12zM164,326h68v1h-68zM288,326h8v1h-8zM350,326h154v1h-154zM10,327h94v1h-94zM128,327h12v1h-12zM164,327h66v1h-66zM286,327h11v1h-11zM350,327h153v1h-153zM10,328h93v1h-93zM127,328h12v1h-12zM164,328h64v1h-64zM284,328h14v1h-14zM349,328h154v1h-154zM10,329h93v1h-93zM127,329h12v1h-12zM163,329h63v1h-63zM281,329h18v1h-18zM349,329h154v1h-154zM11,330h92v1h-92zM127,330h12v1h-12zM163,330h60v1h-60zM279,330h21v1h-21zM348,330h154v1h-154zM11,331h91v1h-91zM126,331h12v1h-12zM162,331h59v1h-59zM277,331h24v1h-24zM348,331h154v1h-154zM11,332h91v1h-91zM126,332h12v1h-12zM162,332h56v1h-56zM274,332h28v1h-28zM348,332h154v1h-154zM11,333h90v1h-90zM125,333h12v1h-12zM162,333h54v1h-54zM272,333h31v1h-31zM347,333h155v1h-155zM12,334h89v1h-89zM125,334h12v1h-12zM161,334h53v1h-53zM270,334h34v1h-34zM347,334h154v1h-154zM12,335h88v1h-88zM124,335h11v1h-11zM161,335h50v1h-50zM268,335h37v1h-37zM346,335h155v1h-155zM12,336h88v1h-88zM124,336h9v1h-9zM160,336h49v1h-49zM265,336h41v1h-41zM346,336h155v1h-155zM13,337h87v1h-87zM123,337h7v1h-7zM160,337h47v1h-47zM263,337h44v1h-44zM346,337h154v1h-154zM13,338h86v1h-86zM123,338h5v1h-5zM159,338h45v1h-45zM261,338h47v1h-47zM345,338h155v1h-155zM14,339h85v1h-85zM123,339h3v1h-3zM159,339h43v1h-43zM258,339h51v1h-51zM345,339h155v1h-155zM14,340h84v1h-84zM159,340h41v1h-41zM256,340h54v1h-54zM344,340h155v1h-155zM14,341h84v1h-84zM158,341h40v1h-40zM254,341h57v1h-57zM344,341h155v1h-155zM14,342h83v1h-83zM158,342h37v1h-37zM251,342h61v1h-61zM343,342h155v1h-155zM15,343h82v1h-82zM157,343h36v1h-36zM249,343h64v1h-64zM343,343h155v1h-155zM15,344h82v1h-82zM157,344h34v1h-34zM247,344h67v1h-67zM342,344h156v1h-156zM16,345h80v1h-80zM156,345h32v1h-32zM244,345h71v1h-71zM342,345h155v1h-155zM16,346h80v1h-80zM156,346h30v1h-30zM242,346h74v1h-74zM341,346h156v1h-156zM16,347h79v1h-79zM156,347h28v1h-28zM240,347h77v1h-77zM340,347h157v1h-157zM17,348h78v1h-78zM155,348h26v1h-26zM237,348h82v1h-82zM339,348h157v1h-157zM17,349h77v1h-77zM155,349h24v1h-24zM235,349h85v1h-85zM337,349h159v1h-159zM18,350h76v1h-76zM154,350h23v1h-23zM233,350h88v1h-88zM335,350h160v1h-160zM18,351h76v1h-76zM154,351h20v1h-20zM230,351h94v1h-94zM332,351h163v1h-163zM18,352h75v1h-75zM153,352h19v1h-19zM228,352h267v1h-267zM19,353h74v1h-74zM153,353h17v1h-17zM226,353h268v1h-268zM19,354h73v1h-73zM152,354h15v1h-15zM223,354h271v1h-271zM20,355h72v1h-72zM152,355h13v1h-13zM221,355h272v1h-272zM20,356h71v1h-71zM151,356h12v1h-12zM219,356h274v1h-274zM20,357h71v1h-71zM151,357h9v1h-9zM216,357h276v1h-276zM21,358h70v1h-70zM150,358h8v1h-8zM214,358h278v1h-278zM21,359h69v1h-69zM150,359h6v1h-6zM212,359h280v1h-280zM22,360h68v1h-68zM150,360h3v1h-3zM209,360h282v1h-282zM22,361h67v1h-67zM150,361h1v1h-1zM207,361h284v1h-284zM23,362h66v1h-66zM205,362h285v1h-285zM23,363h66v1h-66zM202,363h288v1h-288zM24,364h65v1h-65zM200,364h289v1h-289zM24,365h65v1h-65zM121,365h2v1h-2zM198,365h291v1h-291zM25,366h64v1h-64zM118,366h5v1h-5zM195,366h293v1h-293zM25,367h64v1h-64zM116,367h7v1h-7zM193,367h295v1h-295zM25,368h65v1h-65zM114,368h8v1h-8zM191,368h296v1h-296zM26,369h64v1h-64zM112,369h10v1h-10zM188,369h299v1h-299zM27,370h64v1h-64zM109,370h12v1h-12zM186,370h300v1h-300zM27,371h65v1h-65zM107,371h14v1h-14zM184,371h302v1h-302zM28,372h66v1h-66zM105,372h16v1h-16zM181,372h304v1h-304zM28,373h68v1h-68zM102,373h18v1h-18zM179,373h306v1h-306zM29,374h91v1h-91zM177,374h307v1h-307zM29,375h90v1h-90zM175,375h309v1h-309zM30,376h89v1h-89zM172,376h311v1h-311zM30,377h88v1h-88zM170,377h313v1h-313zM31,378h87v1h-87zM168,378h314v1h-314zM31,379h86v1h-86zM165,379h316v1h-316zM32,380h85v1h-85zM163,380h318v1h-318zM32,381h85v1h-85zM161,381h319v1h-319zM33,382h83v1h-83zM158,382h322v1h-322zM33,383h83v1h-83zM156,383h323v1h-323zM34,384h82v1h-82zM154,384h325v1h-325zM35,385h81v1h-81zM151,385h327v1h-327zM35,386h81v1h-81zM149,386h328v1h-328zM36,387h80v1h-80zM147,387h330v1h-330zM36,388h80v1h-80zM144,388h332v1h-332zM37,389h79v1h-79zM142,389h334v1h-334zM38,390h79v1h-79zM140,390h335v1h-335zM38,391h80v1h-80zM137,391h337v1h-337zM39,392h79v1h-79zM135,392h339v1h-339zM39,393h81v1h-81zM133,393h340v1h-340zM40,394h81v1h-81zM130,394h342v1h-342zM41,395h431v1h-431zM41,396h430v1h-430zM42,397h428v1h-428zM43,398h427v1h-427zM43,399h426v1h-426zM44,400h425v1h-425zM45,401h423v1h-423zM45,402h422v1h-422zM46,403h420v1h-420zM47,404h419v1h-419zM48,405h417v1h-417zM48,406h416v1h-416zM49,407h414v1h-414zM50,408h413v1h-413zM51,409h411v1h-411zM51,410h410v1h-410zM52,411h409v1h-409zM53,412h407v1h-407zM54,413h405v1h-405zM54,414h404v1h-404zM55,415h402v1h-402zM56,416h400v1h-400zM57,417h399v1h-399zM58,418h397v1h-397zM58,419h396v1h-396zM59,420h394v1h-394zM60,421h392v1h-392zM61,422h391v1h-391zM62,423h389v1h-389zM63,424h387v1h-387zM64,425h385v1h-385zM64,426h384v1h-384zM65,427h382v1h-382zM66,428h380v1h-380zM67,429h378v1h-378zM68,430h376v1h-376zM69,431h374v1h-374zM70,432h372v1h-372zM71,433h371v1h-371zM72,434h369v1h-369zM73,435h367v1h-367zM74,436h365v1h-365zM75,437h363v1h-363zM76,438h361v1h-361zM77,439h359v1h-359zM78,440h356v1h-356zM79,441h354v1h-354zM80,442h352v1h-352zM81,443h350v1h-350zM82,444h348v1h-348zM83,445h346v1h-346zM84,446h344v1h-344zM85,447h342v1h-342zM87,448h339v1h-339zM88,449h337v1h-337zM89,450h334v1h-334zM90,451h332v1h-332zM91,452h330v1h-330zM92,453h328v1h-328zM94,454h325v1h-325zM95,455h322v1h-322zM96,456h320v1h-320zM97,457h318v1h-318zM99,458h315v1h-315zM100,459h312v1h-312zM101,460h310v1h-310zM102,461h308v1h-308zM104,462h304v1h-304zM105,463h302v1h-302zM107,464h299v1h-299zM108,465h296v1h-296zM109,466h294v1h-294zM111,467h290v1h-290zM112,468h288v1h-288zM114,469h284v1h-284zM115,470h282v1h-282zM117,471h278v1h-278zM118,472h276v1h-276zM120,473h272v1h-272zM122,474h269v1h-269zM123,475h266v1h-266zM125,476h262v1h-262zM127,477h259v1h-259zM128,478h256v1h-256zM130,479h252v1h-252zM132,480h248v1h-248zM134,481h244v1h-244zM136,482h240v1h-240zM138,483h236v1h-236zM140,484h232v1h-232zM142,485h229v1h-229zM143,486h226v1h-226zM145,487h222v1h-222zM148,488h216v1h-216zM150,489h212v1h-212zM152,490h208v1h-208zM154,491h204v1h-204zM156,492h200v1h-200zM159,493h194v1h-194zM161,494h190v1h-190zM164,495h184v1h-184zM166,496h180v1h-180zM169,497h174v1h-174zM172,498h168v1h-168zM175,499h162v1h-162zM178,500h156v1h-156zM181,501h150v1h-150zM185,502h142v1h-142zM188,503h136v1h-136zM192,504h128v1h-128zM196,505h120v1h-120zM201,506h110v1h-110zM206,507h100v1h-100zM211,508h90v1h-90zM217,509h79v1h-79zM217,510h79v1h-79zM217,511h79v1h-79z"/></svg>