<?xml version="1.0" encoding="UTF-8"?>
<svg xmlns="http://www.w3.org/2000/svg" viewBox="0 0 512 512" width="512" height="512"><path fill="#000" d="M225,0h62v1h-62zM225,1h62v1h-62zM225,2h62v1h-62zM217,3h78v1h-78zM212,4h89v1h-89zM206,5h100v1h-100zM201,6h110v1h-110zM197,7h118v1h-118zM193,8h126v1h-126zM189,9h134v1h-134zM185,10h142v1h-142zM182,11h148v1h-148zM179,12h154v1h-154zM176,13h160v1h-160zM173,14h166v1h-166zM170,15h172v1h-172zM167,16h178v1h-178zM165,17h183v1h-183zM162,18h188v1h-188zM159,19h194v1h-194zM157,20h198v1h-198zM155,21h202v1h-202zM152,22h208v1h-208zM150,23h212v1h-212zM148,24h216v1h-216zM146,25h220v1h-220zM144,26h224v1h-224zM142,27h228v1h-228zM140,28h232v1h-232zM138,29h236v1h-236zM136,30h240v1h-240zM134,31h244v1h-244zM132,32h248v1h-248zM131,33h251v1h-251zM129,34h254v1h-254zM127,35h258v1h-258zM125,36h262v1h-262zM124,37h264v1h-264zM122,38h268v1h-268zM121,39h271v1h-271zM119,40h274v1h-274zM117,41h278v1h-278zM116,42h280v1h-280zM114,43h284v1h-284zM113,44h286v1h-286zM111,45h290v1h-290zM110,46h292v1h-292zM109,47h294v1h-294zM107,48h298v1h-298zM106,49h300v1h-300zM104,50h304v1h-304zM103,51h306v1h-306zM102,52h308v1h-308zM100,53h312v1h-312zM99,54h314v1h-314zM98,55h316v1h-316zM97,56h318v1h-318zM95,57h322v1h-322zM94,58h324v1h-324zM93,59h326v1h-326zM92,60h328v1h-328zM91,61h330v1h-330zM89,62h334v1h-334zM88,63h336v1h-336zM87,64h338v1h-338zM86,65h340v1h-340zM85,66h342v1h-342zM84,67h344v1h-344zM83,68h346v1h-346zM82,69h348v1h-348zM81,70h350v1h-350zM79,71h354v1h-354zM78,72h356v1h-356zM77,73h358v1h-358zM76,74h360v1h-360zM75,75h362v1h-362zM74,76h364v1h-364zM73,77h366v1h-366zM72,78h368v1h-368zM71,79h370v1h-370zM71,80h371v1h-371zM70,81h372v1h-372zM69,82h374v1h-374zM68,83h376v1h-376zM67,84h378v1h-378zM66,85h380v1h-380zM65,86h382v1h-382zM64,87h384v1h-384zM63,88h386v1h-386zM62,89h388v1h-388zM62,90h388v1h-388zM61,91h390v1h-390zM60,92h392v1h-392zM59,93h394v1h-394zM58,94h396v1h-396zM57,95h398v1h-398zM57,96h398v1h-398zM56,97h400v1h-400zM55,98h402v1h-402zM54,99h404v1h-404zM53,100h406v1h-406zM53,101h406v1h-406zM52,102h408v1h-408zM51,103h410v1h-410zM50,104h412v1h-412zM50,105h412v1h-412zM49,106h414v1h-414zM48,107h416v1h-416zM48,108h416v1h-416zM47,109h418v1h-418zM46,110h420v1h-420zM45,111h422v1h-422zM45,112h422v1h-422zM44,113h424v1h-424zM43,114h426v1h-426zM43,115h426v1h-426zM42,116h428v1h-428zM41,117h430v1h-430zM41,118h430v1h-430zM40,119h432v1h-432zM40,120h432v1h-432zM39,121h434v1h-434zM38,122h436v1h-436zM38,123h436v1h-436zM37,124h438v1h-438zM36,125h332v1h-332zM377,125h99v1h-99zM36,126h330v1h-330zM380,126h96v1h-96zM35,127h328v1h-328zM381,127h96v1h-96zM35,128h326v1h-326zM382,128h95v1h-95zM34,129h325v1h-325zM383,129h95v1h-95zM33,130h324v1h-324zM384,130h94v1h-94zM33,131h322v1h-322zM385,131h94v1h-94zM32,132h321v1h-321zM386,132h94v1h-94zM32,133h319v1h-319zM386,133h94v1h-94zM31,134h317v1h-317zM386,134h95v1h-95zM31,135h315v1h-315zM387,135h94v1h-94zM30,136h314v1h-314zM387,136h95v1h-95zM30,137h312v1h-312zM387,137h95v1h-95zM29,138h311v1h-311zM387,138h96v1h-96zM29,139h309v1h-309zM387,139h96v1h-96zM28,140h308v1h-308zM387,140h97v1h-97zM28,141h305v1h-305zM387,141h97v1h-97zM27,142h304v1h-304zM387,142h98v1h-98zM27,143h302v1h-302zM387,143h98v1h-98zM26,144h301v1h-301zM386,144h100v1h-100zM26,145h299v1h-299zM386,145h100v1h-100zM25,146h298v1h-298zM385,146h102v1h-102zM25,147h296v1h-296zM385,147h102v1h-102zM24,148h294v1h-294zM385,148h103v1h-103zM24,149h292v1h-292zM384,149h104v1h-104zM23,150h291v1h-291zM384,150h105v1h-105zM23,151h289v1h-289zM383,151h106v1h-106zM22,152h288v1h-288zM383,152h107v1h-107zM22,153h286v1h-286zM382,153h108v1h-108zM22,154h284v1h-284zM382,154h108v1h-108zM21,155h283v1h-283zM381,155h110v1h-110zM21,156h280v1h-280zM381,156h110v1h-110zM20,157h279v1h-279zM380,157h112v1h-112zM20,158h277v1h-277zM380,158h112v1h-112zM19,159h276v1h-276zM379,159h114v1h-114zM19,160h274v1h-274zM379,160h114v1h-114zM19,161h272v1h-272zM378,161h115v1h-115zM18,162h271v1h-271zM378,162h116v1h-116zM18,163h268v1h-268zM378,163h116v1h-116zM17,164h267v1h-267zM377,164h117v1h-117zM17,165h265v1h-265zM377,165h118v1h-118zM17,166h263v1h-263zM376,166h119v1h-119zM16,167h262v1h-262zM376,167h120v1h-120zM16,168h260v1h-260zM375,168h121v1h-121zM16,169h258v1h-258zM375,169h121v1h-121zM15,170h256v1h-256zM340,170h2v1h-2zM374,170h123v1h-123zM15,171h254v1h-254zM338,171h4v1h-4zM374,171h123v1h-123zM15,172h252v1h-252zM336,172h5v1h-5zM373,172h124v1h-124zM14,173h251v1h-251zM334,173h7v1h-7zM373,173h125v1h-125zM14,174h249v1h-249zM332,174h8v1h-8zM372,174h126v1h-126zM14,175h247v1h-247zM330,175h10v1h-10zM372,175h126v1h-126zM13,176h246v1h-246zM328,176h11v1h-11zM371,176h128v1h-128zM13,177h243v1h-243zM325,177h14v1h-14zM371,177h128v1h-128zM13,178h241v1h-241zM323,178h15v1h-15zM371,178h128v1h-128zM12,179h240v1h-240zM321,179h17v1h-17zM370,179h130v1h-130zM12,180h238v1h-238zM319,180h18v1h-18zM370,180h130v1h-130zM12,181h236v1h-236zM317,181h20v1h-20zM369,181h131v1h-131zM11,182h235v1h-235zM315,182h21v1h-21zM369,182h132v1h-132zM11,183h232v1h-232zM313,183h23v1h-23zM368,183h133v1h-133zM11,184h230v1h-230zM310,184h25v1h-25zM368,184h133v1h-133zM10,185h229v1h-229zM308,185h27v1h-27zM367,185h135v1h-135zM10,186h227v1h-227zM306,186h29v1h-29zM367,186h135v1h-135zM10,187h225v1h-225zM304,187h30v1h-30zM366,187h136v1h-136zM10,188h223v1h-223zM302,188h32v1h-32zM366,188h136v1h-136zM9,189h222v1h-222zM300,189h33v1h-33zM365,189h138v1h-138zM9,190h219v1h-219zM298,190h35v1h-35zM365,190h138v1h-138zM9,191h217v1h-217zM295,191h37v1h-37zM364,191h139v1h-139zM9,192h215v1h-215zM293,192h39v1h-39zM364,192h139v1h-139zM8,193h214v1h-214zM291,193h40v1h-40zM364,193h140v1h-140zM8,194h212v1h-212zM289,194h42v1h-42zM363,194h141v1h-141zM8,195h210v1h-210zM287,195h43v1h-43zM363,195h141v1h-141zM8,196h208v1h-208zM285,196h45v1h-45zM362,196h142v1h-142zM7,197h206v1h-206zM283,197h46v1h-46zM362,197h143v1h-143zM7,198h204v1h-204zM280,198h49v1h-49zM361,198h144v1h-144zM7,199h202v1h-202zM278,199h50v1h-50zM361,199h144v1h-144zM7,200h200v1h-200zM276,200h52v1h-52zM360,200h145v1h-145zM6,201h199v1h-199zM274,201h54v1h-54zM360,201h146v1h-146zM6,202h198v1h-198zM272,202h55v1h-55zM359,202h147v1h-147zM6,203h197v1h-197zM270,203h57v1h-57zM359,203h147v1h-147zM6,204h196v1h-196zM268,204h58v1h-58zM358,204h148v1h-148zM6,205h195v1h-195zM265,205h61v1h-61zM358,205h148v1h-148zM5,206h196v1h-196zM263,206h62v1h-62zM357,206h150v1h-150zM5,207h195v1h-195zM261,207h64v1h-64zM357,207h150v1h-150zM5,208h195v1h-195zM259,208h65v1h-65zM357,208h150v1h-150zM5,209h194v1h-194zM257,209h67v1h-67zM356,209h151v1h-151zM5,210h194v1h-194zM255,210h68v1h-68zM356,210h151v1h-151zM4,211h194v1h-194zM253,211h70v1h-70zM355,211h153v1h-153zM4,212h194v1h-194zM250,212h72v1h-72zM355,212h153v1h-153zM4,213h194v1h-194zM248,213h74v1h-74zM354,213h154v1h-154zM4,214h193v1h-193zM246,214h75v1h-75zM354,214h154v1h-154zM4,215h193v1h-193zM244,215h77v1h-77zM353,215h155v1h-155zM4,216h192v1h-192zM242,216h79v1h-79zM353,216h155v1h-155zM3,217h193v1h-193zM240,217h80v1h-80zM352,217h156v1h-156zM3,218h192v1h-192zM239,218h81v1h-81zM352,218h157v1h-157zM3,219h192v1h-192zM240,219h79v1h-79zM351,219h158v1h-158zM3,220h191v1h-191zM241,220h78v1h-78zM351,220h158v1h-158zM3,221h191v1h-191zM242,221h76v1h-76zM351,221h158v1h-158zM3,222h190v1h-190zM243,222h75v1h-75zM350,222h159v1h-159zM3,223h190v1h-190zM244,223h73v1h-73zM350,223h159v1h-159zM3,224h189v1h-189zM245,224h72v1h-72zM349,224h160v1h-160zM0,225h192v1h-192zM246,225h70v1h-70zM349,225h163v1h-163zM0,226h191v1h-191zM247,226h69v1h-69zM348,226h164v1h-164zM0,227h191v1h-191zM248,227h67v1h-67zM348,227h164v1h-164zM0,228h190v1h-190zM249,228h66v1h-66zM347,228h165v1h-165zM0,229h190v1h-190zM250,229h64v1h-64zM347,229h165v1h-165zM0,230h190v1h-190zM251,230h63v1h-63zM346,230h166v1h-166zM0,231h189v1h-189zM252,231h62v1h-62zM346,231h166v1h-166zM0,232h189v1h-189zM253,232h60v1h-60zM345,232h167v1h-167zM0,233h188v1h-188zM254,233h59v1h-59zM345,233h167v1h-167zM0,234h188v1h-188zM255,234h57v1h-57zM344,234h168v1h-168zM0,235h187v1h-187zM256,235h56v1h-56zM344,235h168v1h-168zM0,236h187v1h-187zM257,236h54v1h-54zM343,236h169v1h-169zM0,237h186v1h-186zM258,237h53v1h-53zM343,237h169v1h-169zM0,238h186v1h-186zM259,238h51v1h-51zM343,238h169v1h-169zM0,239h185v1h-185zM218,239h1v1h-1zM260,239h50v1h-50zM342,239h170v1h-170zM0,240h185v1h-185zM217,240h3v1h-3zM261,240h48v1h-48zM342,240h170v1h-170zM0,241h184v1h-184zM217,241h4v1h-4zM262,241h47v1h-47zM341,241h171v1h-171zM0,242h184v1h-184zM216,242h6v1h-6zM263,242h45v1h-45zM341,242h171v1h-171zM0,243h183v1h-183zM216,243h7v1h-7zM264,243h44v1h-44zM340,243h172v1h-172zM0,244h183v1h-183zM215,244h9v1h-9zM265,244h42v1h-42zM340,244h172v1h-172zM0,245h183v1h-183zM215,245h10v1h-10zM266,245h41v1h-41zM339,245h173v1h-173zM0,246h182v1h-182zM214,246h12v1h-12zM267,246h40v1h-40zM339,246h173v1h-173zM0,247h182v1h-182zM214,247h13v1h-13zM268,247h38v1h-38zM338,247h174v1h-174zM0,248h181v1h-181zM213,248h15v1h-15zM269,248h37v1h-37zM338,248h174v1h-174zM0,249h181v1h-181zM213,249h16v1h-16zM270,249h35v1h-35zM337,249h175v1h-175zM0,250h180v1h-180zM213,250h17v1h-17zM271,250h34v1h-34zM337,250h175v1h-175zM0,251h180v1h-180zM212,251h19v1h-19zM272,251h32v1h-32zM337,251h175v1h-175zM0,252h179v1h-179zM212,252h20v1h-20zM273,252h31v1h-31zM336,252h176v1h-176zM0,253h179v1h-179zM211,253h22v1h-22zM274,253h29v1h-29zM336,253h176v1h-176zM0,254h178v1h-178zM211,254h23v1h-23zM275,254h28v1h-28zM335,254h177v1h-177zM0,255h178v1h-178zM210,255h25v1h-25zM276,255h26v1h-26zM335,255h177v1h-177zM0,256h177v1h-177zM210,256h26v1h-26zM277,256h25v1h-25zM334,256h178v1h-178zM0,257h177v1h-177zM209,257h28v1h-28zM278,257h23v1h-23zM334,257h178v1h-178zM0,258h176v1h-176zM209,258h29v1h-29zM279,258h22v1h-22zM333,258h179v1h-179zM0,259h176v1h-176zM208,259h31v1h-31zM280,259h20v1h-20zM333,259h179v1h-179zM0,260h176v1h-176zM208,260h32v1h-32zM281,260h19v1h-19zM332,260h180v1h-180zM0,261h175v1h-175zM207,261h34v1h-34zM282,261h18v1h-18zM332,261h180v1h-180zM0,262h175v1h-175zM207,262h35v1h-35zM283,262h16v1h-16zM331,262h181v1h-181zM0,263h174v1h-174zM206,263h37v1h-37zM284,263h15v1h-15zM331,263h181v1h-181zM0,264h174v1h-174zM206,264h38v1h-38zM285,264h13v1h-13zM330,264h182v1h-182zM0,265h173v1h-173zM206,265h39v1h-39zM286,265h12v1h-12zM330,265h182v1h-182zM0,266h173v1h-173zM205,266h41v1h-41zM287,266h10v1h-10zM330,266h182v1h-182zM0,267h172v1h-172zM205,267h42v1h-42zM288,267h9v1h-9zM329,267h183v1h-183zM0,268h172v1h-172zM204,268h44v1h-44zM289,268h7v1h-7zM329,268h183v1h-183zM0,269h171v1h-171zM204,269h45v1h-45zM290,269h6v1h-6zM328,269h184v1h-184zM0,270h171v1h-171zM203,270h47v1h-47zM291,270h4v1h-4zM328,270h184v1h-184zM0,271h170v1h-170zM203,271h48v1h-48zM292,271h3v1h-3zM327,271h185v1h-185zM0,272h170v1h-170zM202,272h50v1h-50zM293,272h1v1h-1zM327,272h185v1h-185zM0,273h169v1h-169zM202,273h51v1h-51zM326,273h186v1h-186zM0,274h169v1h-169zM201,274h53v1h-53zM326,274h186v1h-186zM0,275h169v1h-169zM201,275h54v1h-54zM325,275h187v1h-187zM0,276h168v1h-168zM200,276h56v1h-56zM325,276h187v1h-187zM0,277h168v1h-168zM200,277h57v1h-57zM324,277h188v1h-188zM0,278h167v1h-167zM199,278h59v1h-59zM324,278h188v1h-188zM0,279h167v1h-167zM199,279h60v1h-60zM323,279h189v1h-189zM0,280h166v1h-166zM199,280h61v1h-61zM323,280h189v1h-189zM0,281h166v1h-166zM198,281h63v1h-63zM323,281h189v1h-189zM0,282h165v1h-165zM198,282h64v1h-64zM322,282h190v1h-190zM0,283h165v1h-165zM197,283h66v1h-66zM322,283h190v1h-190zM0,284h164v1h-164zM197,284h67v1h-67zM321,284h191v1h-191zM0,285h164v1h-164zM196,285h69v1h-69zM321,285h191v1h-191zM0,286h163v1h-163zM196,286h70v1h-70zM320,286h192v1h-192zM3,287h160v1h-160zM195,287h72v1h-72zM320,287h189v1h-189zM3,288h159v1h-159zM195,288h73v1h-73zM319,288h190v1h-190zM3,289h159v1h-159zM194,289h75v1h-75zM319,289h190v1h-190zM3,290h159v1h-159zM194,290h76v1h-76zM318,290h191v1h-191zM3,291h158v1h-158zM193,291h78v1h-78zM318,291h191v1h-191zM3,292h158v1h-158zM193,292h79v1h-79zM317,292h192v1h-192zM3,293h157v1h-157zM192,293h81v1h-81zM317,293h192v1h-192zM3,294h157v1h-157zM192,294h80v1h-80zM316,294h192v1h-192zM4,295h155v1h-155zM192,295h78v1h-78zM316,295h192v1h-192zM4,296h155v1h-155zM191,296h77v1h-77zM315,296h193v1h-193zM4,297h154v1h-154zM191,297h75v1h-75zM315,297h193v1h-193zM4,298h154v1h-154zM190,298h74v1h-74zM314,298h194v1h-194zM4,299h153v1h-153zM190,299h72v1h-72zM314,299h194v1h-194zM4,300h153v1h-153zM189,300h70v1h-70zM314,300h194v1h-194zM5,301h151v1h-151zM189,301h68v1h-68zM313,301h194v1h-194zM5,302h151v1h-151zM188,302h67v1h-67zM313,302h194v1h-194zM5,303h150v1h-150zM188,303h65v1h-65zM312,303h195v1h-195zM5,304h150v1h-150zM187,304h64v1h-64zM312,304h195v1h-195zM5,305h150v1h-150zM187,305h62v1h-62zM311,305h196v1h-196zM6,306h148v1h-148zM186,306h61v1h-61zM311,306h195v1h-195zM6,307h148v1h-148zM186,307h58v1h-58zM310,307h196v1h-196zM6,308h147v1h-147zM185,308h57v1h-57zM309,308h197v1h-197zM6,309h147v1h-147zM185,309h55v1h-55zM308,309h198v1h-198zM6,310h146v1h-146zM185,310h53v1h-53zM307,310h199v1h-199zM7,311h145v1h-145zM184,311h52v1h-52zM305,311h200v1h-200zM7,312h144v1h-144zM184,312h50v1h-50zM303,312h202v1h-202zM7,313h144v1h-144zM183,313h49v1h-49zM301,313h204v1h-204zM7,314h143v1h-143zM183,314h46v1h-46zM299,314h206v1h-206zM8,315h142v1h-142zM182,315h45v1h-45zM296,315h208v1h-208zM8,316h141v1h-141zM182,316h43v1h-43zM294,316h210v1h-210zM8,317h141v1h-141zM181,317h42v1h-42zM292,317h212v1h-212zM8,318h140v1h-140zM181,318h40v1h-40zM290,318h214v1h-214zM9,319h139v1h-139zM180,319h39v1h-39zM288,319h215v1h-215zM9,320h139v1h-139zM180,320h37v1h-37zM286,320h217v1h-217zM9,321h138v1h-138zM179,321h35v1h-35zM284,321h219v1h-219zM9,322h138v1h-138zM179,322h33v1h-33zM281,322h222v1h-222zM10,323h136v1h-136zM178,323h32v1h-32zM279,323h223v1h-223zM10,324h136v1h-136zM178,324h30v1h-30zM277,324h225v1h-225zM10,325h135v1h-135zM178,325h28v1h-28zM275,325h227v1h-227zM10,326h135v1h-135zM177,326h27v1h-27zM273,326h229v1h-229zM11,327h133v1h-133zM177,327h25v1h-25zM271,327h230v1h-230zM11,328h133v1h-133zM176,328h23v1h-23zM269,328h232v1h-232zM11,329h132v1h-132zM176,329h21v1h-21zM266,329h235v1h-235zM12,330h131v1h-131zM175,330h20v1h-20zM264,330h236v1h-236zM12,331h130v1h-130zM175,331h18v1h-18zM262,331h238v1h-238zM12,332h130v1h-130zM174,332h17v1h-17zM260,332h240v1h-240zM13,333h128v1h-128zM174,333h15v1h-15zM258,333h241v1h-241zM13,334h128v1h-128zM173,334h14v1h-14zM256,334h243v1h-243zM13,335h128v1h-128zM173,335h11v1h-11zM254,335h245v1h-245zM14,336h126v1h-126zM172,336h10v1h-10zM251,336h247v1h-247zM14,337h126v1h-126zM172,337h8v1h-8zM249,337h249v1h-249zM14,338h125v1h-125zM171,338h7v1h-7zM247,338h251v1h-251zM15,339h124v1h-124zM171,339h5v1h-5zM245,339h252v1h-252zM15,340h123v1h-123zM171,340h3v1h-3zM243,340h254v1h-254zM15,341h123v1h-123zM170,341h2v1h-2zM241,341h256v1h-256zM16,342h121v1h-121zM239,342h257v1h-257zM16,343h121v1h-121zM236,343h260v1h-260zM16,344h120v1h-120zM234,344h262v1h-262zM17,345h119v1h-119zM232,345h263v1h-263zM17,346h118v1h-118zM230,346h265v1h-265zM18,347h117v1h-117zM228,347h266v1h-266zM18,348h116v1h-116zM226,348h268v1h-268zM18,349h116v1h-116zM224,349h270v1h-270zM19,350h115v1h-115zM221,350h272v1h-272zM19,351h114v1h-114zM219,351h274v1h-274zM19,352h114v1h-114zM217,352h276v1h-276zM20,353h112v1h-112zM215,353h277v1h-277zM20,354h112v1h-112zM213,354h279v1h-279zM21,355h110v1h-110zM211,355h280v1h-280zM21,356h110v1h-110zM209,356h282v1h-282zM22,357h108v1h-108zM206,357h284v1h-284zM22,358h108v1h-108zM204,358h286v1h-286zM22,359h107v1h-107zM202,359h288v1h-288zM23,360h106v1h-106zM200,360h289v1h-289zM23,361h105v1h-105zM198,361h291v1h-291zM24,362h104v1h-104zM196,362h292v1h-292zM24,363h103v1h-103zM194,363h294v1h-294zM25,364h102v1h-102zM191,364h296v1h-296zM25,365h102v1h-102zM189,365h298v1h-298zM26,366h100v1h-100zM187,366h299v1h-299zM26,367h100v1h-100zM185,367h301v1h-301zM27,368h98v1h-98zM183,368h302v1h-302zM27,369h98v1h-98zM181,369h304v1h-304zM28,370h97v1h-97zM179,370h305v1h-305zM28,371h97v1h-97zM176,371h308v1h-308zM29,372h96v1h-96zM174,372h309v1h-309zM29,373h96v1h-96zM172,373h311v1h-311zM30,374h95v1h-95zM170,374h312v1h-312zM30,375h95v1h-95zM168,375h314v1h-314zM31,376h94v1h-94zM166,376h315v1h-315zM31,377h95v1h-95zM164,377h317v1h-317zM32,378h94v1h-94zM161,378h319v1h-319zM32,379h94v1h-94zM159,379h321v1h-321zM33,380h94v1h-94zM157,380h322v1h-322zM34,381h94v1h-94zM155,381h323v1h-323zM34,382h95v1h-95zM153,382h325v1h-325zM35,383h95v1h-95zM151,383h326v1h-326zM35,384h96v1h-96zM149,384h328v1h-328zM36,385h96v1h-96zM146,385h330v1h-330zM36,386h99v1h-99zM144,386h332v1h-332zM37,387h438v1h-438zM38,388h436v1h-436zM38,389h436v1h-436zM39,390h434v1h-434zM39,391h433v1h-433zM40,392h432v1h-432zM41,393h430v1h-430zM41,394h430v1h-430zM42,395h428v1h-428zM43,396h426v1h-426zM43,397h426v1h-426zM44,398h424v1h-424zM45,399h422v1h-422zM45,400h422v1h-422zM46,401h420v1h-420zM47,402h418v1h-418zM48,403h416v1h-416zM48,404h416v1h-416zM49,405h414v1h-414zM50,406h412v1h-412zM50,407h412v1h-412zM51,408h410v1h-410zM52,409h408v1h-408zM53,410h406v1h-406zM53,411h406v1h-406zM54,412h404v1h-404zM55,413h402v1h-402zM56,414h400v1h-400zM57,415h398v1h-398zM57,416h398v1h-398zM58,417h396v1h-396zM59,418h394v1h-394zM60,419h392v1h-392zM61,420h390v1h-390zM62,421h388v1h-388zM62,422h388v1h-388zM63,423h386v1h-386zM64,424h384v1h-384zM65,425h382v1h-382zM66,426h380v1h-380zM67,427h378v1h-378zM68,428h376v1h-376zM69,429h374v1h-374zM70,430h372v1h-372zM71,431h370v1h-370zM71,432h370v1h-370zM72,433h368v1h-368zM73,434h366v1h-366zM74,435h364v1h-364zM75,436h362v1h-362zM76,437h360v1h-360zM77,438h358v1h-358zM78,439h356v1h-356zM79,440h354v1h-354zM81,441h350v1h-350zM82,442h348v1h-348zM83,443h346v1h-346zM84,444h344v1h-344zM85,445h342v1h-342zM86,446h340v1h-340zM87,447h338v1h-338zM88,448h336v1h-336zM89,449h334v1h-334zM91,450h330v1h-330zM92,451h328v1h-328zM93,452h326v1h-326zM94,453h324v1h-324zM95,454h322v1h-322zM97,455h318v1h-318zM98,456h316v1h-316zM99,457h314v1h-314zM100,458h312v1h-312zM102,459h308v1h-308zM103,460h306v1h-306zM104,461h304v1h-304zM106,462h300v1h-300zM107,463h298v1h-298zM109,464h294v1h-294zM110,465h292v1h-292zM111,466h290v1h-290zM113,467h286v1h-286zM114,468h284v1h-284zM116,469h280v1h-280zM117,470h278v1h-278zM119,471h274v1h-274zM121,472h270v1h-270zM122,473h268v1h-268zM124,474h264v1h-264zM125,475h262v1h-262zM127,476h258v1h-258zM129,477h254v1h-254zM131,478h250v1h-250zM132,479h248v1h-248zM134,480h244v1h-244zM136,481h240v1h-240zM138,482h236v1h-236zM140,483h232v1h-232zM142,484h228v1h-228zM144,485h224v1h-224zM146,486h220v1h-220zM148,487h216v1h-216zM150,488h212v1h-212zM152,489h208v1h-208zM155,490h202v1h-202zM157,491h198v1h-198zM160,492h193v1h-193zM162,493h188v1h-188zM165,494h183v1h-183zM167,495h178v1h-178zM170,496h172v1h-172zM173,497h166v1h-166zM176,498h160v1h-160zM179,499h154v1h-154zM182,500h148v1h-148zM185,501h142v1h-142zM189,502h134v1h-134zM193,503h126v1h-126zM197,504h118v1h-118zM201,505h110v1h-110zM206,506h100v1h-100zM212,507h89v1h-89zM218,508h76v1h-76zM225,509h62v1h-62zM225,510h62v1h-62zM225,511h62v1h-62z"/></svg>