<?xml version="1.0" encoding="UTF-8"?>
<svg xmlns="http://www.w3.org/2000/svg" viewBox="0 0 512 512" width="512" height="512"><path fill="#000" d="M123,26h171v1h-171zM116,27h183v1h-183zM112,28h190v1h-190zM109,29h196v1h-196zM106,30h201v1h-201zM104,31h205v1h-205zM102,32h209v1h-209zM100,33h212v1h-212zM98,34h215v1h-215zM96,35h218v1h-218zM95,36h221v1h-221zM93,37h224v1h-224zM92,38h226v1h-226zM91,39h228v1h-228zM90,40h230v1h-230zM89,41h232v1h-232zM87,42h235v1h-235zM86,43h237v1h-237zM85,44h239v1h-239zM85,45h240v1h-240zM84,46h242v1h-242zM83,47h244v1h-244zM82,48h246v1h-246zM81,49h248v1h-248zM80,50h250v1h-250zM80,51h251v1h-251zM79,52h253v1h-253zM78,53h255v1h-255zM78,54h256v1h-256zM77,55h258v1h-258zM77,56h259v1h-259zM76,57h261v1h-261zM75,58h263v1h-263zM75,59h48v1h-48zM282,59h57v1h-57zM75,60h44v1h-44zM282,60h58v1h-58zM74,61h43v1h-43zM282,61h59v1h-59zM74,62h41v1h-41zM282,62h60v1h-60zM73,63h40v1h-40zM282,63h61v1h-61zM73,64h39v1h-39zM282,64h62v1h-62zM72,65h39v1h-39zM282,65h63v1h-63zM72,66h38v1h-38zM282,66h64v1h-64zM72,67h37v1h-37zM282,67h65v1h-65zM71,68h37v1h-37zM282,68h66v1h-66zM71,69h36v1h-36zM282,69h67v1h-67zM71,70h35v1h-35zM282,70h68v1h-68zM71,71h35v1h-35zM282,71h69v1h-69zM70,72h35v1h-35zM282,72h70v1h-70zM70,73h35v1h-35zM282,73h71v1h-71zM70,74h34v1h-34zM282,74h72v1h-72zM70,75h34v1h-34zM282,75h73v1h-73zM70,76h33v1h-33zM282,76h74v1h-74zM70,77h33v1h-33zM282,77h75v1h-75zM69,78h34v1h-34zM282,78h76v1h-76zM69,79h33v1h-33zM282,79h77v1h-77zM69,80h33v1h-33zM282,80h78v1h-78zM69,81h33v1h-33zM282,81h79v1h-79zM69,82h33v1h-33zM282,82h80v1h-80zM69,83h33v1h-33zM282,83h81v1h-81zM69,84h33v1h-33zM282,84h82v1h-82zM69,85h33v1h-33zM282,85h83v1h-83zM69,86h33v1h-33zM282,86h84v1h-84zM69,87h33v1h-33zM282,87h33v1h-33zM320,87h47v1h-47zM69,88h33v1h-33zM282,88h33v1h-33zM321,88h47v1h-47zM69,89h33v1h-33zM282,89h33v1h-33zM322,89h47v1h-47zM69,90h33v1h-33zM282,90h33v1h-33zM323,90h47v1h-47zM69,91h33v1h-33zM282,91h33v1h-33zM324,91h47v1h-47zM69,92h33v1h-33zM282,92h33v1h-33zM325,92h47v1h-47zM69,93h33v1h-33zM282,93h33v1h-33zM326,93h47v1h-47zM69,94h33v1h-33zM282,94h33v1h-33zM327,94h47v1h-47zM69,95h33v1h-33zM282,95h33v1h-33zM328,95h47v1h-47zM69,96h33v1h-33zM282,96h33v1h-33zM329,96h47v1h-47zM69,97h33v1h-33zM282,97h33v1h-33zM330,97h47v1h-47zM69,98h33v1h-33zM282,98h33v1h-33zM331,98h47v1h-47zM69,99h33v1h-33zM282,99h33v1h-33zM332,99h47v1h-47zM69,100h33v1h-33zM282,100h33v1h-33zM333,100h47v1h-47zM69,101h33v1h-33zM282,101h33v1h-33zM334,101h47v1h-47zM69,102h33v1h-33zM282,102h33v1h-33zM335,102h47v1h-47zM69,103h33v1h-33zM282,103h33v1h-33zM336,103h47v1h-47zM69,104h33v1h-33zM282,104h33v1h-33zM337,104h47v1h-47zM69,105h33v1h-33zM282,105h33v1h-33zM338,105h47v1h-47zM69,106h33v1h-33zM282,106h33v1h-33zM339,106h47v1h-47zM69,107h33v1h-33zM282,107h33v1h-33zM340,107h47v1h-47zM69,108h33v1h-33zM282,108h33v1h-33zM341,108h47v1h-47zM69,109h33v1h-33zM282,109h33v1h-33zM342,109h47v1h-47zM69,110h33v1h-33zM282,110h33v1h-33zM343,110h47v1h-47zM69,111h33v1h-33zM282,111h33v1h-33zM344,111h47v1h-47zM69,112h33v1h-33zM282,112h33v1h-33zM345,112h47v1h-47zM69,113h33v1h-33zM282,113h33v1h-33zM346,113h47v1h-47zM69,114h33v1h-33zM282,114h33v1h-33zM347,114h47v1h-47zM69,115h33v1h-33zM282,115h33v1h-33zM348,115h47v1h-47zM69,116h33v1h-33zM282,116h33v1h-33zM349,116h47v1h-47zM69,117h33v1h-33zM282,117h33v1h-33zM350,117h47v1h-47zM69,118h33v1h-33zM282,118h33v1h-33zM351,118h47v1h-47zM69,119h33v1h-33zM282,119h33v1h-33zM352,119h47v1h-47zM69,120h33v1h-33zM282,120h33v1h-33zM353,120h47v1h-47zM69,121h33v1h-33zM282,121h33v1h-33zM354,121h47v1h-47zM69,122h33v1h-33zM282,122h33v1h-33zM355,122h47v1h-47zM69,123h33v1h-33zM282,123h33v1h-33zM356,123h47v1h-47zM69,124h33v1h-33zM282,124h33v1h-33zM357,124h47v1h-47zM69,125h33v1h-33zM282,125h33v1h-33zM358,125h47v1h-47zM69,126h33v1h-33zM282,126h33v1h-33zM359,126h47v1h-47zM69,127h33v1h-33zM282,127h33v1h-33zM360,127h47v1h-47zM69,128h33v1h-33zM282,128h33v1h-33zM361,128h47v1h-47zM69,129h33v1h-33zM282,129h33v1h-33zM362,129h47v1h-47zM69,130h33v1h-33zM282,130h33v1h-33zM363,130h47v1h-47zM69,131h33v1h-33zM282,131h33v1h-33zM364,131h47v1h-47zM69,132h33v1h-33zM282,132h33v1h-33zM365,132h47v1h-47zM69,133h33v1h-33zM283,133h33v1h-33zM366,133h47v1h-47zM69,134h33v1h-33zM283,134h33v1h-33zM367,134h47v1h-47zM69,135h33v1h-33zM283,135h33v1h-33zM368,135h47v1h-47zM69,136h33v1h-33zM283,136h33v1h-33zM369,136h47v1h-47zM69,137h33v1h-33zM283,137h34v1h-34zM370,137h47v1h-47zM69,138h33v1h-33zM283,138h34v1h-34zM371,138h47v1h-47zM69,139h33v1h-33zM283,139h35v1h-35zM372,139h47v1h-47zM69,140h33v1h-33zM284,140h34v1h-34zM373,140h47v1h-47zM69,141h33v1h-33zM284,141h35v1h-35zM374,141h47v1h-47zM69,142h33v1h-33zM284,142h35v1h-35zM375,142h47v1h-47zM69,143h33v1h-33zM284,143h36v1h-36zM376,143h47v1h-47zM69,144h33v1h-33zM285,144h36v1h-36zM377,144h47v1h-47zM69,145h33v1h-33zM285,145h37v1h-37zM378,145h47v1h-47zM69,146h33v1h-33zM285,146h38v1h-38zM379,146h47v1h-47zM69,147h33v1h-33zM286,147h38v1h-38zM380,147h47v1h-47zM69,148h33v1h-33zM286,148h39v1h-39zM381,148h47v1h-47zM69,149h33v1h-33zM286,149h40v1h-40zM382,149h47v1h-47zM69,150h33v1h-33zM287,150h41v1h-41zM382,150h48v1h-48zM69,151h33v1h-33zM287,151h43v1h-43zM382,151h49v1h-49zM69,152h33v1h-33zM288,152h44v1h-44zM382,152h50v1h-50zM69,153h33v1h-33zM288,153h47v1h-47zM382,153h51v1h-51zM69,154h33v1h-33zM289,154h145v1h-145zM69,155h33v1h-33zM289,155h145v1h-145zM69,156h33v1h-33zM290,156h145v1h-145zM69,157h33v1h-33zM290,157h146v1h-146zM69,158h33v1h-33zM291,158h146v1h-146zM69,159h33v1h-33zM291,159h146v1h-146zM69,160h33v1h-33zM292,160h146v1h-146zM69,161h33v1h-33zM293,161h145v1h-145zM69,162h33v1h-33zM294,162h145v1h-145zM69,163h33v1h-33zM294,163h145v1h-145zM69,164h33v1h-33zM295,164h145v1h-145zM69,165h33v1h-33zM296,165h144v1h-144zM69,166h33v1h-33zM297,166h144v1h-144zM69,167h33v1h-33zM298,167h143v1h-143zM69,168h33v1h-33zM298,168h143v1h-143zM69,169h33v1h-33zM299,169h143v1h-143zM69,170h33v1h-33zM300,170h142v1h-142zM69,171h33v1h-33zM302,171h140v1h-140zM69,172h33v1h-33zM303,172h139v1h-139zM69,173h33v1h-33zM304,173h139v1h-139zM69,174h33v1h-33zM305,174h138v1h-138zM69,175h33v1h-33zM306,175h137v1h-137zM69,176h33v1h-33zM308,176h135v1h-135zM69,177h33v1h-33zM309,177h134v1h-134zM69,178h33v1h-33zM311,178h132v1h-132zM69,179h33v1h-33zM313,179h130v1h-130zM69,180h33v1h-33zM314,180h129v1h-129zM69,181h33v1h-33zM316,181h127v1h-127zM69,182h33v1h-33zM319,182h124v1h-124zM69,183h33v1h-33zM321,183h122v1h-122zM69,184h33v1h-33zM324,184h119v1h-119zM69,185h33v1h-33zM328,185h115v1h-115zM69,186h33v1h-33zM334,186h109v1h-109zM69,187h33v1h-33zM410,187h33v1h-33zM69,188h33v1h-33zM410,188h33v1h-33zM69,189h33v1h-33zM410,189h33v1h-33zM69,190h33v1h-33zM410,190h33v1h-33zM69,191h33v1h-33zM410,191h33v1h-33zM69,192h33v1h-33zM410,192h33v1h-33zM69,193h33v1h-33zM410,193h33v1h-33zM69,194h33v1h-33zM410,194h33v1h-33zM69,195h33v1h-33zM410,195h33v1h-33zM69,196h33v1h-33zM410,196h33v1h-33zM69,197h33v1h-33zM410,197h33v1h-33zM69,198h33v1h-33zM410,198h33v1h-33zM69,199h33v1h-33zM410,199h33v1h-33zM69,200h33v1h-33zM410,200h33v1h-33zM69,201h33v1h-33zM410,201h33v1h-33zM69,202h33v1h-33zM410,202h33v1h-33zM69,203h33v1h-33zM410,203h33v1h-33zM69,204h33v1h-33zM410,204h33v1h-33zM69,205h33v1h-33zM410,205h33v1h-33zM69,206h33v1h-33zM410,206h33v1h-33zM69,207h33v1h-33zM410,207h33v1h-33zM69,208h33v1h-33zM410,208h33v1h-33zM69,209h33v1h-33zM410,209h33v1h-33zM69,210h33v1h-33zM410,210h33v1h-33zM69,211h33v1h-33zM410,211h33v1h-33zM69,212h33v1h-33zM410,212h33v1h-33zM69,213h33v1h-33zM410,213h33v1h-33zM69,214h33v1h-33zM410,214h33v1h-33zM69,215h33v1h-33zM410,215h33v1h-33zM69,216h33v1h-33zM410,216h33v1h-33zM69,217h33v1h-33zM410,217h33v1h-33zM69,218h33v1h-33zM410,218h33v1h-33zM69,219h33v1h-33zM410,219h33v1h-33zM69,220h33v1h-33zM410,220h33v1h-33zM69,221h33v1h-33zM410,221h33v1h-33zM69,222h33v1h-33zM410,222h33v1h-33zM69,223h33v1h-33zM410,223h33v1h-33zM69,224h33v1h-33zM410,224h33v1h-33zM69,225h33v1h-33zM410,225h33v1h-33zM69,226h33v1h-33zM410,226h33v1h-33zM69,227h33v1h-33zM410,227h33v1h-33zM69,228h33v1h-33zM410,228h33v1h-33zM69,229h33v1h-33zM199,229h114v1h-114zM410,229h33v1h-33zM69,230h33v1h-33zM196,230h120v1h-120zM410,230h33v1h-33zM69,231h33v1h-33zM194,231h124v1h-124zM410,231h33v1h-33zM69,232h33v1h-33zM193,232h126v1h-126zM410,232h33v1h-33zM69,233h33v1h-33zM191,233h130v1h-130zM410,233h33v1h-33zM69,234h33v1h-33zM190,234h132v1h-132zM410,234h33v1h-33zM69,235h33v1h-33zM190,235h132v1h-132zM410,235h33v1h-33zM69,236h33v1h-33zM189,236h134v1h-134zM410,236h33v1h-33zM69,237h33v1h-33zM188,237h136v1h-136zM410,237h33v1h-33zM69,238h33v1h-33zM188,238h136v1h-136zM410,238h33v1h-33zM69,239h33v1h-33zM187,239h138v1h-138zM410,239h33v1h-33zM69,240h33v1h-33zM187,240h138v1h-138zM410,240h33v1h-33zM69,241h33v1h-33zM187,241h138v1h-138zM410,241h33v1h-33zM69,242h33v1h-33zM187,242h138v1h-138zM410,242h33v1h-33zM69,243h33v1h-33zM186,243h140v1h-140zM410,243h33v1h-33zM69,244h33v1h-33zM186,244h140v1h-140zM410,244h33v1h-33zM69,245h33v1h-33zM186,245h140v1h-140zM410,245h33v1h-33zM69,246h33v1h-33zM186,246h140v1h-140zM410,246h33v1h-33zM69,247h33v1h-33zM186,247h140v1h-140zM410,247h33v1h-33zM69,248h33v1h-33zM186,248h140v1h-140zM410,248h33v1h-33zM69,249h33v1h-33zM186,249h140v1h-140zM410,249h33v1h-33zM69,250h33v1h-33zM186,250h140v1h-140zM410,250h33v1h-33zM69,251h33v1h-33zM186,251h140v1h-140zM410,251h33v1h-33zM69,252h33v1h-33zM186,252h140v1h-140zM410,252h33v1h-33zM69,253h33v1h-33zM186,253h140v1h-140zM410,253h33v1h-33zM69,254h33v1h-33zM186,254h140v1h-140zM410,254h33v1h-33zM69,255h33v1h-33zM186,255h140v1h-140zM410,255h33v1h-33zM69,256h33v1h-33zM186,256h140v1h-140zM410,256h33v1h-33zM69,257h33v1h-33zM186,257h140v1h-140zM410,257h33v1h-33zM69,258h33v1h-33zM186,258h140v1h-140zM410,258h33v1h-33zM69,259h33v1h-33zM186,259h140v1h-140zM410,259h33v1h-33zM69,260h33v1h-33zM186,260h140v1h-140zM410,260h33v1h-33zM69,261h33v1h-33zM186,261h140v1h-140zM410,261h33v1h-33zM69,262h33v1h-33zM186,262h33v1h-33zM240,262h32v1h-32zM293,262h33v1h-33zM410,262h33v1h-33zM69,263h33v1h-33zM186,263h33v1h-33zM240,263h32v1h-32zM293,263h33v1h-33zM410,263h33v1h-33zM69,264h33v1h-33zM186,264h33v1h-33zM240,264h32v1h-32zM293,264h33v1h-33zM410,264h33v1h-33zM69,265h33v1h-33zM186,265h33v1h-33zM240,265h32v1h-32zM293,265h33v1h-33zM410,265h33v1h-33zM69,266h33v1h-33zM186,266h33v1h-33zM240,266h32v1h-32zM293,266h33v1h-33zM410,266h33v1h-33zM69,267h33v1h-33zM186,267h33v1h-33zM240,267h32v1h-32zM293,267h33v1h-33zM410,267h33v1h-33zM69,268h33v1h-33zM186,268h33v1h-33zM240,268h32v1h-32zM293,268h33v1h-33zM410,268h33v1h-33zM69,269h33v1h-33zM187,269h32v1h-32zM240,269h32v1h-32zM293,269h32v1h-32zM410,269h33v1h-33zM69,270h33v1h-33zM187,270h32v1h-32zM240,270h32v1h-32zM293,270h32v1h-32zM410,270h33v1h-33zM69,271h33v1h-33zM187,271h31v1h-31zM240,271h32v1h-32zM294,271h31v1h-31zM410,271h33v1h-33zM69,272h33v1h-33zM187,272h31v1h-31zM240,272h32v1h-32zM294,272h31v1h-31zM410,272h33v1h-33zM69,273h33v1h-33zM188,273h30v1h-30zM240,273h32v1h-32zM294,273h30v1h-30zM410,273h33v1h-33zM69,274h33v1h-33zM188,274h29v1h-29zM240,274h32v1h-32zM295,274h29v1h-29zM410,274h33v1h-33zM69,275h33v1h-33zM189,275h27v1h-27zM240,275h32v1h-32zM296,275h27v1h-27zM410,275h33v1h-33zM69,276h33v1h-33zM190,276h26v1h-26zM240,276h32v1h-32zM296,276h26v1h-26zM410,276h33v1h-33zM69,277h33v1h-33zM190,277h25v1h-25zM240,277h32v1h-32zM297,277h25v1h-25zM410,277h33v1h-33zM69,278h33v1h-33zM191,278h23v1h-23zM240,278h32v1h-32zM298,278h23v1h-23zM410,278h33v1h-33zM69,279h33v1h-33zM193,279h20v1h-20zM240,279h32v1h-32zM299,279h20v1h-20zM410,279h33v1h-33zM69,280h33v1h-33zM194,280h17v1h-17zM240,280h32v1h-32zM301,280h17v1h-17zM410,280h33v1h-33zM69,281h33v1h-33zM196,281h14v1h-14zM240,281h32v1h-32zM303,281h13v1h-13zM410,281h33v1h-33zM69,282h33v1h-33zM199,282h8v1h-8zM240,282h32v1h-32zM305,282h8v1h-8zM410,282h33v1h-33zM69,283h33v1h-33zM240,283h32v1h-32zM410,283h33v1h-33zM69,284h33v1h-33zM240,284h32v1h-32zM410,284h33v1h-33zM69,285h33v1h-33zM240,285h32v1h-32zM410,285h33v1h-33zM69,286h33v1h-33zM240,286h32v1h-32zM410,286h33v1h-33zM69,287h33v1h-33zM240,287h32v1h-32zM410,287h33v1h-33zM69,288h33v1h-33zM240,288h32v1h-32zM410,288h33v1h-33zM69,289h33v1h-33zM240,289h32v1h-32zM410,289h33v1h-33zM69,290h33v1h-33zM240,290h32v1h-32zM410,290h33v1h-33zM69,291h33v1h-33zM240,291h32v1h-32zM410,291h33v1h-33zM69,292h33v1h-33zM240,292h32v1h-32zM410,292h33v1h-33zM69,293h33v1h-33zM240,293h32v1h-32zM410,293h33v1h-33zM69,294h33v1h-33zM240,294h32v1h-32zM410,294h33v1h-33zM69,295h33v1h-33zM240,295h32v1h-32zM410,295h33v1h-33zM69,296h33v1h-33zM240,296h32v1h-32zM410,296h33v1h-33zM69,297h33v1h-33zM240,297h32v1h-32zM410,297h33v1h-33zM69,298h33v1h-33zM240,298h32v1h-32zM410,298h33v1h-33zM69,299h33v1h-33zM240,299h32v1h-32zM410,299h33v1h-33zM69,300h33v1h-33zM240,300h32v1h-32zM410,300h33v1h-33zM69,301h33v1h-33zM240,301h32v1h-32zM410,301h33v1h-33zM69,302h33v1h-33zM240,302h32v1h-32zM410,302h33v1h-33zM69,303h33v1h-33zM240,303h32v1h-32zM410,303h33v1h-33zM69,304h33v1h-33zM240,304h32v1h-32zM410,304h33v1h-33zM69,305h33v1h-33zM240,305h32v1h-32zM410,305h33v1h-33zM69,306h33v1h-33zM240,306h32v1h-32zM410,306h33v1h-33zM69,307h33v1h-33zM240,307h32v1h-32zM410,307h33v1h-33zM69,308h33v1h-33zM240,308h32v1h-32zM410,308h33v1h-33zM69,309h33v1h-33zM240,309h32v1h-32zM410,309h33v1h-33zM69,310h33v1h-33zM240,310h32v1h-32zM410,310h33v1h-33zM69,311h33v1h-33zM240,311h32v1h-32zM410,311h33v1h-33zM69,312h33v1h-33zM240,312h32v1h-32zM410,312h33v1h-33zM69,313h33v1h-33zM240,313h32v1h-32zM410,313h33v1h-33zM69,314h33v1h-33zM240,314h32v1h-32zM410,314h33v1h-33zM69,315h33v1h-33zM240,315h32v1h-32zM410,315h33v1h-33zM69,316h33v1h-33zM240,316h32v1h-32zM410,316h33v1h-33zM69,317h33v1h-33zM240,317h32v1h-32zM410,317h33v1h-33zM69,318h33v1h-33zM240,318h32v1h-32zM410,318h33v1h-33zM69,319h33v1h-33zM240,319h32v1h-32zM410,319h33v1h-33zM69,320h33v1h-33zM240,320h32v1h-32zM410,320h33v1h-33zM69,321h33v1h-33zM240,321h32v1h-32zM410,321h33v1h-33zM69,322h33v1h-33zM240,322h32v1h-32zM410,322h33v1h-33zM69,323h33v1h-33zM240,323h32v1h-32zM410,323h33v1h-33zM69,324h33v1h-33zM240,324h32v1h-32zM410,324h33v1h-33zM69,325h33v1h-33zM240,325h32v1h-32zM410,325h33v1h-33zM69,326h33v1h-33zM240,326h32v1h-32zM410,326h33v1h-33zM69,327h33v1h-33zM240,327h32v1h-32zM410,327h33v1h-33zM69,328h33v1h-33zM240,328h32v1h-32zM410,328h33v1h-33zM69,329h33v1h-33zM240,329h32v1h-32zM410,329h33v1h-33zM69,330h33v1h-33zM240,330h32v1h-32zM410,330h33v1h-33zM69,331h33v1h-33zM240,331h32v1h-32zM410,331h33v1h-33zM69,332h33v1h-33zM240,332h32v1h-32zM410,332h33v1h-33zM69,333h33v1h-33zM240,333h32v1h-32zM410,333h33v1h-33zM69,334h33v1h-33zM240,334h32v1h-32zM410,334h33v1h-33zM69,335h33v1h-33zM240,335h32v1h-32zM410,335h33v1h-33zM69,336h33v1h-33zM229,336h54v1h-54zM410,336h33v1h-33zM69,337h33v1h-33zM227,337h58v1h-58zM410,337h33v1h-33zM69,338h33v1h-33zM225,338h62v1h-62zM410,338h33v1h-33zM69,339h33v1h-33zM224,339h64v1h-64zM410,339h33v1h-33zM69,340h33v1h-33zM223,340h66v1h-66zM410,340h33v1h-33zM69,341h33v1h-33zM222,341h68v1h-68zM410,341h33v1h-33zM69,342h33v1h-33zM221,342h70v1h-70zM410,342h33v1h-33zM69,343h33v1h-33zM221,343h70v1h-70zM410,343h33v1h-33zM69,344h33v1h-33zM220,344h72v1h-72zM410,344h33v1h-33zM69,345h33v1h-33zM220,345h72v1h-72zM410,345h33v1h-33zM69,346h33v1h-33zM219,346h74v1h-74zM410,346h33v1h-33zM69,347h33v1h-33zM219,347h74v1h-74zM410,347h33v1h-33zM69,348h33v1h-33zM219,348h74v1h-74zM410,348h33v1h-33zM69,349h33v1h-33zM218,349h75v1h-75zM410,349h33v1h-33zM69,350h33v1h-33zM218,350h76v1h-76zM410,350h33v1h-33zM69,351h33v1h-33zM218,351h76v1h-76zM410,351h33v1h-33zM69,352h33v1h-33zM218,352h76v1h-76zM410,352h33v1h-33zM69,353h33v1h-33zM218,353h76v1h-76zM410,353h33v1h-33zM69,354h33v1h-33zM218,354h75v1h-75zM410,354h33v1h-33zM69,355h33v1h-33zM219,355h74v1h-74zM410,355h33v1h-33zM69,356h33v1h-33zM219,356h74v1h-74zM410,356h33v1h-33zM69,357h33v1h-33zM219,357h74v1h-74zM410,357h33v1h-33zM69,358h33v1h-33zM220,358h72v1h-72zM410,358h33v1h-33zM69,359h33v1h-33zM220,359h72v1h-72zM410,359h33v1h-33zM69,360h33v1h-33zM221,360h70v1h-70zM410,360h33v1h-33zM69,361h33v1h-33zM221,361h70v1h-70zM410,361h33v1h-33zM69,362h33v1h-33zM222,362h68v1h-68zM410,362h33v1h-33zM69,363h33v1h-33zM223,363h66v1h-66zM410,363h33v1h-33zM69,364h33v1h-33zM224,364h64v1h-64zM410,364h33v1h-33zM69,365h33v1h-33zM225,365h62v1h-62zM410,365h33v1h-33zM69,366h33v1h-33zM227,366h58v1h-58zM410,366h33v1h-33zM69,367h33v1h-33zM229,367h54v1h-54zM410,367h33v1h-33zM69,368h33v1h-33zM410,368h33v1h-33zM69,369h33v1h-33zM410,369h33v1h-33zM69,370h33v1h-33zM410,370h33v1h-33zM69,371h33v1h-33zM410,371h33v1h-33zM69,372h33v1h-33zM410,372h33v1h-33zM69,373h33v1h-33zM410,373h33v1h-33zM69,374h33v1h-33zM410,374h33v1h-33zM69,375h33v1h-33zM410,375h33v1h-33zM69,376h33v1h-33zM410,376h33v1h-33zM69,377h33v1h-33zM410,377h33v1h-33zM69,378h33v1h-33zM410,378h33v1h-33zM69,379h33v1h-33zM410,379h33v1h-33zM69,380h33v1h-33zM410,380h33v1h-33zM69,381h33v1h-33zM410,381h33v1h-33zM69,382h33v1h-33zM410,382h33v1h-33zM69,383h33v1h-33zM410,383h33v1h-33zM69,384h33v1h-33zM410,384h33v1h-33zM69,385h33v1h-33zM410,385h33v1h-33zM69,386h33v1h-33zM410,386h33v1h-33zM69,387h33v1h-33zM410,387h33v1h-33zM69,388h33v1h-33zM410,388h33v1h-33zM69,389h33v1h-33zM410,389h33v1h-33zM69,390h33v1h-33zM410,390h33v1h-33zM69,391h33v1h-33zM410,391h33v1h-33zM69,392h33v1h-33zM410,392h33v1h-33zM69,393h33v1h-33zM410,393h33v1h-33zM69,394h33v1h-33zM410,394h33v1h-33zM69,395h33v1h-33zM410,395h33v1h-33zM69,396h33v1h-33zM410,396h33v1h-33zM69,397h33v1h-33zM410,397h33v1h-33zM69,398h33v1h-33zM410,398h33v1h-33zM69,399h33v1h-33zM410,399h33v1h-33zM69,400h33v1h-33zM410,400h33v1h-33zM69,401h33v1h-33zM410,401h33v1h-33zM69,402h33v1h-33zM410,402h33v1h-33zM69,403h33v1h-33zM410,403h33v1h-33zM69,404h33v1h-33zM410,404h33v1h-33zM69,405h33v1h-33zM410,405h33v1h-33zM69,406h33v1h-33zM410,406h33v1h-33zM69,407h33v1h-33zM410,407h33v1h-33zM69,408h33v1h-33zM410,408h33v1h-33zM69,409h33v1h-33zM410,409h33v1h-33zM69,410h33v1h-33zM410,410h33v1h-33zM69,411h33v1h-33zM410,411h33v1h-33zM69,412h33v1h-33zM410,412h33v1h-33zM69,413h33v1h-33zM410,413h33v1h-33zM69,414h33v1h-33zM410,414h33v1h-33zM69,415h33v1h-33zM410,415h33v1h-33zM69,416h33v1h-33zM410,416h33v1h-33zM69,417h33v1h-33zM410,417h33v1h-33zM69,418h33v1h-33zM410,418h33v1h-33zM69,419h33v1h-33zM410,419h33v1h-33zM69,420h33v1h-33zM410,420h33v1h-33zM69,421h33v1h-33zM410,421h33v1h-33zM69,422h33v1h-33zM410,422h33v1h-33zM69,423h33v1h-33zM410,423h33v1h-33zM69,424h33v1h-33zM410,424h33v1h-33zM69,425h33v1h-33zM410,425h33v1h-33zM69,426h33v1h-33zM410,426h33v1h-33zM69,427h33v1h-33zM410,427h33v1h-33zM69,428h33v1h-33zM410,428h33v1h-33zM69,429h33v1h-33zM410,429h33v1h-33zM69,430h33v1h-33zM410,430h33v1h-33zM69,431h33v1h-33zM410,431h33v1h-33zM69,432h33v1h-33zM410,432h33v1h-33zM69,433h34v1h-34zM409,433h34v1h-34zM70,434h33v1h-33zM409,434h33v1h-33zM70,435h33v1h-33zM409,435h33v1h-33zM70,436h34v1h-34zM408,436h34v1h-34zM70,437h34v1h-34zM408,437h34v1h-34zM70,438h35v1h-35zM407,438h35v1h-35zM70,439h35v1h-35zM407,439h35v1h-35zM71,440h35v1h-35zM406,440h35v1h-35zM71,441h35v1h-35zM406,441h35v1h-35zM71,442h36v1h-36zM405,442h36v1h-36zM71,443h37v1h-37zM404,443h37v1h-37zM72,444h37v1h-37zM403,444h37v1h-37zM72,445h38v1h-38zM402,445h38v1h-38zM72,446h39v1h-39zM401,446h39v1h-39zM73,447h39v1h-39zM400,447h39v1h-39zM73,448h40v1h-40zM399,448h40v1h-40zM74,449h41v1h-41zM397,449h41v1h-41zM74,450h43v1h-43zM395,450h43v1h-43zM75,451h44v1h-44zM393,451h44v1h-44zM75,452h48v1h-48zM389,452h48v1h-48zM75,453h362v1h-362zM76,454h360v1h-360zM77,455h358v1h-358zM77,456h358v1h-358zM78,457h356v1h-356zM78,458h356v1h-356zM79,459h354v1h-354zM80,460h352v1h-352zM80,461h352v1h-352zM81,462h350v1h-350zM82,463h348v1h-348zM83,464h346v1h-346zM84,465h344v1h-344zM85,466h342v1h-342zM85,467h342v1h-342zM86,468h340v1h-340zM87,469h338v1h-338zM89,470h334v1h-334zM90,471h332v1h-332zM91,472h330v1h-330zM92,473h328v1h-328zM94,474h325v1h-325zM95,475h322v1h-322zM96,476h320v1h-320zM98,477h316v1h-316zM100,478h312v1h-312zM102,479h308v1h-308zM104,480h304v1h-304zM106,481h300v1h-300zM109,482h294v1h-294zM112,483h288v1h-288zM116,484h280v1h-280zM124,485h265v1h-265z"/></svg>