<?xml version="1.0" encoding="UTF-8"?>
<svg xmlns="http://www.w3.org/2000/svg" viewBox="0 0 512 512" width="512" height="512"><path fill="#000" d="M219,0h74v1h-74zM219,1h74v1h-74zM219,2h74v1h-74zM213,3h86v1h-86zM208,4h96v1h-96zM203,5h106v1h-106zM199,6h114v1h-114zM195,7h122v1h-122zM191,8h130v1h-130zM188,9h137v1h-137zM184,10h144v1h-144zM181,11h150v1h-150zM178,12h156v1h-156zM175,13h162v1h-162zM172,14h168v1h-168zM169,15h173v1h-173zM167,16h178v1h-178zM164,17h184v1h-184zM162,18h188v1h-188zM159,19h193v1h-193zM157,20h96v1h-96zM259,20h96v1h-96zM155,21h79v1h-79zM277,21h80v1h-80zM153,22h74v1h-74zM285,22h74v1h-74zM151,23h69v1h-69zM293,23h68v1h-68zM148,24h65v1h-65zM298,24h66v1h-66zM146,25h63v1h-63zM303,25h63v1h-63zM144,26h61v1h-61zM307,26h61v1h-61zM142,27h59v1h-59zM312,27h58v1h-58zM141,28h55v1h-55zM315,28h56v1h-56zM139,29h54v1h-54zM318,29h55v1h-55zM137,30h53v1h-53zM322,30h53v1h-53zM135,31h52v1h-52zM325,31h52v1h-52zM133,32h51v1h-51zM326,32h53v1h-53zM131,33h50v1h-50zM326,33h55v1h-55zM130,34h48v1h-48zM326,34h56v1h-56zM128,35h47v1h-47zM326,35h58v1h-58zM126,36h47v1h-47zM326,36h60v1h-60zM125,37h45v1h-45zM326,37h61v1h-61zM123,38h45v1h-45zM326,38h63v1h-63zM121,39h45v1h-45zM325,39h65v1h-65zM120,40h43v1h-43zM325,40h67v1h-67zM118,41h43v1h-43zM325,41h21v1h-21zM351,41h42v1h-42zM117,42h42v1h-42zM325,42h21v1h-21zM353,42h42v1h-42zM115,43h41v1h-41zM325,43h21v1h-21zM355,43h42v1h-42zM114,44h41v1h-41zM324,44h21v1h-21zM357,44h41v1h-41zM112,45h41v1h-41zM324,45h21v1h-21zM359,45h41v1h-41zM111,46h40v1h-40zM324,46h21v1h-21zM361,46h40v1h-40zM110,47h39v1h-39zM324,47h21v1h-21zM363,47h39v1h-39zM108,48h39v1h-39zM324,48h21v1h-21zM365,48h39v1h-39zM107,49h38v1h-38zM324,49h21v1h-21zM367,49h38v1h-38zM105,50h38v1h-38zM324,50h21v1h-21zM368,50h38v1h-38zM104,51h38v1h-38zM324,51h21v1h-21zM370,51h38v1h-38zM103,52h37v1h-37zM324,52h21v1h-21zM372,52h37v1h-37zM102,53h36v1h-36zM324,53h21v1h-21zM374,53h36v1h-36zM100,54h36v1h-36zM324,54h22v1h-22zM375,54h37v1h-37zM99,55h36v1h-36zM325,55h21v1h-21zM377,55h36v1h-36zM98,56h35v1h-35zM325,56h21v1h-21zM379,56h35v1h-35zM97,57h35v1h-35zM325,57h21v1h-21zM380,57h36v1h-36zM95,58h35v1h-35zM325,58h21v1h-21zM382,58h35v1h-35zM94,59h35v1h-35zM325,59h22v1h-22zM383,59h35v1h-35zM93,60h34v1h-34zM325,60h22v1h-22zM385,60h34v1h-34zM92,61h34v1h-34zM326,61h21v1h-21zM386,61h34v1h-34zM91,62h33v1h-33zM326,62h22v1h-22zM388,62h33v1h-33zM89,63h34v1h-34zM326,63h22v1h-22zM389,63h33v1h-33zM88,64h33v1h-33zM327,64h21v1h-21zM391,64h33v1h-33zM87,65h33v1h-33zM327,65h22v1h-22zM392,65h33v1h-33zM86,66h33v1h-33zM327,66h22v1h-22zM393,66h33v1h-33zM85,67h32v1h-32zM327,67h22v1h-22zM395,67h32v1h-32zM84,68h32v1h-32zM328,68h22v1h-22zM396,68h32v1h-32zM83,69h32v1h-32zM328,69h22v1h-22zM397,69h32v1h-32zM82,70h32v1h-32zM328,70h23v1h-23zM399,70h31v1h-31zM81,71h31v1h-31zM329,71h22v1h-22zM400,71h31v1h-31zM80,72h31v1h-31zM329,72h23v1h-23zM401,72h31v1h-31zM79,73h31v1h-31zM329,73h23v1h-23zM402,73h31v1h-31zM77,74h32v1h-32zM330,74h22v1h-22zM404,74h30v1h-30zM76,75h31v1h-31zM330,75h23v1h-23zM405,75h30v1h-30zM75,76h32v1h-32zM331,76h22v1h-22zM406,76h30v1h-30zM74,77h33v1h-33zM331,77h23v1h-23zM407,77h30v1h-30zM74,78h33v1h-33zM332,78h22v1h-22zM408,78h30v1h-30zM73,79h34v1h-34zM332,79h23v1h-23zM410,79h29v1h-29zM72,80h36v1h-36zM332,80h23v1h-23zM411,80h29v1h-29zM71,81h38v1h-38zM333,81h23v1h-23zM412,81h29v1h-29zM70,82h40v1h-40zM333,82h23v1h-23zM413,82h29v1h-29zM69,83h42v1h-42zM334,83h23v1h-23zM414,83h29v1h-29zM68,84h44v1h-44zM334,84h23v1h-23zM415,84h29v1h-29zM67,85h45v1h-45zM335,85h23v1h-23zM416,85h29v1h-29zM66,86h47v1h-47zM335,86h23v1h-23zM417,86h29v1h-29zM65,87h48v1h-48zM336,87h23v1h-23zM418,87h29v1h-29zM64,88h50v1h-50zM336,88h23v1h-23zM419,88h29v1h-29zM63,89h52v1h-52zM337,89h23v1h-23zM420,89h28v1h-28zM63,90h52v1h-52zM337,90h23v1h-23zM421,90h28v1h-28zM62,91h53v1h-53zM338,91h23v1h-23zM422,91h28v1h-28zM61,92h55v1h-55zM338,92h23v1h-23zM423,92h28v1h-28zM60,93h56v1h-56zM339,93h23v1h-23zM424,93h28v1h-28zM59,94h57v1h-57zM339,94h23v1h-23zM425,94h28v1h-28zM58,95h28v1h-28zM93,95h23v1h-23zM340,95h23v1h-23zM426,95h28v1h-28zM57,96h28v1h-28zM94,96h22v1h-22zM340,96h23v1h-23zM427,96h28v1h-28zM57,97h27v1h-27zM95,97h22v1h-22zM341,97h22v1h-22zM428,97h27v1h-27zM56,98h27v1h-27zM96,98h21v1h-21zM341,98h23v1h-23zM402,98h3v1h-3zM429,98h27v1h-27zM55,99h27v1h-27zM96,99h21v1h-21zM342,99h22v1h-22zM399,99h9v1h-9zM430,99h27v1h-27zM54,100h27v1h-27zM96,100h21v1h-21zM342,100h23v1h-23zM397,100h13v1h-13zM431,100h27v1h-27zM54,101h26v1h-26zM96,101h21v1h-21zM343,101h22v1h-22zM396,101h15v1h-15zM432,101h26v1h-26zM53,102h27v1h-27zM96,102h21v1h-21zM343,102h23v1h-23zM395,102h17v1h-17zM433,102h26v1h-26zM52,103h27v1h-27zM96,103h21v1h-21zM343,103h23v1h-23zM395,103h17v1h-17zM433,103h27v1h-27zM51,104h27v1h-27zM96,104h21v1h-21zM344,104h22v1h-22zM394,104h19v1h-19zM434,104h27v1h-27zM50,105h27v1h-27zM95,105h21v1h-21zM344,105h23v1h-23zM394,105h19v1h-19zM435,105h26v1h-26zM50,106h26v1h-26zM95,106h21v1h-21zM345,106h22v1h-22zM393,106h20v1h-20zM436,106h26v1h-26zM49,107h26v1h-26zM95,107h21v1h-21zM345,107h22v1h-22zM393,107h21v1h-21zM437,107h26v1h-26zM48,108h26v1h-26zM94,108h22v1h-22zM346,108h21v1h-21zM393,108h21v1h-21zM438,108h26v1h-26zM48,109h26v1h-26zM94,109h22v1h-22zM346,109h22v1h-22zM393,109h21v1h-21zM438,109h26v1h-26zM47,110h26v1h-26zM94,110h22v1h-22zM346,110h22v1h-22zM393,110h20v1h-20zM439,110h26v1h-26zM46,111h26v1h-26zM93,111h22v1h-22zM347,111h21v1h-21zM394,111h19v1h-19zM440,111h26v1h-26zM45,112h26v1h-26zM93,112h22v1h-22zM347,112h22v1h-22zM394,112h19v1h-19zM441,112h26v1h-26zM45,113h26v1h-26zM93,113h22v1h-22zM347,113h22v1h-22zM394,113h18v1h-18zM442,113h25v1h-25zM44,114h26v1h-26zM92,114h22v1h-22zM348,114h21v1h-21zM395,114h17v1h-17zM442,114h26v1h-26zM43,115h26v1h-26zM92,115h22v1h-22zM348,115h21v1h-21zM396,115h15v1h-15zM443,115h26v1h-26zM43,116h25v1h-25zM91,116h23v1h-23zM348,116h21v1h-21zM397,116h13v1h-13zM444,116h25v1h-25zM42,117h25v1h-25zM91,117h22v1h-22zM349,117h21v1h-21zM398,117h10v1h-10zM445,117h25v1h-25zM41,118h26v1h-26zM90,118h23v1h-23zM349,118h21v1h-21zM401,118h5v1h-5zM445,118h25v1h-25zM41,119h25v1h-25zM90,119h23v1h-23zM349,119h21v1h-21zM446,119h25v1h-25zM40,120h25v1h-25zM89,120h23v1h-23zM349,120h21v1h-21zM447,120h25v1h-25zM39,121h26v1h-26zM89,121h23v1h-23zM349,121h21v1h-21zM448,121h24v1h-24zM39,122h25v1h-25zM88,122h23v1h-23zM349,122h21v1h-21zM448,122h25v1h-25zM38,123h25v1h-25zM87,123h24v1h-24zM349,123h21v1h-21zM449,123h25v1h-25zM38,124h24v1h-24zM87,124h23v1h-23zM349,124h21v1h-21zM450,124h24v1h-24zM37,125h25v1h-25zM86,125h24v1h-24zM349,125h21v1h-21zM450,125h25v1h-25zM36,126h25v1h-25zM86,126h23v1h-23zM349,126h21v1h-21zM451,126h25v1h-25zM36,127h24v1h-24zM85,127h24v1h-24zM349,127h21v1h-21zM452,127h24v1h-24zM35,128h25v1h-25zM84,128h24v1h-24zM349,128h21v1h-21zM452,128h25v1h-25zM35,129h24v1h-24zM84,129h24v1h-24zM349,129h21v1h-21zM426,129h5v1h-5zM453,129h24v1h-24zM34,130h24v1h-24zM83,130h24v1h-24zM348,130h22v1h-22zM424,130h10v1h-10zM454,130h24v1h-24zM33,131h25v1h-25zM83,131h24v1h-24zM348,131h22v1h-22zM422,131h13v1h-13zM454,131h25v1h-25zM33,132h24v1h-24zM82,132h24v1h-24zM347,132h23v1h-23zM421,132h15v1h-15zM455,132h24v1h-24zM32,133h25v1h-25zM82,133h24v1h-24zM346,133h23v1h-23zM420,133h17v1h-17zM456,133h24v1h-24zM32,134h24v1h-24zM81,134h24v1h-24zM345,134h24v1h-24zM420,134h18v1h-18zM456,134h24v1h-24zM31,135h24v1h-24zM80,135h24v1h-24zM343,135h26v1h-26zM419,135h19v1h-19zM457,135h24v1h-24zM31,136h24v1h-24zM80,136h24v1h-24zM341,136h27v1h-27zM419,136h20v1h-20zM457,136h24v1h-24zM30,137h24v1h-24zM79,137h24v1h-24zM338,137h30v1h-30zM419,137h21v1h-21zM458,137h24v1h-24zM30,138h23v1h-23zM79,138h24v1h-24zM334,138h34v1h-34zM419,138h21v1h-21zM459,138h23v1h-23zM29,139h24v1h-24zM78,139h24v1h-24zM327,139h40v1h-40zM419,139h22v1h-22zM459,139h24v1h-24zM28,140h24v1h-24zM77,140h24v1h-24zM296,140h71v1h-71zM419,140h22v1h-22zM460,140h23v1h-23zM28,141h24v1h-24zM77,141h24v1h-24zM283,141h83v1h-83zM419,141h23v1h-23zM461,141h23v1h-23zM27,142h24v1h-24zM76,142h24v1h-24zM278,142h88v1h-88zM419,142h24v1h-24zM461,142h24v1h-24zM27,143h24v1h-24zM76,143h24v1h-24zM273,143h92v1h-92zM419,143h24v1h-24zM462,143h23v1h-23zM26,144h24v1h-24zM75,144h24v1h-24zM269,144h95v1h-95zM420,144h24v1h-24zM462,144h24v1h-24zM26,145h23v1h-23zM75,145h24v1h-24zM266,145h97v1h-97zM420,145h24v1h-24zM463,145h23v1h-23zM25,146h24v1h-24zM74,146h24v1h-24zM263,146h100v1h-100zM421,146h24v1h-24zM463,146h24v1h-24zM25,147h23v1h-23zM74,147h23v1h-23zM260,147h102v1h-102zM421,147h25v1h-25zM464,147h23v1h-23zM24,148h24v1h-24zM73,148h24v1h-24zM258,148h103v1h-103zM422,148h24v1h-24zM464,148h23v1h-23zM24,149h23v1h-23zM73,149h23v1h-23zM255,149h104v1h-104zM423,149h24v1h-24zM465,149h23v1h-23zM24,150h23v1h-23zM72,150h24v1h-24zM253,150h105v1h-105zM423,150h24v1h-24zM465,150h23v1h-23zM23,151h23v1h-23zM72,151h23v1h-23zM251,151h106v1h-106zM424,151h24v1h-24zM466,151h23v1h-23zM23,152h23v1h-23zM71,152h24v1h-24zM249,152h106v1h-106zM424,152h24v1h-24zM466,152h23v1h-23zM22,153h23v1h-23zM71,153h23v1h-23zM248,153h106v1h-106zM425,153h24v1h-24zM467,153h23v1h-23zM22,154h23v1h-23zM70,154h23v1h-23zM246,154h106v1h-106zM426,154h23v1h-23zM467,154h23v1h-23zM21,155h23v1h-23zM70,155h23v1h-23zM244,155h105v1h-105zM426,155h24v1h-24zM468,155h23v1h-23zM21,156h23v1h-23zM69,156h23v1h-23zM242,156h105v1h-105zM427,156h23v1h-23zM468,156h23v1h-23zM20,157h23v1h-23zM69,157h23v1h-23zM241,157h103v1h-103zM427,157h24v1h-24zM469,157h23v1h-23zM20,158h23v1h-23zM68,158h23v1h-23zM239,158h100v1h-100zM428,158h23v1h-23zM469,158h23v1h-23zM19,159h23v1h-23zM68,159h23v1h-23zM238,159h96v1h-96zM429,159h23v1h-23zM470,159h23v1h-23zM19,160h23v1h-23zM67,160h23v1h-23zM237,160h88v1h-88zM429,160h23v1h-23zM470,160h23v1h-23zM19,161h22v1h-22zM67,161h23v1h-23zM235,161h57v1h-57zM430,161h23v1h-23zM471,161h22v1h-22zM18,162h23v1h-23zM67,162h22v1h-22zM234,162h50v1h-50zM430,162h23v1h-23zM471,162h23v1h-23zM18,163h23v1h-23zM66,163h23v1h-23zM158,163h14v1h-14zM233,163h45v1h-45zM431,163h23v1h-23zM472,163h22v1h-22zM17,164h23v1h-23zM66,164h22v1h-22zM154,164h23v1h-23zM231,164h44v1h-44zM431,164h23v1h-23zM472,164h23v1h-23zM17,165h23v1h-23zM65,165h23v1h-23zM151,165h29v1h-29zM230,165h41v1h-41zM432,165h23v1h-23zM472,165h23v1h-23zM17,166h22v1h-22zM65,166h23v1h-23zM149,166h34v1h-34zM229,166h39v1h-39zM432,166h23v1h-23zM473,166h22v1h-22zM16,167h23v1h-23zM65,167h22v1h-22zM147,167h39v1h-39zM228,167h38v1h-38zM433,167h22v1h-22zM473,167h23v1h-23zM16,168h22v1h-22zM64,168h23v1h-23zM146,168h42v1h-42zM227,168h37v1h-37zM433,168h23v1h-23zM474,168h22v1h-22zM15,169h23v1h-23zM64,169h22v1h-22zM144,169h47v1h-47zM226,169h35v1h-35zM433,169h23v1h-23zM474,169h22v1h-22zM15,170h22v1h-22zM64,170h22v1h-22zM143,170h50v1h-50zM225,170h34v1h-34zM434,170h22v1h-22zM475,170h22v1h-22zM15,171h22v1h-22zM63,171h22v1h-22zM141,171h54v1h-54zM223,171h35v1h-35zM434,171h23v1h-23zM475,171h22v1h-22zM14,172h23v1h-23zM63,172h22v1h-22zM140,172h58v1h-58zM222,172h34v1h-34zM435,172h22v1h-22zM476,172h22v1h-22zM14,173h22v1h-22zM63,173h22v1h-22zM139,173h61v1h-61zM221,173h33v1h-33zM435,173h23v1h-23zM476,173h22v1h-22zM14,174h22v1h-22zM62,174h22v1h-22zM138,174h64v1h-64zM220,174h33v1h-33zM436,174h22v1h-22zM476,174h22v1h-22zM13,175h23v1h-23zM62,175h22v1h-22zM137,175h68v1h-68zM219,175h32v1h-32zM436,175h22v1h-22zM477,175h22v1h-22zM13,176h22v1h-22zM62,176h21v1h-21zM136,176h72v1h-72zM218,176h32v1h-32zM437,176h22v1h-22zM477,176h22v1h-22zM13,177h22v1h-22zM61,177h22v1h-22zM135,177h113v1h-113zM437,177h22v1h-22zM477,177h22v1h-22zM12,178h22v1h-22zM61,178h22v1h-22zM135,178h112v1h-112zM437,178h23v1h-23zM478,178h22v1h-22zM12,179h22v1h-22zM61,179h21v1h-21zM134,179h112v1h-112zM438,179h22v1h-22zM478,179h22v1h-22zM12,180h22v1h-22zM61,180h21v1h-21zM133,180h111v1h-111zM438,180h22v1h-22zM478,180h22v1h-22zM11,181h22v1h-22zM60,181h22v1h-22zM133,181h110v1h-110zM439,181h22v1h-22zM479,181h22v1h-22zM11,182h22v1h-22zM60,182h22v1h-22zM132,182h110v1h-110zM439,182h22v1h-22zM479,182h22v1h-22zM11,183h22v1h-22zM60,183h21v1h-21zM131,183h110v1h-110zM439,183h22v1h-22zM479,183h22v1h-22zM10,184h22v1h-22zM60,184h21v1h-21zM131,184h29v1h-29zM172,184h68v1h-68zM440,184h22v1h-22zM480,184h22v1h-22zM10,185h22v1h-22zM60,185h21v1h-21zM130,185h28v1h-28zM175,185h64v1h-64zM440,185h22v1h-22zM480,185h22v1h-22zM10,186h22v1h-22zM59,186h22v1h-22zM130,186h26v1h-26zM178,186h60v1h-60zM440,186h22v1h-22zM480,186h22v1h-22zM10,187h21v1h-21zM59,187h21v1h-21zM129,187h26v1h-26zM180,187h57v1h-57zM441,187h21v1h-21zM481,187h21v1h-21zM9,188h22v1h-22zM59,188h21v1h-21zM129,188h25v1h-25zM182,188h54v1h-54zM441,188h22v1h-22zM481,188h22v1h-22zM9,189h22v1h-22zM59,189h21v1h-21zM128,189h25v1h-25zM185,189h49v1h-49zM442,189h21v1h-21zM481,189h22v1h-22zM9,190h21v1h-21zM59,190h21v1h-21zM128,190h24v1h-24zM187,190h46v1h-46zM442,190h21v1h-21zM482,190h21v1h-21zM8,191h22v1h-22zM59,191h21v1h-21zM128,191h23v1h-23zM189,191h43v1h-43zM442,191h22v1h-22zM482,191h22v1h-22zM8,192h22v1h-22zM59,192h21v1h-21zM127,192h23v1h-23zM192,192h39v1h-39zM443,192h21v1h-21zM482,192h22v1h-22zM8,193h21v1h-21zM59,193h21v1h-21zM127,193h22v1h-22zM194,193h35v1h-35zM443,193h21v1h-21zM483,193h21v1h-21zM8,194h21v1h-21zM59,194h21v1h-21zM127,194h22v1h-22zM197,194h31v1h-31zM443,194h22v1h-22zM483,194h21v1h-21zM7,195h22v1h-22zM59,195h21v1h-21zM126,195h22v1h-22zM199,195h27v1h-27zM443,195h22v1h-22zM483,195h22v1h-22zM7,196h22v1h-22zM59,196h21v1h-21zM126,196h22v1h-22zM202,196h21v1h-21zM444,196h21v1h-21zM483,196h22v1h-22zM7,197h21v1h-21zM59,197h21v1h-21zM126,197h21v1h-21zM207,197h13v1h-13zM444,197h21v1h-21zM484,197h21v1h-21zM7,198h21v1h-21zM59,198h21v1h-21zM126,198h21v1h-21zM444,198h22v1h-22zM484,198h21v1h-21zM6,199h22v1h-22zM59,199h21v1h-21zM125,199h22v1h-22zM445,199h21v1h-21zM484,199h22v1h-22zM6,200h21v1h-21zM59,200h21v1h-21zM125,200h21v1h-21zM445,200h21v1h-21zM484,200h22v1h-22zM6,201h21v1h-21zM59,201h22v1h-22zM125,201h21v1h-21zM445,201h21v1h-21zM485,201h21v1h-21zM6,202h21v1h-21zM60,202h21v1h-21zM125,202h21v1h-21zM445,202h22v1h-22zM485,202h21v1h-21zM5,203h22v1h-22zM60,203h22v1h-22zM125,203h21v1h-21zM446,203h21v1h-21zM485,203h21v1h-21zM5,204h22v1h-22zM60,204h23v1h-23zM125,204h21v1h-21zM446,204h21v1h-21zM486,204h21v1h-21zM5,205h21v1h-21zM60,205h23v1h-23zM125,205h21v1h-21zM446,205h21v1h-21zM486,205h21v1h-21zM5,206h21v1h-21zM61,206h23v1h-23zM125,206h21v1h-21zM447,206h20v1h-20zM486,206h21v1h-21zM5,207h21v1h-21zM61,207h25v1h-25zM125,207h21v1h-21zM447,207h21v1h-21zM486,207h21v1h-21zM4,208h22v1h-22zM61,208h26v1h-26zM125,208h21v1h-21zM447,208h21v1h-21zM486,208h22v1h-22zM4,209h21v1h-21zM62,209h27v1h-27zM125,209h21v1h-21zM447,209h21v1h-21zM487,209h21v1h-21zM4,210h21v1h-21zM62,210h29v1h-29zM125,210h21v1h-21zM447,210h21v1h-21zM487,210h21v1h-21zM4,211h21v1h-21zM63,211h30v1h-30zM125,211h21v1h-21zM447,211h21v1h-21zM487,211h21v1h-21zM4,212h21v1h-21zM63,212h32v1h-32zM125,212h21v1h-21zM448,212h21v1h-21zM487,212h21v1h-21zM3,213h22v1h-22zM64,213h34v1h-34zM125,213h21v1h-21zM448,213h21v1h-21zM487,213h22v1h-22zM3,214h21v1h-21zM64,214h36v1h-36zM125,214h21v1h-21zM448,214h21v1h-21zM488,214h21v1h-21zM3,215h21v1h-21zM65,215h38v1h-38zM125,215h21v1h-21zM448,215h21v1h-21zM488,215h21v1h-21zM3,216h21v1h-21zM66,216h40v1h-40zM125,216h22v1h-22zM448,216h21v1h-21zM488,216h21v1h-21zM3,217h21v1h-21zM66,217h43v1h-43zM126,217h21v1h-21zM449,217h21v1h-21zM488,217h21v1h-21zM3,218h21v1h-21zM67,218h45v1h-45zM126,218h21v1h-21zM449,218h21v1h-21zM488,218h21v1h-21zM0,219h24v1h-24zM68,219h47v1h-47zM126,219h21v1h-21zM449,219h21v1h-21zM489,219h23v1h-23zM0,220h23v1h-23zM69,220h49v1h-49zM126,220h22v1h-22zM449,220h21v1h-21zM489,220h23v1h-23zM0,221h23v1h-23zM70,221h50v1h-50zM126,221h22v1h-22zM449,221h21v1h-21zM489,221h23v1h-23zM0,222h23v1h-23zM71,222h78v1h-78zM274,222h6v1h-6zM450,222h20v1h-20zM489,222h23v1h-23zM0,223h23v1h-23zM72,223h77v1h-77zM268,223h18v1h-18zM450,223h20v1h-20zM489,223h23v1h-23zM0,224h23v1h-23zM74,224h75v1h-75zM264,224h25v1h-25zM450,224h20v1h-20zM489,224h23v1h-23zM0,225h23v1h-23zM75,225h75v1h-75zM261,225h29v1h-29zM450,225h20v1h-20zM489,225h23v1h-23zM0,226h22v1h-22zM77,226h73v1h-73zM259,226h33v1h-33zM450,226h21v1h-21zM490,226h22v1h-22zM0,227h22v1h-22zM78,227h73v1h-73zM257,227h36v1h-36zM450,227h21v1h-21zM490,227h22v1h-22zM0,228h22v1h-22zM80,228h72v1h-72zM255,228h40v1h-40zM450,228h21v1h-21zM490,228h22v1h-22zM0,229h22v1h-22zM82,229h70v1h-70zM253,229h43v1h-43zM450,229h21v1h-21zM490,229h22v1h-22zM0,230h22v1h-22zM84,230h69v1h-69zM251,230h46v1h-46zM450,230h21v1h-21zM490,230h22v1h-22zM0,231h22v1h-22zM87,231h67v1h-67zM250,231h48v1h-48zM451,231h20v1h-20zM490,231h22v1h-22zM0,232h22v1h-22zM89,232h65v1h-65zM248,232h51v1h-51zM451,232h20v1h-20zM490,232h22v1h-22zM0,233h22v1h-22zM92,233h63v1h-63zM247,233h53v1h-53zM451,233h20v1h-20zM490,233h22v1h-22zM0,234h21v1h-21zM95,234h61v1h-61zM245,234h55v1h-55zM451,234h21v1h-21zM490,234h22v1h-22zM0,235h21v1h-21zM98,235h59v1h-59zM244,235h57v1h-57zM451,235h21v1h-21zM491,235h21v1h-21zM0,236h21v1h-21zM101,236h57v1h-57zM243,236h59v1h-59zM451,236h21v1h-21zM491,236h21v1h-21zM0,237h21v1h-21zM104,237h55v1h-55zM241,237h62v1h-62zM451,237h21v1h-21zM491,237h21v1h-21zM0,238h21v1h-21zM107,238h53v1h-53zM240,238h63v1h-63zM451,238h21v1h-21zM491,238h21v1h-21zM0,239h21v1h-21zM109,239h52v1h-52zM238,239h66v1h-66zM451,239h21v1h-21zM491,239h21v1h-21zM0,240h21v1h-21zM112,240h50v1h-50zM237,240h67v1h-67zM451,240h21v1h-21zM491,240h21v1h-21zM0,241h21v1h-21zM114,241h49v1h-49zM235,241h70v1h-70zM451,241h21v1h-21zM491,241h21v1h-21zM0,242h21v1h-21zM117,242h48v1h-48zM233,242h73v1h-73zM451,242h21v1h-21zM491,242h21v1h-21zM0,243h21v1h-21zM119,243h47v1h-47zM232,243h42v1h-42zM280,243h26v1h-26zM452,243h20v1h-20zM491,243h21v1h-21zM0,244h21v1h-21zM121,244h47v1h-47zM230,244h40v1h-40zM281,244h26v1h-26zM452,244h20v1h-20zM491,244h21v1h-21zM0,245h21v1h-21zM123,245h47v1h-47zM228,245h39v1h-39zM283,245h25v1h-25zM452,245h20v1h-20zM491,245h21v1h-21zM0,246h21v1h-21zM125,246h47v1h-47zM225,246h40v1h-40zM283,246h25v1h-25zM452,246h20v1h-20zM491,246h21v1h-21zM0,247h21v1h-21zM127,247h47v1h-47zM223,247h41v1h-41zM284,247h25v1h-25zM452,247h20v1h-20zM491,247h21v1h-21zM0,248h21v1h-21zM129,248h47v1h-47zM220,248h42v1h-42zM285,248h25v1h-25zM452,248h20v1h-20zM491,248h21v1h-21zM0,249h21v1h-21zM131,249h48v1h-48zM216,249h44v1h-44zM286,249h24v1h-24zM452,249h20v1h-20zM491,249h21v1h-21zM0,250h21v1h-21zM133,250h51v1h-51zM212,250h47v1h-47zM286,250h25v1h-25zM452,250h20v1h-20zM491,250h21v1h-21zM0,251h20v1h-20zM135,251h56v1h-56zM203,251h54v1h-54zM287,251h24v1h-24zM452,251h20v1h-20zM491,251h21v1h-21zM0,252h20v1h-20zM137,252h119v1h-119zM288,252h24v1h-24zM452,252h20v1h-20zM491,252h21v1h-21zM0,253h20v1h-20zM139,253h115v1h-115zM288,253h25v1h-25zM452,253h20v1h-20zM492,253h20v1h-20zM0,254h20v1h-20zM142,254h111v1h-111zM289,254h25v1h-25zM452,254h20v1h-20zM492,254h20v1h-20zM0,255h20v1h-20zM143,255h108v1h-108zM289,255h26v1h-26zM452,255h20v1h-20zM492,255h20v1h-20zM0,256h20v1h-20zM145,256h105v1h-105zM290,256h25v1h-25zM452,256h20v1h-20zM492,256h20v1h-20zM0,257h20v1h-20zM147,257h101v1h-101zM291,257h25v1h-25zM452,257h20v1h-20zM492,257h20v1h-20zM0,258h20v1h-20zM149,258h98v1h-98zM291,258h26v1h-26zM452,258h20v1h-20zM492,258h20v1h-20zM0,259h20v1h-20zM151,259h94v1h-94zM292,259h26v1h-26zM452,259h20v1h-20zM491,259h21v1h-21zM0,260h21v1h-21zM153,260h90v1h-90zM293,260h26v1h-26zM452,260h20v1h-20zM491,260h21v1h-21zM0,261h21v1h-21zM155,261h86v1h-86zM293,261h27v1h-27zM451,261h21v1h-21zM491,261h21v1h-21zM0,262h21v1h-21zM157,262h83v1h-83zM294,262h27v1h-27zM451,262h21v1h-21zM491,262h21v1h-21zM0,263h21v1h-21zM159,263h79v1h-79zM295,263h27v1h-27zM451,263h21v1h-21zM491,263h21v1h-21zM0,264h21v1h-21zM161,264h75v1h-75zM295,264h29v1h-29zM451,264h21v1h-21zM491,264h21v1h-21zM0,265h21v1h-21zM163,265h71v1h-71zM296,265h29v1h-29zM451,265h21v1h-21zM491,265h21v1h-21zM0,266h21v1h-21zM164,266h67v1h-67zM297,266h29v1h-29zM451,266h21v1h-21zM491,266h21v1h-21zM0,267h21v1h-21zM166,267h63v1h-63zM298,267h30v1h-30zM451,267h21v1h-21zM491,267h21v1h-21zM0,268h21v1h-21zM168,268h57v1h-57zM298,268h32v1h-32zM451,268h21v1h-21zM491,268h21v1h-21zM0,269h21v1h-21zM170,269h52v1h-52zM299,269h32v1h-32zM451,269h21v1h-21zM491,269h21v1h-21zM0,270h21v1h-21zM171,270h46v1h-46zM300,270h33v1h-33zM451,270h20v1h-20zM491,270h21v1h-21zM0,271h21v1h-21zM173,271h38v1h-38zM301,271h34v1h-34zM451,271h20v1h-20zM491,271h21v1h-21zM0,272h21v1h-21zM175,272h30v1h-30zM302,272h36v1h-36zM451,272h20v1h-20zM491,272h21v1h-21zM0,273h21v1h-21zM176,273h29v1h-29zM303,273h38v1h-38zM451,273h20v1h-20zM491,273h21v1h-21zM0,274h21v1h-21zM177,274h28v1h-28zM304,274h40v1h-40zM451,274h20v1h-20zM491,274h21v1h-21zM0,275h21v1h-21zM179,275h26v1h-26zM305,275h42v1h-42zM450,275h21v1h-21zM491,275h21v1h-21zM0,276h21v1h-21zM180,276h25v1h-25zM306,276h46v1h-46zM450,276h21v1h-21zM491,276h21v1h-21zM0,277h21v1h-21zM182,277h23v1h-23zM307,277h49v1h-49zM450,277h21v1h-21zM490,277h22v1h-22zM0,278h22v1h-22zM183,278h23v1h-23zM308,278h53v1h-53zM450,278h21v1h-21zM490,278h22v1h-22zM0,279h22v1h-22zM183,279h23v1h-23zM309,279h56v1h-56zM450,279h20v1h-20zM490,279h22v1h-22zM0,280h22v1h-22zM184,280h22v1h-22zM310,280h59v1h-59zM450,280h20v1h-20zM490,280h22v1h-22zM0,281h22v1h-22zM185,281h21v1h-21zM312,281h61v1h-61zM450,281h20v1h-20zM490,281h22v1h-22zM0,282h22v1h-22zM185,282h21v1h-21zM313,282h63v1h-63zM449,282h21v1h-21zM490,282h22v1h-22zM0,283h22v1h-22zM186,283h20v1h-20zM315,283h64v1h-64zM449,283h21v1h-21zM490,283h22v1h-22zM0,284h22v1h-22zM186,284h20v1h-20zM316,284h65v1h-65zM449,284h21v1h-21zM490,284h22v1h-22zM0,285h22v1h-22zM186,285h20v1h-20zM317,285h66v1h-66zM449,285h21v1h-21zM489,285h23v1h-23zM0,286h23v1h-23zM186,286h20v1h-20zM319,286h65v1h-65zM449,286h21v1h-21zM489,286h23v1h-23zM0,287h23v1h-23zM186,287h20v1h-20zM321,287h65v1h-65zM449,287h20v1h-20zM489,287h23v1h-23zM0,288h23v1h-23zM186,288h20v1h-20zM323,288h64v1h-64zM449,288h20v1h-20zM489,288h23v1h-23zM0,289h23v1h-23zM186,289h20v1h-20zM325,289h63v1h-63zM448,289h21v1h-21zM489,289h23v1h-23zM0,290h23v1h-23zM186,290h20v1h-20zM327,290h62v1h-62zM448,290h21v1h-21zM489,290h23v1h-23zM0,291h23v1h-23zM186,291h20v1h-20zM330,291h60v1h-60zM448,291h21v1h-21zM489,291h23v1h-23zM0,292h23v1h-23zM186,292h20v1h-20zM332,292h59v1h-59zM448,292h21v1h-21zM488,292h24v1h-24zM3,293h21v1h-21zM186,293h20v1h-20zM335,293h56v1h-56zM447,293h21v1h-21zM488,293h21v1h-21zM3,294h21v1h-21zM186,294h20v1h-20zM338,294h54v1h-54zM447,294h21v1h-21zM488,294h21v1h-21zM3,295h21v1h-21zM186,295h20v1h-20zM342,295h51v1h-51zM447,295h21v1h-21zM488,295h21v1h-21zM3,296h21v1h-21zM186,296h20v1h-20zM346,296h47v1h-47zM447,296h21v1h-21zM488,296h21v1h-21zM3,297h21v1h-21zM186,297h20v1h-20zM351,297h42v1h-42zM447,297h21v1h-21zM488,297h21v1h-21zM3,298h21v1h-21zM186,298h20v1h-20zM355,298h39v1h-39zM446,298h21v1h-21zM487,298h22v1h-22zM4,299h21v1h-21zM186,299h20v1h-20zM360,299h34v1h-34zM446,299h21v1h-21zM487,299h21v1h-21zM4,300h21v1h-21zM186,300h20v1h-20zM364,300h31v1h-31zM446,300h21v1h-21zM487,300h21v1h-21zM4,301h21v1h-21zM186,301h20v1h-20zM368,301h27v1h-27zM446,301h21v1h-21zM487,301h21v1h-21zM4,302h21v1h-21zM186,302h20v1h-20zM370,302h25v1h-25zM445,302h21v1h-21zM486,302h22v1h-22zM4,303h21v1h-21zM186,303h20v1h-20zM373,303h22v1h-22zM445,303h21v1h-21zM486,303h22v1h-22zM5,304h21v1h-21zM186,304h20v1h-20zM374,304h21v1h-21zM445,304h21v1h-21zM486,304h21v1h-21zM5,305h21v1h-21zM186,305h20v1h-20zM374,305h21v1h-21zM445,305h21v1h-21zM486,305h21v1h-21zM5,306h21v1h-21zM186,306h20v1h-20zM375,306h20v1h-20zM444,306h22v1h-22zM486,306h21v1h-21zM5,307h21v1h-21zM186,307h20v1h-20zM375,307h20v1h-20zM444,307h21v1h-21zM485,307h22v1h-22zM5,308h22v1h-22zM186,308h20v1h-20zM375,308h21v1h-21zM444,308h21v1h-21zM485,308h22v1h-22zM6,309h21v1h-21zM186,309h20v1h-20zM375,309h21v1h-21zM443,309h22v1h-22zM485,309h21v1h-21zM6,310h21v1h-21zM186,310h21v1h-21zM375,310h21v1h-21zM443,310h22v1h-22zM485,310h21v1h-21zM6,311h21v1h-21zM186,311h22v1h-22zM375,311h20v1h-20zM443,311h21v1h-21zM484,311h22v1h-22zM6,312h22v1h-22zM186,312h22v1h-22zM375,312h20v1h-20zM442,312h22v1h-22zM484,312h22v1h-22zM7,313h21v1h-21zM186,313h23v1h-23zM375,313h20v1h-20zM442,313h22v1h-22zM484,313h21v1h-21zM7,314h21v1h-21zM187,314h23v1h-23zM375,314h20v1h-20zM442,314h21v1h-21zM484,314h21v1h-21zM7,315h21v1h-21zM187,315h24v1h-24zM374,315h21v1h-21zM442,315h21v1h-21zM483,315h22v1h-22zM7,316h22v1h-22zM187,316h25v1h-25zM374,316h21v1h-21zM441,316h22v1h-22zM483,316h22v1h-22zM8,317h21v1h-21zM188,317h26v1h-26zM374,317h21v1h-21zM441,317h21v1h-21zM483,317h21v1h-21zM8,318h21v1h-21zM188,318h27v1h-27zM374,318h21v1h-21zM441,318h21v1h-21zM483,318h21v1h-21zM8,319h22v1h-22zM188,319h28v1h-28zM374,319h21v1h-21zM440,319h22v1h-22zM482,319h22v1h-22zM8,320h22v1h-22zM189,320h28v1h-28zM374,320h21v1h-21zM440,320h21v1h-21zM482,320h22v1h-22zM9,321h21v1h-21zM190,321h29v1h-29zM374,321h21v1h-21zM440,321h21v1h-21zM482,321h21v1h-21zM9,322h21v1h-21zM190,322h30v1h-30zM373,322h21v1h-21zM439,322h22v1h-22zM481,322h22v1h-22zM9,323h22v1h-22zM191,323h30v1h-30zM373,323h21v1h-21zM439,323h22v1h-22zM481,323h22v1h-22zM10,324h21v1h-21zM192,324h31v1h-31zM373,324h21v1h-21zM438,324h22v1h-22zM481,324h21v1h-21zM10,325h21v1h-21zM193,325h31v1h-31zM373,325h21v1h-21zM438,325h22v1h-22zM480,325h22v1h-22zM10,326h22v1h-22zM193,326h33v1h-33zM372,326h22v1h-22zM438,326h22v1h-22zM480,326h22v1h-22zM10,327h22v1h-22zM194,327h33v1h-33zM372,327h22v1h-22zM437,327h22v1h-22zM480,327h22v1h-22zM11,328h21v1h-21zM195,328h33v1h-33zM372,328h21v1h-21zM437,328h22v1h-22zM479,328h22v1h-22zM11,329h22v1h-22zM196,329h34v1h-34zM372,329h21v1h-21zM436,329h23v1h-23zM479,329h22v1h-22zM11,330h22v1h-22zM197,330h34v1h-34zM371,330h22v1h-22zM436,330h22v1h-22zM479,330h22v1h-22zM12,331h21v1h-21zM198,331h35v1h-35zM371,331h22v1h-22zM435,331h23v1h-23zM478,331h22v1h-22zM12,332h22v1h-22zM199,332h35v1h-35zM371,332h21v1h-21zM435,332h22v1h-22zM478,332h22v1h-22zM12,333h22v1h-22zM200,333h36v1h-36zM371,333h21v1h-21zM435,333h22v1h-22zM478,333h22v1h-22zM13,334h21v1h-21zM202,334h35v1h-35zM370,334h22v1h-22zM434,334h22v1h-22zM477,334h22v1h-22zM13,335h22v1h-22zM203,335h35v1h-35zM370,335h22v1h-22zM434,335h22v1h-22zM477,335h22v1h-22zM13,336h22v1h-22zM204,336h36v1h-36zM370,336h21v1h-21zM433,336h23v1h-23zM476,336h23v1h-23zM14,337h22v1h-22zM205,337h36v1h-36zM369,337h22v1h-22zM433,337h22v1h-22zM476,337h22v1h-22zM14,338h22v1h-22zM207,338h36v1h-36zM369,338h22v1h-22zM432,338h23v1h-23zM476,338h22v1h-22zM14,339h22v1h-22zM208,339h36v1h-36zM369,339h22v1h-22zM432,339h22v1h-22zM475,339h23v1h-23zM15,340h22v1h-22zM210,340h35v1h-35zM368,340h22v1h-22zM431,340h23v1h-23zM475,340h22v1h-22zM15,341h22v1h-22zM211,341h36v1h-36zM368,341h22v1h-22zM431,341h23v1h-23zM474,341h23v1h-23zM15,342h23v1h-23zM212,342h36v1h-36zM367,342h22v1h-22zM430,342h23v1h-23zM474,342h22v1h-22zM16,343h22v1h-22zM214,343h35v1h-35zM367,343h22v1h-22zM430,343h23v1h-23zM474,343h22v1h-22zM16,344h22v1h-22zM215,344h35v1h-35zM367,344h22v1h-22zM429,344h23v1h-23zM473,344h23v1h-23zM17,345h22v1h-22zM217,345h34v1h-34zM366,345h22v1h-22zM429,345h23v1h-23zM473,345h22v1h-22zM17,346h22v1h-22zM218,346h34v1h-34zM366,346h22v1h-22zM428,346h23v1h-23zM472,346h23v1h-23zM17,347h23v1h-23zM219,347h35v1h-35zM365,347h23v1h-23zM428,347h23v1h-23zM472,347h22v1h-22zM18,348h22v1h-22zM221,348h34v1h-34zM365,348h22v1h-22zM427,348h23v1h-23zM472,348h22v1h-22zM18,349h23v1h-23zM222,349h34v1h-34zM365,349h22v1h-22zM427,349h23v1h-23zM471,349h23v1h-23zM19,350h22v1h-22zM224,350h33v1h-33zM364,350h23v1h-23zM426,350h23v1h-23zM471,350h22v1h-22zM19,351h22v1h-22zM225,351h32v1h-32zM364,351h22v1h-22zM426,351h23v1h-23zM470,351h23v1h-23zM19,352h23v1h-23zM227,352h31v1h-31zM363,352h23v1h-23zM425,352h23v1h-23zM470,352h22v1h-22zM20,353h22v1h-22zM228,353h31v1h-31zM363,353h22v1h-22zM424,353h24v1h-24zM469,353h23v1h-23zM20,354h23v1h-23zM229,354h31v1h-31zM362,354h23v1h-23zM424,354h23v1h-23zM469,354h23v1h-23zM21,355h22v1h-22zM231,355h30v1h-30zM362,355h23v1h-23zM423,355h24v1h-24zM468,355h23v1h-23zM21,356h23v1h-23zM232,356h29v1h-29zM361,356h23v1h-23zM422,356h24v1h-24zM468,356h23v1h-23zM22,357h22v1h-22zM233,357h29v1h-29zM361,357h23v1h-23zM422,357h24v1h-24zM467,357h23v1h-23zM22,358h23v1h-23zM235,358h28v1h-28zM360,358h23v1h-23zM421,358h24v1h-24zM467,358h23v1h-23zM23,359h22v1h-22zM236,359h27v1h-27zM360,359h23v1h-23zM421,359h24v1h-24zM466,359h23v1h-23zM23,360h23v1h-23zM237,360h27v1h-27zM359,360h23v1h-23zM420,360h24v1h-24zM466,360h23v1h-23zM24,361h22v1h-22zM238,361h26v1h-26zM359,361h23v1h-23zM419,361h25v1h-25zM465,361h23v1h-23zM24,362h23v1h-23zM239,362h25v1h-25zM358,362h23v1h-23zM419,362h24v1h-24zM465,362h23v1h-23zM24,363h23v1h-23zM240,363h25v1h-25zM358,363h23v1h-23zM418,363h24v1h-24zM464,363h23v1h-23zM25,364h23v1h-23zM241,364h24v1h-24zM357,364h23v1h-23zM417,364h25v1h-25zM464,364h23v1h-23zM25,365h23v1h-23zM242,365h24v1h-24zM356,365h24v1h-24zM417,365h24v1h-24zM463,365h23v1h-23zM26,366h23v1h-23zM243,366h23v1h-23zM356,366h23v1h-23zM416,366h25v1h-25zM463,366h23v1h-23zM26,367h23v1h-23zM244,367h22v1h-22zM355,367h24v1h-24zM415,367h25v1h-25zM462,367h23v1h-23zM27,368h23v1h-23zM245,368h21v1h-21zM355,368h23v1h-23zM414,368h25v1h-25zM462,368h23v1h-23zM27,369h24v1h-24zM245,369h21v1h-21zM354,369h24v1h-24zM414,369h25v1h-25zM461,369h23v1h-23zM28,370h23v1h-23zM245,370h21v1h-21zM354,370h23v1h-23zM413,370h25v1h-25zM460,370h24v1h-24zM29,371h23v1h-23zM246,371h20v1h-20zM353,371h24v1h-24zM412,371h25v1h-25zM460,371h23v1h-23zM29,372h23v1h-23zM246,372h20v1h-20zM352,372h24v1h-24zM411,372h26v1h-26zM459,372h24v1h-24zM30,373h23v1h-23zM246,373h20v1h-20zM352,373h24v1h-24zM411,373h25v1h-25zM458,373h24v1h-24zM30,374h24v1h-24zM246,374h20v1h-20zM351,374h24v1h-24zM410,374h26v1h-26zM458,374h24v1h-24zM31,375h23v1h-23zM246,375h20v1h-20zM351,375h24v1h-24zM409,375h26v1h-26zM457,375h24v1h-24zM31,376h24v1h-24zM246,376h20v1h-20zM350,376h24v1h-24zM408,376h26v1h-26zM457,376h24v1h-24zM32,377h23v1h-23zM246,377h21v1h-21zM349,377h24v1h-24zM408,377h26v1h-26zM456,377h24v1h-24zM32,378h24v1h-24zM246,378h21v1h-21zM349,378h24v1h-24zM407,378h26v1h-26zM455,378h25v1h-25zM33,379h24v1h-24zM246,379h21v1h-21zM348,379h24v1h-24zM406,379h26v1h-26zM455,379h24v1h-24zM33,380h24v1h-24zM246,380h21v1h-21zM348,380h24v1h-24zM405,380h26v1h-26zM454,380h24v1h-24zM34,381h24v1h-24zM246,381h21v1h-21zM347,381h24v1h-24zM404,381h26v1h-26zM454,381h24v1h-24zM35,382h24v1h-24zM246,382h21v1h-21zM346,382h25v1h-25zM403,382h27v1h-27zM453,382h24v1h-24zM35,383h24v1h-24zM246,383h21v1h-21zM346,383h24v1h-24zM402,383h27v1h-27zM452,383h25v1h-25zM36,384h24v1h-24zM246,384h21v1h-21zM345,384h25v1h-25zM401,384h27v1h-27zM452,384h24v1h-24zM36,385h24v1h-24zM246,385h21v1h-21zM344,385h25v1h-25zM400,385h27v1h-27zM451,385h25v1h-25zM37,386h24v1h-24zM246,386h21v1h-21zM344,386h24v1h-24zM399,386h28v1h-28zM450,386h25v1h-25zM38,387h24v1h-24zM246,387h21v1h-21zM343,387h25v1h-25zM398,387h28v1h-28zM450,387h24v1h-24zM38,388h25v1h-25zM246,388h21v1h-21zM342,388h25v1h-25zM398,388h27v1h-27zM449,388h25v1h-25zM39,389h24v1h-24zM246,389h21v1h-21zM342,389h24v1h-24zM397,389h27v1h-27zM448,389h25v1h-25zM39,390h25v1h-25zM246,390h21v1h-21zM341,390h25v1h-25zM396,390h28v1h-28zM447,390h25v1h-25zM40,391h25v1h-25zM246,391h21v1h-21zM340,391h25v1h-25zM395,391h28v1h-28zM447,391h25v1h-25zM41,392h24v1h-24zM246,392h21v1h-21zM340,392h25v1h-25zM394,392h28v1h-28zM446,392h25v1h-25zM41,393h25v1h-25zM246,393h21v1h-21zM339,393h25v1h-25zM394,393h27v1h-27zM445,393h25v1h-25zM42,394h25v1h-25zM246,394h21v1h-21zM338,394h25v1h-25zM394,394h26v1h-26zM444,394h26v1h-26zM43,395h25v1h-25zM246,395h21v1h-21zM338,395h25v1h-25zM393,395h26v1h-26zM444,395h25v1h-25zM43,396h25v1h-25zM246,396h21v1h-21zM337,396h25v1h-25zM393,396h25v1h-25zM443,396h26v1h-26zM44,397h25v1h-25zM246,397h21v1h-21zM336,397h25v1h-25zM393,397h24v1h-24zM442,397h26v1h-26zM45,398h25v1h-25zM246,398h21v1h-21zM336,398h25v1h-25zM393,398h23v1h-23zM442,398h25v1h-25zM45,399h26v1h-26zM246,399h21v1h-21zM335,399h25v1h-25zM393,399h23v1h-23zM441,399h25v1h-25zM46,400h25v1h-25zM246,400h21v1h-21zM334,400h25v1h-25zM394,400h21v1h-21zM440,400h26v1h-26zM47,401h25v1h-25zM246,401h21v1h-21zM334,401h25v1h-25zM394,401h20v1h-20zM439,401h26v1h-26zM48,402h25v1h-25zM246,402h21v1h-21zM333,402h25v1h-25zM395,402h18v1h-18zM438,402h26v1h-26zM48,403h26v1h-26zM246,403h21v1h-21zM332,403h25v1h-25zM395,403h17v1h-17zM437,403h27v1h-27zM49,404h26v1h-26zM246,404h21v1h-21zM332,404h25v1h-25zM396,404h15v1h-15zM437,404h26v1h-26zM50,405h25v1h-25zM246,405h21v1h-21zM331,405h25v1h-25zM397,405h13v1h-13zM436,405h26v1h-26zM50,406h26v1h-26zM246,406h21v1h-21zM330,406h25v1h-25zM399,406h9v1h-9zM435,406h26v1h-26zM51,407h26v1h-26zM246,407h21v1h-21zM329,407h26v1h-26zM402,407h3v1h-3zM434,407h27v1h-27zM52,408h26v1h-26zM246,408h21v1h-21zM329,408h25v1h-25zM433,408h27v1h-27zM53,409h26v1h-26zM247,409h20v1h-20zM328,409h25v1h-25zM432,409h27v1h-27zM54,410h26v1h-26zM247,410h21v1h-21zM327,410h26v1h-26zM431,410h27v1h-27zM54,411h27v1h-27zM247,411h21v1h-21zM327,411h25v1h-25zM431,411h27v1h-27zM55,412h27v1h-27zM247,412h21v1h-21zM326,412h25v1h-25zM430,412h27v1h-27zM56,413h26v1h-26zM247,413h21v1h-21zM325,413h25v1h-25zM429,413h27v1h-27zM57,414h26v1h-26zM247,414h21v1h-21zM325,414h25v1h-25zM428,414h27v1h-27zM57,415h27v1h-27zM247,415h21v1h-21zM324,415h25v1h-25zM427,415h27v1h-27zM58,416h27v1h-27zM247,416h21v1h-21zM323,416h25v1h-25zM426,416h28v1h-28zM59,417h27v1h-27zM247,417h21v1h-21zM323,417h25v1h-25zM425,417h28v1h-28zM60,418h27v1h-27zM247,418h21v1h-21zM322,418h25v1h-25zM424,418h28v1h-28zM61,419h27v1h-27zM247,419h21v1h-21zM321,419h25v1h-25zM423,419h28v1h-28zM62,420h27v1h-27zM247,420h21v1h-21zM321,420h25v1h-25zM422,420h28v1h-28zM63,421h27v1h-27zM247,421h21v1h-21zM320,421h25v1h-25zM421,421h28v1h-28zM63,422h28v1h-28zM247,422h21v1h-21zM319,422h25v1h-25zM420,422h28v1h-28zM64,423h28v1h-28zM247,423h21v1h-21zM318,423h26v1h-26zM419,423h29v1h-29zM65,424h28v1h-28zM248,424h20v1h-20zM318,424h25v1h-25zM418,424h29v1h-29zM66,425h28v1h-28zM248,425h20v1h-20zM317,425h25v1h-25zM417,425h29v1h-29zM67,426h28v1h-28zM248,426h21v1h-21zM316,426h26v1h-26zM416,426h29v1h-29zM68,427h28v1h-28zM248,427h21v1h-21zM316,427h25v1h-25zM415,427h29v1h-29zM69,428h28v1h-28zM248,428h21v1h-21zM315,428h25v1h-25zM414,428h29v1h-29zM70,429h28v1h-28zM248,429h21v1h-21zM314,429h26v1h-26zM413,429h29v1h-29zM71,430h29v1h-29zM248,430h21v1h-21zM314,430h25v1h-25zM412,430h29v1h-29zM72,431h29v1h-29zM248,431h21v1h-21zM313,431h25v1h-25zM410,431h30v1h-30zM73,432h29v1h-29zM248,432h21v1h-21zM312,432h26v1h-26zM409,432h30v1h-30zM74,433h29v1h-29zM248,433h21v1h-21zM312,433h25v1h-25zM408,433h30v1h-30zM74,434h30v1h-30zM248,434h21v1h-21zM311,434h25v1h-25zM407,434h30v1h-30zM75,435h30v1h-30zM249,435h21v1h-21zM310,435h25v1h-25zM406,435h31v1h-31zM76,436h30v1h-30zM249,436h21v1h-21zM310,436h25v1h-25zM405,436h30v1h-30zM77,437h31v1h-31zM249,437h21v1h-21zM309,437h25v1h-25zM404,437h30v1h-30zM79,438h30v1h-30zM249,438h21v1h-21zM309,438h24v1h-24zM402,438h31v1h-31zM80,439h30v1h-30zM249,439h21v1h-21zM308,439h25v1h-25zM401,439h31v1h-31zM81,440h30v1h-30zM249,440h21v1h-21zM307,440h25v1h-25zM400,440h31v1h-31zM82,441h31v1h-31zM249,441h21v1h-21zM307,441h24v1h-24zM399,441h31v1h-31zM83,442h31v1h-31zM249,442h21v1h-21zM306,442h25v1h-25zM397,442h32v1h-32zM84,443h31v1h-31zM250,443h21v1h-21zM306,443h24v1h-24zM396,443h32v1h-32zM85,444h32v1h-32zM250,444h21v1h-21zM305,444h24v1h-24zM395,444h32v1h-32zM86,445h32v1h-32zM250,445h21v1h-21zM304,445h25v1h-25zM393,445h33v1h-33zM87,446h32v1h-32zM250,446h21v1h-21zM304,446h24v1h-24zM392,446h33v1h-33zM88,447h33v1h-33zM250,447h21v1h-21zM303,447h25v1h-25zM390,447h34v1h-34zM89,448h33v1h-33zM250,448h21v1h-21zM303,448h24v1h-24zM389,448h34v1h-34zM91,449h33v1h-33zM250,449h21v1h-21zM302,449h24v1h-24zM388,449h33v1h-33zM92,450h33v1h-33zM251,450h21v1h-21zM302,450h24v1h-24zM386,450h34v1h-34zM93,451h33v1h-33zM251,451h21v1h-21zM301,451h24v1h-24zM385,451h34v1h-34zM94,452h34v1h-34zM251,452h21v1h-21zM301,452h23v1h-23zM383,452h35v1h-35zM95,453h35v1h-35zM251,453h21v1h-21zM300,453h24v1h-24zM382,453h35v1h-35zM96,454h35v1h-35zM251,454h21v1h-21zM300,454h23v1h-23zM380,454h35v1h-35zM98,455h35v1h-35zM251,455h22v1h-22zM300,455h23v1h-23zM379,455h35v1h-35zM99,456h35v1h-35zM252,456h21v1h-21zM299,456h23v1h-23zM377,456h36v1h-36zM100,457h36v1h-36zM252,457h21v1h-21zM299,457h23v1h-23zM375,457h37v1h-37zM102,458h36v1h-36zM252,458h21v1h-21zM298,458h23v1h-23zM374,458h36v1h-36zM103,459h36v1h-36zM252,459h21v1h-21zM298,459h23v1h-23zM372,459h37v1h-37zM104,460h37v1h-37zM252,460h22v1h-22zM298,460h22v1h-22zM370,460h38v1h-38zM105,461h38v1h-38zM253,461h21v1h-21zM298,461h21v1h-21zM369,461h37v1h-37zM107,462h37v1h-37zM253,462h21v1h-21zM297,462h22v1h-22zM367,462h38v1h-38zM108,463h38v1h-38zM253,463h21v1h-21zM297,463h22v1h-22zM365,463h39v1h-39zM110,464h38v1h-38zM253,464h22v1h-22zM297,464h21v1h-21zM363,464h39v1h-39zM111,465h39v1h-39zM254,465h21v1h-21zM297,465h21v1h-21zM361,465h40v1h-40zM112,466h40v1h-40zM254,466h21v1h-21zM297,466h21v1h-21zM359,466h41v1h-41zM114,467h40v1h-40zM254,467h22v1h-22zM297,467h20v1h-20zM357,467h41v1h-41zM115,468h41v1h-41zM254,468h22v1h-22zM296,468h21v1h-21zM355,468h42v1h-42zM117,469h41v1h-41zM255,469h21v1h-21zM296,469h21v1h-21zM353,469h42v1h-42zM118,470h42v1h-42zM255,470h21v1h-21zM296,470h21v1h-21zM351,470h43v1h-43zM120,471h43v1h-43zM255,471h22v1h-22zM296,471h21v1h-21zM349,471h43v1h-43zM121,472h44v1h-44zM255,472h22v1h-22zM296,472h21v1h-21zM346,472h45v1h-45zM123,473h44v1h-44zM256,473h21v1h-21zM296,473h21v1h-21zM344,473h45v1h-45zM125,474h45v1h-45zM256,474h22v1h-22zM296,474h21v1h-21zM342,474h45v1h-45zM126,475h46v1h-46zM256,475h22v1h-22zM296,475h21v1h-21zM339,475h47v1h-47zM128,476h47v1h-47zM257,476h22v1h-22zM295,476h22v1h-22zM337,476h47v1h-47zM130,477h47v1h-47zM257,477h22v1h-22zM295,477h22v1h-22zM334,477h48v1h-48zM131,478h49v1h-49zM257,478h22v1h-22zM294,478h23v1h-23zM331,478h50v1h-50zM133,479h50v1h-50zM258,479h22v1h-22zM294,479h23v1h-23zM328,479h51v1h-51zM135,480h51v1h-51zM258,480h22v1h-22zM293,480h24v1h-24zM325,480h52v1h-52zM137,481h52v1h-52zM258,481h23v1h-23zM293,481h24v1h-24zM322,481h53v1h-53zM139,482h54v1h-54zM259,482h23v1h-23zM292,482h81v1h-81zM140,483h56v1h-56zM259,483h23v1h-23zM291,483h81v1h-81zM142,484h58v1h-58zM259,484h24v1h-24zM290,484h80v1h-80zM144,485h60v1h-60zM260,485h24v1h-24zM290,485h78v1h-78zM146,486h62v1h-62zM260,486h106v1h-106zM148,487h65v1h-65zM261,487h103v1h-103zM151,488h68v1h-68zM261,488h100v1h-100zM153,489h73v1h-73zM261,489h98v1h-98zM155,490h79v1h-79zM261,490h96v1h-96zM157,491h95v1h-95zM261,491h94v1h-94zM159,492h194v1h-194zM162,493h188v1h-188zM164,494h184v1h-184zM167,495h178v1h-178zM169,496h174v1h-174zM172,497h168v1h-168zM175,498h162v1h-162zM178,499h156v1h-156zM181,500h150v1h-150zM184,501h144v1h-144zM188,502h136v1h-136zM191,503h130v1h-130zM195,504h122v1h-122zM199,505h114v1h-114zM203,506h106v1h-106zM208,507h96v1h-96zM213,508h86v1h-86zM219,509h74v1h-74zM219,510h74v1h-74zM219,511h74v1h-74z"/></svg>