<svg xmlns="http://www.w3.org/2000/svg" viewBox="0 0 512 512" width="512" height="512"><path fill="#000" d="M29,73h454v1h-454zM23,74h465v1h-465zM20,75h471v1h-471zM18,76h475v1h-475zM17,77h478v1h-478zM15,78h482v1h-482zM14,79h484v1h-484zM12,80h488v1h-488zM11,81h490v1h-490zM10,82h492v1h-492zM9,83h494v1h-494zM7,84h497v1h-497zM7,85h498v1h-498zM6,86h500v1h-500zM5,87h501v1h-501zM5,88h502v1h-502zM4,89h504v1h-504zM4,90h505v1h-505zM3,91h506v1h-506zM3,92h506v1h-506zM0,93h512v1h-512zM0,94h512v1h-512zM0,95h512v1h-512zM0,96h512v1h-512zM0,97h512v1h-512zM0,98h512v1h-512zM0,99h512v1h-512zM0,100h512v1h-512zM0,101h512v1h-512zM0,102h512v1h-512zM0,103h512v1h-512zM0,104h512v1h-512zM0,105h512v1h-512zM0,106h512v1h-512zM0,107h512v1h-512zM0,108h512v1h-512zM0,109h512v1h-512zM0,110h512v1h-512zM0,111h512v1h-512zM0,112h512v1h-512zM0,113h512v1h-512zM0,114h512v1h-512zM0,115h512v1h-512zM0,116h512v1h-512zM0,117h512v1h-512zM0,118h512v1h-512zM0,119h512v1h-512zM3,120h509v1h-509zM3,121h506v1h-506zM4,122h505v1h-505zM4,123h504v1h-504zM5,124h502v1h-502zM5,125h502v1h-502zM6,126h500v1h-500zM7,127h498v1h-498zM8,128h496v1h-496zM9,129h494v1h-494zM10,130h492v1h-492zM11,131h490v1h-490zM12,132h488v1h-488zM14,133h485v1h-485zM15,134h482v1h-482zM17,135h478v1h-478zM19,136h474v1h-474zM21,137h469v1h-469zM25,138h462v1h-462zM83,222h361v1h-361zM25,223h462v1h-462zM21,224h469v1h-469zM19,225h474v1h-474zM17,226h477v1h-477zM16,227h480v1h-480zM14,228h484v1h-484zM13,229h486v1h-486zM11,230h490v1h-490zM10,231h492v1h-492zM9,232h494v1h-494zM8,233h496v1h-496zM7,234h498v1h-498zM7,235h498v1h-498zM6,236h500v1h-500zM5,237h502v1h-502zM4,238h503v1h-503zM4,239h504v1h-504zM3,240h506v1h-506zM3,241h506v1h-506zM0,242h512v1h-512zM0,243h512v1h-512zM0,244h512v1h-512zM0,245h512v1h-512zM0,246h512v1h-512zM0,247h512v1h-512zM0,248h512v1h-512zM0,249h512v1h-512zM0,250h512v1h-512zM0,251h512v1h-512zM0,252h512v1h-512zM0,253h512v1h-512zM0,254h512v1h-512zM0,255h512v1h-512zM0,256h512v1h-512zM0,257h512v1h-512zM0,258h512v1h-512zM0,259h512v1h-512zM0,260h512v1h-512zM0,261h512v1h-512zM0,262h512v1h-512zM0,263h512v1h-512zM0,264h512v1h-512zM0,265h512v1h-512zM0,266h512v1h-512zM0,267h512v1h-512zM0,268h512v1h-512zM3,269h509v1h-509zM3,270h506v1h-506zM3,271h506v1h-506zM4,272h504v1h-504zM4,273h504v1h-504zM5,274h502v1h-502zM6,275h501v1h-501zM7,276h499v1h-499zM7,277h498v1h-498zM8,278h496v1h-496zM9,279h494v1h-494zM10,280h492v1h-492zM12,281h488v1h-488zM13,282h486v1h-486zM15,283h483v1h-483zM16,284h480v1h-480zM18,285h476v1h-476zM20,286h471v1h-471zM23,287h465v1h-465zM44,372h80v1h-80zM222,372h47v1h-47zM23,373h278v1h-278zM20,374h284v1h-284zM18,375h288v1h-288zM17,376h291v1h-291zM15,377h295v1h-295zM13,378h298v1h-298zM12,379h301v1h-301zM11,380h303v1h-303zM10,381h305v1h-305zM9,382h307v1h-307zM8,383h309v1h-309zM7,384h311v1h-311zM7,385h311v1h-311zM6,386h313v1h-313zM5,387h315v1h-315zM4,388h317v1h-317zM4,389h317v1h-317zM3,390h319v1h-319zM3,391h319v1h-319zM0,392h323v1h-323zM0,393h323v1h-323zM0,394h323v1h-323zM0,395h324v1h-324zM0,396h324v1h-324zM0,397h325v1h-325zM0,398h325v1h-325zM0,399h325v1h-325zM0,400h325v1h-325zM0,401h325v1h-325zM0,402h325v1h-325zM0,403h325v1h-325zM0,404h325v1h-325zM0,405h325v1h-325zM0,406h325v1h-325zM0,407h325v1h-325zM0,408h325v1h-325zM0,409h325v1h-325zM0,410h325v1h-325zM0,411h325v1h-325zM0,412h325v1h-325zM0,413h325v1h-325zM0,414h324v1h-324zM0,415h324v1h-324zM0,416h323v1h-323zM0,417h323v1h-323zM0,418h323v1h-323zM3,419h319v1h-319zM3,420h319v1h-319zM4,421h317v1h-317zM4,422h317v1h-317zM5,423h315v1h-315zM6,424h313v1h-313zM7,425h312v1h-312zM7,426h311v1h-311zM8,427h309v1h-309zM9,428h307v1h-307zM10,429h305v1h-305zM11,430h303v1h-303zM13,431h300v1h-300zM14,432h297v1h-297zM15,433h295v1h-295zM17,434h291v1h-291zM19,435h287v1h-287zM21,436h282v1h-282zM25,437h275v1h-275z"/></svg>