<svg xmlns="http://www.w3.org/2000/svg" viewBox="0 0 512 512" width="512" height="512"><style>svg * { stroke: #000000; stroke-width: 18; paint-order: stroke fill; stroke-linejoin: round; stroke-linecap: round; }</style><path fill="#000" d="M104,154h304v1h-304zM101,155h310v1h-310zM98,156h315v1h-315zM97,157h318v1h-318zM96,158h320v1h-320zM95,159h322v1h-322zM94,160h324v1h-324zM93,161h326v1h-326zM93,162h327v1h-327zM92,163h328v1h-328zM92,164h328v1h-328zM91,165h330v1h-330zM91,166h330v1h-330zM91,167h330v1h-330zM90,168h332v1h-332zM90,169h332v1h-332zM90,170h332v1h-332zM90,171h332v1h-332zM90,172h332v1h-332zM91,173h330v1h-330zM91,174h330v1h-330zM91,175h330v1h-330zM91,176h330v1h-330zM92,177h328v1h-328zM92,178h328v1h-328zM93,179h326v1h-326zM94,180h324v1h-324zM94,181h324v1h-324zM95,182h322v1h-322zM97,183h318v1h-318zM98,184h316v1h-316zM100,185h312v1h-312zM103,186h306v1h-306zM101,240h310v1h-310zM99,241h314v1h-314zM97,242h318v1h-318zM96,243h320v1h-320zM95,244h322v1h-322zM94,245h324v1h-324zM93,246h326v1h-326zM93,247h326v1h-326zM92,248h328v1h-328zM92,249h328v1h-328zM91,250h330v1h-330zM91,251h330v1h-330zM91,252h330v1h-330zM90,253h331v1h-331zM90,254h332v1h-332zM90,255h332v1h-332zM90,256h332v1h-332zM90,257h332v1h-332zM90,258h331v1h-331zM91,259h330v1h-330zM91,260h330v1h-330zM91,261h330v1h-330zM92,262h328v1h-328zM92,263h328v1h-328zM93,264h326v1h-326zM93,265h326v1h-326zM94,266h324v1h-324zM95,267h322v1h-322zM96,268h320v1h-320zM97,269h318v1h-318zM99,270h314v1h-314zM101,271h310v1h-310zM103,325h306v1h-306zM100,326h312v1h-312zM98,327h316v1h-316zM97,328h318v1h-318zM95,329h322v1h-322zM94,330h324v1h-324zM94,331h324v1h-324zM93,332h326v1h-326zM92,333h328v1h-328zM92,334h328v1h-328zM91,335h330v1h-330zM91,336h330v1h-330zM91,337h330v1h-330zM91,338h330v1h-330zM90,339h332v1h-332zM90,340h332v1h-332zM90,341h332v1h-332zM90,342h332v1h-332zM90,343h332v1h-332zM91,344h330v1h-330zM91,345h330v1h-330zM91,346h330v1h-330zM92,347h328v1h-328zM92,348h328v1h-328zM93,349h327v1h-327zM93,350h326v1h-326zM94,351h324v1h-324zM95,352h322v1h-322zM96,353h320v1h-320zM97,354h318v1h-318zM99,355h314v1h-314zM101,356h310v1h-310zM104,357h304v1h-304z"/></svg>