<?xml version="1.0" encoding="UTF-8"?>
<svg xmlns="http://www.w3.org/2000/svg" viewBox="0 0 512 512" width="512" height="512"><path fill="#000" d="M53,64h406v1h-406zM49,65h414v1h-414zM45,66h422v1h-422zM42,67h428v1h-428zM40,68h433v1h-433zM37,69h438v1h-438zM35,70h442v1h-442zM33,71h446v1h-446zM32,72h448v1h-448zM30,73h452v1h-452zM28,74h456v1h-456zM27,75h458v1h-458zM25,76h462v1h-462zM24,77h464v1h-464zM23,78h466v1h-466zM22,79h468v1h-468zM21,80h470v1h-470zM20,81h472v1h-472zM19,82h474v1h-474zM18,83h476v1h-476zM17,84h478v1h-478zM16,85h480v1h-480zM15,86h482v1h-482zM14,87h484v1h-484zM13,88h486v1h-486zM12,89h488v1h-488zM12,90h488v1h-488zM11,91h490v1h-490zM10,92h492v1h-492zM10,93h492v1h-492zM9,94h494v1h-494zM9,95h495v1h-495zM8,96h54v1h-54zM450,96h54v1h-54zM7,97h49v1h-49zM456,97h49v1h-49zM7,98h46v1h-46zM459,98h46v1h-46zM6,99h44v1h-44zM462,99h44v1h-44zM6,100h42v1h-42zM464,100h42v1h-42zM5,101h42v1h-42zM465,101h42v1h-42zM5,102h40v1h-40zM467,102h40v1h-40zM4,103h40v1h-40zM468,103h40v1h-40zM4,104h39v1h-39zM469,104h39v1h-39zM4,105h38v1h-38zM470,105h38v1h-38zM0,106h41v1h-41zM471,106h41v1h-41zM0,107h40v1h-40zM472,107h40v1h-40zM0,108h39v1h-39zM473,108h39v1h-39zM0,109h38v1h-38zM474,109h38v1h-38zM0,110h38v1h-38zM474,110h38v1h-38zM0,111h37v1h-37zM475,111h37v1h-37zM0,112h36v1h-36zM476,112h36v1h-36zM0,113h36v1h-36zM476,113h36v1h-36zM0,114h35v1h-35zM477,114h35v1h-35zM0,115h35v1h-35zM477,115h35v1h-35zM0,116h35v1h-35zM477,116h35v1h-35zM0,117h34v1h-34zM478,117h34v1h-34zM0,118h34v1h-34zM478,118h34v1h-34zM0,119h34v1h-34zM478,119h34v1h-34zM0,120h33v1h-33zM479,120h33v1h-33zM0,121h33v1h-33zM479,121h33v1h-33zM0,122h33v1h-33zM479,122h33v1h-33zM0,123h33v1h-33zM479,123h33v1h-33zM0,124h33v1h-33zM479,124h33v1h-33zM0,125h33v1h-33zM479,125h33v1h-33zM0,126h32v1h-32zM480,126h32v1h-32zM0,127h32v1h-32zM480,127h32v1h-32zM0,128h32v1h-32zM103,128h18v1h-18zM480,128h32v1h-32zM0,129h32v1h-32zM99,129h26v1h-26zM480,129h32v1h-32zM0,130h32v1h-32zM96,130h32v1h-32zM480,130h32v1h-32zM0,131h32v1h-32zM93,131h38v1h-38zM480,131h32v1h-32zM0,132h32v1h-32zM91,132h42v1h-42zM480,132h32v1h-32zM0,133h32v1h-32zM89,133h46v1h-46zM480,133h32v1h-32zM0,134h32v1h-32zM87,134h50v1h-50zM480,134h32v1h-32zM0,135h32v1h-32zM86,135h52v1h-52zM480,135h32v1h-32zM0,136h32v1h-32zM84,136h56v1h-56zM480,136h32v1h-32zM0,137h32v1h-32zM83,137h58v1h-58zM480,137h32v1h-32zM0,138h32v1h-32zM81,138h62v1h-62zM480,138h32v1h-32zM0,139h32v1h-32zM80,139h64v1h-64zM480,139h32v1h-32zM0,140h32v1h-32zM79,140h66v1h-66zM480,140h32v1h-32zM0,141h32v1h-32zM78,141h68v1h-68zM480,141h32v1h-32zM0,142h32v1h-32zM77,142h70v1h-70zM480,142h32v1h-32zM0,143h32v1h-32zM76,143h72v1h-72zM480,143h32v1h-32zM0,144h32v1h-32zM75,144h74v1h-74zM411,144h10v1h-10zM480,144h32v1h-32zM0,145h32v1h-32zM74,145h76v1h-76zM408,145h16v1h-16zM480,145h32v1h-32zM0,146h32v1h-32zM74,146h76v1h-76zM407,146h18v1h-18zM480,146h32v1h-32zM0,147h32v1h-32zM73,147h78v1h-78zM405,147h22v1h-22zM480,147h32v1h-32zM0,148h32v1h-32zM72,148h80v1h-80zM404,148h24v1h-24zM480,148h32v1h-32zM0,149h32v1h-32zM72,149h80v1h-80zM403,149h26v1h-26zM480,149h32v1h-32zM0,150h32v1h-32zM71,150h82v1h-82zM402,150h28v1h-28zM480,150h32v1h-32zM0,151h32v1h-32zM70,151h84v1h-84zM401,151h30v1h-30zM480,151h32v1h-32zM0,152h32v1h-32zM70,152h84v1h-84zM400,152h32v1h-32zM480,152h32v1h-32zM0,153h32v1h-32zM69,153h86v1h-86zM399,153h34v1h-34zM480,153h32v1h-32zM0,154h32v1h-32zM69,154h86v1h-86zM398,154h36v1h-36zM480,154h32v1h-32zM0,155h32v1h-32zM68,155h88v1h-88zM397,155h38v1h-38zM480,155h32v1h-32zM0,156h32v1h-32zM68,156h88v1h-88zM396,156h40v1h-40zM480,156h32v1h-32zM0,157h32v1h-32zM67,157h90v1h-90zM395,157h42v1h-42zM480,157h32v1h-32zM0,158h32v1h-32zM67,158h90v1h-90zM394,158h44v1h-44zM480,158h32v1h-32zM0,159h32v1h-32zM67,159h90v1h-90zM393,159h46v1h-46zM480,159h32v1h-32zM0,160h32v1h-32zM66,160h92v1h-92zM392,160h48v1h-48zM480,160h32v1h-32zM0,161h32v1h-32zM66,161h40v1h-40zM118,161h40v1h-40zM391,161h50v1h-50zM480,161h32v1h-32zM0,162h32v1h-32zM66,162h38v1h-38zM120,162h38v1h-38zM390,162h52v1h-52zM480,162h32v1h-32zM0,163h32v1h-32zM65,163h38v1h-38zM121,163h38v1h-38zM389,163h54v1h-54zM480,163h32v1h-32zM0,164h32v1h-32zM65,164h36v1h-36zM123,164h36v1h-36zM388,164h56v1h-56zM480,164h32v1h-32zM0,165h32v1h-32zM65,165h35v1h-35zM124,165h35v1h-35zM387,165h58v1h-58zM480,165h32v1h-32zM0,166h32v1h-32zM65,166h35v1h-35zM124,166h35v1h-35zM386,166h60v1h-60zM480,166h32v1h-32zM0,167h32v1h-32zM64,167h35v1h-35zM125,167h35v1h-35zM385,167h62v1h-62zM480,167h32v1h-32zM0,168h32v1h-32zM64,168h34v1h-34zM126,168h34v1h-34zM384,168h64v1h-64zM480,168h32v1h-32zM0,169h32v1h-32zM64,169h34v1h-34zM126,169h34v1h-34zM383,169h66v1h-66zM480,169h32v1h-32zM0,170h32v1h-32zM64,170h33v1h-33zM127,170h33v1h-33zM382,170h68v1h-68zM480,170h32v1h-32zM0,171h32v1h-32zM64,171h33v1h-33zM127,171h33v1h-33zM381,171h70v1h-70zM480,171h32v1h-32zM0,172h32v1h-32zM64,172h33v1h-33zM127,172h33v1h-33zM380,172h72v1h-72zM480,172h32v1h-32zM0,173h32v1h-32zM64,173h33v1h-33zM127,173h33v1h-33zM379,173h74v1h-74zM480,173h32v1h-32zM0,174h32v1h-32zM64,174h33v1h-33zM127,174h33v1h-33zM378,174h76v1h-76zM480,174h32v1h-32zM0,175h32v1h-32zM64,175h33v1h-33zM127,175h33v1h-33zM377,175h78v1h-78zM480,175h32v1h-32zM0,176h32v1h-32zM64,176h33v1h-33zM127,176h33v1h-33zM376,176h80v1h-80zM480,176h32v1h-32zM0,177h32v1h-32zM64,177h33v1h-33zM127,177h33v1h-33zM375,177h82v1h-82zM480,177h32v1h-32zM0,178h32v1h-32zM64,178h33v1h-33zM127,178h33v1h-33zM374,178h84v1h-84zM480,178h32v1h-32zM0,179h32v1h-32zM64,179h33v1h-33zM127,179h33v1h-33zM373,179h86v1h-86zM480,179h32v1h-32zM0,180h32v1h-32zM64,180h33v1h-33zM127,180h33v1h-33zM372,180h88v1h-88zM480,180h32v1h-32zM0,181h32v1h-32zM64,181h33v1h-33zM127,181h33v1h-33zM371,181h90v1h-90zM480,181h32v1h-32zM0,182h32v1h-32zM64,182h34v1h-34zM126,182h34v1h-34zM370,182h92v1h-92zM480,182h32v1h-32zM0,183h32v1h-32zM64,183h34v1h-34zM126,183h34v1h-34zM369,183h94v1h-94zM480,183h32v1h-32zM0,184h32v1h-32zM64,184h35v1h-35zM125,184h35v1h-35zM368,184h96v1h-96zM480,184h32v1h-32zM0,185h32v1h-32zM65,185h35v1h-35zM124,185h35v1h-35zM367,185h98v1h-98zM480,185h32v1h-32zM0,186h32v1h-32zM65,186h35v1h-35zM124,186h35v1h-35zM366,186h100v1h-100zM480,186h32v1h-32zM0,187h32v1h-32zM65,187h36v1h-36zM123,187h36v1h-36zM365,187h47v1h-47zM420,187h47v1h-47zM480,187h32v1h-32zM0,188h32v1h-32zM65,188h38v1h-38zM121,188h38v1h-38zM364,188h47v1h-47zM421,188h47v1h-47zM480,188h32v1h-32zM0,189h32v1h-32zM66,189h38v1h-38zM120,189h38v1h-38zM363,189h47v1h-47zM422,189h47v1h-47zM480,189h32v1h-32zM0,190h32v1h-32zM66,190h40v1h-40zM118,190h40v1h-40zM362,190h47v1h-47zM423,190h47v1h-47zM480,190h32v1h-32zM0,191h32v1h-32zM66,191h92v1h-92zM361,191h47v1h-47zM424,191h47v1h-47zM480,191h32v1h-32zM0,192h32v1h-32zM67,192h90v1h-90zM360,192h47v1h-47zM425,192h47v1h-47zM480,192h32v1h-32zM0,193h32v1h-32zM67,193h90v1h-90zM359,193h47v1h-47zM426,193h47v1h-47zM480,193h32v1h-32zM0,194h32v1h-32zM67,194h90v1h-90zM358,194h47v1h-47zM427,194h85v1h-85zM0,195h32v1h-32zM68,195h88v1h-88zM357,195h47v1h-47zM428,195h84v1h-84zM0,196h32v1h-32zM68,196h88v1h-88zM356,196h47v1h-47zM429,196h83v1h-83zM0,197h32v1h-32zM69,197h86v1h-86zM355,197h47v1h-47zM430,197h82v1h-82zM0,198h32v1h-32zM69,198h86v1h-86zM354,198h47v1h-47zM431,198h81v1h-81zM0,199h32v1h-32zM70,199h84v1h-84zM353,199h47v1h-47zM432,199h80v1h-80zM0,200h32v1h-32zM70,200h84v1h-84zM352,200h47v1h-47zM433,200h79v1h-79zM0,201h32v1h-32zM71,201h82v1h-82zM351,201h47v1h-47zM434,201h78v1h-78zM0,202h32v1h-32zM72,202h80v1h-80zM350,202h47v1h-47zM435,202h77v1h-77zM0,203h32v1h-32zM72,203h80v1h-80zM349,203h47v1h-47zM436,203h76v1h-76zM0,204h32v1h-32zM73,204h78v1h-78zM348,204h47v1h-47zM437,204h75v1h-75zM0,205h32v1h-32zM74,205h76v1h-76zM347,205h47v1h-47zM438,205h74v1h-74zM0,206h32v1h-32zM75,206h75v1h-75zM346,206h47v1h-47zM439,206h73v1h-73zM0,207h32v1h-32zM75,207h74v1h-74zM345,207h47v1h-47zM440,207h72v1h-72zM0,208h32v1h-32zM76,208h72v1h-72zM344,208h47v1h-47zM441,208h71v1h-71zM0,209h32v1h-32zM77,209h70v1h-70zM343,209h47v1h-47zM442,209h70v1h-70zM0,210h32v1h-32zM78,210h68v1h-68zM223,210h7v1h-7zM342,210h47v1h-47zM443,210h69v1h-69zM0,211h32v1h-32zM79,211h66v1h-66zM220,211h13v1h-13zM341,211h47v1h-47zM444,211h68v1h-68zM0,212h32v1h-32zM80,212h64v1h-64zM218,212h17v1h-17zM340,212h47v1h-47zM445,212h67v1h-67zM0,213h32v1h-32zM82,213h60v1h-60zM216,213h20v1h-20zM339,213h47v1h-47zM446,213h66v1h-66zM0,214h32v1h-32zM83,214h58v1h-58zM215,214h23v1h-23zM338,214h47v1h-47zM447,214h65v1h-65zM0,215h32v1h-32zM84,215h56v1h-56zM214,215h25v1h-25zM337,215h47v1h-47zM448,215h64v1h-64zM0,216h32v1h-32zM86,216h52v1h-52zM213,216h27v1h-27zM336,216h47v1h-47zM449,216h63v1h-63zM0,217h32v1h-32zM87,217h50v1h-50zM212,217h29v1h-29zM335,217h47v1h-47zM450,217h62v1h-62zM0,218h32v1h-32zM89,218h46v1h-46zM211,218h31v1h-31zM334,218h47v1h-47zM451,218h61v1h-61zM0,219h32v1h-32zM91,219h42v1h-42zM210,219h33v1h-33zM333,219h47v1h-47zM452,219h60v1h-60zM0,220h32v1h-32zM93,220h38v1h-38zM209,220h35v1h-35zM332,220h47v1h-47zM453,220h59v1h-59zM0,221h32v1h-32zM96,221h32v1h-32zM208,221h37v1h-37zM331,221h47v1h-47zM454,221h58v1h-58zM0,222h32v1h-32zM99,222h26v1h-26zM207,222h39v1h-39zM330,222h47v1h-47zM455,222h57v1h-57zM0,223h32v1h-32zM103,223h18v1h-18zM206,223h41v1h-41zM329,223h47v1h-47zM456,223h56v1h-56zM0,224h32v1h-32zM205,224h43v1h-43zM328,224h47v1h-47zM457,224h55v1h-55zM0,225h32v1h-32zM204,225h45v1h-45zM327,225h47v1h-47zM458,225h54v1h-54zM0,226h32v1h-32zM203,226h47v1h-47zM326,226h47v1h-47zM459,226h53v1h-53zM0,227h32v1h-32zM202,227h49v1h-49zM325,227h47v1h-47zM460,227h52v1h-52zM0,228h32v1h-32zM201,228h51v1h-51zM324,228h47v1h-47zM461,228h51v1h-51zM0,229h32v1h-32zM200,229h53v1h-53zM323,229h47v1h-47zM462,229h50v1h-50zM0,230h32v1h-32zM199,230h55v1h-55zM322,230h47v1h-47zM463,230h49v1h-49zM0,231h32v1h-32zM198,231h57v1h-57zM321,231h47v1h-47zM464,231h48v1h-48zM0,232h32v1h-32zM197,232h59v1h-59zM320,232h47v1h-47zM465,232h47v1h-47zM0,233h32v1h-32zM196,233h61v1h-61zM319,233h47v1h-47zM466,233h46v1h-46zM0,234h32v1h-32zM195,234h63v1h-63zM318,234h47v1h-47zM467,234h45v1h-45zM0,235h32v1h-32zM194,235h65v1h-65zM317,235h47v1h-47zM468,235h44v1h-44zM0,236h32v1h-32zM193,236h67v1h-67zM316,236h47v1h-47zM469,236h43v1h-43zM0,237h32v1h-32zM192,237h69v1h-69zM315,237h47v1h-47zM470,237h42v1h-42zM0,238h32v1h-32zM191,238h71v1h-71zM314,238h47v1h-47zM471,238h41v1h-41zM0,239h32v1h-32zM190,239h73v1h-73zM313,239h47v1h-47zM472,239h40v1h-40zM0,240h32v1h-32zM189,240h75v1h-75zM312,240h47v1h-47zM473,240h39v1h-39zM0,241h32v1h-32zM188,241h77v1h-77zM311,241h47v1h-47zM474,241h38v1h-38zM0,242h32v1h-32zM187,242h79v1h-79zM310,242h47v1h-47zM475,242h37v1h-37zM0,243h32v1h-32zM186,243h81v1h-81zM309,243h47v1h-47zM476,243h36v1h-36zM0,244h32v1h-32zM185,244h83v1h-83zM308,244h47v1h-47zM477,244h35v1h-35zM0,245h32v1h-32zM184,245h85v1h-85zM307,245h47v1h-47zM478,245h34v1h-34zM0,246h32v1h-32zM183,246h87v1h-87zM306,246h47v1h-47zM479,246h33v1h-33zM0,247h32v1h-32zM182,247h89v1h-89zM305,247h47v1h-47zM480,247h32v1h-32zM0,248h32v1h-32zM181,248h91v1h-91zM304,248h47v1h-47zM480,248h32v1h-32zM0,249h32v1h-32zM180,249h93v1h-93zM303,249h47v1h-47zM480,249h32v1h-32zM0,250h32v1h-32zM179,250h95v1h-95zM302,250h47v1h-47zM480,250h32v1h-32zM0,251h32v1h-32zM178,251h97v1h-97zM301,251h47v1h-47zM480,251h32v1h-32zM0,252h32v1h-32zM177,252h99v1h-99zM300,252h47v1h-47zM480,252h32v1h-32zM0,253h32v1h-32zM176,253h46v1h-46zM230,253h47v1h-47zM299,253h47v1h-47zM480,253h32v1h-32zM0,254h32v1h-32zM175,254h46v1h-46zM231,254h47v1h-47zM298,254h47v1h-47zM480,254h32v1h-32zM0,255h32v1h-32zM174,255h46v1h-46zM232,255h47v1h-47zM297,255h47v1h-47zM480,255h32v1h-32zM0,256h32v1h-32zM173,256h46v1h-46zM233,256h47v1h-47zM296,256h47v1h-47zM480,256h32v1h-32zM0,257h32v1h-32zM172,257h46v1h-46zM234,257h47v1h-47zM295,257h47v1h-47zM480,257h32v1h-32zM0,258h32v1h-32zM171,258h46v1h-46zM235,258h47v1h-47zM294,258h47v1h-47zM480,258h32v1h-32zM0,259h32v1h-32zM170,259h46v1h-46zM236,259h47v1h-47zM293,259h47v1h-47zM480,259h32v1h-32zM0,260h32v1h-32zM169,260h46v1h-46zM237,260h47v1h-47zM292,260h47v1h-47zM480,260h32v1h-32zM0,261h32v1h-32zM168,261h46v1h-46zM238,261h100v1h-100zM480,261h32v1h-32zM0,262h32v1h-32zM167,262h46v1h-46zM239,262h98v1h-98zM480,262h32v1h-32zM0,263h32v1h-32zM166,263h46v1h-46zM240,263h96v1h-96zM480,263h32v1h-32zM0,264h32v1h-32zM165,264h46v1h-46zM241,264h94v1h-94zM480,264h32v1h-32zM0,265h32v1h-32zM164,265h46v1h-46zM242,265h92v1h-92zM480,265h32v1h-32zM0,266h32v1h-32zM163,266h46v1h-46zM243,266h90v1h-90zM480,266h32v1h-32zM0,267h32v1h-32zM162,267h46v1h-46zM244,267h88v1h-88zM480,267h32v1h-32zM0,268h32v1h-32zM161,268h46v1h-46zM245,268h86v1h-86zM480,268h32v1h-32zM0,269h32v1h-32zM160,269h46v1h-46zM246,269h84v1h-84zM480,269h32v1h-32zM0,270h32v1h-32zM159,270h46v1h-46zM247,270h82v1h-82zM480,270h32v1h-32zM0,271h32v1h-32zM158,271h46v1h-46zM248,271h80v1h-80zM480,271h32v1h-32zM0,272h32v1h-32zM157,272h46v1h-46zM249,272h78v1h-78zM480,272h32v1h-32zM0,273h32v1h-32zM156,273h46v1h-46zM250,273h76v1h-76zM480,273h32v1h-32zM0,274h32v1h-32zM155,274h46v1h-46zM251,274h74v1h-74zM480,274h32v1h-32zM0,275h32v1h-32zM154,275h46v1h-46zM252,275h72v1h-72zM480,275h32v1h-32zM0,276h32v1h-32zM153,276h46v1h-46zM253,276h70v1h-70zM480,276h32v1h-32zM0,277h32v1h-32zM152,277h46v1h-46zM254,277h68v1h-68zM480,277h32v1h-32zM0,278h32v1h-32zM151,278h46v1h-46zM255,278h66v1h-66zM480,278h32v1h-32zM0,279h32v1h-32zM150,279h46v1h-46zM256,279h64v1h-64zM480,279h32v1h-32zM0,280h32v1h-32zM149,280h46v1h-46zM257,280h62v1h-62zM480,280h32v1h-32zM0,281h32v1h-32zM148,281h46v1h-46zM258,281h60v1h-60zM480,281h32v1h-32zM0,282h32v1h-32zM147,282h46v1h-46zM259,282h58v1h-58zM480,282h32v1h-32zM0,283h32v1h-32zM146,283h46v1h-46zM260,283h56v1h-56zM480,283h32v1h-32zM0,284h32v1h-32zM145,284h46v1h-46zM261,284h54v1h-54zM480,284h32v1h-32zM0,285h32v1h-32zM144,285h46v1h-46zM262,285h53v1h-53zM480,285h32v1h-32zM0,286h32v1h-32zM143,286h46v1h-46zM263,286h52v1h-52zM480,286h32v1h-32zM0,287h32v1h-32zM142,287h46v1h-46zM264,287h51v1h-51zM480,287h32v1h-32zM0,288h32v1h-32zM141,288h46v1h-46zM265,288h50v1h-50zM480,288h32v1h-32zM0,289h32v1h-32zM140,289h46v1h-46zM266,289h49v1h-49zM480,289h32v1h-32zM0,290h32v1h-32zM139,290h46v1h-46zM267,290h48v1h-48zM480,290h32v1h-32zM0,291h32v1h-32zM138,291h46v1h-46zM268,291h47v1h-47zM480,291h32v1h-32zM0,292h32v1h-32zM137,292h46v1h-46zM269,292h47v1h-47zM480,292h32v1h-32zM0,293h32v1h-32zM136,293h46v1h-46zM270,293h47v1h-47zM480,293h32v1h-32zM0,294h32v1h-32zM135,294h46v1h-46zM271,294h47v1h-47zM480,294h32v1h-32zM0,295h32v1h-32zM134,295h46v1h-46zM272,295h47v1h-47zM480,295h32v1h-32zM0,296h32v1h-32zM133,296h46v1h-46zM273,296h47v1h-47zM480,296h32v1h-32zM0,297h32v1h-32zM132,297h46v1h-46zM274,297h47v1h-47zM480,297h32v1h-32zM0,298h32v1h-32zM131,298h46v1h-46zM275,298h47v1h-47zM480,298h32v1h-32zM0,299h32v1h-32zM130,299h46v1h-46zM276,299h47v1h-47zM480,299h32v1h-32zM0,300h32v1h-32zM129,300h46v1h-46zM277,300h47v1h-47zM480,300h32v1h-32zM0,301h32v1h-32zM128,301h46v1h-46zM278,301h47v1h-47zM480,301h32v1h-32zM0,302h32v1h-32zM127,302h46v1h-46zM279,302h47v1h-47zM480,302h32v1h-32zM0,303h32v1h-32zM126,303h46v1h-46zM280,303h47v1h-47zM480,303h32v1h-32zM0,304h32v1h-32zM125,304h46v1h-46zM281,304h47v1h-47zM480,304h32v1h-32zM0,305h32v1h-32zM124,305h46v1h-46zM282,305h47v1h-47zM480,305h32v1h-32zM0,306h32v1h-32zM123,306h46v1h-46zM283,306h47v1h-47zM480,306h32v1h-32zM0,307h32v1h-32zM122,307h46v1h-46zM284,307h47v1h-47zM480,307h32v1h-32zM0,308h32v1h-32zM121,308h46v1h-46zM285,308h47v1h-47zM480,308h32v1h-32zM0,309h32v1h-32zM120,309h46v1h-46zM286,309h47v1h-47zM480,309h32v1h-32zM0,310h32v1h-32zM119,310h46v1h-46zM287,310h47v1h-47zM480,310h32v1h-32zM0,311h32v1h-32zM118,311h46v1h-46zM288,311h47v1h-47zM480,311h32v1h-32zM0,312h32v1h-32zM117,312h46v1h-46zM289,312h47v1h-47zM480,312h32v1h-32zM0,313h32v1h-32zM116,313h46v1h-46zM290,313h47v1h-47zM480,313h32v1h-32zM0,314h32v1h-32zM115,314h46v1h-46zM291,314h47v1h-47zM480,314h32v1h-32zM0,315h32v1h-32zM114,315h46v1h-46zM292,315h47v1h-47zM480,315h32v1h-32zM0,316h32v1h-32zM113,316h46v1h-46zM293,316h47v1h-47zM480,316h32v1h-32zM0,317h32v1h-32zM112,317h46v1h-46zM294,317h47v1h-47zM480,317h32v1h-32zM0,318h32v1h-32zM111,318h46v1h-46zM295,318h47v1h-47zM480,318h32v1h-32zM0,319h32v1h-32zM110,319h46v1h-46zM296,319h47v1h-47zM480,319h32v1h-32zM0,320h32v1h-32zM109,320h46v1h-46zM297,320h47v1h-47zM480,320h32v1h-32zM0,321h32v1h-32zM108,321h46v1h-46zM298,321h47v1h-47zM480,321h32v1h-32zM0,322h32v1h-32zM107,322h46v1h-46zM299,322h47v1h-47zM480,322h32v1h-32zM0,323h32v1h-32zM106,323h46v1h-46zM300,323h47v1h-47zM480,323h32v1h-32zM0,324h32v1h-32zM105,324h46v1h-46zM301,324h47v1h-47zM480,324h32v1h-32zM0,325h32v1h-32zM104,325h46v1h-46zM302,325h47v1h-47zM480,325h32v1h-32zM0,326h32v1h-32zM103,326h46v1h-46zM303,326h47v1h-47zM480,326h32v1h-32zM0,327h32v1h-32zM102,327h46v1h-46zM304,327h47v1h-47zM480,327h32v1h-32zM0,328h32v1h-32zM101,328h46v1h-46zM305,328h47v1h-47zM480,328h32v1h-32zM0,329h32v1h-32zM100,329h46v1h-46zM306,329h47v1h-47zM480,329h32v1h-32zM0,330h32v1h-32zM99,330h46v1h-46zM307,330h47v1h-47zM480,330h32v1h-32zM0,331h32v1h-32zM98,331h46v1h-46zM308,331h47v1h-47zM480,331h32v1h-32zM0,332h32v1h-32zM97,332h46v1h-46zM309,332h47v1h-47zM480,332h32v1h-32zM0,333h32v1h-32zM96,333h46v1h-46zM310,333h47v1h-47zM480,333h32v1h-32zM0,334h32v1h-32zM95,334h46v1h-46zM311,334h47v1h-47zM480,334h32v1h-32zM0,335h32v1h-32zM94,335h46v1h-46zM312,335h47v1h-47zM480,335h32v1h-32zM0,336h32v1h-32zM93,336h46v1h-46zM313,336h47v1h-47zM480,336h32v1h-32zM0,337h32v1h-32zM92,337h46v1h-46zM314,337h47v1h-47zM480,337h32v1h-32zM0,338h32v1h-32zM91,338h46v1h-46zM315,338h47v1h-47zM480,338h32v1h-32zM0,339h32v1h-32zM90,339h46v1h-46zM316,339h47v1h-47zM480,339h32v1h-32zM0,340h32v1h-32zM89,340h46v1h-46zM317,340h47v1h-47zM480,340h32v1h-32zM0,341h32v1h-32zM88,341h46v1h-46zM318,341h47v1h-47zM480,341h32v1h-32zM0,342h32v1h-32zM87,342h46v1h-46zM319,342h46v1h-46zM480,342h32v1h-32zM0,343h32v1h-32zM86,343h46v1h-46zM320,343h46v1h-46zM480,343h32v1h-32zM0,344h32v1h-32zM85,344h46v1h-46zM321,344h45v1h-45zM480,344h32v1h-32zM0,345h32v1h-32zM84,345h46v1h-46zM322,345h45v1h-45zM480,345h32v1h-32zM0,346h32v1h-32zM83,346h46v1h-46zM323,346h44v1h-44zM480,346h32v1h-32zM0,347h32v1h-32zM82,347h46v1h-46zM324,347h44v1h-44zM480,347h32v1h-32zM0,348h32v1h-32zM81,348h46v1h-46zM325,348h43v1h-43zM480,348h32v1h-32zM0,349h32v1h-32zM80,349h46v1h-46zM326,349h42v1h-42zM480,349h32v1h-32zM0,350h32v1h-32zM79,350h46v1h-46zM327,350h41v1h-41zM480,350h32v1h-32zM0,351h32v1h-32zM78,351h46v1h-46zM328,351h40v1h-40zM480,351h32v1h-32zM0,352h32v1h-32zM77,352h46v1h-46zM329,352h39v1h-39zM480,352h32v1h-32zM0,353h32v1h-32zM76,353h46v1h-46zM330,353h38v1h-38zM480,353h32v1h-32zM0,354h32v1h-32zM75,354h46v1h-46zM331,354h37v1h-37zM480,354h32v1h-32zM0,355h32v1h-32zM74,355h46v1h-46zM332,355h36v1h-36zM480,355h32v1h-32zM0,356h32v1h-32zM73,356h46v1h-46zM333,356h34v1h-34zM480,356h32v1h-32zM0,357h32v1h-32zM72,357h46v1h-46zM334,357h33v1h-33zM480,357h32v1h-32zM0,358h32v1h-32zM71,358h46v1h-46zM335,358h32v1h-32zM480,358h32v1h-32zM0,359h32v1h-32zM70,359h46v1h-46zM336,359h30v1h-30zM480,359h32v1h-32zM0,360h32v1h-32zM69,360h46v1h-46zM337,360h29v1h-29zM480,360h32v1h-32zM0,361h32v1h-32zM68,361h46v1h-46zM338,361h27v1h-27zM480,361h32v1h-32zM0,362h32v1h-32zM67,362h46v1h-46zM339,362h25v1h-25zM480,362h32v1h-32zM0,363h32v1h-32zM66,363h46v1h-46zM340,363h23v1h-23zM480,363h32v1h-32zM0,364h32v1h-32zM65,364h46v1h-46zM341,364h21v1h-21zM480,364h32v1h-32zM0,365h32v1h-32zM64,365h46v1h-46zM343,365h18v1h-18zM480,365h32v1h-32zM0,366h32v1h-32zM63,366h46v1h-46zM345,366h14v1h-14zM480,366h32v1h-32zM0,367h32v1h-32zM62,367h46v1h-46zM347,367h9v1h-9zM480,367h32v1h-32zM0,368h32v1h-32zM61,368h46v1h-46zM480,368h32v1h-32zM0,369h32v1h-32zM60,369h46v1h-46zM480,369h32v1h-32zM0,370h32v1h-32zM59,370h46v1h-46zM480,370h32v1h-32zM0,371h32v1h-32zM58,371h46v1h-46zM480,371h32v1h-32zM0,372h32v1h-32zM57,372h46v1h-46zM480,372h32v1h-32zM0,373h32v1h-32zM56,373h46v1h-46zM480,373h32v1h-32zM0,374h32v1h-32zM55,374h46v1h-46zM480,374h32v1h-32zM0,375h32v1h-32zM54,375h46v1h-46zM480,375h32v1h-32zM0,376h32v1h-32zM53,376h46v1h-46zM480,376h32v1h-32zM0,377h32v1h-32zM52,377h46v1h-46zM480,377h32v1h-32zM0,378h32v1h-32zM51,378h46v1h-46zM480,378h32v1h-32zM0,379h32v1h-32zM50,379h46v1h-46zM480,379h32v1h-32zM0,380h32v1h-32zM49,380h46v1h-46zM480,380h32v1h-32zM0,381h32v1h-32zM48,381h46v1h-46zM480,381h32v1h-32zM0,382h32v1h-32zM47,382h46v1h-46zM480,382h32v1h-32zM0,383h32v1h-32zM46,383h46v1h-46zM480,383h32v1h-32zM0,384h32v1h-32zM45,384h46v1h-46zM480,384h32v1h-32zM0,385h32v1h-32zM44,385h46v1h-46zM480,385h32v1h-32zM0,386h33v1h-33zM43,386h46v1h-46zM479,386h33v1h-33zM0,387h33v1h-33zM42,387h46v1h-46zM479,387h33v1h-33zM0,388h33v1h-33zM41,388h46v1h-46zM479,388h33v1h-33zM0,389h33v1h-33zM40,389h46v1h-46zM479,389h33v1h-33zM0,390h85v1h-85zM479,390h33v1h-33zM0,391h84v1h-84zM479,391h33v1h-33zM0,392h83v1h-83zM478,392h34v1h-34zM0,393h82v1h-82zM478,393h34v1h-34zM0,394h81v1h-81zM478,394h34v1h-34zM0,395h80v1h-80zM477,395h35v1h-35zM0,396h79v1h-79zM477,396h35v1h-35zM0,397h78v1h-78zM477,397h35v1h-35zM0,398h77v1h-77zM476,398h36v1h-36zM0,399h76v1h-76zM476,399h36v1h-36zM0,400h75v1h-75zM475,400h37v1h-37zM0,401h74v1h-74zM474,401h38v1h-38zM0,402h73v1h-73zM474,402h38v1h-38zM0,403h72v1h-72zM473,403h39v1h-39zM0,404h71v1h-71zM472,404h40v1h-40zM0,405h70v1h-70zM471,405h41v1h-41zM4,406h65v1h-65zM470,406h38v1h-38zM4,407h64v1h-64zM469,407h39v1h-39zM5,408h62v1h-62zM468,408h40v1h-40zM5,409h61v1h-61zM467,409h40v1h-40zM6,410h60v1h-60zM465,410h42v1h-42zM6,411h60v1h-60zM464,411h42v1h-42zM6,412h60v1h-60zM462,412h44v1h-44zM7,413h59v1h-59zM459,413h46v1h-46zM8,414h58v1h-58zM456,414h49v1h-49zM8,415h58v1h-58zM450,415h54v1h-54zM9,416h494v1h-494zM9,417h494v1h-494zM10,418h492v1h-492zM11,419h491v1h-491zM11,420h490v1h-490zM12,421h488v1h-488zM13,422h487v1h-487zM14,423h485v1h-485zM14,424h484v1h-484zM15,425h482v1h-482zM16,426h480v1h-480zM17,427h478v1h-478zM18,428h476v1h-476zM19,429h474v1h-474zM20,430h472v1h-472zM21,431h470v1h-470zM22,432h468v1h-468zM23,433h466v1h-466zM25,434h463v1h-463zM26,435h461v1h-461zM27,436h458v1h-458zM29,437h455v1h-455zM30,438h452v1h-452zM32,439h448v1h-448zM34,440h445v1h-445zM35,441h442v1h-442zM38,442h437v1h-437zM40,443h433v1h-433zM42,444h428v1h-428zM45,445h422v1h-422zM49,446h414v1h-414zM54,447h404v1h-404z"/></svg>