<?xml version="1.0" encoding="UTF-8"?>
<svg xmlns="http://www.w3.org/2000/svg" viewBox="0 0 512 512" width="512" height="512"><path fill="#000" d="M224,0h64v1h-64zM224,1h64v1h-64zM224,2h64v1h-64zM219,3h74v1h-74zM215,4h83v1h-83zM210,5h92v1h-92zM207,6h98v1h-98zM203,7h106v1h-106zM200,8h112v1h-112zM197,9h118v1h-118zM194,10h124v1h-124zM192,11h128v1h-128zM189,12h134v1h-134zM187,13h138v1h-138zM184,14h144v1h-144zM182,15h148v1h-148zM180,16h152v1h-152zM178,17h156v1h-156zM176,18h160v1h-160zM174,19h164v1h-164zM172,20h168v1h-168zM170,21h172v1h-172zM168,22h176v1h-176zM167,23h179v1h-179zM165,24h182v1h-182zM163,25h186v1h-186zM161,26h190v1h-190zM160,27h192v1h-192zM158,28h196v1h-196zM157,29h198v1h-198zM155,30h96v1h-96zM261,30h96v1h-96zM154,31h84v1h-84zM274,31h84v1h-84zM152,32h79v1h-79zM281,32h79v1h-79zM151,33h74v1h-74zM287,33h74v1h-74zM150,34h71v1h-71zM291,34h71v1h-71zM148,35h69v1h-69zM295,35h69v1h-69zM147,36h67v1h-67zM298,36h67v1h-67zM146,37h64v1h-64zM302,37h64v1h-64zM144,38h63v1h-63zM305,38h63v1h-63zM143,39h61v1h-61zM308,39h61v1h-61zM142,40h60v1h-60zM310,40h60v1h-60zM141,41h58v1h-58zM313,41h58v1h-58zM139,42h58v1h-58zM315,42h58v1h-58zM138,43h57v1h-57zM317,43h57v1h-57zM137,44h56v1h-56zM319,44h56v1h-56zM136,45h54v1h-54zM322,45h54v1h-54zM135,46h54v1h-54zM323,46h54v1h-54zM134,47h53v1h-53zM325,47h53v1h-53zM133,48h52v1h-52zM327,48h52v1h-52zM132,49h51v1h-51zM329,49h51v1h-51zM131,50h50v1h-50zM331,50h50v1h-50zM130,51h49v1h-49zM333,51h49v1h-49zM129,52h49v1h-49zM334,52h49v1h-49zM128,53h48v1h-48zM336,53h48v1h-48zM127,54h48v1h-48zM337,54h48v1h-48zM126,55h47v1h-47zM339,55h47v1h-47zM125,56h47v1h-47zM340,56h47v1h-47zM124,57h46v1h-46zM342,57h46v1h-46zM123,58h46v1h-46zM343,58h46v1h-46zM122,59h45v1h-45zM345,59h45v1h-45zM121,60h45v1h-45zM346,60h45v1h-45zM120,61h45v1h-45zM347,61h45v1h-45zM119,62h45v1h-45zM349,62h44v1h-44zM118,63h44v1h-44zM350,63h44v1h-44zM118,64h43v1h-43zM351,64h43v1h-43zM117,65h43v1h-43zM352,65h43v1h-43zM116,66h43v1h-43zM353,66h43v1h-43zM115,67h43v1h-43zM355,67h42v1h-42zM114,68h42v1h-42zM356,68h42v1h-42zM114,69h41v1h-41zM357,69h41v1h-41zM113,70h41v1h-41zM358,70h41v1h-41zM112,71h41v1h-41zM359,71h41v1h-41zM111,72h41v1h-41zM360,72h41v1h-41zM111,73h40v1h-40zM361,73h40v1h-40zM110,74h40v1h-40zM362,74h40v1h-40zM109,75h40v1h-40zM363,75h40v1h-40zM108,76h40v1h-40zM364,76h40v1h-40zM108,77h39v1h-39zM365,77h39v1h-39zM107,78h39v1h-39zM366,78h39v1h-39zM106,79h39v1h-39zM367,79h39v1h-39zM106,80h38v1h-38zM368,80h38v1h-38zM105,81h39v1h-39zM368,81h39v1h-39zM104,82h39v1h-39zM369,82h39v1h-39zM104,83h38v1h-38zM370,83h38v1h-38zM103,84h38v1h-38zM371,84h38v1h-38zM102,85h38v1h-38zM372,85h38v1h-38zM102,86h37v1h-37zM373,86h37v1h-37zM101,87h38v1h-38zM373,87h38v1h-38zM101,88h37v1h-37zM374,88h37v1h-37zM100,89h37v1h-37zM375,89h37v1h-37zM100,90h36v1h-36zM243,90h26v1h-26zM376,90h36v1h-36zM99,91h36v1h-36zM238,91h36v1h-36zM377,91h36v1h-36zM98,92h37v1h-37zM233,92h46v1h-46zM377,92h37v1h-37zM98,93h36v1h-36zM230,93h52v1h-52zM378,93h36v1h-36zM97,94h36v1h-36zM227,94h58v1h-58zM379,94h36v1h-36zM97,95h36v1h-36zM224,95h64v1h-64zM379,95h36v1h-36zM96,96h36v1h-36zM221,96h70v1h-70zM380,96h36v1h-36zM96,97h35v1h-35zM219,97h74v1h-74zM381,97h35v1h-35zM95,98h36v1h-36zM217,98h78v1h-78zM381,98h36v1h-36zM95,99h35v1h-35zM215,99h82v1h-82zM382,99h35v1h-35zM94,100h35v1h-35zM213,100h86v1h-86zM383,100h35v1h-35zM94,101h35v1h-35zM211,101h90v1h-90zM383,101h35v1h-35zM93,102h35v1h-35zM210,102h93v1h-93zM384,102h35v1h-35zM93,103h34v1h-34zM208,103h96v1h-96zM385,103h34v1h-34zM92,104h35v1h-35zM206,104h100v1h-100zM385,104h35v1h-35zM92,105h34v1h-34zM205,105h102v1h-102zM386,105h34v1h-34zM91,106h35v1h-35zM203,106h106v1h-106zM386,106h35v1h-35zM91,107h34v1h-34zM202,107h108v1h-108zM387,107h34v1h-34zM90,108h35v1h-35zM201,108h110v1h-110zM387,108h35v1h-35zM90,109h34v1h-34zM200,109h113v1h-113zM388,109h34v1h-34zM90,110h34v1h-34zM198,110h116v1h-116zM388,110h34v1h-34zM89,111h34v1h-34zM197,111h118v1h-118zM389,111h34v1h-34zM89,112h34v1h-34zM196,112h120v1h-120zM389,112h34v1h-34zM88,113h34v1h-34zM195,113h122v1h-122zM390,113h34v1h-34zM88,114h34v1h-34zM194,114h124v1h-124zM390,114h34v1h-34zM88,115h33v1h-33zM193,115h126v1h-126zM391,115h33v1h-33zM87,116h34v1h-34zM192,116h128v1h-128zM391,116h34v1h-34zM87,117h33v1h-33zM191,117h130v1h-130zM392,117h33v1h-33zM86,118h34v1h-34zM190,118h132v1h-132zM392,118h34v1h-34zM86,119h33v1h-33zM189,119h134v1h-134zM393,119h33v1h-33zM86,120h33v1h-33zM188,120h64v1h-64zM260,120h64v1h-64zM393,120h33v1h-33zM85,121h33v1h-33zM187,121h57v1h-57zM268,121h57v1h-57zM394,121h33v1h-33zM85,122h33v1h-33zM186,122h54v1h-54zM272,122h54v1h-54zM394,122h33v1h-33zM85,123h33v1h-33zM186,123h51v1h-51zM275,123h51v1h-51zM394,123h33v1h-33zM84,124h33v1h-33zM185,124h49v1h-49zM278,124h49v1h-49zM395,124h33v1h-33zM84,125h33v1h-33zM184,125h48v1h-48zM280,125h48v1h-48zM395,125h33v1h-33zM84,126h32v1h-32zM183,126h47v1h-47zM282,126h47v1h-47zM396,126h32v1h-32zM83,127h33v1h-33zM182,127h46v1h-46zM284,127h45v1h-45zM396,127h33v1h-33zM83,128h33v1h-33zM182,128h44v1h-44zM286,128h44v1h-44zM396,128h33v1h-33zM83,129h32v1h-32zM181,129h43v1h-43zM288,129h43v1h-43zM397,129h32v1h-32zM83,130h32v1h-32zM180,130h43v1h-43zM289,130h43v1h-43zM397,130h32v1h-32zM82,131h33v1h-33zM180,131h41v1h-41zM291,131h41v1h-41zM397,131h33v1h-33zM82,132h32v1h-32zM179,132h41v1h-41zM292,132h41v1h-41zM398,132h32v1h-32zM82,133h32v1h-32zM179,133h40v1h-40zM293,133h40v1h-40zM398,133h32v1h-32zM81,134h32v1h-32zM178,134h39v1h-39zM295,134h39v1h-39zM399,134h32v1h-32zM81,135h32v1h-32zM177,135h39v1h-39zM296,135h39v1h-39zM399,135h32v1h-32zM81,136h32v1h-32zM177,136h38v1h-38zM297,136h38v1h-38zM399,136h32v1h-32zM81,137h32v1h-32zM176,137h38v1h-38zM298,137h38v1h-38zM399,137h32v1h-32zM81,138h31v1h-31zM176,138h37v1h-37zM299,138h37v1h-37zM400,138h31v1h-31zM80,139h32v1h-32zM175,139h37v1h-37zM300,139h37v1h-37zM400,139h32v1h-32zM80,140h32v1h-32zM175,140h36v1h-36zM301,140h36v1h-36zM400,140h32v1h-32zM80,141h31v1h-31zM174,141h36v1h-36zM301,141h37v1h-37zM401,141h31v1h-31zM80,142h31v1h-31zM174,142h36v1h-36zM302,142h36v1h-36zM401,142h31v1h-31zM79,143h32v1h-32zM173,143h36v1h-36zM303,143h36v1h-36zM401,143h32v1h-32zM79,144h32v1h-32zM173,144h35v1h-35zM304,144h35v1h-35zM401,144h32v1h-32zM79,145h31v1h-31zM173,145h34v1h-34zM305,145h35v1h-35zM402,145h31v1h-31zM79,146h31v1h-31zM172,146h35v1h-35zM305,146h35v1h-35zM402,146h31v1h-31zM79,147h31v1h-31zM172,147h34v1h-34zM306,147h34v1h-34zM402,147h31v1h-31zM78,148h32v1h-32zM171,148h34v1h-34zM307,148h34v1h-34zM402,148h32v1h-32zM78,149h32v1h-32zM171,149h34v1h-34zM307,149h34v1h-34zM402,149h32v1h-32zM78,150h31v1h-31zM171,150h33v1h-33zM308,150h33v1h-33zM403,150h31v1h-31zM78,151h31v1h-31zM170,151h34v1h-34zM308,151h34v1h-34zM403,151h31v1h-31zM78,152h31v1h-31zM170,152h33v1h-33zM309,152h33v1h-33zM403,152h31v1h-31zM78,153h31v1h-31zM170,153h33v1h-33zM309,153h33v1h-33zM403,153h31v1h-31zM78,154h31v1h-31zM169,154h33v1h-33zM310,154h33v1h-33zM403,154h31v1h-31zM77,155h31v1h-31zM169,155h33v1h-33zM310,155h33v1h-33zM404,155h31v1h-31zM77,156h31v1h-31zM169,156h32v1h-32zM311,156h32v1h-32zM404,156h31v1h-31zM77,157h31v1h-31zM168,157h33v1h-33zM311,157h33v1h-33zM404,157h31v1h-31zM77,158h31v1h-31zM168,158h32v1h-32zM312,158h32v1h-32zM404,158h31v1h-31zM77,159h31v1h-31zM168,159h32v1h-32zM312,159h32v1h-32zM404,159h31v1h-31zM77,160h31v1h-31zM168,160h32v1h-32zM312,160h32v1h-32zM404,160h31v1h-31zM77,161h31v1h-31zM168,161h31v1h-31zM313,161h31v1h-31zM404,161h31v1h-31zM77,162h30v1h-30zM167,162h32v1h-32zM313,162h32v1h-32zM405,162h30v1h-30zM76,163h31v1h-31zM167,163h32v1h-32zM313,163h32v1h-32zM405,163h31v1h-31zM76,164h31v1h-31zM167,164h31v1h-31zM314,164h31v1h-31zM405,164h31v1h-31zM76,165h31v1h-31zM167,165h31v1h-31zM314,165h31v1h-31zM405,165h31v1h-31zM76,166h31v1h-31zM167,166h31v1h-31zM314,166h31v1h-31zM405,166h31v1h-31zM76,167h31v1h-31zM167,167h31v1h-31zM314,167h31v1h-31zM405,167h31v1h-31zM76,168h31v1h-31zM166,168h32v1h-32zM314,168h32v1h-32zM405,168h31v1h-31zM76,169h31v1h-31zM166,169h31v1h-31zM315,169h31v1h-31zM405,169h31v1h-31zM76,170h31v1h-31zM166,170h31v1h-31zM315,170h31v1h-31zM405,170h31v1h-31zM76,171h31v1h-31zM166,171h31v1h-31zM315,171h31v1h-31zM405,171h31v1h-31zM76,172h31v1h-31zM166,172h31v1h-31zM315,172h31v1h-31zM405,172h31v1h-31zM76,173h31v1h-31zM166,173h31v1h-31zM315,173h31v1h-31zM405,173h31v1h-31zM76,174h31v1h-31zM166,174h31v1h-31zM315,174h31v1h-31zM405,174h31v1h-31zM76,175h31v1h-31zM166,175h31v1h-31zM315,175h31v1h-31zM405,175h31v1h-31zM76,176h31v1h-31zM166,176h31v1h-31zM315,176h31v1h-31zM405,176h31v1h-31zM76,177h30v1h-30zM166,177h30v1h-30zM316,177h30v1h-30zM405,177h31v1h-31zM76,178h30v1h-30zM166,178h30v1h-30zM316,178h30v1h-30zM406,178h30v1h-30zM76,179h30v1h-30zM166,179h30v1h-30zM316,179h30v1h-30zM406,179h30v1h-30zM76,180h30v1h-30zM166,180h30v1h-30zM316,180h30v1h-30zM406,180h30v1h-30zM76,181h30v1h-30zM166,181h30v1h-30zM316,181h30v1h-30zM406,181h30v1h-30zM76,182h30v1h-30zM166,182h30v1h-30zM316,182h30v1h-30zM406,182h30v1h-30zM76,183h30v1h-30zM166,183h31v1h-31zM315,183h31v1h-31zM405,183h31v1h-31zM76,184h31v1h-31zM166,184h31v1h-31zM315,184h31v1h-31zM405,184h31v1h-31zM76,185h31v1h-31zM166,185h31v1h-31zM315,185h31v1h-31zM405,185h31v1h-31zM76,186h31v1h-31zM166,186h31v1h-31zM315,186h31v1h-31zM405,186h31v1h-31zM76,187h31v1h-31zM166,187h31v1h-31zM315,187h31v1h-31zM405,187h31v1h-31zM76,188h31v1h-31zM166,188h31v1h-31zM315,188h31v1h-31zM405,188h31v1h-31zM76,189h31v1h-31zM166,189h31v1h-31zM315,189h31v1h-31zM405,189h31v1h-31zM76,190h31v1h-31zM166,190h31v1h-31zM315,190h31v1h-31zM405,190h31v1h-31zM76,191h31v1h-31zM166,191h32v1h-32zM314,191h32v1h-32zM405,191h31v1h-31zM76,192h31v1h-31zM167,192h31v1h-31zM314,192h31v1h-31zM405,192h31v1h-31zM76,193h31v1h-31zM167,193h31v1h-31zM314,193h31v1h-31zM405,193h31v1h-31zM76,194h31v1h-31zM167,194h31v1h-31zM314,194h31v1h-31zM405,194h31v1h-31zM76,195h31v1h-31zM167,195h32v1h-32zM313,195h32v1h-32zM405,195h31v1h-31zM76,196h31v1h-31zM167,196h32v1h-32zM313,196h32v1h-32zM405,196h31v1h-31zM77,197h30v1h-30zM167,197h32v1h-32zM313,197h32v1h-32zM405,197h30v1h-30zM77,198h31v1h-31zM168,198h31v1h-31zM313,198h31v1h-31zM404,198h31v1h-31zM77,199h31v1h-31zM168,199h32v1h-32zM312,199h32v1h-32zM404,199h31v1h-31zM77,200h31v1h-31zM168,200h32v1h-32zM312,200h32v1h-32zM404,200h31v1h-31zM77,201h31v1h-31zM168,201h32v1h-32zM312,201h32v1h-32zM404,201h31v1h-31zM77,202h31v1h-31zM169,202h32v1h-32zM311,202h32v1h-32zM404,202h31v1h-31zM77,203h31v1h-31zM169,203h32v1h-32zM311,203h32v1h-32zM404,203h31v1h-31zM77,204h31v1h-31zM169,204h33v1h-33zM310,204h33v1h-33zM404,204h31v1h-31zM77,205h32v1h-32zM169,205h33v1h-33zM310,205h33v1h-33zM403,205h31v1h-31zM78,206h31v1h-31zM170,206h33v1h-33zM309,206h33v1h-33zM403,206h31v1h-31zM78,207h31v1h-31zM170,207h33v1h-33zM309,207h33v1h-33zM403,207h31v1h-31zM78,208h31v1h-31zM170,208h34v1h-34zM308,208h34v1h-34zM403,208h31v1h-31zM78,209h31v1h-31zM171,209h33v1h-33zM308,209h33v1h-33zM403,209h31v1h-31zM78,210h32v1h-32zM171,210h34v1h-34zM307,210h34v1h-34zM402,210h32v1h-32zM78,211h32v1h-32zM171,211h35v1h-35zM306,211h35v1h-35zM402,211h32v1h-32zM79,212h31v1h-31zM172,212h34v1h-34zM306,212h34v1h-34zM402,212h31v1h-31zM79,213h31v1h-31zM172,213h35v1h-35zM305,213h35v1h-35zM402,213h31v1h-31zM79,214h31v1h-31zM173,214h35v1h-35zM304,214h35v1h-35zM402,214h31v1h-31zM79,215h32v1h-32zM173,215h35v1h-35zM304,215h35v1h-35zM401,215h32v1h-32zM79,216h32v1h-32zM173,216h36v1h-36zM303,216h36v1h-36zM401,216h32v1h-32zM80,217h31v1h-31zM174,217h36v1h-36zM302,217h36v1h-36zM401,217h31v1h-31zM80,218h31v1h-31zM174,218h37v1h-37zM301,218h37v1h-37zM401,218h31v1h-31zM80,219h32v1h-32zM175,219h37v1h-37zM300,219h37v1h-37zM400,219h32v1h-32zM80,220h32v1h-32zM175,220h37v1h-37zM300,220h37v1h-37zM400,220h32v1h-32zM81,221h31v1h-31zM176,221h37v1h-37zM299,221h37v1h-37zM400,221h31v1h-31zM81,222h32v1h-32zM176,222h38v1h-38zM298,222h38v1h-38zM399,222h32v1h-32zM81,223h32v1h-32zM177,223h38v1h-38zM297,223h38v1h-38zM399,223h32v1h-32zM81,224h32v1h-32zM177,224h40v1h-40zM295,224h40v1h-40zM399,224h32v1h-32zM82,225h32v1h-32zM178,225h40v1h-40zM294,225h40v1h-40zM398,225h32v1h-32zM82,226h32v1h-32zM179,226h40v1h-40zM293,226h40v1h-40zM398,226h32v1h-32zM82,227h32v1h-32zM179,227h41v1h-41zM292,227h41v1h-41zM398,227h32v1h-32zM82,228h33v1h-33zM180,228h42v1h-42zM290,228h42v1h-42zM397,228h33v1h-33zM83,229h32v1h-32zM181,229h42v1h-42zM289,229h42v1h-42zM397,229h32v1h-32zM83,230h32v1h-32zM181,230h44v1h-44zM287,230h44v1h-44zM397,230h32v1h-32zM83,231h33v1h-33zM182,231h44v1h-44zM286,231h44v1h-44zM396,231h33v1h-33zM83,232h33v1h-33zM183,232h45v1h-45zM284,232h45v1h-45zM396,232h33v1h-33zM84,233h32v1h-32zM183,233h47v1h-47zM282,233h47v1h-47zM396,233h32v1h-32zM84,234h33v1h-33zM184,234h48v1h-48zM280,234h48v1h-48zM395,234h33v1h-33zM84,235h33v1h-33zM185,235h50v1h-50zM277,235h50v1h-50zM395,235h33v1h-33zM85,236h33v1h-33zM186,236h51v1h-51zM275,236h51v1h-51zM394,236h33v1h-33zM85,237h33v1h-33zM186,237h55v1h-55zM271,237h55v1h-55zM394,237h33v1h-33zM85,238h33v1h-33zM187,238h58v1h-58zM267,238h58v1h-58zM394,238h33v1h-33zM86,239h33v1h-33zM188,239h136v1h-136zM393,239h33v1h-33zM86,240h33v1h-33zM189,240h134v1h-134zM393,240h33v1h-33zM86,241h34v1h-34zM190,241h132v1h-132zM392,241h33v1h-33zM87,242h33v1h-33zM191,242h130v1h-130zM392,242h33v1h-33zM87,243h34v1h-34zM192,243h128v1h-128zM391,243h34v1h-34zM88,244h33v1h-33zM193,244h126v1h-126zM391,244h33v1h-33zM88,245h34v1h-34zM194,245h124v1h-124zM390,245h34v1h-34zM88,246h34v1h-34zM195,246h122v1h-122zM390,246h34v1h-34zM89,247h34v1h-34zM196,247h120v1h-120zM389,247h34v1h-34zM89,248h34v1h-34zM197,248h118v1h-118zM389,248h34v1h-34zM90,249h34v1h-34zM198,249h116v1h-116zM388,249h34v1h-34zM90,250h34v1h-34zM200,250h112v1h-112zM388,250h34v1h-34zM90,251h35v1h-35zM201,251h110v1h-110zM387,251h35v1h-35zM91,252h34v1h-34zM202,252h108v1h-108zM387,252h34v1h-34zM91,253h35v1h-35zM204,253h104v1h-104zM386,253h35v1h-35zM92,254h34v1h-34zM205,254h102v1h-102zM386,254h34v1h-34zM92,255h35v1h-35zM207,255h98v1h-98zM385,255h35v1h-35zM93,256h35v1h-35zM208,256h96v1h-96zM384,256h35v1h-35zM93,257h35v1h-35zM210,257h92v1h-92zM384,257h35v1h-35zM94,258h35v1h-35zM212,258h89v1h-89zM383,258h35v1h-35zM94,259h35v1h-35zM213,259h86v1h-86zM383,259h35v1h-35zM95,260h35v1h-35zM215,260h82v1h-82zM382,260h35v1h-35zM95,261h36v1h-36zM217,261h78v1h-78zM381,261h36v1h-36zM96,262h35v1h-35zM219,262h74v1h-74zM381,262h35v1h-35zM96,263h36v1h-36zM222,263h68v1h-68zM380,263h36v1h-36zM97,264h36v1h-36zM224,264h64v1h-64zM379,264h36v1h-36zM97,265h36v1h-36zM227,265h58v1h-58zM379,265h36v1h-36zM98,266h36v1h-36zM230,266h52v1h-52zM378,266h36v1h-36zM98,267h37v1h-37zM234,267h44v1h-44zM377,267h37v1h-37zM99,268h36v1h-36zM238,268h36v1h-36zM377,268h36v1h-36zM99,269h37v1h-37zM244,269h24v1h-24zM376,269h37v1h-37zM100,270h36v1h-36zM376,270h36v1h-36zM101,271h36v1h-36zM375,271h36v1h-36zM101,272h37v1h-37zM374,272h37v1h-37zM102,273h36v1h-36zM374,273h36v1h-36zM102,274h37v1h-37zM373,274h37v1h-37zM103,275h37v1h-37zM372,275h37v1h-37zM104,276h36v1h-36zM372,276h36v1h-36zM104,277h37v1h-37zM371,277h37v1h-37zM105,278h37v1h-37zM370,278h37v1h-37zM106,279h36v1h-36zM370,279h36v1h-36zM106,280h37v1h-37zM369,280h37v1h-37zM107,281h37v1h-37zM368,281h37v1h-37zM108,282h36v1h-36zM368,282h36v1h-36zM108,283h37v1h-37zM367,283h37v1h-37zM109,284h36v1h-36zM367,284h36v1h-36zM110,285h36v1h-36zM366,285h36v1h-36zM110,286h37v1h-37zM365,286h37v1h-37zM111,287h36v1h-36zM365,287h36v1h-36zM111,288h37v1h-37zM364,288h37v1h-37zM112,289h37v1h-37zM363,289h37v1h-37zM113,290h36v1h-36zM363,290h36v1h-36zM113,291h37v1h-37zM362,291h37v1h-37zM114,292h37v1h-37zM361,292h37v1h-37zM115,293h36v1h-36zM361,293h36v1h-36zM115,294h37v1h-37zM360,294h37v1h-37zM116,295h37v1h-37zM359,295h37v1h-37zM117,296h36v1h-36zM359,296h36v1h-36zM117,297h37v1h-37zM358,297h37v1h-37zM118,298h36v1h-36zM358,298h36v1h-36zM119,299h36v1h-36zM357,299h36v1h-36zM119,300h37v1h-37zM356,300h37v1h-37zM120,301h36v1h-36zM356,301h36v1h-36zM121,302h36v1h-36zM355,302h36v1h-36zM121,303h37v1h-37zM354,303h37v1h-37zM122,304h36v1h-36zM354,304h36v1h-36zM122,305h37v1h-37zM353,305h37v1h-37zM123,306h37v1h-37zM352,306h37v1h-37zM124,307h36v1h-36zM352,307h36v1h-36zM124,308h37v1h-37zM351,308h37v1h-37zM125,309h37v1h-37zM350,309h37v1h-37zM126,310h36v1h-36zM350,310h36v1h-36zM126,311h37v1h-37zM349,311h37v1h-37zM127,312h37v1h-37zM348,312h37v1h-37zM128,313h36v1h-36zM348,313h36v1h-36zM128,314h37v1h-37zM347,314h37v1h-37zM129,315h36v1h-36zM347,315h36v1h-36zM130,316h36v1h-36zM346,316h36v1h-36zM130,317h37v1h-37zM345,317h37v1h-37zM131,318h36v1h-36zM345,318h36v1h-36zM131,319h37v1h-37zM344,319h37v1h-37zM132,320h37v1h-37zM343,320h37v1h-37zM133,321h36v1h-36zM343,321h36v1h-36zM133,322h37v1h-37zM342,322h37v1h-37zM134,323h37v1h-37zM341,323h37v1h-37zM135,324h36v1h-36zM341,324h36v1h-36zM135,325h37v1h-37zM340,325h37v1h-37zM136,326h37v1h-37zM339,326h37v1h-37zM137,327h36v1h-36zM339,327h36v1h-36zM137,328h37v1h-37zM338,328h37v1h-37zM138,329h36v1h-36zM338,329h36v1h-36zM139,330h36v1h-36zM337,330h36v1h-36zM139,331h37v1h-37zM336,331h37v1h-37zM140,332h36v1h-36zM336,332h36v1h-36zM140,333h37v1h-37zM335,333h37v1h-37zM141,334h37v1h-37zM334,334h37v1h-37zM142,335h36v1h-36zM334,335h36v1h-36zM142,336h37v1h-37zM333,336h37v1h-37zM143,337h37v1h-37zM332,337h37v1h-37zM144,338h36v1h-36zM332,338h36v1h-36zM144,339h37v1h-37zM331,339h37v1h-37zM145,340h37v1h-37zM330,340h37v1h-37zM146,341h36v1h-36zM330,341h36v1h-36zM146,342h37v1h-37zM329,342h37v1h-37zM147,343h36v1h-36zM329,343h36v1h-36zM148,344h36v1h-36zM328,344h36v1h-36zM148,345h37v1h-37zM327,345h37v1h-37zM149,346h36v1h-36zM327,346h36v1h-36zM150,347h36v1h-36zM326,347h36v1h-36zM150,348h37v1h-37zM325,348h37v1h-37zM151,349h36v1h-36zM325,349h36v1h-36zM151,350h37v1h-37zM324,350h37v1h-37zM152,351h37v1h-37zM323,351h37v1h-37zM153,352h36v1h-36zM323,352h36v1h-36zM153,353h37v1h-37zM322,353h37v1h-37zM154,354h37v1h-37zM321,354h37v1h-37zM155,355h36v1h-36zM321,355h36v1h-36zM155,356h37v1h-37zM320,356h37v1h-37zM156,357h37v1h-37zM319,357h37v1h-37zM157,358h36v1h-36zM319,358h36v1h-36zM157,359h37v1h-37zM318,359h37v1h-37zM158,360h36v1h-36zM318,360h36v1h-36zM159,361h36v1h-36zM317,361h36v1h-36zM159,362h37v1h-37zM316,362h37v1h-37zM160,363h36v1h-36zM316,363h36v1h-36zM160,364h37v1h-37zM315,364h37v1h-37zM161,365h37v1h-37zM314,365h37v1h-37zM162,366h36v1h-36zM314,366h36v1h-36zM162,367h37v1h-37zM313,367h37v1h-37zM163,368h37v1h-37zM312,368h37v1h-37zM164,369h36v1h-36zM312,369h36v1h-36zM164,370h37v1h-37zM311,370h37v1h-37zM165,371h37v1h-37zM310,371h37v1h-37zM166,372h36v1h-36zM310,372h36v1h-36zM166,373h37v1h-37zM309,373h37v1h-37zM167,374h36v1h-36zM309,374h36v1h-36zM168,375h36v1h-36zM308,375h36v1h-36zM168,376h37v1h-37zM307,376h37v1h-37zM169,377h36v1h-36zM307,377h36v1h-36zM170,378h36v1h-36zM306,378h36v1h-36zM170,379h37v1h-37zM305,379h37v1h-37zM171,380h36v1h-36zM305,380h36v1h-36zM171,381h37v1h-37zM304,381h37v1h-37zM172,382h37v1h-37zM303,382h37v1h-37zM173,383h36v1h-36zM303,383h36v1h-36zM173,384h37v1h-37zM302,384h37v1h-37zM174,385h37v1h-37zM301,385h37v1h-37zM175,386h36v1h-36zM301,386h36v1h-36zM175,387h37v1h-37zM300,387h37v1h-37zM176,388h37v1h-37zM299,388h37v1h-37zM177,389h36v1h-36zM299,389h36v1h-36zM177,390h37v1h-37zM298,390h37v1h-37zM178,391h36v1h-36zM298,391h36v1h-36zM179,392h36v1h-36zM297,392h36v1h-36zM179,393h37v1h-37zM296,393h37v1h-37zM180,394h36v1h-36zM296,394h36v1h-36zM180,395h37v1h-37zM295,395h37v1h-37zM181,396h37v1h-37zM294,396h37v1h-37zM182,397h36v1h-36zM294,397h36v1h-36zM182,398h37v1h-37zM293,398h37v1h-37zM183,399h37v1h-37zM292,399h37v1h-37zM184,400h36v1h-36zM292,400h36v1h-36zM184,401h37v1h-37zM291,401h37v1h-37zM185,402h37v1h-37zM290,402h37v1h-37zM186,403h36v1h-36zM290,403h36v1h-36zM186,404h37v1h-37zM289,404h37v1h-37zM187,405h36v1h-36zM289,405h36v1h-36zM188,406h36v1h-36zM288,406h36v1h-36zM188,407h37v1h-37zM287,407h37v1h-37zM189,408h36v1h-36zM287,408h36v1h-36zM189,409h37v1h-37zM286,409h37v1h-37zM190,410h37v1h-37zM285,410h37v1h-37zM191,411h36v1h-36zM285,411h36v1h-36zM191,412h37v1h-37zM284,412h37v1h-37zM192,413h37v1h-37zM283,413h37v1h-37zM193,414h36v1h-36zM283,414h36v1h-36zM193,415h37v1h-37zM282,415h37v1h-37zM194,416h37v1h-37zM281,416h37v1h-37zM195,417h36v1h-36zM281,417h36v1h-36zM195,418h37v1h-37zM280,418h37v1h-37zM196,419h36v1h-36zM280,419h36v1h-36zM197,420h36v1h-36zM279,420h36v1h-36zM197,421h37v1h-37zM278,421h37v1h-37zM198,422h36v1h-36zM278,422h36v1h-36zM199,423h36v1h-36zM277,423h36v1h-36zM199,424h37v1h-37zM276,424h37v1h-37zM200,425h36v1h-36zM276,425h36v1h-36zM200,426h37v1h-37zM275,426h37v1h-37zM201,427h37v1h-37zM274,427h37v1h-37zM202,428h36v1h-36zM274,428h36v1h-36zM202,429h37v1h-37zM273,429h37v1h-37zM203,430h37v1h-37zM272,430h37v1h-37zM204,431h36v1h-36zM272,431h36v1h-36zM204,432h37v1h-37zM271,432h37v1h-37zM205,433h37v1h-37zM270,433h37v1h-37zM206,434h36v1h-36zM270,434h36v1h-36zM206,435h37v1h-37zM269,435h37v1h-37zM207,436h36v1h-36zM269,436h36v1h-36zM208,437h36v1h-36zM268,437h36v1h-36zM208,438h37v1h-37zM267,438h37v1h-37zM209,439h36v1h-36zM267,439h36v1h-36zM209,440h37v1h-37zM266,440h37v1h-37zM210,441h37v1h-37zM265,441h37v1h-37zM211,442h36v1h-36zM265,442h36v1h-36zM211,443h37v1h-37zM264,443h37v1h-37zM212,444h37v1h-37zM263,444h37v1h-37zM213,445h36v1h-36zM263,445h36v1h-36zM213,446h37v1h-37zM262,446h37v1h-37zM214,447h37v1h-37zM261,447h37v1h-37zM215,448h36v1h-36zM261,448h36v1h-36zM215,449h37v1h-37zM260,449h37v1h-37zM216,450h36v1h-36zM260,450h36v1h-36zM217,451h36v1h-36zM259,451h36v1h-36zM217,452h78v1h-78zM218,453h76v1h-76zM218,454h76v1h-76zM219,455h74v1h-74zM220,456h72v1h-72zM220,457h72v1h-72zM221,458h70v1h-70zM222,459h68v1h-68zM222,460h68v1h-68zM223,461h66v1h-66zM224,462h64v1h-64zM224,463h64v1h-64zM225,464h62v1h-62zM226,465h60v1h-60zM226,466h60v1h-60zM227,467h58v1h-58zM228,468h56v1h-56zM228,469h56v1h-56zM229,470h54v1h-54zM229,471h54v1h-54zM230,472h52v1h-52zM231,473h50v1h-50zM231,474h50v1h-50zM232,475h48v1h-48zM233,476h46v1h-46zM233,477h46v1h-46zM234,478h44v1h-44zM235,479h42v1h-42zM235,480h42v1h-42zM236,481h40v1h-40zM237,482h38v1h-38zM237,483h38v1h-38zM238,484h36v1h-36zM238,485h36v1h-36zM239,486h34v1h-34zM240,487h32v1h-32zM240,488h32v1h-32zM241,489h30v1h-30zM242,490h28v1h-28zM242,491h28v1h-28zM243,492h26v1h-26zM244,493h24v1h-24zM244,494h24v1h-24zM245,495h22v1h-22zM246,496h20v1h-20zM246,497h20v1h-20zM247,498h18v1h-18zM248,499h16v1h-16zM248,500h16v1h-16zM249,501h14v1h-14zM249,502h14v1h-14zM250,503h12v1h-12zM251,504h10v1h-10zM251,505h10v1h-10zM252,506h8v1h-8zM253,507h6v1h-6zM253,508h6v1h-6zM254,509h4v1h-4zM254,510h4v1h-4zM254,511h4v1h-4z"/></svg>