<svg xmlns="http://www.w3.org/2000/svg" viewBox="0 0 24 24"><path d="m5,20c0,1.381-1.119,2.5-2.5,2.5s-2.5-1.119-2.5-2.5,1.119-2.5,2.5-2.5,2.5,1.119,2.5,2.5ZM21.5,6.5c1.381,0,2.5-1.119,2.5-2.5s-1.119-2.5-2.5-2.5-2.5,1.119-2.5,2.5,1.119,2.5,2.5,2.5Zm-7.216-1.207c-.391-.391-1.023-.391-1.414,0s-.391,1.023,0,1.414l1.293,1.293h-6.163c-.552,0-1,.448-1,1s.448,1,1,1h6.228l-1.293,1.293c-.391.391-.391,1.023,0,1.414.195.195.451.293.707.293s.512-.098.707-.293l1.972-1.972c.939-.938.939-2.466,0-3.405l-2.037-2.037Z"/></svg>