<svg xmlns="http://www.w3.org/2000/svg" viewBox="0 0 512 512" width="512" height="512"><path fill="#000" d="M155,72h84v1h-84zM319,72h63v1h-63zM139,73h105v1h-105zM314,73h73v1h-73zM132,74h114v1h-114zM312,74h77v1h-77zM126,75h122v1h-122zM310,75h81v1h-81zM121,76h129v1h-129zM309,76h84v1h-84zM118,77h133v1h-133zM308,77h86v1h-86zM114,78h138v1h-138zM307,78h88v1h-88zM110,79h143v1h-143zM306,79h90v1h-90zM107,80h146v1h-146zM305,80h91v1h-91zM104,81h150v1h-150zM304,81h93v1h-93zM102,82h153v1h-153zM304,82h94v1h-94zM99,83h156v1h-156zM303,83h95v1h-95zM96,84h160v1h-160zM303,84h96v1h-96zM94,85h162v1h-162zM302,85h97v1h-97zM92,86h164v1h-164zM302,86h97v1h-97zM90,87h166v1h-166zM302,87h97v1h-97zM88,88h169v1h-169zM302,88h98v1h-98zM86,89h171v1h-171zM302,89h98v1h-98zM84,90h173v1h-173zM302,90h98v1h-98zM82,91h175v1h-175zM301,91h99v1h-99zM80,92h177v1h-177zM302,92h98v1h-98zM78,93h179v1h-179zM302,93h98v1h-98zM77,94h179v1h-179zM302,94h98v1h-98zM75,95h181v1h-181zM302,95h97v1h-97zM73,96h183v1h-183zM302,96h97v1h-97zM72,97h184v1h-184zM303,97h96v1h-96zM70,98h185v1h-185zM303,98h95v1h-95zM69,99h186v1h-186zM303,99h95v1h-95zM67,100h187v1h-187zM304,100h93v1h-93zM66,101h188v1h-188zM304,101h93v1h-93zM65,102h188v1h-188zM305,102h91v1h-91zM63,103h189v1h-189zM306,103h89v1h-89zM62,104h189v1h-189zM307,104h87v1h-87zM61,105h189v1h-189zM308,105h85v1h-85zM59,106h190v1h-190zM309,106h83v1h-83zM58,107h189v1h-189zM311,107h80v1h-80zM57,108h189v1h-189zM313,108h76v1h-76zM55,109h188v1h-188zM316,109h70v1h-70zM54,110h97v1h-97zM53,111h87v1h-87zM52,112h81v1h-81zM51,113h78v1h-78zM50,114h75v1h-75zM49,115h72v1h-72zM48,116h71v1h-71zM47,117h69v1h-69zM46,118h67v1h-67zM45,119h65v1h-65zM44,120h64v1h-64zM43,121h63v1h-63zM42,122h62v1h-62zM41,123h61v1h-61zM40,124h60v1h-60zM39,125h59v1h-59zM38,126h59v1h-59zM37,127h58v1h-58zM36,128h57v1h-57zM36,129h56v1h-56zM35,130h55v1h-55zM34,131h55v1h-55zM33,132h54v1h-54zM33,133h53v1h-53zM32,134h53v1h-53zM31,135h52v1h-52zM30,136h52v1h-52zM30,137h51v1h-51zM29,138h51v1h-51zM28,139h50v1h-50zM27,140h50v1h-50zM27,141h49v1h-49zM26,142h49v1h-49zM25,143h49v1h-49zM25,144h48v1h-48zM24,145h48v1h-48zM24,146h47v1h-47zM23,147h47v1h-47zM22,148h47v1h-47zM22,149h46v1h-46zM21,150h46v1h-46zM20,151h47v1h-47zM20,152h46v1h-46zM19,153h46v1h-46zM19,154h45v1h-45zM18,155h45v1h-45zM18,156h44v1h-44zM17,157h45v1h-45zM17,158h44v1h-44zM16,159h44v1h-44zM16,160h43v1h-43zM15,161h44v1h-44zM15,162h43v1h-43zM14,163h43v1h-43zM14,164h43v1h-43zM13,165h43v1h-43zM13,166h42v1h-42zM12,167h43v1h-43zM12,168h42v1h-42zM12,169h42v1h-42zM11,170h42v1h-42zM11,171h41v1h-41zM10,172h42v1h-42zM10,173h41v1h-41zM10,174h41v1h-41zM9,175h41v1h-41zM9,176h41v1h-41zM9,177h40v1h-40zM8,178h41v1h-41zM8,179h40v1h-40zM8,180h40v1h-40zM7,181h40v1h-40zM7,182h40v1h-40zM7,183h40v1h-40zM6,184h40v1h-40zM6,185h40v1h-40zM6,186h39v1h-39zM5,187h40v1h-40zM5,188h40v1h-40zM5,189h39v1h-39zM5,190h39v1h-39zM4,191h40v1h-40zM4,192h39v1h-39zM4,193h39v1h-39zM4,194h39v1h-39zM3,195h39v1h-39zM3,196h39v1h-39zM3,197h39v1h-39zM3,198h39v1h-39zM3,199h38v1h-38zM0,200h41v1h-41zM0,201h41v1h-41zM0,202h41v1h-41zM0,203h40v1h-40zM0,204h40v1h-40zM0,205h40v1h-40zM0,206h40v1h-40zM0,207h39v1h-39zM0,208h39v1h-39zM0,209h39v1h-39zM0,210h39v1h-39zM0,211h39v1h-39zM0,212h39v1h-39zM0,213h39v1h-39zM0,214h38v1h-38zM0,215h38v1h-38zM0,216h38v1h-38zM0,217h38v1h-38zM0,218h38v1h-38zM0,219h38v1h-38zM0,220h38v1h-38zM0,221h38v1h-38zM0,222h38v1h-38zM0,223h38v1h-38zM0,224h38v1h-38zM0,225h38v1h-38zM0,226h38v1h-38zM0,227h37v1h-37zM0,228h37v1h-37zM0,229h37v1h-37zM0,230h37v1h-37zM0,231h37v1h-37zM0,232h38v1h-38zM0,233h38v1h-38zM0,234h38v1h-38zM0,235h38v1h-38zM0,236h38v1h-38zM0,237h38v1h-38zM0,238h38v1h-38zM0,239h38v1h-38zM0,240h38v1h-38zM0,241h38v1h-38zM0,242h38v1h-38zM0,243h38v1h-38zM0,244h38v1h-38zM0,245h39v1h-39zM0,246h39v1h-39zM0,247h39v1h-39zM0,248h39v1h-39zM0,249h39v1h-39zM0,250h39v1h-39zM0,251h40v1h-40zM0,252h40v1h-40zM0,253h40v1h-40zM0,254h40v1h-40zM0,255h40v1h-40zM0,256h41v1h-41zM0,257h41v1h-41zM0,258h41v1h-41zM3,259h38v1h-38zM3,260h39v1h-39zM3,261h39v1h-39zM3,262h39v1h-39zM3,263h39v1h-39zM4,264h39v1h-39zM4,265h39v1h-39zM4,266h39v1h-39zM5,267h39v1h-39zM5,268h39v1h-39zM5,269h40v1h-40zM5,270h40v1h-40zM6,271h39v1h-39zM6,272h40v1h-40zM6,273h40v1h-40zM6,274h40v1h-40zM7,275h40v1h-40zM7,276h40v1h-40zM7,277h41v1h-41zM8,278h40v1h-40zM8,279h41v1h-41zM8,280h41v1h-41zM9,281h41v1h-41zM9,282h41v1h-41zM9,283h42v1h-42zM10,284h41v1h-41zM10,285h42v1h-42zM11,286h41v1h-41zM11,287h42v1h-42zM11,288h42v1h-42zM12,289h42v1h-42zM12,290h42v1h-42zM13,291h42v1h-42zM13,292h43v1h-43zM14,293h42v1h-42zM14,294h43v1h-43zM14,295h44v1h-44zM403,295h6v1h-6zM15,296h43v1h-43zM398,296h15v1h-15zM15,297h44v1h-44zM396,297h20v1h-20zM16,298h44v1h-44zM393,298h25v1h-25zM16,299h44v1h-44zM392,299h28v1h-28zM17,300h44v1h-44zM391,300h31v1h-31zM17,301h45v1h-45zM389,301h34v1h-34zM18,302h45v1h-45zM388,302h37v1h-37zM18,303h45v1h-45zM387,303h40v1h-40zM19,304h45v1h-45zM386,304h43v1h-43zM19,305h46v1h-46zM386,305h44v1h-44zM20,306h46v1h-46zM385,306h47v1h-47zM21,307h46v1h-46zM384,307h50v1h-50zM21,308h47v1h-47zM384,308h52v1h-52zM22,309h47v1h-47zM383,309h54v1h-54zM23,310h47v1h-47zM383,310h56v1h-56zM23,311h47v1h-47zM382,311h59v1h-59zM24,312h47v1h-47zM382,312h61v1h-61zM24,313h48v1h-48zM382,313h62v1h-62zM25,314h48v1h-48zM381,314h65v1h-65zM26,315h48v1h-48zM381,315h67v1h-67zM26,316h50v1h-50zM381,316h68v1h-68zM27,317h50v1h-50zM381,317h70v1h-70zM28,318h50v1h-50zM381,318h72v1h-72zM28,319h51v1h-51zM381,319h74v1h-74zM29,320h51v1h-51zM381,320h75v1h-75zM30,321h51v1h-51zM381,321h77v1h-77zM31,322h52v1h-52zM381,322h79v1h-79zM31,323h53v1h-53zM381,323h81v1h-81zM32,324h53v1h-53zM381,324h82v1h-82zM33,325h54v1h-54zM381,325h84v1h-84zM34,326h54v1h-54zM381,326h86v1h-86zM34,327h55v1h-55zM381,327h87v1h-87zM35,328h56v1h-56zM381,328h89v1h-89zM36,329h56v1h-56zM381,329h91v1h-91zM37,330h57v1h-57zM381,330h93v1h-93zM38,331h58v1h-58zM381,331h94v1h-94zM39,332h58v1h-58zM381,332h96v1h-96zM40,333h59v1h-59zM381,333h98v1h-98zM40,334h61v1h-61zM381,334h100v1h-100zM41,335h62v1h-62zM381,335h101v1h-101zM42,336h63v1h-63zM381,336h103v1h-103zM43,337h64v1h-64zM381,337h105v1h-105zM44,338h65v1h-65zM381,338h107v1h-107zM45,339h66v1h-66zM381,339h108v1h-108zM46,340h68v1h-68zM381,340h110v1h-110zM47,341h70v1h-70zM381,341h112v1h-112zM48,342h72v1h-72zM381,342h113v1h-113zM49,343h74v1h-74zM381,343h115v1h-115zM50,344h77v1h-77zM381,344h117v1h-117zM51,345h79v1h-79zM381,345h119v1h-119zM53,346h83v1h-83zM381,346h120v1h-120zM54,347h88v1h-88zM381,347h121v1h-121zM55,348h449v1h-449zM56,349h449v1h-449zM57,350h449v1h-449zM58,351h449v1h-449zM60,352h447v1h-447zM61,353h447v1h-447zM62,354h447v1h-447zM64,355h445v1h-445zM65,356h447v1h-447zM66,357h446v1h-446zM68,358h444v1h-444zM69,359h443v1h-443zM71,360h441v1h-441zM72,361h440v1h-440zM74,362h438v1h-438zM76,363h436v1h-436zM77,364h435v1h-435zM79,365h433v1h-433zM81,366h431v1h-431zM82,367h430v1h-430zM84,368h428v1h-428zM86,369h426v1h-426zM89,370h423v1h-423zM91,371h421v1h-421zM93,372h419v1h-419zM95,373h417v1h-417zM97,374h415v1h-415zM100,375h412v1h-412zM103,376h409v1h-409zM105,377h407v1h-407zM108,378h404v1h-404zM111,379h398v1h-398zM115,380h394v1h-394zM119,381h389v1h-389zM123,382h384v1h-384zM128,383h378v1h-378zM135,384h371v1h-371zM142,385h362v1h-362zM381,386h122v1h-122zM381,387h121v1h-121zM381,388h120v1h-120zM381,389h118v1h-118zM381,390h116v1h-116zM381,391h115v1h-115zM381,392h113v1h-113zM381,393h111v1h-111zM381,394h109v1h-109zM381,395h108v1h-108zM381,396h106v1h-106zM381,397h104v1h-104zM381,398h103v1h-103zM381,399h101v1h-101zM381,400h99v1h-99zM381,401h97v1h-97zM381,402h96v1h-96zM381,403h94v1h-94zM381,404h92v1h-92zM381,405h90v1h-90zM381,406h89v1h-89zM381,407h87v1h-87zM381,408h85v1h-85zM381,409h83v1h-83zM381,410h82v1h-82zM381,411h80v1h-80zM381,412h78v1h-78zM381,413h77v1h-77zM381,414h75v1h-75zM381,415h73v1h-73zM381,416h71v1h-71zM381,417h70v1h-70zM381,418h68v1h-68zM381,419h66v1h-66zM381,420h64v1h-64zM382,421h62v1h-62zM382,422h60v1h-60zM382,423h58v1h-58zM383,424h55v1h-55zM383,425h54v1h-54zM384,426h51v1h-51zM384,427h49v1h-49zM385,428h47v1h-47zM386,429h44v1h-44zM387,430h41v1h-41zM387,431h39v1h-39zM388,432h37v1h-37zM390,433h33v1h-33zM391,434h30v1h-30zM392,435h27v1h-27zM394,436h23v1h-23zM396,437h19v1h-19zM399,438h14v1h-14zM405,439h1v1h-1z"/></svg>