<?xml version="1.0" encoding="UTF-8"?>
<svg xmlns="http://www.w3.org/2000/svg" viewBox="0 0 512 512" width="512" height="512"><path fill="#000" d="M246,0h20v1h-20zM246,1h20v1h-20zM246,2h20v1h-20zM244,3h24v1h-24zM243,4h26v1h-26zM242,5h28v1h-28zM241,6h30v1h-30zM240,7h32v1h-32zM240,8h32v1h-32zM239,9h34v1h-34zM238,10h36v1h-36zM238,11h36v1h-36zM238,12h36v1h-36zM237,13h38v1h-38zM237,14h38v1h-38zM237,15h38v1h-38zM237,16h38v1h-38zM237,17h38v1h-38zM237,18h38v1h-38zM237,19h38v1h-38zM237,20h38v1h-38zM237,21h38v1h-38zM237,22h38v1h-38zM237,23h38v1h-38zM237,24h38v1h-38zM237,25h38v1h-38zM237,26h38v1h-38zM237,27h38v1h-38zM237,28h38v1h-38zM237,29h38v1h-38zM237,30h38v1h-38zM237,31h38v1h-38zM237,32h38v1h-38zM237,33h38v1h-38zM237,34h38v1h-38zM237,35h38v1h-38zM237,36h38v1h-38zM237,37h38v1h-38zM237,38h38v1h-38zM237,39h38v1h-38zM237,40h38v1h-38zM237,41h38v1h-38zM237,42h38v1h-38zM237,43h38v1h-38zM237,44h38v1h-38zM237,45h38v1h-38zM237,46h38v1h-38zM237,47h38v1h-38zM237,48h38v1h-38zM237,49h38v1h-38zM237,50h38v1h-38zM237,51h38v1h-38zM237,52h38v1h-38zM237,53h38v1h-38zM237,54h38v1h-38zM237,55h38v1h-38zM237,56h38v1h-38zM237,57h38v1h-38zM237,58h38v1h-38zM237,59h38v1h-38zM237,60h38v1h-38zM237,61h38v1h-38zM237,62h38v1h-38zM237,63h38v1h-38zM237,64h38v1h-38zM237,65h38v1h-38zM237,66h38v1h-38zM237,67h38v1h-38zM237,68h38v1h-38zM237,69h38v1h-38zM237,70h38v1h-38zM237,71h38v1h-38zM237,72h38v1h-38zM237,73h38v1h-38zM237,74h38v1h-38zM237,75h38v1h-38zM237,76h38v1h-38zM237,77h38v1h-38zM237,78h38v1h-38zM237,79h38v1h-38zM237,80h38v1h-38zM237,81h38v1h-38zM237,82h38v1h-38zM237,83h38v1h-38zM237,84h38v1h-38zM237,85h38v1h-38zM237,86h38v1h-38zM237,87h38v1h-38zM237,88h38v1h-38zM237,89h38v1h-38zM237,90h38v1h-38zM237,91h38v1h-38zM237,92h38v1h-38zM237,93h38v1h-38zM237,94h38v1h-38zM237,95h38v1h-38zM237,96h38v1h-38zM237,97h38v1h-38zM237,98h38v1h-38zM237,99h38v1h-38zM237,100h38v1h-38zM237,101h38v1h-38zM237,102h38v1h-38zM237,103h38v1h-38zM237,104h38v1h-38zM237,105h38v1h-38zM237,106h38v1h-38zM237,107h38v1h-38zM237,108h38v1h-38zM237,109h38v1h-38zM237,110h38v1h-38zM237,111h38v1h-38zM237,112h38v1h-38zM237,113h38v1h-38zM237,114h38v1h-38zM237,115h38v1h-38zM237,116h38v1h-38zM237,117h38v1h-38zM237,118h38v1h-38zM237,119h38v1h-38zM237,120h38v1h-38zM237,121h38v1h-38zM237,122h38v1h-38zM237,123h38v1h-38zM237,124h38v1h-38zM237,125h38v1h-38zM237,126h38v1h-38zM237,127h38v1h-38zM237,128h38v1h-38zM237,129h38v1h-38zM237,130h38v1h-38zM237,131h38v1h-38zM237,132h38v1h-38zM237,133h38v1h-38zM237,134h38v1h-38zM237,135h38v1h-38zM237,136h38v1h-38zM237,137h38v1h-38zM237,138h38v1h-38zM237,139h38v1h-38zM237,140h38v1h-38zM237,141h38v1h-38zM237,142h38v1h-38zM237,143h38v1h-38zM237,144h38v1h-38zM237,145h38v1h-38zM237,146h38v1h-38zM237,147h38v1h-38zM237,148h38v1h-38zM237,149h38v1h-38zM237,150h38v1h-38zM237,151h38v1h-38zM237,152h38v1h-38zM237,153h38v1h-38zM237,154h38v1h-38zM237,155h38v1h-38zM237,156h38v1h-38zM237,157h38v1h-38zM237,158h38v1h-38zM237,159h38v1h-38zM237,160h38v1h-38zM237,161h38v1h-38zM237,162h38v1h-38zM237,163h38v1h-38zM237,164h38v1h-38zM237,165h38v1h-38zM237,166h38v1h-38zM237,167h38v1h-38zM237,168h38v1h-38zM237,169h38v1h-38zM237,170h38v1h-38zM237,171h38v1h-38zM237,172h38v1h-38zM237,173h38v1h-38zM237,174h38v1h-38zM237,175h38v1h-38zM237,176h38v1h-38zM237,177h38v1h-38zM237,178h38v1h-38zM237,179h38v1h-38zM237,180h38v1h-38zM237,181h38v1h-38zM237,182h38v1h-38zM237,183h38v1h-38zM237,184h38v1h-38zM237,185h38v1h-38zM237,186h38v1h-38zM237,187h38v1h-38zM237,188h38v1h-38zM237,189h38v1h-38zM237,190h38v1h-38zM237,191h38v1h-38zM237,192h38v1h-38zM237,193h38v1h-38zM237,194h38v1h-38zM237,195h38v1h-38zM237,196h38v1h-38zM237,197h38v1h-38zM237,198h38v1h-38zM237,199h38v1h-38zM237,200h38v1h-38zM237,201h38v1h-38zM237,202h38v1h-38zM237,203h38v1h-38zM237,204h38v1h-38zM237,205h38v1h-38zM237,206h38v1h-38zM237,207h38v1h-38zM237,208h38v1h-38zM237,209h38v1h-38zM237,210h38v1h-38zM237,211h38v1h-38zM237,212h38v1h-38zM237,213h38v1h-38zM237,214h38v1h-38zM237,215h38v1h-38zM237,216h38v1h-38zM237,217h38v1h-38zM237,218h38v1h-38zM237,219h38v1h-38zM237,220h38v1h-38zM237,221h38v1h-38zM237,222h38v1h-38zM237,223h38v1h-38zM237,224h38v1h-38zM237,225h38v1h-38zM237,226h38v1h-38zM237,227h38v1h-38zM237,228h38v1h-38zM237,229h38v1h-38zM237,230h38v1h-38zM237,231h38v1h-38zM237,232h38v1h-38zM237,233h38v1h-38zM237,234h38v1h-38zM237,235h38v1h-38zM236,236h40v1h-40zM13,237h486v1h-486zM11,238h490v1h-490zM9,239h494v1h-494zM8,240h497v1h-497zM6,241h500v1h-500zM5,242h502v1h-502zM4,243h504v1h-504zM4,244h505v1h-505zM3,245h506v1h-506zM0,246h512v1h-512zM0,247h512v1h-512zM0,248h512v1h-512zM0,249h512v1h-512zM0,250h512v1h-512zM0,251h512v1h-512zM0,252h512v1h-512zM0,253h512v1h-512zM0,254h512v1h-512zM0,255h512v1h-512zM0,256h512v1h-512zM0,257h512v1h-512zM0,258h512v1h-512zM0,259h512v1h-512zM0,260h512v1h-512zM0,261h512v1h-512zM0,262h512v1h-512zM0,263h512v1h-512zM0,264h512v1h-512zM0,265h512v1h-512zM3,266h506v1h-506zM3,267h506v1h-506zM4,268h504v1h-504zM5,269h502v1h-502zM6,270h500v1h-500zM7,271h498v1h-498zM8,272h495v1h-495zM10,273h492v1h-492zM12,274h488v1h-488zM236,275h40v1h-40zM237,276h38v1h-38zM237,277h38v1h-38zM237,278h38v1h-38zM237,279h38v1h-38zM237,280h38v1h-38zM237,281h38v1h-38zM237,282h38v1h-38zM237,283h38v1h-38zM237,284h38v1h-38zM237,285h38v1h-38zM237,286h38v1h-38zM237,287h38v1h-38zM237,288h38v1h-38zM237,289h38v1h-38zM237,290h38v1h-38zM237,291h38v1h-38zM237,292h38v1h-38zM237,293h38v1h-38zM237,294h38v1h-38zM237,295h38v1h-38zM237,296h38v1h-38zM237,297h38v1h-38zM237,298h38v1h-38zM237,299h38v1h-38zM237,300h38v1h-38zM237,301h38v1h-38zM237,302h38v1h-38zM237,303h38v1h-38zM237,304h38v1h-38zM237,305h38v1h-38zM237,306h38v1h-38zM237,307h38v1h-38zM237,308h38v1h-38zM237,309h38v1h-38zM237,310h38v1h-38zM237,311h38v1h-38zM237,312h38v1h-38zM237,313h38v1h-38zM237,314h38v1h-38zM237,315h38v1h-38zM237,316h38v1h-38zM237,317h38v1h-38zM237,318h38v1h-38zM237,319h38v1h-38zM237,320h38v1h-38zM237,321h38v1h-38zM237,322h38v1h-38zM237,323h38v1h-38zM237,324h38v1h-38zM237,325h38v1h-38zM237,326h38v1h-38zM237,327h38v1h-38zM237,328h38v1h-38zM237,329h38v1h-38zM237,330h38v1h-38zM237,331h38v1h-38zM237,332h38v1h-38zM237,333h38v1h-38zM237,334h38v1h-38zM237,335h38v1h-38zM237,336h38v1h-38zM237,337h38v1h-38zM237,338h38v1h-38zM237,339h38v1h-38zM237,340h38v1h-38zM237,341h38v1h-38zM237,342h38v1h-38zM237,343h38v1h-38zM237,344h38v1h-38zM237,345h38v1h-38zM237,346h38v1h-38zM237,347h38v1h-38zM237,348h38v1h-38zM237,349h38v1h-38zM237,350h38v1h-38zM237,351h38v1h-38zM237,352h38v1h-38zM237,353h38v1h-38zM237,354h38v1h-38zM237,355h38v1h-38zM237,356h38v1h-38zM237,357h38v1h-38zM237,358h38v1h-38zM237,359h38v1h-38zM237,360h38v1h-38zM237,361h38v1h-38zM237,362h38v1h-38zM237,363h38v1h-38zM237,364h38v1h-38zM237,365h38v1h-38zM237,366h38v1h-38zM237,367h38v1h-38zM237,368h38v1h-38zM237,369h38v1h-38zM237,370h38v1h-38zM237,371h38v1h-38zM237,372h38v1h-38zM237,373h38v1h-38zM237,374h38v1h-38zM237,375h38v1h-38zM237,376h38v1h-38zM237,377h38v1h-38zM237,378h38v1h-38zM237,379h38v1h-38zM237,380h38v1h-38zM237,381h38v1h-38zM237,382h38v1h-38zM237,383h38v1h-38zM237,384h38v1h-38zM237,385h38v1h-38zM237,386h38v1h-38zM237,387h38v1h-38zM237,388h38v1h-38zM237,389h38v1h-38zM237,390h38v1h-38zM237,391h38v1h-38zM237,392h38v1h-38zM237,393h38v1h-38zM237,394h38v1h-38zM237,395h38v1h-38zM237,396h38v1h-38zM237,397h38v1h-38zM237,398h38v1h-38zM237,399h38v1h-38zM237,400h38v1h-38zM237,401h38v1h-38zM237,402h38v1h-38zM237,403h38v1h-38zM237,404h38v1h-38zM237,405h38v1h-38zM237,406h38v1h-38zM237,407h38v1h-38zM237,408h38v1h-38zM237,409h38v1h-38zM237,410h38v1h-38zM237,411h38v1h-38zM237,412h38v1h-38zM237,413h38v1h-38zM237,414h38v1h-38zM237,415h38v1h-38zM237,416h38v1h-38zM237,417h38v1h-38zM237,418h38v1h-38zM237,419h38v1h-38zM237,420h38v1h-38zM237,421h38v1h-38zM237,422h38v1h-38zM237,423h38v1h-38zM237,424h38v1h-38zM237,425h38v1h-38zM237,426h38v1h-38zM237,427h38v1h-38zM237,428h38v1h-38zM237,429h38v1h-38zM237,430h38v1h-38zM237,431h38v1h-38zM237,432h38v1h-38zM237,433h38v1h-38zM237,434h38v1h-38zM237,435h38v1h-38zM237,436h38v1h-38zM237,437h38v1h-38zM237,438h38v1h-38zM237,439h38v1h-38zM237,440h38v1h-38zM237,441h38v1h-38zM237,442h38v1h-38zM237,443h38v1h-38zM237,444h38v1h-38zM237,445h38v1h-38zM237,446h38v1h-38zM237,447h38v1h-38zM237,448h38v1h-38zM237,449h38v1h-38zM237,450h38v1h-38zM237,451h38v1h-38zM237,452h38v1h-38zM237,453h38v1h-38zM237,454h38v1h-38zM237,455h38v1h-38zM237,456h38v1h-38zM237,457h38v1h-38zM237,458h38v1h-38zM237,459h38v1h-38zM237,460h38v1h-38zM237,461h38v1h-38zM237,462h38v1h-38zM237,463h38v1h-38zM237,464h38v1h-38zM237,465h38v1h-38zM237,466h38v1h-38zM237,467h38v1h-38zM237,468h38v1h-38zM237,469h38v1h-38zM237,470h38v1h-38zM237,471h38v1h-38zM237,472h38v1h-38zM237,473h38v1h-38zM237,474h38v1h-38zM237,475h38v1h-38zM237,476h38v1h-38zM237,477h38v1h-38zM237,478h38v1h-38zM237,479h38v1h-38zM237,480h38v1h-38zM237,481h38v1h-38zM237,482h38v1h-38zM237,483h38v1h-38zM237,484h38v1h-38zM237,485h38v1h-38zM237,486h38v1h-38zM237,487h38v1h-38zM237,488h38v1h-38zM237,489h38v1h-38zM237,490h38v1h-38zM237,491h38v1h-38zM237,492h38v1h-38zM237,493h38v1h-38zM237,494h38v1h-38zM237,495h38v1h-38zM237,496h38v1h-38zM237,497h38v1h-38zM237,498h38v1h-38zM238,499h37v1h-37zM238,500h36v1h-36zM238,501h36v1h-36zM239,502h34v1h-34zM240,503h32v1h-32zM240,504h32v1h-32zM241,505h30v1h-30zM242,506h28v1h-28zM243,507h26v1h-26zM244,508h24v1h-24zM246,509h20v1h-20zM246,510h20v1h-20zM246,511h20v1h-20z"/></svg>