<svg xmlns="http://www.w3.org/2000/svg" viewBox="0 0 512 512" width="512" height="512"><path fill="#000" d="M218,0h80v1h-80zM218,1h80v1h-80zM218,2h80v1h-80zM211,3h93v1h-93zM206,4h104v1h-104zM201,5h114v1h-114zM197,6h122v1h-122zM193,7h130v1h-130zM189,8h139v1h-139zM185,9h146v1h-146zM424,9h5v1h-5zM182,10h153v1h-153zM420,10h14v1h-14zM178,11h160v1h-160zM418,11h18v1h-18zM175,12h166v1h-166zM416,12h22v1h-22zM172,13h172v1h-172zM414,13h25v1h-25zM169,14h178v1h-178zM413,14h27v1h-27zM167,15h183v1h-183zM412,15h29v1h-29zM164,16h189v1h-189zM411,16h31v1h-31zM161,17h195v1h-195zM411,17h32v1h-32zM159,18h199v1h-199zM410,18h34v1h-34zM156,19h205v1h-205zM409,19h35v1h-35zM154,20h209v1h-209zM409,20h36v1h-36zM152,21h213v1h-213zM408,21h37v1h-37zM149,22h219v1h-219zM408,22h38v1h-38zM147,23h223v1h-223zM407,23h39v1h-39zM145,24h227v1h-227zM407,24h39v1h-39zM143,25h231v1h-231zM407,25h40v1h-40zM141,26h235v1h-235zM407,26h40v1h-40zM139,27h239v1h-239zM407,27h40v1h-40zM137,28h243v1h-243zM406,28h42v1h-42zM135,29h247v1h-247zM406,29h42v1h-42zM133,30h251v1h-251zM406,30h42v1h-42zM131,31h255v1h-255zM407,31h41v1h-41zM130,32h258v1h-258zM407,32h42v1h-42zM128,33h262v1h-262zM407,33h42v1h-42zM126,34h265v1h-265zM407,34h42v1h-42zM124,35h269v1h-269zM407,35h43v1h-43zM123,36h272v1h-272zM408,36h42v1h-42zM121,37h275v1h-275zM408,37h42v1h-42zM120,38h278v1h-278zM408,38h42v1h-42zM118,39h282v1h-282zM408,39h43v1h-43zM116,40h137v1h-137zM264,40h137v1h-137zM408,40h43v1h-43zM115,41h119v1h-119zM280,41h123v1h-123zM408,41h43v1h-43zM113,42h113v1h-113zM289,42h162v1h-162zM112,43h108v1h-108zM296,43h156v1h-156zM110,44h104v1h-104zM302,44h150v1h-150zM109,45h100v1h-100zM307,45h145v1h-145zM108,46h97v1h-97zM311,46h142v1h-142zM106,47h95v1h-95zM316,47h137v1h-137zM105,48h92v1h-92zM319,48h134v1h-134zM103,49h91v1h-91zM323,49h130v1h-130zM102,50h88v1h-88zM326,50h128v1h-128zM101,51h86v1h-86zM330,51h124v1h-124zM99,52h85v1h-85zM333,52h121v1h-121zM98,53h84v1h-84zM335,53h119v1h-119zM97,54h82v1h-82zM338,54h117v1h-117zM96,55h80v1h-80zM341,55h114v1h-114zM94,56h80v1h-80zM343,56h112v1h-112zM93,57h78v1h-78zM346,57h110v1h-110zM92,58h77v1h-77zM348,58h108v1h-108zM91,59h76v1h-76zM351,59h105v1h-105zM90,60h75v1h-75zM353,60h103v1h-103zM88,61h74v1h-74zM355,61h102v1h-102zM87,62h73v1h-73zM357,62h100v1h-100zM86,63h72v1h-72zM359,63h98v1h-98zM85,64h71v1h-71zM361,64h97v1h-97zM84,65h71v1h-71zM363,65h95v1h-95zM83,66h70v1h-70zM365,66h93v1h-93zM82,67h69v1h-69zM367,67h91v1h-91zM81,68h68v1h-68zM369,68h90v1h-90zM80,69h67v1h-67zM371,69h88v1h-88zM78,70h68v1h-68zM372,70h87v1h-87zM77,71h67v1h-67zM374,71h85v1h-85zM76,72h66v1h-66zM376,72h84v1h-84zM75,73h66v1h-66zM377,73h83v1h-83zM74,74h65v1h-65zM379,74h81v1h-81zM73,75h65v1h-65zM380,75h81v1h-81zM72,76h64v1h-64zM382,76h79v1h-79zM71,77h64v1h-64zM383,77h78v1h-78zM71,78h62v1h-62zM385,78h76v1h-76zM70,79h62v1h-62zM386,79h76v1h-76zM69,80h61v1h-61zM388,80h74v1h-74zM68,81h61v1h-61zM389,81h73v1h-73zM67,82h61v1h-61zM391,82h71v1h-71zM66,83h60v1h-60zM392,83h71v1h-71zM65,84h60v1h-60zM393,84h70v1h-70zM64,85h60v1h-60zM395,85h68v1h-68zM63,86h59v1h-59zM396,86h68v1h-68zM62,87h59v1h-59zM397,87h67v1h-67zM62,88h58v1h-58zM398,88h66v1h-66zM61,89h58v1h-58zM400,89h64v1h-64zM60,90h57v1h-57zM401,90h64v1h-64zM59,91h57v1h-57zM402,91h63v1h-63zM58,92h57v1h-57zM403,92h62v1h-62zM57,93h57v1h-57zM404,93h62v1h-62zM57,94h56v1h-56zM405,94h61v1h-61zM56,95h56v1h-56zM407,95h59v1h-59zM55,96h56v1h-56zM408,96h58v1h-58zM54,97h56v1h-56zM409,97h58v1h-58zM53,98h55v1h-55zM410,98h57v1h-57zM53,99h54v1h-54zM411,99h56v1h-56zM52,100h54v1h-54zM412,100h55v1h-55zM51,101h54v1h-54zM413,101h55v1h-55zM50,102h54v1h-54zM414,102h54v1h-54zM50,103h53v1h-53zM415,103h53v1h-53zM49,104h53v1h-53zM416,104h53v1h-53zM48,105h53v1h-53zM417,105h52v1h-52zM48,106h52v1h-52zM418,106h51v1h-51zM47,107h52v1h-52zM419,107h50v1h-50zM46,108h53v1h-53zM420,108h50v1h-50zM46,109h52v1h-52zM421,109h49v1h-49zM45,110h52v1h-52zM422,110h48v1h-48zM44,111h52v1h-52zM422,111h48v1h-48zM43,112h52v1h-52zM423,112h47v1h-47zM43,113h51v1h-51zM424,113h46v1h-46zM42,114h51v1h-51zM425,114h45v1h-45zM42,115h50v1h-50zM426,115h44v1h-44zM41,116h50v1h-50zM151,116h212v1h-212zM427,116h43v1h-43zM40,117h51v1h-51zM149,117h217v1h-217zM428,117h41v1h-41zM40,118h50v1h-50zM147,118h220v1h-220zM428,118h41v1h-41zM39,119h50v1h-50zM145,119h224v1h-224zM429,119h40v1h-40zM38,120h50v1h-50zM144,120h226v1h-226zM430,120h38v1h-38zM38,121h49v1h-49zM143,121h228v1h-228zM431,121h37v1h-37zM37,122h50v1h-50zM142,122h230v1h-230zM431,122h37v1h-37zM36,123h50v1h-50zM141,123h232v1h-232zM432,123h35v1h-35zM36,124h49v1h-49zM140,124h234v1h-234zM433,124h33v1h-33zM35,125h49v1h-49zM140,125h235v1h-235zM434,125h32v1h-32zM35,126h49v1h-49zM139,126h236v1h-236zM435,126h30v1h-30zM34,127h49v1h-49zM139,127h237v1h-237zM436,127h28v1h-28zM34,128h48v1h-48zM138,128h238v1h-238zM437,128h26v1h-26zM33,129h48v1h-48zM138,129h238v1h-238zM438,129h23v1h-23zM33,130h48v1h-48zM137,130h240v1h-240zM440,130h20v1h-20zM32,131h48v1h-48zM137,131h240v1h-240zM442,131h16v1h-16zM31,132h48v1h-48zM137,132h240v1h-240zM445,132h10v1h-10zM31,133h48v1h-48zM137,133h240v1h-240zM30,134h48v1h-48zM137,134h240v1h-240zM30,135h47v1h-47zM137,135h240v1h-240zM29,136h48v1h-48zM137,136h240v1h-240zM29,137h47v1h-47zM137,137h240v1h-240zM28,138h47v1h-47zM137,138h240v1h-240zM28,139h47v1h-47zM137,139h240v1h-240zM27,140h47v1h-47zM137,140h240v1h-240zM27,141h46v1h-46zM137,141h240v1h-240zM26,142h47v1h-47zM138,142h238v1h-238zM26,143h46v1h-46zM138,143h238v1h-238zM25,144h47v1h-47zM139,144h237v1h-237zM25,145h46v1h-46zM139,145h236v1h-236zM24,146h46v1h-46zM140,146h235v1h-235zM24,147h46v1h-46zM140,147h234v1h-234zM24,148h45v1h-45zM141,148h232v1h-232zM23,149h46v1h-46zM142,149h230v1h-230zM23,150h45v1h-45zM143,150h228v1h-228zM22,151h46v1h-46zM144,151h226v1h-226zM22,152h45v1h-45zM145,152h224v1h-224zM21,153h46v1h-46zM147,153h220v1h-220zM21,154h45v1h-45zM149,154h217v1h-217zM20,155h46v1h-46zM151,155h212v1h-212zM20,156h45v1h-45zM177,156h40v1h-40zM297,156h40v1h-40zM474,156h11v1h-11zM20,157h45v1h-45zM177,157h40v1h-40zM297,157h40v1h-40zM471,157h17v1h-17zM19,158h45v1h-45zM177,158h40v1h-40zM297,158h40v1h-40zM469,158h21v1h-21zM19,159h45v1h-45zM177,159h40v1h-40zM297,159h40v1h-40zM467,159h24v1h-24zM18,160h45v1h-45zM177,160h40v1h-40zM297,160h40v1h-40zM466,160h27v1h-27zM18,161h45v1h-45zM177,161h40v1h-40zM297,161h40v1h-40zM465,161h29v1h-29zM18,162h44v1h-44zM177,162h40v1h-40zM297,162h40v1h-40zM464,162h31v1h-31zM17,163h45v1h-45zM177,163h40v1h-40zM297,163h40v1h-40zM463,163h32v1h-32zM17,164h44v1h-44zM177,164h40v1h-40zM297,164h40v1h-40zM463,164h33v1h-33zM17,165h44v1h-44zM177,165h40v1h-40zM297,165h40v1h-40zM462,165h35v1h-35zM16,166h44v1h-44zM177,166h40v1h-40zM297,166h40v1h-40zM461,166h36v1h-36zM16,167h44v1h-44zM177,167h40v1h-40zM297,167h40v1h-40zM461,167h37v1h-37zM16,168h43v1h-43zM177,168h40v1h-40zM297,168h40v1h-40zM461,168h37v1h-37zM15,169h44v1h-44zM177,169h40v1h-40zM297,169h40v1h-40zM460,169h39v1h-39zM15,170h43v1h-43zM177,170h40v1h-40zM297,170h40v1h-40zM460,170h39v1h-39zM14,171h44v1h-44zM177,171h40v1h-40zM297,171h40v1h-40zM460,171h39v1h-39zM14,172h44v1h-44zM177,172h40v1h-40zM297,172h40v1h-40zM459,172h41v1h-41zM14,173h43v1h-43zM177,173h40v1h-40zM297,173h40v1h-40zM459,173h41v1h-41zM13,174h44v1h-44zM177,174h40v1h-40zM297,174h40v1h-40zM459,174h41v1h-41zM13,175h44v1h-44zM177,175h40v1h-40zM297,175h40v1h-40zM459,175h42v1h-42zM13,176h43v1h-43zM177,176h40v1h-40zM297,176h40v1h-40zM459,176h42v1h-42zM13,177h43v1h-43zM177,177h40v1h-40zM297,177h40v1h-40zM459,177h42v1h-42zM12,178h43v1h-43zM177,178h40v1h-40zM297,178h40v1h-40zM459,178h43v1h-43zM12,179h43v1h-43zM177,179h40v1h-40zM297,179h40v1h-40zM459,179h43v1h-43zM12,180h43v1h-43zM177,180h40v1h-40zM297,180h40v1h-40zM460,180h42v1h-42zM11,181h43v1h-43zM177,181h40v1h-40zM297,181h40v1h-40zM460,181h43v1h-43zM11,182h43v1h-43zM177,182h40v1h-40zM297,182h40v1h-40zM460,182h43v1h-43zM11,183h43v1h-43zM177,183h40v1h-40zM297,183h40v1h-40zM460,183h43v1h-43zM10,184h43v1h-43zM177,184h40v1h-40zM297,184h40v1h-40zM461,184h42v1h-42zM10,185h43v1h-43zM177,185h40v1h-40zM297,185h40v1h-40zM461,185h43v1h-43zM10,186h43v1h-43zM177,186h40v1h-40zM297,186h40v1h-40zM461,186h43v1h-43zM10,187h42v1h-42zM177,187h40v1h-40zM297,187h40v1h-40zM462,187h42v1h-42zM9,188h43v1h-43zM177,188h40v1h-40zM297,188h40v1h-40zM462,188h43v1h-43zM9,189h43v1h-43zM177,189h40v1h-40zM297,189h40v1h-40zM462,189h43v1h-43zM9,190h42v1h-42zM177,190h40v1h-40zM297,190h40v1h-40zM463,190h42v1h-42zM9,191h42v1h-42zM177,191h40v1h-40zM297,191h40v1h-40zM463,191h42v1h-42zM8,192h43v1h-43zM177,192h40v1h-40zM297,192h40v1h-40zM463,192h43v1h-43zM8,193h42v1h-42zM177,193h40v1h-40zM297,193h40v1h-40zM464,193h42v1h-42zM8,194h42v1h-42zM177,194h40v1h-40zM297,194h40v1h-40zM464,194h42v1h-42zM8,195h42v1h-42zM177,195h40v1h-40zM297,195h40v1h-40zM464,195h42v1h-42zM7,196h43v1h-43zM177,196h40v1h-40zM297,196h40v1h-40zM465,196h42v1h-42zM7,197h42v1h-42zM177,197h41v1h-41zM297,197h40v1h-40zM465,197h42v1h-42zM7,198h42v1h-42zM177,198h41v1h-41zM297,198h40v1h-40zM465,198h42v1h-42zM7,199h42v1h-42zM177,199h41v1h-41zM297,199h40v1h-40zM465,199h42v1h-42zM7,200h41v1h-41zM177,200h41v1h-41zM296,200h41v1h-41zM466,200h42v1h-42zM6,201h42v1h-42zM177,201h41v1h-41zM296,201h41v1h-41zM466,201h42v1h-42zM6,202h42v1h-42zM177,202h41v1h-41zM296,202h41v1h-41zM466,202h42v1h-42zM6,203h42v1h-42zM177,203h41v1h-41zM296,203h41v1h-41zM466,203h42v1h-42zM6,204h41v1h-41zM177,204h41v1h-41zM296,204h41v1h-41zM467,204h41v1h-41zM5,205h42v1h-42zM177,205h42v1h-42zM296,205h41v1h-41zM467,205h42v1h-42zM5,206h42v1h-42zM177,206h42v1h-42zM295,206h42v1h-42zM467,206h42v1h-42zM5,207h42v1h-42zM178,207h41v1h-41zM295,207h42v1h-42zM467,207h42v1h-42zM5,208h42v1h-42zM178,208h42v1h-42zM295,208h41v1h-41zM468,208h41v1h-41zM5,209h41v1h-41zM178,209h42v1h-42zM294,209h42v1h-42zM468,209h41v1h-41zM5,210h41v1h-41zM178,210h42v1h-42zM294,210h42v1h-42zM468,210h41v1h-41zM4,211h42v1h-42zM178,211h43v1h-43zM294,211h42v1h-42zM468,211h44v1h-44zM4,212h42v1h-42zM178,212h43v1h-43zM293,212h43v1h-43zM468,212h44v1h-44zM4,213h42v1h-42zM179,213h43v1h-43zM293,213h43v1h-43zM469,213h43v1h-43zM4,214h41v1h-41zM179,214h43v1h-43zM292,214h43v1h-43zM469,214h43v1h-43zM4,215h41v1h-41zM179,215h44v1h-44zM292,215h43v1h-43zM469,215h43v1h-43zM4,216h41v1h-41zM179,216h44v1h-44zM291,216h44v1h-44zM469,216h43v1h-43zM3,217h42v1h-42zM180,217h44v1h-44zM290,217h45v1h-45zM469,217h43v1h-43zM3,218h42v1h-42zM180,218h44v1h-44zM290,218h44v1h-44zM470,218h42v1h-42zM3,219h41v1h-41zM180,219h45v1h-45zM289,219h45v1h-45zM470,219h39v1h-39zM3,220h41v1h-41zM181,220h45v1h-45zM288,220h46v1h-46zM470,220h39v1h-39zM3,221h41v1h-41zM181,221h46v1h-46zM287,221h46v1h-46zM470,221h39v1h-39zM3,222h41v1h-41zM181,222h47v1h-47zM286,222h47v1h-47zM471,222h37v1h-37zM3,223h41v1h-41zM182,223h47v1h-47zM286,223h47v1h-47zM471,223h37v1h-37zM3,224h41v1h-41zM182,224h48v1h-48zM285,224h47v1h-47zM472,224h35v1h-35zM0,225h44v1h-44zM182,225h49v1h-49zM283,225h49v1h-49zM472,225h35v1h-35zM0,226h43v1h-43zM183,226h49v1h-49zM282,226h49v1h-49zM473,226h33v1h-33zM0,227h43v1h-43zM183,227h50v1h-50zM281,227h50v1h-50zM474,227h31v1h-31zM0,228h43v1h-43zM184,228h50v1h-50zM280,228h51v1h-51zM475,228h29v1h-29zM0,229h43v1h-43zM184,229h52v1h-52zM278,229h52v1h-52zM476,229h27v1h-27zM0,230h43v1h-43zM185,230h53v1h-53zM277,230h53v1h-53zM477,230h25v1h-25zM0,231h43v1h-43zM185,231h55v1h-55zM275,231h54v1h-54zM478,231h23v1h-23zM0,232h43v1h-43zM186,232h56v1h-56zM272,232h57v1h-57zM480,232h19v1h-19zM0,233h43v1h-43zM186,233h58v1h-58zM270,233h58v1h-58zM482,233h15v1h-15zM0,234h42v1h-42zM187,234h61v1h-61zM266,234h62v1h-62zM485,234h9v1h-9zM0,235h42v1h-42zM187,235h140v1h-140zM0,236h42v1h-42zM188,236h138v1h-138zM0,237h42v1h-42zM188,237h138v1h-138zM0,238h42v1h-42zM189,238h136v1h-136zM0,239h42v1h-42zM190,239h135v1h-135zM0,240h42v1h-42zM190,240h134v1h-134zM0,241h42v1h-42zM191,241h132v1h-132zM0,242h42v1h-42zM192,242h131v1h-131zM0,243h42v1h-42zM192,243h130v1h-130zM0,244h42v1h-42zM193,244h128v1h-128zM0,245h42v1h-42zM194,245h126v1h-126zM0,246h42v1h-42zM195,246h125v1h-125zM0,247h42v1h-42zM195,247h124v1h-124zM0,248h42v1h-42zM196,248h122v1h-122zM0,249h42v1h-42zM197,249h120v1h-120zM0,250h42v1h-42zM198,250h118v1h-118zM0,251h42v1h-42zM199,251h116v1h-116zM0,252h42v1h-42zM200,252h114v1h-114zM0,253h42v1h-42zM201,253h112v1h-112zM0,254h42v1h-42zM201,254h112v1h-112zM0,255h42v1h-42zM201,255h112v1h-112zM0,256h42v1h-42zM201,256h112v1h-112zM0,257h42v1h-42zM201,257h112v1h-112zM0,258h42v1h-42zM201,258h112v1h-112zM0,259h42v1h-42zM200,259h114v1h-114zM0,260h42v1h-42zM199,260h116v1h-116zM0,261h42v1h-42zM198,261h118v1h-118zM0,262h42v1h-42zM197,262h120v1h-120zM0,263h42v1h-42zM196,263h122v1h-122zM0,264h42v1h-42zM195,264h124v1h-124zM0,265h42v1h-42zM195,265h125v1h-125zM0,266h42v1h-42zM194,266h126v1h-126zM0,267h42v1h-42zM193,267h128v1h-128zM0,268h42v1h-42zM192,268h130v1h-130zM0,269h42v1h-42zM192,269h131v1h-131zM485,269h12v1h-12zM0,270h42v1h-42zM191,270h132v1h-132zM482,270h17v1h-17zM0,271h42v1h-42zM190,271h134v1h-134zM481,271h20v1h-20zM0,272h42v1h-42zM190,272h135v1h-135zM479,272h24v1h-24zM0,273h42v1h-42zM189,273h136v1h-136zM478,273h26v1h-26zM0,274h42v1h-42zM188,274h138v1h-138zM477,274h28v1h-28zM0,275h42v1h-42zM188,275h138v1h-138zM476,275h30v1h-30zM0,276h42v1h-42zM187,276h140v1h-140zM475,276h32v1h-32zM0,277h42v1h-42zM187,277h61v1h-61zM266,277h62v1h-62zM474,277h34v1h-34zM0,278h43v1h-43zM186,278h58v1h-58zM270,278h58v1h-58zM473,278h35v1h-35zM0,279h43v1h-43zM186,279h56v1h-56zM273,279h56v1h-56zM473,279h36v1h-36zM0,280h43v1h-43zM185,280h55v1h-55zM275,280h54v1h-54zM472,280h37v1h-37zM0,281h43v1h-43zM185,281h53v1h-53zM277,281h53v1h-53zM472,281h40v1h-40zM0,282h43v1h-43zM184,282h52v1h-52zM278,282h52v1h-52zM472,282h40v1h-40zM0,283h43v1h-43zM184,283h50v1h-50zM280,283h51v1h-51zM471,283h41v1h-41zM0,284h43v1h-43zM183,284h50v1h-50zM281,284h50v1h-50zM471,284h41v1h-41zM0,285h43v1h-43zM183,285h49v1h-49zM282,285h49v1h-49zM471,285h41v1h-41zM0,286h44v1h-44zM182,286h49v1h-49zM283,286h49v1h-49zM471,286h41v1h-41zM3,287h41v1h-41zM182,287h48v1h-48zM285,287h47v1h-47zM471,287h41v1h-41zM3,288h41v1h-41zM182,288h47v1h-47zM286,288h47v1h-47zM470,288h42v1h-42zM3,289h41v1h-41zM181,289h47v1h-47zM287,289h46v1h-46zM470,289h42v1h-42zM3,290h41v1h-41zM181,290h46v1h-46zM287,290h46v1h-46zM470,290h42v1h-42zM3,291h41v1h-41zM181,291h45v1h-45zM288,291h46v1h-46zM470,291h42v1h-42zM3,292h41v1h-41zM180,292h45v1h-45zM289,292h45v1h-45zM470,292h42v1h-42zM3,293h42v1h-42zM180,293h44v1h-44zM290,293h44v1h-44zM470,293h42v1h-42zM3,294h42v1h-42zM180,294h44v1h-44zM290,294h45v1h-45zM469,294h43v1h-43zM4,295h41v1h-41zM179,295h44v1h-44zM291,295h44v1h-44zM469,295h43v1h-43zM4,296h41v1h-41zM179,296h44v1h-44zM292,296h43v1h-43zM469,296h43v1h-43zM4,297h41v1h-41zM179,297h43v1h-43zM292,297h43v1h-43zM469,297h43v1h-43zM4,298h42v1h-42zM179,298h43v1h-43zM293,298h43v1h-43zM469,298h43v1h-43zM4,299h42v1h-42zM178,299h43v1h-43zM293,299h43v1h-43zM468,299h44v1h-44zM4,300h42v1h-42zM178,300h43v1h-43zM294,300h42v1h-42zM468,300h44v1h-44zM5,301h41v1h-41zM178,301h42v1h-42zM294,301h42v1h-42zM468,301h44v1h-44zM5,302h41v1h-41zM178,302h42v1h-42zM294,302h42v1h-42zM468,302h41v1h-41zM5,303h42v1h-42zM178,303h42v1h-42zM295,303h41v1h-41zM468,303h41v1h-41zM5,304h42v1h-42zM178,304h41v1h-41zM295,304h42v1h-42zM467,304h42v1h-42zM5,305h42v1h-42zM177,305h42v1h-42zM295,305h42v1h-42zM467,305h42v1h-42zM5,306h42v1h-42zM177,306h42v1h-42zM296,306h41v1h-41zM467,306h42v1h-42zM6,307h41v1h-41zM177,307h41v1h-41zM296,307h41v1h-41zM467,307h41v1h-41zM6,308h42v1h-42zM177,308h41v1h-41zM296,308h41v1h-41zM467,308h41v1h-41zM6,309h42v1h-42zM177,309h41v1h-41zM296,309h41v1h-41zM466,309h42v1h-42zM6,310h42v1h-42zM177,310h41v1h-41zM296,310h41v1h-41zM466,310h42v1h-42zM7,311h41v1h-41zM177,311h41v1h-41zM296,311h41v1h-41zM466,311h42v1h-42zM7,312h42v1h-42zM177,312h41v1h-41zM297,312h40v1h-40zM466,312h41v1h-41zM7,313h42v1h-42zM177,313h41v1h-41zM297,313h40v1h-40zM465,313h42v1h-42zM7,314h42v1h-42zM177,314h41v1h-41zM297,314h40v1h-40zM465,314h42v1h-42zM7,315h43v1h-43zM177,315h40v1h-40zM297,315h40v1h-40zM465,315h42v1h-42zM8,316h42v1h-42zM177,316h40v1h-40zM297,316h40v1h-40zM464,316h43v1h-43zM8,317h42v1h-42zM177,317h40v1h-40zM297,317h40v1h-40zM464,317h42v1h-42zM8,318h42v1h-42zM177,318h40v1h-40zM297,318h40v1h-40zM464,318h42v1h-42zM8,319h43v1h-43zM177,319h40v1h-40zM297,319h40v1h-40zM464,319h42v1h-42zM9,320h42v1h-42zM177,320h40v1h-40zM297,320h40v1h-40zM463,320h43v1h-43zM9,321h42v1h-42zM177,321h40v1h-40zM297,321h40v1h-40zM463,321h42v1h-42zM9,322h43v1h-43zM177,322h40v1h-40zM297,322h40v1h-40zM463,322h42v1h-42zM9,323h43v1h-43zM177,323h40v1h-40zM297,323h40v1h-40zM462,323h43v1h-43zM10,324h42v1h-42zM177,324h40v1h-40zM297,324h40v1h-40zM462,324h43v1h-43zM10,325h43v1h-43zM177,325h40v1h-40zM297,325h40v1h-40zM462,325h42v1h-42zM10,326h43v1h-43zM177,326h40v1h-40zM297,326h40v1h-40zM461,326h43v1h-43zM10,327h43v1h-43zM177,327h40v1h-40zM297,327h40v1h-40zM461,327h43v1h-43zM11,328h43v1h-43zM177,328h40v1h-40zM297,328h40v1h-40zM461,328h42v1h-42zM11,329h43v1h-43zM177,329h40v1h-40zM297,329h40v1h-40zM460,329h43v1h-43zM11,330h43v1h-43zM177,330h40v1h-40zM297,330h40v1h-40zM460,330h43v1h-43zM12,331h43v1h-43zM177,331h40v1h-40zM297,331h40v1h-40zM460,331h43v1h-43zM12,332h43v1h-43zM177,332h40v1h-40zM297,332h40v1h-40zM459,332h43v1h-43zM12,333h43v1h-43zM177,333h40v1h-40zM297,333h40v1h-40zM459,333h43v1h-43zM13,334h43v1h-43zM177,334h40v1h-40zM297,334h40v1h-40zM459,334h43v1h-43zM13,335h43v1h-43zM177,335h40v1h-40zM297,335h40v1h-40zM458,335h43v1h-43zM13,336h44v1h-44zM177,336h40v1h-40zM297,336h40v1h-40zM458,336h43v1h-43zM13,337h44v1h-44zM177,337h40v1h-40zM297,337h40v1h-40zM457,337h44v1h-44zM14,338h43v1h-43zM177,338h40v1h-40zM297,338h40v1h-40zM457,338h43v1h-43zM14,339h44v1h-44zM177,339h40v1h-40zM297,339h40v1h-40zM457,339h43v1h-43zM14,340h44v1h-44zM177,340h40v1h-40zM297,340h40v1h-40zM456,340h44v1h-44zM15,341h44v1h-44zM177,341h40v1h-40zM297,341h40v1h-40zM456,341h43v1h-43zM15,342h44v1h-44zM177,342h40v1h-40zM297,342h40v1h-40zM455,342h44v1h-44zM16,343h43v1h-43zM177,343h40v1h-40zM297,343h40v1h-40zM455,343h44v1h-44zM16,344h44v1h-44zM177,344h40v1h-40zM297,344h40v1h-40zM455,344h43v1h-43zM16,345h44v1h-44zM177,345h40v1h-40zM297,345h40v1h-40zM454,345h44v1h-44zM17,346h44v1h-44zM177,346h40v1h-40zM297,346h40v1h-40zM454,346h44v1h-44zM17,347h44v1h-44zM177,347h40v1h-40zM297,347h40v1h-40zM453,347h44v1h-44zM17,348h45v1h-45zM177,348h40v1h-40zM297,348h40v1h-40zM453,348h44v1h-44zM18,349h44v1h-44zM177,349h40v1h-40zM297,349h40v1h-40zM452,349h44v1h-44zM18,350h45v1h-45zM177,350h40v1h-40zM297,350h40v1h-40zM452,350h44v1h-44zM18,351h45v1h-45zM177,351h40v1h-40zM297,351h40v1h-40zM451,351h45v1h-45zM19,352h45v1h-45zM177,352h40v1h-40zM297,352h40v1h-40zM451,352h44v1h-44zM19,353h45v1h-45zM177,353h40v1h-40zM297,353h40v1h-40zM451,353h44v1h-44zM20,354h45v1h-45zM177,354h40v1h-40zM297,354h40v1h-40zM450,354h44v1h-44zM20,355h45v1h-45zM177,355h40v1h-40zM297,355h40v1h-40zM450,355h44v1h-44zM20,356h46v1h-46zM151,356h212v1h-212zM450,356h44v1h-44zM21,357h45v1h-45zM149,357h217v1h-217zM450,357h43v1h-43zM21,358h46v1h-46zM147,358h220v1h-220zM449,358h44v1h-44zM22,359h45v1h-45zM145,359h224v1h-224zM449,359h43v1h-43zM22,360h46v1h-46zM144,360h226v1h-226zM449,360h43v1h-43zM23,361h45v1h-45zM143,361h228v1h-228zM449,361h43v1h-43zM23,362h46v1h-46zM142,362h230v1h-230zM449,362h42v1h-42zM24,363h45v1h-45zM141,363h232v1h-232zM450,363h41v1h-41zM24,364h46v1h-46zM140,364h234v1h-234zM450,364h40v1h-40zM24,365h46v1h-46zM140,365h235v1h-235zM450,365h40v1h-40zM25,366h46v1h-46zM139,366h236v1h-236zM450,366h39v1h-39zM25,367h47v1h-47zM139,367h237v1h-237zM451,367h38v1h-38zM26,368h46v1h-46zM138,368h238v1h-238zM451,368h37v1h-37zM26,369h47v1h-47zM138,369h238v1h-238zM452,369h36v1h-36zM27,370h46v1h-46zM137,370h240v1h-240zM452,370h35v1h-35zM27,371h47v1h-47zM137,371h240v1h-240zM453,371h34v1h-34zM28,372h47v1h-47zM137,372h240v1h-240zM453,372h33v1h-33zM28,373h47v1h-47zM137,373h240v1h-240zM454,373h31v1h-31zM29,374h47v1h-47zM137,374h240v1h-240zM455,374h29v1h-29zM29,375h48v1h-48zM137,375h240v1h-240zM456,375h27v1h-27zM30,376h47v1h-47zM137,376h240v1h-240zM457,376h25v1h-25zM30,377h48v1h-48zM137,377h240v1h-240zM459,377h22v1h-22zM31,378h48v1h-48zM137,378h240v1h-240zM461,378h18v1h-18zM31,379h48v1h-48zM137,379h240v1h-240zM463,379h13v1h-13zM32,380h48v1h-48zM137,380h240v1h-240zM467,380h5v1h-5zM33,381h48v1h-48zM137,381h240v1h-240zM33,382h48v1h-48zM138,382h238v1h-238zM34,383h48v1h-48zM138,383h238v1h-238zM34,384h49v1h-49zM139,384h237v1h-237zM35,385h49v1h-49zM139,385h236v1h-236zM35,386h49v1h-49zM140,386h235v1h-235zM36,387h49v1h-49zM140,387h234v1h-234zM37,388h49v1h-49zM141,388h232v1h-232zM37,389h50v1h-50zM142,389h230v1h-230zM38,390h49v1h-49zM143,390h228v1h-228zM38,391h50v1h-50zM144,391h226v1h-226zM39,392h50v1h-50zM145,392h224v1h-224zM40,393h50v1h-50zM147,393h220v1h-220zM40,394h51v1h-51zM149,394h217v1h-217zM41,395h50v1h-50zM151,395h212v1h-212zM42,396h50v1h-50zM42,397h51v1h-51zM43,398h51v1h-51zM43,399h52v1h-52zM44,400h52v1h-52zM45,401h52v1h-52zM422,401h10v1h-10zM46,402h52v1h-52zM419,402h16v1h-16zM46,403h53v1h-53zM417,403h20v1h-20zM47,404h53v1h-53zM416,404h23v1h-23zM48,405h52v1h-52zM414,405h26v1h-26zM48,406h53v1h-53zM413,406h28v1h-28zM49,407h53v1h-53zM412,407h30v1h-30zM50,408h53v1h-53zM411,408h32v1h-32zM50,409h54v1h-54zM410,409h34v1h-34zM51,410h54v1h-54zM409,410h36v1h-36zM52,411h54v1h-54zM408,411h37v1h-37zM53,412h54v1h-54zM407,412h39v1h-39zM53,413h55v1h-55zM406,413h40v1h-40zM54,414h56v1h-56zM405,414h41v1h-41zM55,415h56v1h-56zM404,415h43v1h-43zM56,416h56v1h-56zM403,416h44v1h-44zM57,417h56v1h-56zM402,417h45v1h-45zM57,418h57v1h-57zM401,418h46v1h-46zM58,419h57v1h-57zM399,419h49v1h-49zM59,420h57v1h-57zM398,420h50v1h-50zM60,421h57v1h-57zM397,421h51v1h-51zM61,422h58v1h-58zM396,422h52v1h-52zM62,423h58v1h-58zM395,423h52v1h-52zM62,424h59v1h-59zM393,424h54v1h-54zM63,425h59v1h-59zM392,425h55v1h-55zM64,426h60v1h-60zM391,426h56v1h-56zM65,427h60v1h-60zM390,427h57v1h-57zM66,428h60v1h-60zM388,428h58v1h-58zM67,429h61v1h-61zM387,429h59v1h-59zM68,430h61v1h-61zM386,430h59v1h-59zM69,431h61v1h-61zM384,431h61v1h-61zM70,432h62v1h-62zM383,432h61v1h-61zM71,433h62v1h-62zM381,433h62v1h-62zM72,434h63v1h-63zM380,434h63v1h-63zM72,435h64v1h-64zM378,435h64v1h-64zM73,436h65v1h-65zM377,436h64v1h-64zM74,437h65v1h-65zM375,437h65v1h-65zM75,438h66v1h-66zM374,438h65v1h-65zM76,439h66v1h-66zM372,439h66v1h-66zM77,440h67v1h-67zM371,440h66v1h-66zM78,441h68v1h-68zM369,441h67v1h-67zM80,442h67v1h-67zM367,442h68v1h-68zM81,443h68v1h-68zM365,443h69v1h-69zM82,444h69v1h-69zM364,444h69v1h-69zM83,445h70v1h-70zM362,445h69v1h-69zM84,446h71v1h-71zM360,446h70v1h-70zM85,447h72v1h-72zM358,447h71v1h-71zM86,448h73v1h-73zM356,448h72v1h-72zM87,449h74v1h-74zM355,449h72v1h-72zM88,450h74v1h-74zM354,450h72v1h-72zM90,451h75v1h-75zM353,451h72v1h-72zM91,452h76v1h-76zM352,452h71v1h-71zM92,453h77v1h-77zM351,453h71v1h-71zM93,454h78v1h-78zM350,454h71v1h-71zM94,455h80v1h-80zM350,455h70v1h-70zM96,456h80v1h-80zM349,456h70v1h-70zM97,457h82v1h-82zM349,457h68v1h-68zM98,458h84v1h-84zM348,458h68v1h-68zM99,459h85v1h-85zM348,459h67v1h-67zM101,460h87v1h-87zM348,460h65v1h-65zM102,461h89v1h-89zM348,461h64v1h-64zM103,462h91v1h-91zM347,462h64v1h-64zM105,463h92v1h-92zM347,463h62v1h-62zM106,464h95v1h-95zM347,464h61v1h-61zM108,465h97v1h-97zM347,465h60v1h-60zM109,466h101v1h-101zM347,466h58v1h-58zM110,467h104v1h-104zM347,467h57v1h-57zM112,468h108v1h-108zM295,468h3v1h-3zM347,468h55v1h-55zM113,469h113v1h-113zM288,469h15v1h-15zM348,469h53v1h-53zM115,470h120v1h-120zM279,470h27v1h-27zM348,470h51v1h-51zM116,471h137v1h-137zM262,471h46v1h-46zM348,471h50v1h-50zM118,472h191v1h-191zM348,472h48v1h-48zM120,473h190v1h-190zM349,473h46v1h-46zM121,474h190v1h-190zM349,474h44v1h-44zM123,475h189v1h-189zM350,475h41v1h-41zM124,476h189v1h-189zM350,476h40v1h-40zM126,477h188v1h-188zM351,477h37v1h-37zM128,478h186v1h-186zM352,478h34v1h-34zM130,479h185v1h-185zM353,479h32v1h-32zM132,480h183v1h-183zM354,480h29v1h-29zM133,481h183v1h-183zM355,481h26v1h-26zM135,482h181v1h-181zM356,482h23v1h-23zM137,483h180v1h-180zM358,483h19v1h-19zM139,484h178v1h-178zM360,484h15v1h-15zM141,485h176v1h-176zM364,485h8v1h-8zM143,486h174v1h-174zM145,487h172v1h-172zM147,488h170v1h-170zM149,489h168v1h-168zM152,490h165v1h-165zM154,491h163v1h-163zM156,492h161v1h-161zM159,493h158v1h-158zM161,494h155v1h-155zM164,495h152v1h-152zM167,496h149v1h-149zM169,497h146v1h-146zM172,498h143v1h-143zM175,499h139v1h-139zM178,500h136v1h-136zM182,501h131v1h-131zM185,502h127v1h-127zM189,503h122v1h-122zM193,504h117v1h-117zM197,505h112v1h-112zM201,506h106v1h-106zM206,507h99v1h-99zM212,508h90v1h-90zM218,509h78v1h-78zM218,510h78v1h-78zM218,511h78v1h-78z"/></svg>