<svg xmlns="http://www.w3.org/2000/svg" viewBox="0 0 512 512" width="512" height="512"><path fill="#000" d="M181,0h69v1h-69zM181,1h69v1h-69zM181,2h69v1h-69zM175,3h81v1h-81zM170,4h91v1h-91zM166,5h99v1h-99zM161,6h109v1h-109zM158,7h115v1h-115zM154,8h123v1h-123zM151,9h129v1h-129zM148,10h135v1h-135zM145,11h141v1h-141zM142,12h147v1h-147zM139,13h153v1h-153zM137,14h157v1h-157zM134,15h163v1h-163zM132,16h167v1h-167zM130,17h171v1h-171zM127,18h177v1h-177zM125,19h181v1h-181zM123,20h185v1h-185zM121,21h189v1h-189zM119,22h193v1h-193zM117,23h197v1h-197zM115,24h201v1h-201zM113,25h205v1h-205zM111,26h209v1h-209zM110,27h211v1h-211zM108,28h215v1h-215zM106,29h219v1h-219zM104,30h223v1h-223zM103,31h225v1h-225zM101,32h229v1h-229zM100,33h231v1h-231zM98,34h235v1h-235zM97,35h237v1h-237zM95,36h241v1h-241zM94,37h243v1h-243zM92,38h247v1h-247zM91,39h249v1h-249zM90,40h119v1h-119zM222,40h119v1h-119zM88,41h107v1h-107zM236,41h107v1h-107zM87,42h101v1h-101zM243,42h101v1h-101zM86,43h96v1h-96zM249,43h96v1h-96zM84,44h93v1h-93zM254,44h93v1h-93zM83,45h90v1h-90zM258,45h90v1h-90zM82,46h88v1h-88zM261,46h88v1h-88zM80,47h86v1h-86zM265,47h86v1h-86zM79,48h83v1h-83zM269,48h83v1h-83zM78,49h82v1h-82zM271,49h82v1h-82zM77,50h80v1h-80zM274,50h80v1h-80zM76,51h78v1h-78zM277,51h78v1h-78zM74,52h77v1h-77zM280,52h77v1h-77zM73,53h76v1h-76zM282,53h76v1h-76zM72,54h74v1h-74zM285,54h74v1h-74zM71,55h73v1h-73zM287,55h73v1h-73zM70,56h72v1h-72zM289,56h72v1h-72zM69,57h71v1h-71zM291,57h71v1h-71zM68,58h70v1h-70zM293,58h70v1h-70zM67,59h69v1h-69zM295,59h69v1h-69zM66,60h68v1h-68zM297,60h68v1h-68zM65,61h67v1h-67zM299,61h67v1h-67zM63,62h67v1h-67zM301,62h67v1h-67zM62,63h66v1h-66zM302,63h67v1h-67zM62,64h65v1h-65zM304,64h65v1h-65zM61,65h64v1h-64zM306,65h64v1h-64zM60,66h64v1h-64zM307,66h64v1h-64zM59,67h63v1h-63zM309,67h63v1h-63zM58,68h62v1h-62zM311,68h62v1h-62zM57,69h62v1h-62zM312,69h62v1h-62zM56,70h61v1h-61zM314,70h61v1h-61zM55,71h61v1h-61zM315,71h61v1h-61zM54,72h60v1h-60zM317,72h60v1h-60zM53,73h60v1h-60zM318,73h60v1h-60zM52,74h60v1h-60zM319,74h60v1h-60zM52,75h58v1h-58zM321,75h58v1h-58zM51,76h58v1h-58zM322,76h58v1h-58zM50,77h58v1h-58zM323,77h58v1h-58zM49,78h57v1h-57zM325,78h57v1h-57zM48,79h57v1h-57zM326,79h57v1h-57zM47,80h57v1h-57zM327,80h57v1h-57zM47,81h56v1h-56zM328,81h56v1h-56zM46,82h56v1h-56zM329,82h56v1h-56zM45,83h55v1h-55zM331,83h55v1h-55zM44,84h55v1h-55zM332,84h55v1h-55zM44,85h54v1h-54zM333,85h54v1h-54zM43,86h54v1h-54zM334,86h54v1h-54zM42,87h54v1h-54zM335,87h54v1h-54zM41,88h54v1h-54zM336,88h54v1h-54zM41,89h53v1h-53zM337,89h53v1h-53zM40,90h53v1h-53zM338,90h53v1h-53zM39,91h53v1h-53zM339,91h53v1h-53zM38,92h53v1h-53zM340,92h53v1h-53zM38,93h52v1h-52zM341,93h52v1h-52zM37,94h52v1h-52zM342,94h52v1h-52zM36,95h52v1h-52zM343,95h52v1h-52zM36,96h51v1h-51zM344,96h51v1h-51zM35,97h51v1h-51zM345,97h51v1h-51zM34,98h51v1h-51zM346,98h51v1h-51zM34,99h50v1h-50zM347,99h50v1h-50zM33,100h50v1h-50zM347,100h51v1h-51zM32,101h51v1h-51zM348,101h51v1h-51zM32,102h50v1h-50zM349,102h50v1h-50zM31,103h50v1h-50zM350,103h50v1h-50zM30,104h50v1h-50zM351,104h50v1h-50zM30,105h49v1h-49zM352,105h49v1h-49zM29,106h49v1h-49zM353,106h49v1h-49zM29,107h49v1h-49zM353,107h49v1h-49zM28,108h49v1h-49zM354,108h49v1h-49zM28,109h48v1h-48zM355,109h48v1h-48zM27,110h48v1h-48zM356,110h48v1h-48zM26,111h49v1h-49zM356,111h49v1h-49zM26,112h48v1h-48zM357,112h48v1h-48zM25,113h48v1h-48zM358,113h48v1h-48zM25,114h47v1h-47zM359,114h47v1h-47zM24,115h48v1h-48zM359,115h48v1h-48zM24,116h47v1h-47zM360,116h47v1h-47zM23,117h47v1h-47zM361,117h47v1h-47zM23,118h47v1h-47zM361,118h47v1h-47zM22,119h47v1h-47zM362,119h47v1h-47zM22,120h46v1h-46zM363,120h46v1h-46zM21,121h47v1h-47zM363,121h47v1h-47zM21,122h46v1h-46zM364,122h46v1h-46zM20,123h47v1h-47zM364,123h47v1h-47zM20,124h46v1h-46zM365,124h46v1h-46zM19,125h46v1h-46zM366,125h46v1h-46zM19,126h46v1h-46zM366,126h46v1h-46zM18,127h46v1h-46zM367,127h46v1h-46zM18,128h45v1h-45zM367,128h46v1h-46zM18,129h45v1h-45zM368,129h45v1h-45zM17,130h45v1h-45zM369,130h45v1h-45zM17,131h45v1h-45zM369,131h45v1h-45zM16,132h45v1h-45zM370,132h45v1h-45zM16,133h45v1h-45zM370,133h45v1h-45zM15,134h45v1h-45zM371,134h45v1h-45zM15,135h45v1h-45zM371,135h45v1h-45zM15,136h44v1h-44zM372,136h44v1h-44zM14,137h45v1h-45zM372,137h45v1h-45zM14,138h44v1h-44zM373,138h44v1h-44zM13,139h45v1h-45zM373,139h44v1h-44zM13,140h44v1h-44zM374,140h44v1h-44zM13,141h44v1h-44zM374,141h44v1h-44zM12,142h44v1h-44zM375,142h44v1h-44zM12,143h44v1h-44zM375,143h44v1h-44zM12,144h43v1h-43zM376,144h43v1h-43zM11,145h44v1h-44zM376,145h44v1h-44zM11,146h43v1h-43zM377,146h43v1h-43zM11,147h43v1h-43zM377,147h43v1h-43zM10,148h44v1h-44zM377,148h44v1h-44zM10,149h43v1h-43zM378,149h43v1h-43zM10,150h43v1h-43zM378,150h43v1h-43zM9,151h43v1h-43zM379,151h43v1h-43zM9,152h43v1h-43zM379,152h43v1h-43zM9,153h43v1h-43zM379,153h43v1h-43zM8,154h43v1h-43zM380,154h43v1h-43zM8,155h43v1h-43zM380,155h43v1h-43zM8,156h43v1h-43zM380,156h43v1h-43zM8,157h42v1h-42zM381,157h42v1h-42zM7,158h43v1h-43zM381,158h43v1h-43zM7,159h43v1h-43zM381,159h43v1h-43zM7,160h42v1h-42zM382,160h42v1h-42zM6,161h43v1h-43zM382,161h43v1h-43zM6,162h42v1h-42zM383,162h42v1h-42zM6,163h42v1h-42zM383,163h42v1h-42zM6,164h42v1h-42zM383,164h42v1h-42zM6,165h42v1h-42zM383,165h42v1h-42zM5,166h42v1h-42zM384,166h42v1h-42zM5,167h42v1h-42zM384,167h42v1h-42zM5,168h42v1h-42zM384,168h42v1h-42zM5,169h42v1h-42zM384,169h42v1h-42zM4,170h42v1h-42zM385,170h42v1h-42zM4,171h42v1h-42zM385,171h42v1h-42zM4,172h42v1h-42zM385,172h42v1h-42zM4,173h41v1h-41zM385,173h42v1h-42zM4,174h41v1h-41zM386,174h41v1h-41zM3,175h42v1h-42zM386,175h42v1h-42zM3,176h42v1h-42zM386,176h42v1h-42zM3,177h41v1h-41zM387,177h41v1h-41zM3,178h41v1h-41zM387,178h41v1h-41zM3,179h41v1h-41zM387,179h41v1h-41zM3,180h41v1h-41zM387,180h41v1h-41zM0,181h44v1h-44zM387,181h42v1h-42zM0,182h43v1h-43zM388,182h41v1h-41zM0,183h43v1h-43zM388,183h41v1h-41zM0,184h43v1h-43zM388,184h41v1h-41zM0,185h43v1h-43zM388,185h41v1h-41zM0,186h43v1h-43zM388,186h41v1h-41zM0,187h43v1h-43zM388,187h41v1h-41zM0,188h42v1h-42zM388,188h42v1h-42zM0,189h42v1h-42zM389,189h41v1h-41zM0,190h42v1h-42zM389,190h41v1h-41zM0,191h42v1h-42zM389,191h41v1h-41zM0,192h42v1h-42zM389,192h41v1h-41zM0,193h42v1h-42zM389,193h41v1h-41zM0,194h42v1h-42zM389,194h41v1h-41zM0,195h41v1h-41zM390,195h40v1h-40zM0,196h41v1h-41zM390,196h40v1h-40zM0,197h41v1h-41zM390,197h41v1h-41zM0,198h41v1h-41zM390,198h41v1h-41zM0,199h41v1h-41zM390,199h41v1h-41zM0,200h41v1h-41zM390,200h41v1h-41zM0,201h41v1h-41zM390,201h41v1h-41zM0,202h41v1h-41zM390,202h41v1h-41zM0,203h41v1h-41zM390,203h41v1h-41zM0,204h41v1h-41zM390,204h41v1h-41zM0,205h41v1h-41zM390,205h41v1h-41zM0,206h41v1h-41zM390,206h41v1h-41zM0,207h41v1h-41zM390,207h41v1h-41zM0,208h41v1h-41zM390,208h41v1h-41zM0,209h40v1h-40zM390,209h41v1h-41zM0,210h40v1h-40zM391,210h40v1h-40zM0,211h40v1h-40zM391,211h40v1h-40zM0,212h40v1h-40zM391,212h40v1h-40zM0,213h40v1h-40zM391,213h40v1h-40zM0,214h40v1h-40zM391,214h40v1h-40zM0,215h40v1h-40zM391,215h40v1h-40zM0,216h40v1h-40zM391,216h40v1h-40zM0,217h40v1h-40zM391,217h40v1h-40zM0,218h40v1h-40zM391,218h40v1h-40zM0,219h40v1h-40zM391,219h40v1h-40zM0,220h40v1h-40zM391,220h40v1h-40zM0,221h40v1h-40zM390,221h41v1h-41zM0,222h41v1h-41zM390,222h41v1h-41zM0,223h41v1h-41zM390,223h41v1h-41zM0,224h41v1h-41zM390,224h41v1h-41zM0,225h41v1h-41zM390,225h41v1h-41zM0,226h41v1h-41zM390,226h41v1h-41zM0,227h41v1h-41zM390,227h41v1h-41zM0,228h41v1h-41zM390,228h41v1h-41zM0,229h41v1h-41zM390,229h41v1h-41zM0,230h41v1h-41zM390,230h41v1h-41zM0,231h41v1h-41zM390,231h41v1h-41zM0,232h41v1h-41zM390,232h41v1h-41zM0,233h41v1h-41zM390,233h41v1h-41zM0,234h41v1h-41zM390,234h41v1h-41zM0,235h41v1h-41zM390,235h40v1h-40zM0,236h42v1h-42zM389,236h41v1h-41zM0,237h42v1h-42zM389,237h41v1h-41zM0,238h42v1h-42zM389,238h41v1h-41zM0,239h42v1h-42zM389,239h41v1h-41zM0,240h42v1h-42zM389,240h41v1h-41zM0,241h42v1h-42zM389,241h41v1h-41zM0,242h42v1h-42zM388,242h41v1h-41zM0,243h43v1h-43zM388,243h41v1h-41zM0,244h43v1h-43zM388,244h41v1h-41zM0,245h43v1h-43zM388,245h41v1h-41zM0,246h43v1h-43zM388,246h41v1h-41zM0,247h43v1h-43zM388,247h41v1h-41zM0,248h43v1h-43zM388,248h41v1h-41zM0,249h44v1h-44zM387,249h42v1h-42zM3,250h41v1h-41zM387,250h41v1h-41zM3,251h41v1h-41zM387,251h41v1h-41zM3,252h41v1h-41zM387,252h41v1h-41zM3,253h41v1h-41zM387,253h41v1h-41zM3,254h42v1h-42zM386,254h42v1h-42zM3,255h42v1h-42zM386,255h42v1h-42zM4,256h41v1h-41zM386,256h41v1h-41zM4,257h41v1h-41zM385,257h42v1h-42zM4,258h42v1h-42zM385,258h42v1h-42zM4,259h42v1h-42zM385,259h42v1h-42zM4,260h42v1h-42zM385,260h41v1h-41zM5,261h42v1h-42zM384,261h42v1h-42zM5,262h42v1h-42zM384,262h42v1h-42zM5,263h42v1h-42zM384,263h42v1h-42zM5,264h42v1h-42zM384,264h42v1h-42zM6,265h42v1h-42zM383,265h42v1h-42zM6,266h42v1h-42zM383,266h42v1h-42zM6,267h42v1h-42zM383,267h42v1h-42zM6,268h42v1h-42zM383,268h42v1h-42zM6,269h43v1h-43zM382,269h42v1h-42zM7,270h42v1h-42zM382,270h42v1h-42zM7,271h43v1h-43zM381,271h43v1h-43zM7,272h43v1h-43zM381,272h43v1h-43zM8,273h42v1h-42zM381,273h42v1h-42zM8,274h43v1h-43zM380,274h43v1h-43zM8,275h43v1h-43zM380,275h43v1h-43zM8,276h43v1h-43zM380,276h42v1h-42zM9,277h43v1h-43zM379,277h43v1h-43zM9,278h43v1h-43zM379,278h43v1h-43zM9,279h43v1h-43zM379,279h42v1h-42zM10,280h43v1h-43zM378,280h43v1h-43zM10,281h43v1h-43zM378,281h43v1h-43zM10,282h44v1h-44zM377,282h44v1h-44zM11,283h43v1h-43zM377,283h43v1h-43zM11,284h43v1h-43zM377,284h43v1h-43zM11,285h44v1h-44zM376,285h44v1h-44zM12,286h43v1h-43zM376,286h43v1h-43zM12,287h44v1h-44zM375,287h44v1h-44zM12,288h44v1h-44zM375,288h44v1h-44zM13,289h44v1h-44zM374,289h44v1h-44zM13,290h44v1h-44zM374,290h44v1h-44zM13,291h45v1h-45zM373,291h44v1h-44zM14,292h44v1h-44zM373,292h44v1h-44zM14,293h45v1h-45zM372,293h45v1h-45zM15,294h44v1h-44zM372,294h44v1h-44zM15,295h45v1h-45zM371,295h45v1h-45zM15,296h45v1h-45zM371,296h44v1h-44zM16,297h45v1h-45zM370,297h45v1h-45zM16,298h45v1h-45zM370,298h45v1h-45zM17,299h45v1h-45zM369,299h45v1h-45zM17,300h45v1h-45zM369,300h45v1h-45zM18,301h45v1h-45zM368,301h45v1h-45zM18,302h46v1h-46zM367,302h46v1h-46zM18,303h46v1h-46zM367,303h45v1h-45zM19,304h46v1h-46zM366,304h46v1h-46zM19,305h46v1h-46zM366,305h46v1h-46zM20,306h46v1h-46zM365,306h46v1h-46zM20,307h47v1h-47zM364,307h47v1h-47zM21,308h46v1h-46zM364,308h46v1h-46zM21,309h47v1h-47zM363,309h47v1h-47zM22,310h46v1h-46zM363,310h46v1h-46zM22,311h47v1h-47zM362,311h47v1h-47zM23,312h47v1h-47zM361,312h47v1h-47zM23,313h47v1h-47zM361,313h47v1h-47zM24,314h47v1h-47zM360,314h47v1h-47zM24,315h48v1h-48zM359,315h48v1h-48zM25,316h47v1h-47zM359,316h47v1h-47zM25,317h48v1h-48zM358,317h47v1h-47zM26,318h48v1h-48zM357,318h48v1h-48zM26,319h49v1h-49zM356,319h48v1h-48zM27,320h48v1h-48zM356,320h48v1h-48zM28,321h48v1h-48zM355,321h48v1h-48zM28,322h49v1h-49zM354,322h49v1h-49zM29,323h49v1h-49zM353,323h49v1h-49zM29,324h49v1h-49zM353,324h49v1h-49zM30,325h49v1h-49zM352,325h49v1h-49zM30,326h50v1h-50zM351,326h49v1h-49zM31,327h50v1h-50zM350,327h50v1h-50zM32,328h50v1h-50zM349,328h50v1h-50zM32,329h51v1h-51zM348,329h50v1h-50zM33,330h50v1h-50zM347,330h51v1h-51zM34,331h50v1h-50zM347,331h50v1h-50zM34,332h51v1h-51zM346,332h51v1h-51zM35,333h51v1h-51zM345,333h51v1h-51zM36,334h51v1h-51zM344,334h51v1h-51zM36,335h52v1h-52zM343,335h52v1h-52zM37,336h52v1h-52zM342,336h52v1h-52zM38,337h52v1h-52zM341,337h52v1h-52zM38,338h53v1h-53zM340,338h53v1h-53zM39,339h53v1h-53zM339,339h53v1h-53zM40,340h53v1h-53zM338,340h53v1h-53zM41,341h53v1h-53zM337,341h53v1h-53zM41,342h54v1h-54zM336,342h54v1h-54zM42,343h54v1h-54zM335,343h54v1h-54zM43,344h54v1h-54zM334,344h54v1h-54zM44,345h54v1h-54zM333,345h54v1h-54zM44,346h55v1h-55zM332,346h55v1h-55zM45,347h55v1h-55zM330,347h56v1h-56zM46,348h56v1h-56zM329,348h56v1h-56zM47,349h56v1h-56zM328,349h56v1h-56zM47,350h57v1h-57zM327,350h57v1h-57zM48,351h57v1h-57zM326,351h58v1h-58zM49,352h57v1h-57zM325,352h59v1h-59zM50,353h58v1h-58zM323,353h61v1h-61zM51,354h58v1h-58zM322,354h62v1h-62zM52,355h58v1h-58zM321,355h63v1h-63zM52,356h60v1h-60zM319,356h66v1h-66zM53,357h60v1h-60zM318,357h68v1h-68zM54,358h60v1h-60zM317,358h70v1h-70zM55,359h61v1h-61zM315,359h73v1h-73zM56,360h61v1h-61zM314,360h75v1h-75zM57,361h62v1h-62zM312,361h78v1h-78zM58,362h62v1h-62zM311,362h80v1h-80zM59,363h63v1h-63zM309,363h83v1h-83zM60,364h64v1h-64zM307,364h86v1h-86zM61,365h64v1h-64zM306,365h88v1h-88zM62,366h65v1h-65zM304,366h91v1h-91zM62,367h67v1h-67zM302,367h94v1h-94zM63,368h67v1h-67zM301,368h96v1h-96zM65,369h67v1h-67zM299,369h99v1h-99zM66,370h68v1h-68zM297,370h102v1h-102zM67,371h69v1h-69zM295,371h105v1h-105zM68,372h70v1h-70zM293,372h108v1h-108zM69,373h71v1h-71zM291,373h111v1h-111zM70,374h72v1h-72zM289,374h114v1h-114zM71,375h73v1h-73zM287,375h117v1h-117zM72,376h74v1h-74zM285,376h120v1h-120zM73,377h76v1h-76zM282,377h124v1h-124zM74,378h77v1h-77zM280,378h127v1h-127zM76,379h78v1h-78zM277,379h131v1h-131zM77,380h80v1h-80zM274,380h135v1h-135zM78,381h82v1h-82zM271,381h139v1h-139zM79,382h83v1h-83zM269,382h142v1h-142zM80,383h86v1h-86zM265,383h147v1h-147zM82,384h88v1h-88zM261,384h88v1h-88zM356,384h57v1h-57zM83,385h91v1h-91zM257,385h91v1h-91zM357,385h57v1h-57zM84,386h93v1h-93zM254,386h93v1h-93zM358,386h57v1h-57zM86,387h96v1h-96zM249,387h96v1h-96zM359,387h57v1h-57zM87,388h102v1h-102zM242,388h102v1h-102zM360,388h57v1h-57zM88,389h107v1h-107zM236,389h107v1h-107zM361,389h57v1h-57zM90,390h120v1h-120zM221,390h120v1h-120zM362,390h57v1h-57zM91,391h249v1h-249zM363,391h57v1h-57zM92,392h247v1h-247zM364,392h57v1h-57zM94,393h243v1h-243zM365,393h57v1h-57zM95,394h241v1h-241zM366,394h57v1h-57zM97,395h237v1h-237zM367,395h57v1h-57zM98,396h235v1h-235zM368,396h57v1h-57zM100,397h231v1h-231zM369,397h57v1h-57zM101,398h228v1h-228zM370,398h57v1h-57zM103,399h225v1h-225zM371,399h57v1h-57zM104,400h222v1h-222zM372,400h57v1h-57zM106,401h219v1h-219zM373,401h57v1h-57zM108,402h215v1h-215zM374,402h57v1h-57zM110,403h211v1h-211zM375,403h57v1h-57zM111,404h208v1h-208zM376,404h57v1h-57zM113,405h204v1h-204zM377,405h57v1h-57zM115,406h201v1h-201zM378,406h57v1h-57zM117,407h197v1h-197zM379,407h57v1h-57zM119,408h193v1h-193zM380,408h57v1h-57zM121,409h189v1h-189zM381,409h57v1h-57zM123,410h185v1h-185zM382,410h57v1h-57zM125,411h181v1h-181zM383,411h57v1h-57zM127,412h176v1h-176zM384,412h57v1h-57zM130,413h171v1h-171zM385,413h57v1h-57zM132,414h167v1h-167zM386,414h57v1h-57zM134,415h162v1h-162zM387,415h57v1h-57zM137,416h157v1h-157zM388,416h57v1h-57zM140,417h151v1h-151zM389,417h57v1h-57zM142,418h147v1h-147zM390,418h57v1h-57zM145,419h141v1h-141zM391,419h57v1h-57zM148,420h134v1h-134zM392,420h57v1h-57zM151,421h128v1h-128zM393,421h57v1h-57zM154,422h122v1h-122zM394,422h57v1h-57zM158,423h115v1h-115zM395,423h57v1h-57zM161,424h108v1h-108zM396,424h57v1h-57zM166,425h99v1h-99zM397,425h57v1h-57zM170,426h90v1h-90zM398,426h57v1h-57zM175,427h81v1h-81zM399,427h57v1h-57zM181,428h69v1h-69zM400,428h57v1h-57zM188,429h54v1h-54zM401,429h57v1h-57zM197,430h38v1h-38zM402,430h57v1h-57zM403,431h57v1h-57zM404,432h57v1h-57zM405,433h57v1h-57zM406,434h57v1h-57zM407,435h57v1h-57zM408,436h57v1h-57zM409,437h57v1h-57zM410,438h57v1h-57zM411,439h57v1h-57zM412,440h57v1h-57zM413,441h57v1h-57zM414,442h57v1h-57zM415,443h57v1h-57zM416,444h57v1h-57zM417,445h57v1h-57zM418,446h57v1h-57zM419,447h57v1h-57zM420,448h57v1h-57zM421,449h57v1h-57zM422,450h57v1h-57zM423,451h57v1h-57zM424,452h57v1h-57zM425,453h57v1h-57zM426,454h57v1h-57zM427,455h57v1h-57zM428,456h57v1h-57zM429,457h57v1h-57zM430,458h57v1h-57zM431,459h57v1h-57zM432,460h57v1h-57zM433,461h57v1h-57zM434,462h57v1h-57zM435,463h57v1h-57zM436,464h57v1h-57zM437,465h57v1h-57zM438,466h57v1h-57zM439,467h57v1h-57zM440,468h57v1h-57zM441,469h57v1h-57zM442,470h57v1h-57zM443,471h57v1h-57zM444,472h57v1h-57zM445,473h57v1h-57zM446,474h57v1h-57zM447,475h57v1h-57zM448,476h57v1h-57zM449,477h57v1h-57zM450,478h57v1h-57zM451,479h57v1h-57zM452,480h57v1h-57zM453,481h56v1h-56zM454,482h58v1h-58zM455,483h57v1h-57zM456,484h56v1h-56zM457,485h55v1h-55zM458,486h54v1h-54zM459,487h53v1h-53zM460,488h52v1h-52zM461,489h51v1h-51zM462,490h50v1h-50zM463,491h49v1h-49zM464,492h48v1h-48zM465,493h47v1h-47zM466,494h46v1h-46zM467,495h45v1h-45zM468,496h44v1h-44zM469,497h43v1h-43zM470,498h42v1h-42zM471,499h41v1h-41zM472,500h40v1h-40zM473,501h39v1h-39zM474,502h35v1h-35zM475,503h34v1h-34zM476,504h32v1h-32zM477,505h30v1h-30zM478,506h28v1h-28zM479,507h26v1h-26zM480,508h24v1h-24zM482,509h20v1h-20zM482,510h20v1h-20zM482,511h20v1h-20z"/></svg>