<?xml version="1.0" encoding="UTF-8"?>
<svg xmlns="http://www.w3.org/2000/svg" viewBox="0 0 512 512" width="512" height="512"><path fill="#000" d="M239,43h34v1h-34zM229,44h54v1h-54zM221,45h70v1h-70zM216,46h81v1h-81zM210,47h92v1h-92zM206,48h101v1h-101zM201,49h110v1h-110zM197,50h118v1h-118zM194,51h124v1h-124zM190,52h132v1h-132zM187,53h138v1h-138zM184,54h144v1h-144zM181,55h150v1h-150zM178,56h156v1h-156zM175,57h162v1h-162zM173,58h166v1h-166zM170,59h172v1h-172zM168,60h176v1h-176zM165,61h182v1h-182zM163,62h186v1h-186zM161,63h190v1h-190zM159,64h194v1h-194zM156,65h200v1h-200zM154,66h204v1h-204zM152,67h208v1h-208zM151,68h210v1h-210zM149,69h214v1h-214zM147,70h218v1h-218zM145,71h222v1h-222zM143,72h226v1h-226zM141,73h230v1h-230zM140,74h232v1h-232zM138,75h236v1h-236zM136,76h101v1h-101zM275,76h101v1h-101zM135,77h94v1h-94zM283,77h94v1h-94zM133,78h89v1h-89zM290,78h89v1h-89zM132,79h85v1h-85zM295,79h85v1h-85zM130,80h82v1h-82zM300,80h82v1h-82zM128,81h80v1h-80zM304,81h80v1h-80zM127,82h77v1h-77zM308,82h77v1h-77zM126,83h75v1h-75zM311,83h75v1h-75zM124,84h73v1h-73zM315,84h73v1h-73zM123,85h71v1h-71zM318,85h71v1h-71zM121,86h70v1h-70zM321,86h70v1h-70zM120,87h68v1h-68zM324,87h68v1h-68zM118,88h68v1h-68zM326,88h67v1h-67zM117,89h66v1h-66zM329,89h66v1h-66zM116,90h65v1h-65zM331,90h65v1h-65zM115,91h63v1h-63zM334,91h63v1h-63zM113,92h63v1h-63zM336,92h63v1h-63zM112,93h62v1h-62zM338,93h62v1h-62zM111,94h61v1h-61zM340,94h61v1h-61zM110,95h60v1h-60zM342,95h60v1h-60zM108,96h60v1h-60zM344,96h60v1h-60zM107,97h59v1h-59zM346,97h59v1h-59zM106,98h58v1h-58zM348,98h58v1h-58zM105,99h57v1h-57zM350,99h57v1h-57zM104,100h56v1h-56zM352,100h56v1h-56zM103,101h55v1h-55zM354,101h55v1h-55zM102,102h55v1h-55zM355,102h55v1h-55zM100,103h55v1h-55zM357,103h55v1h-55zM99,104h54v1h-54zM359,104h54v1h-54zM98,105h54v1h-54zM360,105h54v1h-54zM97,106h53v1h-53zM362,106h53v1h-53zM96,107h52v1h-52zM364,107h52v1h-52zM95,108h52v1h-52zM365,108h52v1h-52zM94,109h51v1h-51zM367,109h51v1h-51zM93,110h51v1h-51zM368,110h51v1h-51zM92,111h51v1h-51zM369,111h51v1h-51zM91,112h50v1h-50zM371,112h50v1h-50zM90,113h50v1h-50zM372,113h50v1h-50zM89,114h49v1h-49zM374,114h49v1h-49zM88,115h49v1h-49zM375,115h49v1h-49zM87,116h49v1h-49zM376,116h49v1h-49zM87,117h48v1h-48zM377,117h49v1h-49zM86,118h47v1h-47zM379,118h47v1h-47zM85,119h47v1h-47zM380,119h47v1h-47zM84,120h47v1h-47zM381,120h47v1h-47zM83,121h47v1h-47zM382,121h47v1h-47zM82,122h46v1h-46zM384,122h46v1h-46zM81,123h46v1h-46zM385,123h46v1h-46zM80,124h46v1h-46zM386,124h46v1h-46zM80,125h45v1h-45zM387,125h45v1h-45zM79,126h45v1h-45zM388,126h45v1h-45zM78,127h45v1h-45zM389,127h45v1h-45zM77,128h45v1h-45zM390,128h45v1h-45zM76,129h45v1h-45zM391,129h45v1h-45zM76,130h44v1h-44zM392,130h44v1h-44zM75,131h44v1h-44zM393,131h44v1h-44zM74,132h43v1h-43zM395,132h43v1h-43zM73,133h43v1h-43zM396,133h43v1h-43zM72,134h44v1h-44zM397,134h43v1h-43zM72,135h43v1h-43zM397,135h43v1h-43zM71,136h43v1h-43zM398,136h43v1h-43zM70,137h43v1h-43zM399,137h43v1h-43zM69,138h43v1h-43zM400,138h43v1h-43zM69,139h42v1h-42zM401,139h42v1h-42zM68,140h42v1h-42zM402,140h42v1h-42zM67,141h42v1h-42zM403,141h42v1h-42zM67,142h41v1h-41zM404,142h41v1h-41zM66,143h41v1h-41zM405,143h41v1h-41zM65,144h41v1h-41zM406,144h41v1h-41zM65,145h40v1h-40zM407,145h40v1h-40zM64,146h41v1h-41zM407,146h41v1h-41zM63,147h41v1h-41zM408,147h41v1h-41zM63,148h40v1h-40zM409,148h40v1h-40zM62,149h40v1h-40zM253,149h6v1h-6zM410,149h40v1h-40zM61,150h40v1h-40zM244,150h24v1h-24zM411,150h40v1h-40zM61,151h40v1h-40zM239,151h34v1h-34zM411,151h40v1h-40zM60,152h40v1h-40zM235,152h41v1h-41zM412,152h40v1h-40zM59,153h40v1h-40zM232,153h47v1h-47zM413,153h40v1h-40zM59,154h39v1h-39zM230,154h52v1h-52zM414,154h39v1h-39zM58,155h40v1h-40zM227,155h57v1h-57zM414,155h40v1h-40zM58,156h39v1h-39zM225,156h61v1h-61zM415,156h39v1h-39zM57,157h39v1h-39zM223,157h65v1h-65zM416,157h39v1h-39zM57,158h38v1h-38zM221,158h69v1h-69zM417,158h38v1h-38zM56,159h39v1h-39zM220,159h72v1h-72zM417,159h39v1h-39zM55,160h39v1h-39zM218,160h76v1h-76zM418,160h39v1h-39zM55,161h38v1h-38zM217,161h78v1h-78zM419,161h38v1h-38zM54,162h39v1h-39zM215,162h81v1h-81zM419,162h39v1h-39zM54,163h38v1h-38zM214,163h84v1h-84zM420,163h38v1h-38zM53,164h38v1h-38zM213,164h86v1h-86zM421,164h38v1h-38zM53,165h38v1h-38zM211,165h89v1h-89zM421,165h38v1h-38zM52,166h38v1h-38zM210,166h92v1h-92zM422,166h38v1h-38zM52,167h37v1h-37zM209,167h94v1h-94zM423,167h37v1h-37zM51,168h38v1h-38zM208,168h96v1h-96zM423,168h38v1h-38zM51,169h37v1h-37zM207,169h98v1h-98zM424,169h37v1h-37zM50,170h37v1h-37zM206,170h100v1h-100zM425,170h37v1h-37zM50,171h37v1h-37zM205,171h102v1h-102zM425,171h37v1h-37zM49,172h37v1h-37zM204,172h104v1h-104zM426,172h37v1h-37zM49,173h37v1h-37zM203,173h106v1h-106zM426,173h37v1h-37zM48,174h37v1h-37zM202,174h107v1h-107zM427,174h37v1h-37zM48,175h37v1h-37zM201,175h109v1h-109zM427,175h37v1h-37zM47,176h37v1h-37zM201,176h110v1h-110zM428,176h37v1h-37zM47,177h36v1h-36zM200,177h112v1h-112zM429,177h36v1h-36zM46,178h37v1h-37zM199,178h114v1h-114zM429,178h37v1h-37zM46,179h36v1h-36zM198,179h115v1h-115zM430,179h36v1h-36zM46,180h36v1h-36zM198,180h116v1h-116zM430,180h37v1h-37zM45,181h36v1h-36zM197,181h118v1h-118zM431,181h36v1h-36zM45,182h36v1h-36zM196,182h55v1h-55zM260,182h55v1h-55zM431,182h36v1h-36zM44,183h36v1h-36zM196,183h50v1h-50zM266,183h50v1h-50zM432,183h36v1h-36zM44,184h36v1h-36zM195,184h48v1h-48zM269,184h47v1h-47zM432,184h36v1h-36zM43,185h36v1h-36zM195,185h45v1h-45zM271,185h46v1h-46zM433,185h36v1h-36zM43,186h36v1h-36zM194,186h44v1h-44zM273,186h44v1h-44zM433,186h36v1h-36zM43,187h35v1h-35zM194,187h43v1h-43zM275,187h43v1h-43zM434,187h35v1h-35zM42,188h36v1h-36zM193,188h42v1h-42zM277,188h42v1h-42zM434,188h36v1h-36zM42,189h35v1h-35zM193,189h41v1h-41zM278,189h41v1h-41zM435,189h35v1h-35zM41,190h36v1h-36zM192,190h40v1h-40zM279,190h40v1h-40zM435,190h36v1h-36zM41,191h35v1h-35zM192,191h39v1h-39zM280,191h40v1h-40zM436,191h35v1h-35zM41,192h35v1h-35zM191,192h39v1h-39zM281,192h39v1h-39zM436,192h35v1h-35zM40,193h36v1h-36zM191,193h38v1h-38zM283,193h38v1h-38zM436,193h36v1h-36zM40,194h35v1h-35zM191,194h37v1h-37zM283,194h38v1h-38zM437,194h35v1h-35zM40,195h35v1h-35zM190,195h37v1h-37zM284,195h37v1h-37zM437,195h35v1h-35zM39,196h35v1h-35zM190,196h37v1h-37zM285,196h37v1h-37zM438,196h35v1h-35zM39,197h35v1h-35zM189,197h37v1h-37zM286,197h36v1h-36zM438,197h35v1h-35zM39,198h34v1h-34zM189,198h36v1h-36zM287,198h35v1h-35zM439,198h34v1h-34zM38,199h35v1h-35zM189,199h35v1h-35zM287,199h36v1h-36zM439,199h35v1h-35zM38,200h35v1h-35zM189,200h35v1h-35zM288,200h35v1h-35zM439,200h35v1h-35zM38,201h34v1h-34zM188,201h35v1h-35zM288,201h35v1h-35zM440,201h34v1h-34zM37,202h35v1h-35zM188,202h35v1h-35zM289,202h35v1h-35zM440,202h35v1h-35zM37,203h34v1h-34zM188,203h34v1h-34zM289,203h35v1h-35zM441,203h34v1h-34zM37,204h34v1h-34zM188,204h34v1h-34zM290,204h34v1h-34zM441,204h34v1h-34zM36,205h35v1h-35zM187,205h34v1h-34zM290,205h34v1h-34zM441,205h35v1h-35zM36,206h34v1h-34zM187,206h34v1h-34zM291,206h33v1h-33zM442,206h34v1h-34zM36,207h34v1h-34zM187,207h34v1h-34zM291,207h34v1h-34zM442,207h34v1h-34zM35,208h35v1h-35zM187,208h33v1h-33zM291,208h34v1h-34zM442,208h35v1h-35zM35,209h34v1h-34zM187,209h33v1h-33zM292,209h33v1h-33zM443,209h34v1h-34zM35,210h34v1h-34zM187,210h33v1h-33zM292,210h33v1h-33zM443,210h34v1h-34zM35,211h34v1h-34zM186,211h34v1h-34zM292,211h33v1h-33zM443,211h34v1h-34zM34,212h34v1h-34zM186,212h33v1h-33zM292,212h33v1h-33zM444,212h34v1h-34zM34,213h34v1h-34zM186,213h33v1h-33zM292,213h33v1h-33zM444,213h34v1h-34zM34,214h34v1h-34zM186,214h33v1h-33zM293,214h32v1h-32zM444,214h34v1h-34zM33,215h34v1h-34zM186,215h33v1h-33zM293,215h33v1h-33zM445,215h34v1h-34zM33,216h34v1h-34zM186,216h33v1h-33zM293,216h33v1h-33zM445,216h34v1h-34zM33,217h34v1h-34zM186,217h33v1h-33zM293,217h33v1h-33zM445,217h34v1h-34zM33,218h34v1h-34zM186,218h33v1h-33zM293,218h33v1h-33zM445,218h34v1h-34zM32,219h34v1h-34zM186,219h33v1h-33zM293,219h33v1h-33zM446,219h34v1h-34zM32,220h34v1h-34zM186,220h33v1h-33zM293,220h33v1h-33zM446,220h34v1h-34zM32,221h34v1h-34zM186,221h33v1h-33zM293,221h33v1h-33zM446,221h34v1h-34zM32,222h33v1h-33zM186,222h33v1h-33zM293,222h33v1h-33zM447,222h33v1h-33zM32,223h33v1h-33zM186,223h33v1h-33zM293,223h32v1h-32zM447,223h33v1h-33zM31,224h34v1h-34zM186,224h33v1h-33zM292,224h33v1h-33zM447,224h34v1h-34zM31,225h34v1h-34zM186,225h33v1h-33zM292,225h33v1h-33zM447,225h34v1h-34zM31,226h33v1h-33zM186,226h34v1h-34zM292,226h33v1h-33zM448,226h33v1h-33zM31,227h33v1h-33zM187,227h33v1h-33zM292,227h33v1h-33zM448,227h33v1h-33zM31,228h33v1h-33zM187,228h33v1h-33zM292,228h33v1h-33zM448,228h33v1h-33zM30,229h34v1h-34zM187,229h33v1h-33zM291,229h34v1h-34zM448,229h34v1h-34zM30,230h34v1h-34zM187,230h34v1h-34zM291,230h34v1h-34zM448,230h34v1h-34zM30,231h33v1h-33zM187,231h34v1h-34zM291,231h33v1h-33zM449,231h33v1h-33zM30,232h33v1h-33zM187,232h34v1h-34zM290,232h34v1h-34zM449,232h33v1h-33zM30,233h33v1h-33zM188,233h34v1h-34zM290,233h34v1h-34zM449,233h33v1h-33zM29,234h34v1h-34zM188,234h34v1h-34zM289,234h35v1h-35zM449,234h34v1h-34zM29,235h34v1h-34zM188,235h35v1h-35zM289,235h35v1h-35zM449,235h34v1h-34zM29,236h33v1h-33zM188,236h35v1h-35zM288,236h35v1h-35zM450,236h33v1h-33zM29,237h33v1h-33zM189,237h35v1h-35zM288,237h35v1h-35zM450,237h33v1h-33zM29,238h33v1h-33zM189,238h35v1h-35zM287,238h36v1h-36zM450,238h33v1h-33zM29,239h33v1h-33zM189,239h36v1h-36zM287,239h36v1h-36zM450,239h33v1h-33zM29,240h33v1h-33zM189,240h37v1h-37zM286,240h36v1h-36zM450,240h33v1h-33zM28,241h33v1h-33zM190,241h36v1h-36zM285,241h37v1h-37zM451,241h33v1h-33zM28,242h33v1h-33zM190,242h37v1h-37zM284,242h38v1h-38zM451,242h33v1h-33zM28,243h33v1h-33zM190,243h38v1h-38zM284,243h37v1h-37zM451,243h33v1h-33zM28,244h33v1h-33zM191,244h38v1h-38zM283,244h38v1h-38zM451,244h33v1h-33zM28,245h33v1h-33zM191,245h39v1h-39zM282,245h38v1h-38zM451,245h33v1h-33zM28,246h33v1h-33zM192,246h39v1h-39zM281,246h39v1h-39zM451,246h33v1h-33zM28,247h33v1h-33zM192,247h40v1h-40zM279,247h41v1h-41zM451,247h33v1h-33zM28,248h33v1h-33zM193,248h40v1h-40zM278,248h41v1h-41zM451,248h33v1h-33zM27,249h33v1h-33zM193,249h42v1h-42zM277,249h42v1h-42zM452,249h33v1h-33zM27,250h33v1h-33zM194,250h42v1h-42zM275,250h43v1h-43zM452,250h33v1h-33zM27,251h33v1h-33zM194,251h44v1h-44zM274,251h44v1h-44zM452,251h33v1h-33zM27,252h33v1h-33zM195,252h45v1h-45zM272,252h45v1h-45zM452,252h33v1h-33zM27,253h33v1h-33zM195,253h47v1h-47zM269,253h47v1h-47zM452,253h33v1h-33zM27,254h33v1h-33zM196,254h49v1h-49zM266,254h50v1h-50zM452,254h33v1h-33zM27,255h33v1h-33zM196,255h54v1h-54zM262,255h53v1h-53zM452,255h33v1h-33zM27,256h33v1h-33zM197,256h118v1h-118zM452,256h33v1h-33zM27,257h33v1h-33zM198,257h116v1h-116zM452,257h33v1h-33zM27,258h33v1h-33zM198,258h115v1h-115zM452,258h33v1h-33zM27,259h33v1h-33zM199,259h114v1h-114zM452,259h33v1h-33zM27,260h32v1h-32zM200,260h112v1h-112zM453,260h32v1h-32zM27,261h32v1h-32zM200,261h111v1h-111zM453,261h32v1h-32zM27,262h32v1h-32zM201,262h109v1h-109zM453,262h32v1h-32zM27,263h32v1h-32zM202,263h108v1h-108zM453,263h33v1h-33zM26,264h33v1h-33zM203,264h106v1h-106zM453,264h33v1h-33zM26,265h33v1h-33zM204,265h104v1h-104zM453,265h33v1h-33zM26,266h33v1h-33zM205,266h102v1h-102zM453,266h33v1h-33zM26,267h33v1h-33zM206,267h100v1h-100zM453,267h33v1h-33zM26,268h33v1h-33zM207,268h98v1h-98zM453,268h33v1h-33zM26,269h33v1h-33zM208,269h96v1h-96zM453,269h33v1h-33zM26,270h33v1h-33zM209,270h94v1h-94zM453,270h33v1h-33zM26,271h33v1h-33zM210,271h92v1h-92zM453,271h33v1h-33zM26,272h33v1h-33zM211,272h90v1h-90zM453,272h33v1h-33zM26,273h33v1h-33zM212,273h87v1h-87zM453,273h33v1h-33zM26,274h33v1h-33zM214,274h84v1h-84zM453,274h33v1h-33zM26,275h33v1h-33zM215,275h82v1h-82zM453,275h33v1h-33zM26,276h33v1h-33zM216,276h79v1h-79zM453,276h33v1h-33zM26,277h33v1h-33zM218,277h76v1h-76zM453,277h33v1h-33zM26,278h33v1h-33zM219,278h73v1h-73zM453,278h33v1h-33zM26,279h33v1h-33zM221,279h70v1h-70zM453,279h33v1h-33zM26,280h33v1h-33zM223,280h66v1h-66zM453,280h33v1h-33zM27,281h32v1h-32zM225,281h62v1h-62zM453,281h33v1h-33zM27,282h32v1h-32zM227,282h58v1h-58zM453,282h32v1h-32zM27,283h32v1h-32zM229,283h53v1h-53zM453,283h32v1h-32zM27,284h32v1h-32zM232,284h48v1h-48zM453,284h32v1h-32zM27,285h33v1h-33zM235,285h42v1h-42zM452,285h33v1h-33zM27,286h33v1h-33zM238,286h35v1h-35zM452,286h33v1h-33zM27,287h33v1h-33zM243,287h26v1h-26zM452,287h33v1h-33zM27,288h33v1h-33zM250,288h12v1h-12zM452,288h33v1h-33zM27,289h33v1h-33zM452,289h33v1h-33zM27,290h33v1h-33zM452,290h33v1h-33zM27,291h33v1h-33zM452,291h33v1h-33zM27,292h33v1h-33zM452,292h33v1h-33zM27,293h33v1h-33zM452,293h33v1h-33zM27,294h33v1h-33zM452,294h33v1h-33zM27,295h33v1h-33zM452,295h33v1h-33zM28,296h33v1h-33zM451,296h33v1h-33zM28,297h33v1h-33zM451,297h33v1h-33zM28,298h33v1h-33zM451,298h33v1h-33zM28,299h33v1h-33zM451,299h33v1h-33zM28,300h33v1h-33zM451,300h33v1h-33zM28,301h33v1h-33zM451,301h33v1h-33zM28,302h33v1h-33zM451,302h33v1h-33zM28,303h34v1h-34zM450,303h34v1h-34zM29,304h33v1h-33zM450,304h33v1h-33zM29,305h33v1h-33zM450,305h33v1h-33zM29,306h33v1h-33zM450,306h33v1h-33zM29,307h33v1h-33zM450,307h33v1h-33zM29,308h33v1h-33zM450,308h33v1h-33zM29,309h34v1h-34zM449,309h34v1h-34zM29,310h34v1h-34zM449,310h33v1h-33zM30,311h33v1h-33zM449,311h33v1h-33zM30,312h33v1h-33zM449,312h33v1h-33zM30,313h33v1h-33zM449,313h33v1h-33zM30,314h34v1h-34zM448,314h34v1h-34zM30,315h34v1h-34zM448,315h34v1h-34zM31,316h33v1h-33zM448,316h33v1h-33zM31,317h33v1h-33zM448,317h33v1h-33zM31,318h34v1h-34zM447,318h34v1h-34zM31,319h34v1h-34zM447,319h34v1h-34zM31,320h34v1h-34zM447,320h34v1h-34zM32,321h33v1h-33zM447,321h33v1h-33zM32,322h33v1h-33zM446,322h34v1h-34zM32,323h34v1h-34zM241,323h32v1h-32zM446,323h34v1h-34zM32,324h34v1h-34zM233,324h48v1h-48zM446,324h34v1h-34zM33,325h33v1h-33zM227,325h60v1h-60zM446,325h33v1h-33zM33,326h34v1h-34zM223,326h68v1h-68zM445,326h34v1h-34zM33,327h34v1h-34zM218,327h78v1h-78zM445,327h34v1h-34zM33,328h34v1h-34zM215,328h84v1h-84zM445,328h34v1h-34zM33,329h34v1h-34zM211,329h92v1h-92zM445,329h34v1h-34zM34,330h34v1h-34zM208,330h98v1h-98zM444,330h34v1h-34zM34,331h34v1h-34zM205,331h104v1h-104zM444,331h34v1h-34zM34,332h34v1h-34zM202,332h109v1h-109zM444,332h34v1h-34zM35,333h34v1h-34zM200,333h114v1h-114zM443,333h34v1h-34zM35,334h34v1h-34zM197,334h119v1h-119zM443,334h34v1h-34zM35,335h34v1h-34zM195,335h124v1h-124zM443,335h34v1h-34zM35,336h35v1h-35zM193,336h128v1h-128zM442,336h35v1h-35zM36,337h34v1h-34zM190,337h133v1h-133zM442,337h34v1h-34zM36,338h34v1h-34zM188,338h137v1h-137zM442,338h34v1h-34zM36,339h35v1h-35zM186,339h141v1h-141zM441,339h35v1h-35zM37,340h34v1h-34zM184,340h145v1h-145zM441,340h34v1h-34zM37,341h35v1h-35zM183,341h148v1h-148zM440,341h35v1h-35zM37,342h35v1h-35zM181,342h151v1h-151zM440,342h35v1h-35zM38,343h34v1h-34zM179,343h155v1h-155zM440,343h34v1h-34zM38,344h35v1h-35zM177,344h159v1h-159zM439,344h35v1h-35zM38,345h35v1h-35zM176,345h161v1h-161zM439,345h35v1h-35zM39,346h35v1h-35zM174,346h165v1h-165zM438,346h35v1h-35zM39,347h35v1h-35zM173,347h167v1h-167zM438,347h35v1h-35zM39,348h35v1h-35zM171,348h171v1h-171zM438,348h35v1h-35zM40,349h35v1h-35zM170,349h173v1h-173zM437,349h35v1h-35zM40,350h35v1h-35zM168,350h176v1h-176zM437,350h35v1h-35zM40,351h36v1h-36zM167,351h179v1h-179zM436,351h36v1h-36zM41,352h35v1h-35zM165,352h182v1h-182zM436,352h35v1h-35zM41,353h36v1h-36zM164,353h184v1h-184zM435,353h36v1h-36zM41,354h36v1h-36zM163,354h187v1h-187zM435,354h36v1h-36zM42,355h35v1h-35zM162,355h91v1h-91zM261,355h90v1h-90zM435,355h35v1h-35zM42,356h36v1h-36zM160,356h80v1h-80zM273,356h79v1h-79zM434,356h36v1h-36zM43,357h35v1h-35zM159,357h75v1h-75zM280,357h73v1h-73zM434,357h35v1h-35zM43,358h36v1h-36zM158,358h71v1h-71zM284,358h70v1h-70zM433,358h36v1h-36zM43,359h36v1h-36zM157,359h68v1h-68zM288,359h67v1h-67zM433,359h36v1h-36zM44,360h36v1h-36zM156,360h65v1h-65zM292,360h65v1h-65zM432,360h36v1h-36zM44,361h36v1h-36zM155,361h63v1h-63zM295,361h63v1h-63zM432,361h36v1h-36zM45,362h36v1h-36zM153,362h62v1h-62zM298,362h61v1h-61zM431,362h36v1h-36zM45,363h36v1h-36zM152,363h61v1h-61zM301,363h59v1h-59zM431,363h36v1h-36zM46,364h36v1h-36zM151,364h59v1h-59zM303,364h58v1h-58zM430,364h36v1h-36zM46,365h36v1h-36zM150,365h58v1h-58zM305,365h57v1h-57zM430,365h36v1h-36zM46,366h37v1h-37zM149,366h56v1h-56zM308,366h55v1h-55zM429,366h36v1h-36zM47,367h37v1h-37zM148,367h55v1h-55zM310,367h54v1h-54zM428,367h37v1h-37zM47,368h37v1h-37zM147,368h54v1h-54zM312,368h53v1h-53zM428,368h37v1h-37zM48,369h37v1h-37zM147,369h52v1h-52zM313,369h52v1h-52zM427,369h37v1h-37zM48,370h37v1h-37zM146,370h52v1h-52zM315,370h51v1h-51zM427,370h37v1h-37zM49,371h37v1h-37zM145,371h51v1h-51zM317,371h50v1h-50zM426,371h37v1h-37zM49,372h37v1h-37zM145,372h49v1h-49zM319,372h48v1h-48zM426,372h37v1h-37zM50,373h37v1h-37zM145,373h48v1h-48zM320,373h47v1h-47zM425,373h37v1h-37zM50,374h38v1h-38zM144,374h47v1h-47zM322,374h46v1h-46zM424,374h38v1h-38zM51,375h37v1h-37zM144,375h45v1h-45zM323,375h45v1h-45zM424,375h37v1h-37zM51,376h38v1h-38zM144,376h44v1h-44zM325,376h43v1h-43zM423,376h38v1h-38zM52,377h37v1h-37zM144,377h43v1h-43zM326,377h42v1h-42zM422,377h38v1h-38zM52,378h38v1h-38zM144,378h41v1h-41zM327,378h41v1h-41zM422,378h38v1h-38zM53,379h38v1h-38zM144,379h40v1h-40zM329,379h39v1h-39zM421,379h38v1h-38zM53,380h38v1h-38zM144,380h39v1h-39zM330,380h38v1h-38zM421,380h38v1h-38zM54,381h38v1h-38zM144,381h37v1h-37zM331,381h37v1h-37zM420,381h38v1h-38zM54,382h39v1h-39zM144,382h36v1h-36zM332,382h36v1h-36zM419,382h39v1h-39zM55,383h38v1h-38zM144,383h35v1h-35zM333,383h35v1h-35zM419,383h38v1h-38zM56,384h38v1h-38zM145,384h33v1h-33zM334,384h33v1h-33zM418,384h38v1h-38zM56,385h39v1h-39zM145,385h32v1h-32zM335,385h32v1h-32zM417,385h39v1h-39zM57,386h39v1h-39zM145,386h31v1h-31zM336,386h31v1h-31zM416,386h39v1h-39zM57,387h39v1h-39zM146,387h29v1h-29zM337,387h29v1h-29zM416,387h39v1h-39zM58,388h39v1h-39zM147,388h27v1h-27zM338,388h27v1h-27zM415,388h39v1h-39zM58,389h40v1h-40zM147,389h26v1h-26zM339,389h26v1h-26zM414,389h40v1h-40zM59,390h39v1h-39zM148,390h24v1h-24zM340,390h24v1h-24zM414,390h39v1h-39zM60,391h39v1h-39zM149,391h22v1h-22zM341,391h22v1h-22zM413,391h39v1h-39zM60,392h40v1h-40zM151,392h18v1h-18zM343,392h18v1h-18zM412,392h40v1h-40zM61,393h40v1h-40zM152,393h16v1h-16zM344,393h16v1h-16zM411,393h40v1h-40zM62,394h40v1h-40zM155,394h10v1h-10zM347,394h10v1h-10zM410,394h40v1h-40zM62,395h40v1h-40zM410,395h40v1h-40zM63,396h40v1h-40zM409,396h40v1h-40zM63,397h41v1h-41zM408,397h41v1h-41zM64,398h41v1h-41zM407,398h41v1h-41zM65,399h41v1h-41zM406,399h41v1h-41zM65,400h42v1h-42zM405,400h42v1h-42zM66,401h41v1h-41zM405,401h41v1h-41zM67,402h41v1h-41zM404,402h41v1h-41zM68,403h41v1h-41zM403,403h42v1h-42zM68,404h42v1h-42zM402,404h42v1h-42zM69,405h42v1h-42zM401,405h42v1h-42zM70,406h42v1h-42zM400,406h42v1h-42zM70,407h43v1h-43zM399,407h43v1h-43zM71,408h43v1h-43zM398,408h43v1h-43zM72,409h43v1h-43zM397,409h43v1h-43zM73,410h43v1h-43zM396,410h43v1h-43zM73,411h44v1h-44zM395,411h44v1h-44zM74,412h44v1h-44zM394,412h44v1h-44zM75,413h44v1h-44zM393,413h44v1h-44zM76,414h44v1h-44zM392,414h44v1h-44zM76,415h45v1h-45zM391,415h45v1h-45zM77,416h45v1h-45zM390,416h45v1h-45zM78,417h45v1h-45zM389,417h45v1h-45zM79,418h45v1h-45zM388,418h45v1h-45zM80,419h45v1h-45zM387,419h45v1h-45zM81,420h45v1h-45zM386,420h45v1h-45zM81,421h46v1h-46zM385,421h46v1h-46zM82,422h47v1h-47zM383,422h47v1h-47zM83,423h47v1h-47zM382,423h47v1h-47zM84,424h47v1h-47zM381,424h47v1h-47zM85,425h47v1h-47zM380,425h47v1h-47zM86,426h48v1h-48zM378,426h48v1h-48zM87,427h48v1h-48zM377,427h48v1h-48zM88,428h48v1h-48zM376,428h48v1h-48zM89,429h48v1h-48zM375,429h48v1h-48zM90,430h49v1h-49zM373,430h49v1h-49zM91,431h49v1h-49zM372,431h50v1h-50zM91,432h50v1h-50zM371,432h50v1h-50zM92,433h51v1h-51zM369,433h51v1h-51zM93,434h51v1h-51zM368,434h51v1h-51zM94,435h52v1h-52zM366,435h52v1h-52zM95,436h52v1h-52zM365,436h52v1h-52zM96,437h53v1h-53zM363,437h53v1h-53zM98,438h52v1h-52zM362,438h52v1h-52zM99,439h53v1h-53zM360,439h53v1h-53zM100,440h54v1h-54zM359,440h53v1h-53zM101,441h54v1h-54zM357,441h54v1h-54zM102,442h55v1h-55zM355,442h55v1h-55zM103,443h56v1h-56zM353,443h56v1h-56zM104,444h56v1h-56zM352,444h56v1h-56zM105,445h57v1h-57zM350,445h57v1h-57zM106,446h58v1h-58zM348,446h58v1h-58zM108,447h58v1h-58zM346,447h58v1h-58zM109,448h59v1h-59zM344,448h59v1h-59zM110,449h60v1h-60zM342,449h60v1h-60zM111,450h61v1h-61zM340,450h61v1h-61zM112,451h62v1h-62zM338,451h62v1h-62zM114,452h63v1h-63zM336,452h62v1h-62zM115,453h64v1h-64zM333,453h64v1h-64zM116,454h65v1h-65zM331,454h65v1h-65zM118,455h66v1h-66zM328,455h67v1h-67zM119,456h67v1h-67zM326,456h67v1h-67zM120,457h69v1h-69zM323,457h69v1h-69zM122,458h70v1h-70zM320,458h70v1h-70zM123,459h72v1h-72zM317,459h72v1h-72zM124,460h74v1h-74zM314,460h74v1h-74zM126,461h75v1h-75zM311,461h75v1h-75zM127,462h78v1h-78zM307,462h78v1h-78zM129,463h80v1h-80zM303,463h80v1h-80zM130,464h83v1h-83zM299,464h83v1h-83zM132,465h86v1h-86zM294,465h86v1h-86zM133,466h91v1h-91zM289,466h90v1h-90zM135,467h95v1h-95zM282,467h95v1h-95zM137,468h103v1h-103zM272,468h103v1h-103zM138,469h236v1h-236zM140,470h232v1h-232zM142,471h228v1h-228zM144,472h225v1h-225zM145,473h222v1h-222zM147,474h218v1h-218zM149,475h214v1h-214zM151,476h210v1h-210zM153,477h206v1h-206zM155,478h202v1h-202zM157,479h198v1h-198zM159,480h194v1h-194zM161,481h190v1h-190zM163,482h186v1h-186zM166,483h180v1h-180zM168,484h176v1h-176zM171,485h170v1h-170zM173,486h166v1h-166zM176,487h160v1h-160zM178,488h156v1h-156zM181,489h150v1h-150zM184,490h144v1h-144zM187,491h138v1h-138zM191,492h130v1h-130zM194,493h124v1h-124zM198,494h116v1h-116zM202,495h108v1h-108zM206,496h100v1h-100zM211,497h90v1h-90zM216,498h80v1h-80zM223,499h67v1h-67zM230,500h52v1h-52zM242,501h28v1h-28z"/></svg>