<?xml version="1.0" encoding="UTF-8"?>
<svg xmlns="http://www.w3.org/2000/svg" viewBox="0 0 512 512" width="512" height="512"><path fill="#000" d="M84,48h344v1h-344zM79,49h354v1h-354zM75,50h362v1h-362zM71,51h370v1h-370zM68,52h375v1h-375zM66,53h380v1h-380zM64,54h384v1h-384zM61,55h389v1h-389zM59,56h393v1h-393zM58,57h396v1h-396zM56,58h400v1h-400zM54,59h404v1h-404zM53,60h406v1h-406zM51,61h410v1h-410zM50,62h412v1h-412zM48,63h416v1h-416zM47,64h418v1h-418zM46,65h420v1h-420zM44,66h424v1h-424zM43,67h426v1h-426zM42,68h428v1h-428zM41,69h430v1h-430zM40,70h432v1h-432zM39,71h434v1h-434zM38,72h436v1h-436zM37,73h438v1h-438zM36,74h440v1h-440zM35,75h442v1h-442zM34,76h444v1h-444zM34,77h444v1h-444zM33,78h446v1h-446zM32,79h448v1h-448zM31,80h62v1h-62zM419,80h62v1h-62zM31,81h55v1h-55zM426,81h55v1h-55zM30,82h52v1h-52zM430,82h52v1h-52zM29,83h50v1h-50zM433,83h50v1h-50zM29,84h48v1h-48zM435,84h48v1h-48zM28,85h47v1h-47zM437,85h47v1h-47zM27,86h46v1h-46zM439,86h46v1h-46zM27,87h44v1h-44zM441,87h44v1h-44zM26,88h43v1h-43zM443,88h43v1h-43zM26,89h42v1h-42zM444,89h42v1h-42zM25,90h42v1h-42zM445,90h42v1h-42zM24,91h42v1h-42zM446,91h42v1h-42zM24,92h40v1h-40zM448,92h40v1h-40zM23,93h40v1h-40zM449,93h40v1h-40zM23,94h39v1h-39zM450,94h39v1h-39zM23,95h38v1h-38zM451,95h38v1h-38zM22,96h38v1h-38zM452,96h38v1h-38zM22,97h38v1h-38zM452,97h38v1h-38zM21,98h38v1h-38zM453,98h38v1h-38zM21,99h37v1h-37zM454,99h37v1h-37zM20,100h37v1h-37zM455,100h36v1h-36zM20,101h36v1h-36zM455,101h37v1h-37zM20,102h36v1h-36zM456,102h36v1h-36zM19,103h36v1h-36zM457,103h36v1h-36zM19,104h36v1h-36zM457,104h36v1h-36zM19,105h35v1h-35zM458,105h35v1h-35zM19,106h35v1h-35zM458,106h35v1h-35zM18,107h35v1h-35zM459,107h35v1h-35zM18,108h35v1h-35zM459,108h35v1h-35zM18,109h34v1h-34zM460,109h34v1h-34zM18,110h34v1h-34zM460,110h34v1h-34zM17,111h34v1h-34zM461,111h34v1h-34zM17,112h34v1h-34zM461,112h34v1h-34zM17,113h34v1h-34zM461,113h34v1h-34zM17,114h33v1h-33zM462,114h33v1h-33zM17,115h33v1h-33zM462,115h33v1h-33zM16,116h34v1h-34zM462,116h34v1h-34zM16,117h34v1h-34zM462,117h34v1h-34zM16,118h33v1h-33zM463,118h33v1h-33zM16,119h33v1h-33zM463,119h33v1h-33zM16,120h33v1h-33zM463,120h33v1h-33zM16,121h33v1h-33zM463,121h33v1h-33zM16,122h33v1h-33zM463,122h33v1h-33zM16,123h33v1h-33zM463,123h33v1h-33zM16,124h33v1h-33zM463,124h33v1h-33zM16,125h32v1h-32zM464,125h32v1h-32zM16,126h32v1h-32zM464,126h32v1h-32zM16,127h32v1h-32zM464,127h32v1h-32zM16,128h32v1h-32zM216,128h14v1h-14zM464,128h32v1h-32zM16,129h32v1h-32zM213,129h21v1h-21zM464,129h32v1h-32zM16,130h32v1h-32zM211,130h25v1h-25zM464,130h32v1h-32zM16,131h32v1h-32zM208,131h30v1h-30zM464,131h32v1h-32zM16,132h32v1h-32zM207,132h32v1h-32zM464,132h32v1h-32zM16,133h32v1h-32zM205,133h36v1h-36zM464,133h32v1h-32zM16,134h32v1h-32zM204,134h39v1h-39zM464,134h32v1h-32zM16,135h32v1h-32zM203,135h41v1h-41zM464,135h32v1h-32zM16,136h32v1h-32zM202,136h44v1h-44zM464,136h32v1h-32zM16,137h32v1h-32zM201,137h47v1h-47zM464,137h32v1h-32zM16,138h32v1h-32zM200,138h49v1h-49zM464,138h32v1h-32zM16,139h32v1h-32zM199,139h52v1h-52zM464,139h32v1h-32zM16,140h32v1h-32zM198,140h55v1h-55zM464,140h32v1h-32zM16,141h32v1h-32zM197,141h57v1h-57zM464,141h32v1h-32zM16,142h32v1h-32zM197,142h59v1h-59zM464,142h32v1h-32zM16,143h32v1h-32zM196,143h62v1h-62zM464,143h32v1h-32zM16,144h32v1h-32zM196,144h63v1h-63zM464,144h32v1h-32zM16,145h32v1h-32zM195,145h66v1h-66zM464,145h32v1h-32zM16,146h32v1h-32zM195,146h68v1h-68zM464,146h32v1h-32zM16,147h32v1h-32zM194,147h70v1h-70zM464,147h32v1h-32zM16,148h32v1h-32zM194,148h72v1h-72zM464,148h32v1h-32zM16,149h32v1h-32zM193,149h75v1h-75zM464,149h32v1h-32zM16,150h32v1h-32zM193,150h76v1h-76zM464,150h32v1h-32zM16,151h32v1h-32zM193,151h78v1h-78zM464,151h32v1h-32zM16,152h32v1h-32zM193,152h80v1h-80zM464,152h32v1h-32zM16,153h32v1h-32zM192,153h82v1h-82zM464,153h32v1h-32zM16,154h32v1h-32zM192,154h84v1h-84zM464,154h32v1h-32zM16,155h32v1h-32zM192,155h86v1h-86zM464,155h32v1h-32zM16,156h32v1h-32zM192,156h87v1h-87zM464,156h32v1h-32zM16,157h32v1h-32zM192,157h89v1h-89zM464,157h32v1h-32zM16,158h32v1h-32zM192,158h91v1h-91zM464,158h32v1h-32zM16,159h32v1h-32zM192,159h92v1h-92zM464,159h32v1h-32zM16,160h32v1h-32zM192,160h94v1h-94zM464,160h32v1h-32zM16,161h32v1h-32zM192,161h96v1h-96zM464,161h32v1h-32zM16,162h32v1h-32zM192,162h97v1h-97zM464,162h32v1h-32zM16,163h32v1h-32zM192,163h99v1h-99zM464,163h32v1h-32zM16,164h32v1h-32zM192,164h32v1h-32zM229,164h64v1h-64zM464,164h32v1h-32zM16,165h32v1h-32zM192,165h32v1h-32zM231,165h63v1h-63zM464,165h32v1h-32zM16,166h32v1h-32zM192,166h32v1h-32zM232,166h64v1h-64zM464,166h32v1h-32zM16,167h32v1h-32zM192,167h32v1h-32zM234,167h64v1h-64zM464,167h32v1h-32zM16,168h32v1h-32zM192,168h32v1h-32zM236,168h63v1h-63zM464,168h32v1h-32zM16,169h32v1h-32zM192,169h32v1h-32zM237,169h64v1h-64zM464,169h32v1h-32zM16,170h32v1h-32zM192,170h32v1h-32zM239,170h64v1h-64zM464,170h32v1h-32zM16,171h32v1h-32zM192,171h32v1h-32zM241,171h63v1h-63zM464,171h32v1h-32zM16,172h32v1h-32zM192,172h32v1h-32zM242,172h64v1h-64zM464,172h32v1h-32zM16,173h32v1h-32zM192,173h32v1h-32zM244,173h64v1h-64zM464,173h32v1h-32zM16,174h32v1h-32zM192,174h32v1h-32zM246,174h63v1h-63zM464,174h32v1h-32zM16,175h32v1h-32zM192,175h32v1h-32zM247,175h64v1h-64zM464,175h32v1h-32zM16,176h32v1h-32zM192,176h32v1h-32zM249,176h64v1h-64zM464,176h32v1h-32zM16,177h32v1h-32zM192,177h32v1h-32zM251,177h63v1h-63zM464,177h32v1h-32zM16,178h32v1h-32zM192,178h32v1h-32zM252,178h64v1h-64zM464,178h32v1h-32zM16,179h32v1h-32zM192,179h32v1h-32zM254,179h64v1h-64zM464,179h32v1h-32zM16,180h32v1h-32zM192,180h32v1h-32zM256,180h63v1h-63zM464,180h32v1h-32zM16,181h32v1h-32zM192,181h32v1h-32zM257,181h64v1h-64zM464,181h32v1h-32zM16,182h32v1h-32zM192,182h32v1h-32zM259,182h63v1h-63zM464,182h32v1h-32zM16,183h32v1h-32zM192,183h32v1h-32zM261,183h63v1h-63zM464,183h32v1h-32zM16,184h32v1h-32zM192,184h32v1h-32zM262,184h63v1h-63zM464,184h32v1h-32zM16,185h32v1h-32zM192,185h32v1h-32zM264,185h62v1h-62zM464,185h32v1h-32zM16,186h32v1h-32zM192,186h32v1h-32zM266,186h61v1h-61zM464,186h32v1h-32zM16,187h32v1h-32zM192,187h32v1h-32zM267,187h61v1h-61zM464,187h32v1h-32zM16,188h32v1h-32zM192,188h32v1h-32zM269,188h60v1h-60zM464,188h32v1h-32zM16,189h32v1h-32zM192,189h32v1h-32zM271,189h58v1h-58zM464,189h32v1h-32zM16,190h32v1h-32zM192,190h32v1h-32zM272,190h58v1h-58zM464,190h32v1h-32zM16,191h32v1h-32zM192,191h32v1h-32zM274,191h57v1h-57zM464,191h32v1h-32zM16,192h32v1h-32zM192,192h32v1h-32zM276,192h55v1h-55zM464,192h32v1h-32zM16,193h32v1h-32zM192,193h32v1h-32zM277,193h55v1h-55zM464,193h32v1h-32zM16,194h32v1h-32zM192,194h32v1h-32zM279,194h53v1h-53zM464,194h32v1h-32zM16,195h32v1h-32zM192,195h32v1h-32zM281,195h52v1h-52zM464,195h32v1h-32zM16,196h32v1h-32zM192,196h32v1h-32zM282,196h51v1h-51zM464,196h32v1h-32zM16,197h32v1h-32zM192,197h32v1h-32zM284,197h50v1h-50zM464,197h32v1h-32zM16,198h32v1h-32zM192,198h32v1h-32zM286,198h48v1h-48zM464,198h32v1h-32zM16,199h32v1h-32zM192,199h32v1h-32zM287,199h47v1h-47zM464,199h32v1h-32zM16,200h32v1h-32zM192,200h32v1h-32zM289,200h46v1h-46zM464,200h32v1h-32zM16,201h32v1h-32zM192,201h32v1h-32zM291,201h44v1h-44zM464,201h32v1h-32zM16,202h32v1h-32zM192,202h32v1h-32zM292,202h43v1h-43zM464,202h32v1h-32zM16,203h32v1h-32zM192,203h32v1h-32zM294,203h41v1h-41zM464,203h32v1h-32zM16,204h32v1h-32zM192,204h32v1h-32zM296,204h39v1h-39zM464,204h32v1h-32zM16,205h32v1h-32zM192,205h32v1h-32zM297,205h38v1h-38zM464,205h32v1h-32zM16,206h32v1h-32zM192,206h32v1h-32zM297,206h38v1h-38zM464,206h32v1h-32zM16,207h32v1h-32zM192,207h32v1h-32zM297,207h39v1h-39zM464,207h32v1h-32zM16,208h32v1h-32zM192,208h32v1h-32zM297,208h39v1h-39zM464,208h32v1h-32zM16,209h32v1h-32zM192,209h32v1h-32zM297,209h38v1h-38zM464,209h32v1h-32zM16,210h32v1h-32zM192,210h32v1h-32zM297,210h38v1h-38zM464,210h32v1h-32zM16,211h32v1h-32zM192,211h32v1h-32zM296,211h39v1h-39zM464,211h32v1h-32zM16,212h32v1h-32zM192,212h32v1h-32zM294,212h41v1h-41zM464,212h32v1h-32zM16,213h32v1h-32zM192,213h32v1h-32zM292,213h43v1h-43zM464,213h32v1h-32zM16,214h32v1h-32zM192,214h32v1h-32zM291,214h44v1h-44zM464,214h32v1h-32zM16,215h32v1h-32zM192,215h32v1h-32zM289,215h46v1h-46zM464,215h32v1h-32zM16,216h32v1h-32zM192,216h32v1h-32zM287,216h47v1h-47zM464,216h32v1h-32zM16,217h32v1h-32zM192,217h32v1h-32zM286,217h48v1h-48zM464,217h32v1h-32zM16,218h32v1h-32zM192,218h32v1h-32zM284,218h50v1h-50zM464,218h32v1h-32zM16,219h32v1h-32zM192,219h32v1h-32zM282,219h51v1h-51zM464,219h32v1h-32zM16,220h32v1h-32zM192,220h32v1h-32zM281,220h52v1h-52zM464,220h32v1h-32zM16,221h32v1h-32zM192,221h32v1h-32zM279,221h53v1h-53zM464,221h32v1h-32zM16,222h32v1h-32zM192,222h32v1h-32zM277,222h55v1h-55zM464,222h32v1h-32zM16,223h32v1h-32zM192,223h32v1h-32zM276,223h55v1h-55zM464,223h32v1h-32zM16,224h32v1h-32zM192,224h32v1h-32zM274,224h57v1h-57zM464,224h32v1h-32zM16,225h32v1h-32zM192,225h32v1h-32zM272,225h58v1h-58zM464,225h32v1h-32zM16,226h32v1h-32zM192,226h32v1h-32zM271,226h58v1h-58zM464,226h32v1h-32zM16,227h32v1h-32zM192,227h32v1h-32zM269,227h60v1h-60zM464,227h32v1h-32zM16,228h32v1h-32zM192,228h32v1h-32zM267,228h61v1h-61zM464,228h32v1h-32zM16,229h32v1h-32zM192,229h32v1h-32zM266,229h61v1h-61zM464,229h32v1h-32zM16,230h32v1h-32zM192,230h32v1h-32zM264,230h62v1h-62zM464,230h32v1h-32zM16,231h32v1h-32zM192,231h32v1h-32zM262,231h63v1h-63zM464,231h32v1h-32zM16,232h32v1h-32zM192,232h32v1h-32zM261,232h63v1h-63zM464,232h32v1h-32zM16,233h32v1h-32zM192,233h32v1h-32zM259,233h63v1h-63zM464,233h32v1h-32zM16,234h32v1h-32zM192,234h32v1h-32zM257,234h64v1h-64zM464,234h32v1h-32zM16,235h32v1h-32zM192,235h32v1h-32zM256,235h63v1h-63zM464,235h32v1h-32zM16,236h32v1h-32zM192,236h32v1h-32zM254,236h64v1h-64zM464,236h32v1h-32zM16,237h32v1h-32zM192,237h32v1h-32zM252,237h64v1h-64zM464,237h32v1h-32zM16,238h32v1h-32zM192,238h32v1h-32zM251,238h63v1h-63zM464,238h32v1h-32zM16,239h32v1h-32zM192,239h32v1h-32zM249,239h64v1h-64zM464,239h32v1h-32zM16,240h32v1h-32zM192,240h32v1h-32zM247,240h64v1h-64zM464,240h32v1h-32zM16,241h32v1h-32zM192,241h32v1h-32zM246,241h63v1h-63zM464,241h32v1h-32zM16,242h32v1h-32zM192,242h32v1h-32zM244,242h64v1h-64zM464,242h32v1h-32zM16,243h32v1h-32zM192,243h32v1h-32zM242,243h64v1h-64zM464,243h32v1h-32zM16,244h32v1h-32zM192,244h32v1h-32zM241,244h63v1h-63zM464,244h32v1h-32zM16,245h32v1h-32zM192,245h32v1h-32zM239,245h64v1h-64zM464,245h32v1h-32zM16,246h32v1h-32zM192,246h32v1h-32zM237,246h64v1h-64zM464,246h32v1h-32zM16,247h32v1h-32zM192,247h32v1h-32zM236,247h63v1h-63zM464,247h32v1h-32zM16,248h32v1h-32zM192,248h32v1h-32zM234,248h64v1h-64zM464,248h32v1h-32zM16,249h32v1h-32zM192,249h32v1h-32zM232,249h64v1h-64zM464,249h32v1h-32zM16,250h32v1h-32zM192,250h32v1h-32zM231,250h63v1h-63zM464,250h32v1h-32zM16,251h32v1h-32zM192,251h32v1h-32zM229,251h64v1h-64zM464,251h32v1h-32zM16,252h32v1h-32zM192,252h99v1h-99zM464,252h32v1h-32zM16,253h32v1h-32zM192,253h97v1h-97zM464,253h32v1h-32zM16,254h32v1h-32zM192,254h96v1h-96zM464,254h32v1h-32zM16,255h32v1h-32zM192,255h94v1h-94zM464,255h32v1h-32zM16,256h32v1h-32zM192,256h92v1h-92zM464,256h32v1h-32zM16,257h32v1h-32zM192,257h91v1h-91zM464,257h32v1h-32zM16,258h32v1h-32zM192,258h89v1h-89zM464,258h32v1h-32zM16,259h32v1h-32zM192,259h87v1h-87zM464,259h32v1h-32zM16,260h32v1h-32zM192,260h86v1h-86zM464,260h32v1h-32zM16,261h32v1h-32zM192,261h84v1h-84zM464,261h32v1h-32zM16,262h32v1h-32zM192,262h82v1h-82zM464,262h32v1h-32zM16,263h32v1h-32zM193,263h80v1h-80zM464,263h32v1h-32zM16,264h32v1h-32zM193,264h78v1h-78zM464,264h32v1h-32zM16,265h32v1h-32zM193,265h76v1h-76zM464,265h32v1h-32zM16,266h32v1h-32zM194,266h74v1h-74zM464,266h32v1h-32zM16,267h32v1h-32zM194,267h72v1h-72zM464,267h32v1h-32zM16,268h32v1h-32zM194,268h70v1h-70zM464,268h32v1h-32zM16,269h32v1h-32zM195,269h68v1h-68zM464,269h32v1h-32zM16,270h32v1h-32zM196,270h65v1h-65zM464,270h32v1h-32zM16,271h32v1h-32zM196,271h63v1h-63zM464,271h32v1h-32zM16,272h32v1h-32zM197,272h61v1h-61zM464,272h32v1h-32zM16,273h32v1h-32zM197,273h59v1h-59zM464,273h32v1h-32zM16,274h32v1h-32zM198,274h56v1h-56zM464,274h32v1h-32zM16,275h32v1h-32zM199,275h54v1h-54zM464,275h32v1h-32zM16,276h32v1h-32zM200,276h51v1h-51zM464,276h32v1h-32zM16,277h32v1h-32zM201,277h48v1h-48zM464,277h32v1h-32zM16,278h32v1h-32zM202,278h46v1h-46zM464,278h32v1h-32zM16,279h32v1h-32zM203,279h43v1h-43zM464,279h32v1h-32zM16,280h32v1h-32zM204,280h40v1h-40zM464,280h32v1h-32zM16,281h32v1h-32zM206,281h37v1h-37zM464,281h32v1h-32zM16,282h32v1h-32zM207,282h34v1h-34zM464,282h32v1h-32zM16,283h32v1h-32zM209,283h30v1h-30zM464,283h32v1h-32zM16,284h32v1h-32zM211,284h26v1h-26zM464,284h32v1h-32zM16,285h32v1h-32zM213,285h22v1h-22zM464,285h32v1h-32zM16,286h32v1h-32zM217,286h15v1h-15zM464,286h32v1h-32zM16,287h32v1h-32zM464,287h32v1h-32zM16,288h32v1h-32zM464,288h32v1h-32zM16,289h32v1h-32zM464,289h32v1h-32zM16,290h32v1h-32zM464,290h32v1h-32zM16,291h33v1h-33zM463,291h33v1h-33zM16,292h33v1h-33zM463,292h33v1h-33zM16,293h33v1h-33zM463,293h33v1h-33zM16,294h33v1h-33zM463,294h33v1h-33zM16,295h33v1h-33zM463,295h33v1h-33zM16,296h33v1h-33zM463,296h33v1h-33zM16,297h33v1h-33zM463,297h33v1h-33zM16,298h34v1h-34zM462,298h34v1h-34zM16,299h34v1h-34zM462,299h34v1h-34zM17,300h33v1h-33zM462,300h33v1h-33zM17,301h33v1h-33zM462,301h33v1h-33zM17,302h34v1h-34zM461,302h34v1h-34zM17,303h34v1h-34zM461,303h34v1h-34zM17,304h34v1h-34zM461,304h34v1h-34zM18,305h34v1h-34zM460,305h34v1h-34zM18,306h34v1h-34zM460,306h34v1h-34zM18,307h35v1h-35zM459,307h35v1h-35zM18,308h35v1h-35zM459,308h35v1h-35zM19,309h35v1h-35zM458,309h35v1h-35zM19,310h35v1h-35zM458,310h35v1h-35zM19,311h36v1h-36zM457,311h36v1h-36zM19,312h36v1h-36zM457,312h36v1h-36zM20,313h36v1h-36zM456,313h36v1h-36zM20,314h36v1h-36zM455,314h37v1h-37zM21,315h36v1h-36zM455,315h36v1h-36zM21,316h37v1h-37zM454,316h37v1h-37zM21,317h38v1h-38zM453,317h38v1h-38zM22,318h38v1h-38zM452,318h38v1h-38zM22,319h38v1h-38zM452,319h38v1h-38zM23,320h38v1h-38zM451,320h38v1h-38zM23,321h39v1h-39zM450,321h39v1h-39zM24,322h39v1h-39zM449,322h40v1h-40zM24,323h40v1h-40zM448,323h40v1h-40zM25,324h41v1h-41zM446,324h42v1h-42zM25,325h42v1h-42zM445,325h42v1h-42zM26,326h42v1h-42zM444,326h42v1h-42zM26,327h44v1h-44zM442,327h44v1h-44zM27,328h44v1h-44zM441,328h44v1h-44zM27,329h46v1h-46zM439,329h46v1h-46zM28,330h47v1h-47zM437,330h47v1h-47zM29,331h48v1h-48zM435,331h48v1h-48zM29,332h50v1h-50zM433,332h50v1h-50zM30,333h52v1h-52zM430,333h52v1h-52zM31,334h55v1h-55zM426,334h55v1h-55zM31,335h62v1h-62zM419,335h62v1h-62zM32,336h448v1h-448zM33,337h446v1h-446zM34,338h444v1h-444zM34,339h444v1h-444zM35,340h442v1h-442zM36,341h440v1h-440zM37,342h438v1h-438zM38,343h436v1h-436zM39,344h434v1h-434zM40,345h432v1h-432zM41,346h430v1h-430zM42,347h428v1h-428zM43,348h426v1h-426zM44,349h424v1h-424zM46,350h420v1h-420zM47,351h418v1h-418zM48,352h416v1h-416zM50,353h412v1h-412zM51,354h410v1h-410zM53,355h406v1h-406zM54,356h404v1h-404zM56,357h400v1h-400zM58,358h396v1h-396zM59,359h394v1h-394zM61,360h390v1h-390zM64,361h384v1h-384zM66,362h380v1h-380zM69,363h374v1h-374zM71,364h370v1h-370zM75,365h362v1h-362zM79,366h354v1h-354zM84,367h344v1h-344zM135,384h18v1h-18zM131,385h26v1h-26zM128,386h32v1h-32zM125,387h38v1h-38zM123,388h42v1h-42zM121,389h46v1h-46zM119,390h50v1h-50zM118,391h52v1h-52zM116,392h56v1h-56zM115,393h58v1h-58zM113,394h62v1h-62zM112,395h64v1h-64zM111,396h66v1h-66zM110,397h68v1h-68zM109,398h70v1h-70zM108,399h72v1h-72zM107,400h74v1h-74zM106,401h76v1h-76zM106,402h76v1h-76zM105,403h78v1h-78zM104,404h80v1h-80zM104,405h80v1h-80zM103,406h82v1h-82zM102,407h84v1h-84zM102,408h84v1h-84zM101,409h86v1h-86zM101,410h86v1h-86zM100,411h88v1h-88zM100,412h88v1h-88zM99,413h90v1h-90zM99,414h90v1h-90zM99,415h90v1h-90zM43,416h426v1h-426zM40,417h98v1h-98zM150,417h322v1h-322zM39,418h97v1h-97zM152,418h321v1h-321zM37,419h98v1h-98zM153,419h322v1h-322zM36,420h97v1h-97zM155,420h321v1h-321zM35,421h97v1h-97zM156,421h321v1h-321zM35,422h97v1h-97zM156,422h321v1h-321zM34,423h97v1h-97zM157,423h321v1h-321zM33,424h97v1h-97zM158,424h321v1h-321zM33,425h97v1h-97zM158,425h321v1h-321zM33,426h96v1h-96zM159,426h320v1h-320zM32,427h97v1h-97zM159,427h321v1h-321zM32,428h97v1h-97zM159,428h321v1h-321zM32,429h97v1h-97zM159,429h321v1h-321zM32,430h97v1h-97zM159,430h321v1h-321zM32,431h97v1h-97zM159,431h321v1h-321zM32,432h97v1h-97zM159,432h321v1h-321zM32,433h97v1h-97zM159,433h321v1h-321zM32,434h97v1h-97zM159,434h321v1h-321zM32,435h97v1h-97zM159,435h321v1h-321zM32,436h97v1h-97zM159,436h321v1h-321zM33,437h96v1h-96zM159,437h320v1h-320zM33,438h97v1h-97zM158,438h321v1h-321zM33,439h97v1h-97zM158,439h321v1h-321zM34,440h97v1h-97zM157,440h321v1h-321zM35,441h97v1h-97zM156,441h321v1h-321zM35,442h97v1h-97zM156,442h321v1h-321zM36,443h97v1h-97zM155,443h321v1h-321zM37,444h98v1h-98zM153,444h322v1h-322zM39,445h97v1h-97zM152,445h321v1h-321zM40,446h98v1h-98zM150,446h322v1h-322zM43,447h426v1h-426zM99,448h90v1h-90zM99,449h90v1h-90zM99,450h90v1h-90zM100,451h88v1h-88zM100,452h88v1h-88zM101,453h86v1h-86zM101,454h86v1h-86zM102,455h84v1h-84zM102,456h84v1h-84zM103,457h82v1h-82zM104,458h80v1h-80zM104,459h80v1h-80zM105,460h78v1h-78zM106,461h76v1h-76zM106,462h76v1h-76zM107,463h74v1h-74zM108,464h72v1h-72zM109,465h70v1h-70zM110,466h68v1h-68zM111,467h66v1h-66zM112,468h64v1h-64zM113,469h62v1h-62zM115,470h58v1h-58zM116,471h56v1h-56zM118,472h52v1h-52zM119,473h50v1h-50zM121,474h46v1h-46zM123,475h42v1h-42zM125,476h38v1h-38zM128,477h32v1h-32zM131,478h26v1h-26zM135,479h18v1h-18z"/></svg>